# Tiled2Unity generated file. Do not modify by hand.
# Wavefront file for 'testmap_mesh_0006.obj'

# Vertices (Count = 48)
v -3 -4 0
v -4 -4 0
v -4 -3 0
v -3 -3 0
v -4 -4 0
v -5 -4 0
v -5 -3 0
v -4 -3 0
v -3 -5 0
v -4 -5 0
v -4 -4 0
v -3 -4 0
v -4 -5 0
v -5 -5 0
v -5 -4 0
v -4 -4 0
v -37 -22 0
v -38 -22 0
v -38 -21 0
v -37 -21 0
v -39 -22 0
v -40 -22 0
v -40 -21 0
v -39 -21 0
v -37 -23 0
v -38 -23 0
v -38 -22 0
v -37 -22 0
v -39 -23 0
v -40 -23 0
v -40 -22 0
v -39 -22 0
v -16 -33 0
v -17 -33 0
v -17 -32 0
v -16 -32 0
v -17 -33 0
v -18 -33 0
v -18 -32 0
v -17 -32 0
v -18 -33 0
v -19 -33 0
v -19 -32 0
v -18 -32 0
v -19 -33 0
v -20 -33 0
v -20 -32 0
v -19 -32 0

# Texture cooridinates (Count = 18)
vt 0.4375 1
vt 0.4375 0.9375
vt 0.5 0.9375
vt 0.5 1
vt 0.4375 0.875
vt 0.5 0.875
vt 0.375 1
vt 0.375 0.9375
vt 0.375 0.875
vt 0.25 0.9375
vt 0.3125 0.9375
vt 0.3125 1
vt 0.25 1
vt 0.1875 0.9375
vt 0.1875 1
vt 0.25 0.875
vt 0.3125 0.875
vt 0.1875 0.875

# Normal
vn 0 0 -1

# Mesh description
g testmap_mesh_0006

# Faces
f 1/1/1 2/2/1 3/3/1 4/4/1
f 5/2/1 6/5/1 7/6/1 8/3/1
f 9/7/1 10/8/1 11/2/1 12/1/1
f 13/8/1 14/9/1 15/5/1 16/2/1
f 17/10/1 18/11/1 19/12/1 20/13/1
f 21/14/1 22/10/1 23/13/1 24/15/1
f 25/16/1 26/17/1 27/11/1 28/10/1
f 29/18/1 30/16/1 31/10/1 32/14/1
f 33/17/1 34/11/1 35/8/1 36/9/1
f 37/11/1 38/12/1 39/7/1 40/8/1
f 41/17/1 42/11/1 43/8/1 44/9/1
f 45/11/1 46/12/1 47/7/1 48/8/1

