# Tiled2Unity generated file. Do not modify by hand.
# Wavefront file for 'escaperework_mesh_0010.obj'

# Vertices (Count = 40)
v -40 -36 0
v -41 -36 0
v -41 -35 0
v -40 -35 0
v -41 -36 0
v -42 -36 0
v -42 -35 0
v -41 -35 0
v -42 -36 0
v -43 -36 0
v -43 -35 0
v -42 -35 0
v -43 -36 0
v -44 -36 0
v -44 -35 0
v -43 -35 0
v -44 -36 0
v -45 -36 0
v -45 -35 0
v -44 -35 0
v -40 -38 0
v -41 -38 0
v -41 -37 0
v -40 -37 0
v -41 -38 0
v -42 -38 0
v -42 -37 0
v -41 -37 0
v -42 -38 0
v -43 -38 0
v -43 -37 0
v -42 -37 0
v -43 -38 0
v -44 -38 0
v -44 -37 0
v -43 -37 0
v -44 -38 0
v -45 -38 0
v -45 -37 0
v -44 -37 0

# Texture cooridinates (Count = 10)
vt 0.59375 1
vt 0.5625 1
vt 0.5625 0.96875
vt 0.59375 0.96875
vt 0.5 0.96875
vt 0.53125 0.96875
vt 0.53125 1
vt 0.5 1
vt 0.46875 0.96875
vt 0.46875 1

# Normal
vn 0 0 -1

# Mesh description
g escaperework_mesh_0010

# Faces
f 1/1/1 2/2/1 3/3/1 4/4/1
f 5/5/1 6/6/1 7/7/1 8/8/1
f 9/9/1 10/5/1 11/8/1 12/10/1
f 13/9/1 14/5/1 15/8/1 16/10/1
f 17/5/1 18/6/1 19/7/1 20/8/1
f 21/1/1 22/2/1 23/3/1 24/4/1
f 25/5/1 26/6/1 27/7/1 28/8/1
f 29/9/1 30/5/1 31/8/1 32/10/1
f 33/9/1 34/5/1 35/8/1 36/10/1
f 37/5/1 38/6/1 39/7/1 40/8/1

