# Tiled2Unity generated file. Do not modify by hand.
# Wavefront file for 'escaperework_mesh_0007.obj'

# Vertices (Count = 604)
v -11 -33 0
v -12 -33 0
v -12 -32 0
v -11 -32 0
v -12 -33 0
v -13 -33 0
v -13 -32 0
v -12 -32 0
v -19 -33 0
v -20 -33 0
v -20 -32 0
v -19 -32 0
v -20 -33 0
v -21 -33 0
v -21 -32 0
v -20 -32 0
v -27 -33 0
v -28 -33 0
v -28 -32 0
v -27 -32 0
v -28 -33 0
v -29 -33 0
v -29 -32 0
v -28 -32 0
v -6 -34 0
v -7 -34 0
v -7 -33 0
v -6 -33 0
v -7 -34 0
v -8 -34 0
v -8 -33 0
v -7 -33 0
v -11 -34 0
v -12 -34 0
v -12 -33 0
v -11 -33 0
v -12 -34 0
v -13 -34 0
v -13 -33 0
v -12 -33 0
v -14 -34 0
v -15 -34 0
v -15 -33 0
v -14 -33 0
v -15 -34 0
v -16 -34 0
v -16 -33 0
v -15 -33 0
v -19 -34 0
v -20 -34 0
v -20 -33 0
v -19 -33 0
v -20 -34 0
v -21 -34 0
v -21 -33 0
v -20 -33 0
v -22 -34 0
v -23 -34 0
v -23 -33 0
v -22 -33 0
v -23 -34 0
v -24 -34 0
v -24 -33 0
v -23 -33 0
v -27 -34 0
v -28 -34 0
v -28 -33 0
v -27 -33 0
v -28 -34 0
v -29 -34 0
v -29 -33 0
v -28 -33 0
v -6 -35 0
v -7 -35 0
v -7 -34 0
v -6 -34 0
v -7 -35 0
v -8 -35 0
v -8 -34 0
v -7 -34 0
v -11 -35 0
v -12 -35 0
v -12 -34 0
v -11 -34 0
v -12 -35 0
v -13 -35 0
v -13 -34 0
v -12 -34 0
v -14 -35 0
v -15 -35 0
v -15 -34 0
v -14 -34 0
v -15 -35 0
v -16 -35 0
v -16 -34 0
v -15 -34 0
v -19 -35 0
v -20 -35 0
v -20 -34 0
v -19 -34 0
v -20 -35 0
v -21 -35 0
v -21 -34 0
v -20 -34 0
v -22 -35 0
v -23 -35 0
v -23 -34 0
v -22 -34 0
v -23 -35 0
v -24 -35 0
v -24 -34 0
v -23 -34 0
v -27 -35 0
v -28 -35 0
v -28 -34 0
v -27 -34 0
v -28 -35 0
v -29 -35 0
v -29 -34 0
v -28 -34 0
v -11 -36 0
v -12 -36 0
v -12 -35 0
v -11 -35 0
v -12 -36 0
v -13 -36 0
v -13 -35 0
v -12 -35 0
v -19 -36 0
v -20 -36 0
v -20 -35 0
v -19 -35 0
v -20 -36 0
v -21 -36 0
v -21 -35 0
v -20 -35 0
v -27 -36 0
v -28 -36 0
v -28 -35 0
v -27 -35 0
v -28 -36 0
v -29 -36 0
v -29 -35 0
v -28 -35 0
v -143 -37 0
v -144 -37 0
v -144 -36 0
v -143 -36 0
v -144 -37 0
v -145 -37 0
v -145 -36 0
v -144 -36 0
v -143 -38 0
v -144 -38 0
v -144 -37 0
v -143 -37 0
v -144 -38 0
v -145 -38 0
v -145 -37 0
v -144 -37 0
v -6 -39 0
v -7 -39 0
v -7 -38 0
v -6 -38 0
v -10 -39 0
v -11 -39 0
v -11 -38 0
v -10 -38 0
v -11 -39 0
v -12 -39 0
v -12 -38 0
v -11 -38 0
v -12 -39 0
v -13 -39 0
v -13 -38 0
v -12 -38 0
v -14 -39 0
v -15 -39 0
v -15 -38 0
v -14 -38 0
v -15 -39 0
v -16 -39 0
v -16 -38 0
v -15 -38 0
v -16 -39 0
v -17 -39 0
v -17 -38 0
v -16 -38 0
v -17 -39 0
v -18 -39 0
v -18 -38 0
v -17 -38 0
v -18 -39 0
v -19 -39 0
v -19 -38 0
v -18 -38 0
v -19 -39 0
v -20 -39 0
v -20 -38 0
v -19 -38 0
v -20 -39 0
v -21 -39 0
v -21 -38 0
v -20 -38 0
v -22 -39 0
v -23 -39 0
v -23 -38 0
v -22 -38 0
v -23 -39 0
v -24 -39 0
v -24 -38 0
v -23 -38 0
v -24 -39 0
v -25 -39 0
v -25 -38 0
v -24 -38 0
v -25 -39 0
v -26 -39 0
v -26 -38 0
v -25 -38 0
v -26 -39 0
v -27 -39 0
v -27 -38 0
v -26 -38 0
v -27 -39 0
v -28 -39 0
v -28 -38 0
v -27 -38 0
v -28 -39 0
v -29 -39 0
v -29 -38 0
v -28 -38 0
v -54 -39 0
v -55 -39 0
v -55 -38 0
v -54 -38 0
v -55 -39 0
v -56 -39 0
v -56 -38 0
v -55 -38 0
v -143 -39 0
v -144 -39 0
v -144 -38 0
v -143 -38 0
v -144 -39 0
v -145 -39 0
v -145 -38 0
v -144 -38 0
v -54 -40 0
v -55 -40 0
v -55 -39 0
v -54 -39 0
v -55 -40 0
v -56 -40 0
v -56 -39 0
v -55 -39 0
v -105 -40 0
v -106 -40 0
v -106 -39 0
v -105 -39 0
v -106 -40 0
v -107 -40 0
v -107 -39 0
v -106 -39 0
v -109 -40 0
v -110 -40 0
v -110 -39 0
v -109 -39 0
v -110 -40 0
v -111 -40 0
v -111 -39 0
v -110 -39 0
v -54 -41 0
v -55 -41 0
v -55 -40 0
v -54 -40 0
v -55 -41 0
v -56 -41 0
v -56 -40 0
v -55 -40 0
v -79 -41 0
v -80 -41 0
v -80 -40 0
v -79 -40 0
v -80 -41 0
v -81 -41 0
v -81 -40 0
v -80 -40 0
v -81 -41 0
v -82 -41 0
v -82 -40 0
v -81 -40 0
v -105 -41 0
v -106 -41 0
v -106 -40 0
v -105 -40 0
v -106 -41 0
v -107 -41 0
v -107 -40 0
v -106 -40 0
v -109 -41 0
v -110 -41 0
v -110 -40 0
v -109 -40 0
v -110 -41 0
v -111 -41 0
v -111 -40 0
v -110 -40 0
v -79 -42 0
v -80 -42 0
v -80 -41 0
v -79 -41 0
v -80 -42 0
v -81 -42 0
v -81 -41 0
v -80 -41 0
v -81 -42 0
v -82 -42 0
v -82 -41 0
v -81 -41 0
v -105 -42 0
v -106 -42 0
v -106 -41 0
v -105 -41 0
v -106 -42 0
v -107 -42 0
v -107 -41 0
v -106 -41 0
v -109 -42 0
v -110 -42 0
v -110 -41 0
v -109 -41 0
v -110 -42 0
v -111 -42 0
v -111 -41 0
v -110 -41 0
v -143 -42 0
v -144 -42 0
v -144 -41 0
v -143 -41 0
v -144 -42 0
v -145 -42 0
v -145 -41 0
v -144 -41 0
v -9 -43 0
v -10 -43 0
v -10 -42 0
v -9 -42 0
v -10 -43 0
v -11 -43 0
v -11 -42 0
v -10 -42 0
v -24 -43 0
v -25 -43 0
v -25 -42 0
v -24 -42 0
v -25 -43 0
v -26 -43 0
v -26 -42 0
v -25 -42 0
v -72 -43 0
v -73 -43 0
v -73 -42 0
v -72 -42 0
v -73 -43 0
v -74 -43 0
v -74 -42 0
v -73 -42 0
v -74 -43 0
v -75 -43 0
v -75 -42 0
v -74 -42 0
v -75 -43 0
v -76 -43 0
v -76 -42 0
v -75 -42 0
v -143 -43 0
v -144 -43 0
v -144 -42 0
v -143 -42 0
v -144 -43 0
v -145 -43 0
v -145 -42 0
v -144 -42 0
v -9 -44 0
v -10 -44 0
v -10 -43 0
v -9 -43 0
v -10 -44 0
v -11 -44 0
v -11 -43 0
v -10 -43 0
v -24 -44 0
v -25 -44 0
v -25 -43 0
v -24 -43 0
v -25 -44 0
v -26 -44 0
v -26 -43 0
v -25 -43 0
v -72 -44 0
v -73 -44 0
v -73 -43 0
v -72 -43 0
v -73 -44 0
v -74 -44 0
v -74 -43 0
v -73 -43 0
v -74 -44 0
v -75 -44 0
v -75 -43 0
v -74 -43 0
v -75 -44 0
v -76 -44 0
v -76 -43 0
v -75 -43 0
v -143 -44 0
v -144 -44 0
v -144 -43 0
v -143 -43 0
v -144 -44 0
v -145 -44 0
v -145 -43 0
v -144 -43 0
v -9 -45 0
v -10 -45 0
v -10 -44 0
v -9 -44 0
v -10 -45 0
v -11 -45 0
v -11 -44 0
v -10 -44 0
v -24 -45 0
v -25 -45 0
v -25 -44 0
v -24 -44 0
v -25 -45 0
v -26 -45 0
v -26 -44 0
v -25 -44 0
v -72 -45 0
v -73 -45 0
v -73 -44 0
v -72 -44 0
v -73 -45 0
v -74 -45 0
v -74 -44 0
v -73 -44 0
v -74 -45 0
v -75 -45 0
v -75 -44 0
v -74 -44 0
v -75 -45 0
v -76 -45 0
v -76 -44 0
v -75 -44 0
v -62 -54 0
v -63 -54 0
v -63 -53 0
v -62 -53 0
v -63 -54 0
v -64 -54 0
v -64 -53 0
v -63 -53 0
v -64 -54 0
v -65 -54 0
v -65 -53 0
v -64 -53 0
v -113 -54 0
v -114 -54 0
v -114 -53 0
v -113 -53 0
v -113 -55 0
v -114 -55 0
v -114 -54 0
v -113 -54 0
v -113 -56 0
v -114 -56 0
v -114 -55 0
v -113 -55 0
v -62 -57 0
v -63 -57 0
v -63 -56 0
v -62 -56 0
v -63 -57 0
v -64 -57 0
v -64 -56 0
v -63 -56 0
v -64 -57 0
v -65 -57 0
v -65 -56 0
v -64 -56 0
v -113 -57 0
v -114 -57 0
v -114 -56 0
v -113 -56 0
v -26 -65 0
v -27 -65 0
v -27 -64 0
v -26 -64 0
v -27 -65 0
v -28 -65 0
v -28 -64 0
v -27 -64 0
v -28 -65 0
v -29 -65 0
v -29 -64 0
v -28 -64 0
v -29 -65 0
v -30 -65 0
v -30 -64 0
v -29 -64 0
v -30 -65 0
v -31 -65 0
v -31 -64 0
v -30 -64 0
v -33 -66 0
v -34 -66 0
v -34 -65 0
v -33 -65 0
v -72 -66 0
v -73 -66 0
v -73 -65 0
v -72 -65 0
v -73 -66 0
v -74 -66 0
v -74 -65 0
v -73 -65 0
v -74 -66 0
v -75 -66 0
v -75 -65 0
v -74 -65 0
v -75 -66 0
v -76 -66 0
v -76 -65 0
v -75 -65 0
v -33 -67 0
v -34 -67 0
v -34 -66 0
v -33 -66 0
v -72 -67 0
v -73 -67 0
v -73 -66 0
v -72 -66 0
v -73 -67 0
v -74 -67 0
v -74 -66 0
v -73 -66 0
v -74 -67 0
v -75 -67 0
v -75 -66 0
v -74 -66 0
v -75 -67 0
v -76 -67 0
v -76 -66 0
v -75 -66 0
v -33 -68 0
v -34 -68 0
v -34 -67 0
v -33 -67 0
v -72 -68 0
v -73 -68 0
v -73 -67 0
v -72 -67 0
v -73 -68 0
v -74 -68 0
v -74 -67 0
v -73 -67 0
v -74 -68 0
v -75 -68 0
v -75 -67 0
v -74 -67 0
v -75 -68 0
v -76 -68 0
v -76 -67 0
v -75 -67 0
v -33 -69 0
v -34 -69 0
v -34 -68 0
v -33 -68 0
v -79 -69 0
v -80 -69 0
v -80 -68 0
v -79 -68 0
v -80 -69 0
v -81 -69 0
v -81 -68 0
v -80 -68 0
v -81 -69 0
v -82 -69 0
v -82 -68 0
v -81 -68 0
v -79 -70 0
v -80 -70 0
v -80 -69 0
v -79 -69 0
v -80 -70 0
v -81 -70 0
v -81 -69 0
v -80 -69 0
v -81 -70 0
v -82 -70 0
v -82 -69 0
v -81 -69 0

# Texture cooridinates (Count = 113)
vt 0 0.375
vt 0.03125 0.375
vt 0.03125 0.40625
vt 0 0.40625
vt 0.0625 0.375
vt 0.0625 0.40625
vt 0.71875 0.875
vt 0.75 0.875
vt 0.75 0.90625
vt 0.71875 0.90625
vt 0.78125 0.875
vt 0.78125 0.90625
vt 0 0.34375
vt 0.03125 0.34375
vt 0.0625 0.34375
vt 0.71875 0.84375
vt 0.75 0.84375
vt 0.78125 0.84375
vt 0 0.3125
vt 0.03125 0.3125
vt 0.0625 0.3125
vt 0 0.28125
vt 0.03125 0.28125
vt 0.0625 0.28125
vt 0.5 0.8125
vt 0.53125 0.8125
vt 0.53125 0.84375
vt 0.5 0.84375
vt 0.5625 0.8125
vt 0.5625 0.84375
vt 0.5 0.78125
vt 0.53125 0.78125
vt 0.5625 0.78125
vt 0.09375 0.4375
vt 0.125 0.4375
vt 0.125 0.46875
vt 0.09375 0.46875
vt 0.0625 0.4375
vt 0.0625 0.46875
vt 0.5 0.75
vt 0.53125 0.75
vt 0.5625 0.75
vt 0.25 0.8125
vt 0.28125 0.8125
vt 0.28125 0.84375
vt 0.25 0.84375
vt 0.3125 0.8125
vt 0.3125 0.84375
vt 0.1875 0.71875
vt 0.21875 0.71875
vt 0.21875 0.75
vt 0.1875 0.75
vt 0.25 0.71875
vt 0.25 0.75
vt 0.03125 0.75
vt 0.03125 0.71875
vt 0.0625 0.71875
vt 0.0625 0.75
vt 0.03125 0.6875
vt 0.0625 0.6875
vt 0.03125 0.65625
vt 0.0625 0.65625
vt 0.25 0.78125
vt 0.28125 0.78125
vt 0.3125 0.78125
vt 0.1875 0.6875
vt 0.21875 0.6875
vt 0.25 0.6875
vt 0 0.75
vt 0 0.71875
vt 0 0.6875
vt 0 0.65625
vt 0.28125 0.75
vt 0.3125 0.75
vt 0.1875 0.65625
vt 0.21875 0.65625
vt 0.25 0.65625
vt 0.0625 0.8125
vt 0.09375 0.8125
vt 0.09375 0.84375
vt 0.0625 0.84375
vt 0.125 0.8125
vt 0.125 0.84375
vt 0.15625 0.8125
vt 0.15625 0.84375
vt 0.1875 0.8125
vt 0.1875 0.84375
vt 0.0625 0.78125
vt 0.09375 0.78125
vt 0.125 0.78125
vt 0.15625 0.78125
vt 0.1875 0.78125
vt 0.09375 0.75
vt 0.125 0.75
vt 0.15625 0.75
vt 0.3125 0.875
vt 0.28125 0.875
vt 0.4375 0.84375
vt 0.4375 0.875
vt 0.40625 0.875
vt 0.40625 0.84375
vt 0.375 0.84375
vt 0.375 0.875
vt 0.46875 0.84375
vt 0.46875 0.875
vt 0.5 0.875
vt 0.53125 0.875
vt 0.5625 0.875
vt 0.21875 0.8125
vt 0.21875 0.84375
vt 0.59375 0.84375
vt 0.59375 0.875
vt 0.21875 0.78125

# Normal
vn 0 0 -1

# Mesh description
g escaperework_mesh_0007

# Faces
f 1/1/1 2/2/1 3/3/1 4/4/1
f 5/2/1 6/5/1 7/6/1 8/3/1
f 9/1/1 10/2/1 11/3/1 12/4/1
f 13/2/1 14/5/1 15/6/1 16/3/1
f 17/1/1 18/2/1 19/3/1 20/4/1
f 21/2/1 22/5/1 23/6/1 24/3/1
f 25/7/1 26/8/1 27/9/1 28/10/1
f 29/8/1 30/11/1 31/12/1 32/9/1
f 33/13/1 34/14/1 35/2/1 36/1/1
f 37/14/1 38/15/1 39/5/1 40/2/1
f 41/7/1 42/8/1 43/9/1 44/10/1
f 45/8/1 46/11/1 47/12/1 48/9/1
f 49/13/1 50/14/1 51/2/1 52/1/1
f 53/14/1 54/15/1 55/5/1 56/2/1
f 57/7/1 58/8/1 59/9/1 60/10/1
f 61/8/1 62/11/1 63/12/1 64/9/1
f 65/13/1 66/14/1 67/2/1 68/1/1
f 69/14/1 70/15/1 71/5/1 72/2/1
f 73/16/1 74/17/1 75/8/1 76/7/1
f 77/17/1 78/18/1 79/11/1 80/8/1
f 81/19/1 82/20/1 83/14/1 84/13/1
f 85/20/1 86/21/1 87/15/1 88/14/1
f 89/16/1 90/17/1 91/8/1 92/7/1
f 93/17/1 94/18/1 95/11/1 96/8/1
f 97/19/1 98/20/1 99/14/1 100/13/1
f 101/20/1 102/21/1 103/15/1 104/14/1
f 105/16/1 106/17/1 107/8/1 108/7/1
f 109/17/1 110/18/1 111/11/1 112/8/1
f 113/19/1 114/20/1 115/14/1 116/13/1
f 117/20/1 118/21/1 119/15/1 120/14/1
f 121/22/1 122/23/1 123/20/1 124/19/1
f 125/23/1 126/24/1 127/21/1 128/20/1
f 129/22/1 130/23/1 131/20/1 132/19/1
f 133/23/1 134/24/1 135/21/1 136/20/1
f 137/22/1 138/23/1 139/20/1 140/19/1
f 141/23/1 142/24/1 143/21/1 144/20/1
f 145/25/1 146/26/1 147/27/1 148/28/1
f 149/26/1 150/29/1 151/30/1 152/27/1
f 153/31/1 154/32/1 155/26/1 156/25/1
f 157/32/1 158/33/1 159/29/1 160/26/1
f 161/34/1 162/35/1 163/36/1 164/37/1
f 165/34/1 166/35/1 167/36/1 168/37/1
f 169/38/1 170/34/1 171/37/1 172/39/1
f 173/38/1 174/34/1 175/37/1 176/39/1
f 177/38/1 178/34/1 179/37/1 180/39/1
f 181/38/1 182/34/1 183/37/1 184/39/1
f 185/38/1 186/34/1 187/37/1 188/39/1
f 189/38/1 190/34/1 191/37/1 192/39/1
f 193/38/1 194/34/1 195/37/1 196/39/1
f 197/38/1 198/34/1 199/37/1 200/39/1
f 201/38/1 202/34/1 203/37/1 204/39/1
f 205/38/1 206/34/1 207/37/1 208/39/1
f 209/38/1 210/34/1 211/37/1 212/39/1
f 213/38/1 214/34/1 215/37/1 216/39/1
f 217/38/1 218/34/1 219/37/1 220/39/1
f 221/38/1 222/34/1 223/37/1 224/39/1
f 225/38/1 226/34/1 227/37/1 228/39/1
f 229/38/1 230/34/1 231/37/1 232/39/1
f 233/25/1 234/26/1 235/27/1 236/28/1
f 237/26/1 238/29/1 239/30/1 240/27/1
f 241/40/1 242/41/1 243/32/1 244/31/1
f 245/41/1 246/42/1 247/33/1 248/32/1
f 249/31/1 250/32/1 251/26/1 252/25/1
f 253/32/1 254/33/1 255/29/1 256/26/1
f 257/43/1 258/44/1 259/45/1 260/46/1
f 261/44/1 262/47/1 263/48/1 264/45/1
f 265/49/1 266/50/1 267/51/1 268/52/1
f 269/50/1 270/53/1 271/54/1 272/51/1
f 273/40/1 274/41/1 275/32/1 276/31/1
f 277/41/1 278/42/1 279/33/1 280/32/1
f 281/55/1 282/56/1 283/57/1 284/58/1
f 285/56/1 286/59/1 287/60/1 288/57/1
f 289/59/1 290/61/1 291/62/1 292/60/1
f 293/63/1 294/64/1 295/44/1 296/43/1
f 297/64/1 298/65/1 299/47/1 300/44/1
f 301/66/1 302/67/1 303/50/1 304/49/1
f 305/67/1 306/68/1 307/53/1 308/50/1
f 309/69/1 310/70/1 311/56/1 312/55/1
f 313/70/1 314/71/1 315/59/1 316/56/1
f 317/71/1 318/72/1 319/61/1 320/59/1
f 321/54/1 322/73/1 323/64/1 324/63/1
f 325/73/1 326/74/1 327/65/1 328/64/1
f 329/75/1 330/76/1 331/67/1 332/66/1
f 333/76/1 334/77/1 335/68/1 336/67/1
f 337/25/1 338/26/1 339/27/1 340/28/1
f 341/26/1 342/29/1 343/30/1 344/27/1
f 345/60/1 346/59/1 347/61/1 348/62/1
f 349/59/1 350/71/1 351/72/1 352/61/1
f 353/78/1 354/79/1 355/80/1 356/81/1
f 357/79/1 358/82/1 359/83/1 360/80/1
f 361/70/1 362/56/1 363/55/1 364/69/1
f 365/56/1 366/57/1 367/58/1 368/55/1
f 369/82/1 370/84/1 371/85/1 372/83/1
f 373/84/1 374/86/1 375/87/1 376/85/1
f 377/31/1 378/32/1 379/26/1 380/25/1
f 381/32/1 382/33/1 383/29/1 384/26/1
f 385/57/1 386/56/1 387/59/1 388/60/1
f 389/56/1 390/70/1 391/71/1 392/59/1
f 393/88/1 394/89/1 395/79/1 396/78/1
f 397/89/1 398/90/1 399/82/1 400/79/1
f 401/71/1 402/59/1 403/56/1 404/70/1
f 405/59/1 406/60/1 407/57/1 408/56/1
f 409/90/1 410/91/1 411/84/1 412/82/1
f 413/91/1 414/92/1 415/86/1 416/84/1
f 417/40/1 418/41/1 419/32/1 420/31/1
f 421/41/1 422/42/1 423/33/1 424/32/1
f 425/58/1 426/55/1 427/56/1 428/57/1
f 429/55/1 430/69/1 431/70/1 432/56/1
f 433/58/1 434/93/1 435/89/1 436/88/1
f 437/93/1 438/94/1 439/90/1 440/89/1
f 441/72/1 442/61/1 443/59/1 444/71/1
f 445/61/1 446/62/1 447/60/1 448/59/1
f 449/94/1 450/95/1 451/91/1 452/90/1
f 453/95/1 454/52/1 455/92/1 456/91/1
f 457/96/1 458/48/1 459/45/1 460/97/1
f 461/98/1 462/99/1 463/100/1 464/101/1
f 465/100/1 466/101/1 467/102/1 468/103/1
f 469/34/1 470/37/1 471/39/1 472/38/1
f 473/34/1 474/37/1 475/39/1 476/38/1
f 477/34/1 478/37/1 479/39/1 480/38/1
f 481/97/1 482/45/1 483/48/1 484/96/1
f 485/100/1 486/101/1 487/98/1 488/99/1
f 489/103/1 490/102/1 491/101/1 492/100/1
f 493/34/1 494/37/1 495/39/1 496/38/1
f 497/98/1 498/104/1 499/105/1 500/99/1
f 501/104/1 502/28/1 503/106/1 504/105/1
f 505/98/1 506/104/1 507/105/1 508/99/1
f 509/104/1 510/28/1 511/106/1 512/105/1
f 513/28/1 514/27/1 515/107/1 516/106/1
f 517/30/1 518/108/1 519/107/1 520/27/1
f 521/49/1 522/50/1 523/51/1 524/52/1
f 525/50/1 526/53/1 527/54/1 528/51/1
f 529/86/1 530/109/1 531/110/1 532/87/1
f 533/109/1 534/43/1 535/46/1 536/110/1
f 537/111/1 538/112/1 539/108/1 540/30/1
f 541/66/1 542/67/1 543/50/1 544/49/1
f 545/67/1 546/68/1 547/53/1 548/50/1
f 549/92/1 550/113/1 551/109/1 552/86/1
f 553/113/1 554/63/1 555/43/1 556/109/1
f 557/111/1 558/112/1 559/108/1 560/30/1
f 561/75/1 562/76/1 563/67/1 564/66/1
f 565/76/1 566/77/1 567/68/1 568/67/1
f 569/52/1 570/51/1 571/113/1 572/92/1
f 573/51/1 574/54/1 575/63/1 576/113/1
f 577/27/1 578/107/1 579/108/1 580/30/1
f 581/76/1 582/67/1 583/66/1 584/75/1
f 585/67/1 586/50/1 587/49/1 588/66/1
f 589/50/1 590/51/1 591/52/1 592/49/1
f 593/77/1 594/68/1 595/67/1 596/76/1
f 597/68/1 598/53/1 599/50/1 600/67/1
f 601/53/1 602/54/1 603/51/1 604/50/1

