# Tiled2Unity generated file. Do not modify by hand.
# Wavefront file for 'trapped2_mesh_0007.obj'

# Vertices (Count = 1012)
v -46 -9 0
v -47 -9 0
v -47 -8 0
v -46 -8 0
v -36 -13 0
v -37 -13 0
v -37 -12 0
v -36 -12 0
v -40 -13 0
v -41 -13 0
v -41 -12 0
v -40 -12 0
v -44 -13 0
v -45 -13 0
v -45 -12 0
v -44 -12 0
v -65 -13 0
v -66 -13 0
v -66 -12 0
v -65 -12 0
v -66 -13 0
v -67 -13 0
v -67 -12 0
v -66 -12 0
v -67 -13 0
v -68 -13 0
v -68 -12 0
v -67 -12 0
v -68 -13 0
v -69 -13 0
v -69 -12 0
v -68 -12 0
v -69 -13 0
v -70 -13 0
v -70 -12 0
v -69 -12 0
v -70 -13 0
v -71 -13 0
v -71 -12 0
v -70 -12 0
v -71 -13 0
v -72 -13 0
v -72 -12 0
v -71 -12 0
v -72 -13 0
v -73 -13 0
v -73 -12 0
v -72 -12 0
v -73 -13 0
v -74 -13 0
v -74 -12 0
v -73 -12 0
v -74 -13 0
v -75 -13 0
v -75 -12 0
v -74 -12 0
v -75 -13 0
v -76 -13 0
v -76 -12 0
v -75 -12 0
v -76 -13 0
v -77 -13 0
v -77 -12 0
v -76 -12 0
v -77 -13 0
v -78 -13 0
v -78 -12 0
v -77 -12 0
v -78 -13 0
v -79 -13 0
v -79 -12 0
v -78 -12 0
v -79 -13 0
v -80 -13 0
v -80 -12 0
v -79 -12 0
v -80 -13 0
v -81 -13 0
v -81 -12 0
v -80 -12 0
v -222 -13 0
v -223 -13 0
v -223 -12 0
v -222 -12 0
v -223 -13 0
v -224 -13 0
v -224 -12 0
v -223 -12 0
v -224 -13 0
v -225 -13 0
v -225 -12 0
v -224 -12 0
v -225 -13 0
v -226 -13 0
v -226 -12 0
v -225 -12 0
v -226 -13 0
v -227 -13 0
v -227 -12 0
v -226 -12 0
v -227 -13 0
v -228 -13 0
v -228 -12 0
v -227 -12 0
v -228 -13 0
v -229 -13 0
v -229 -12 0
v -228 -12 0
v -229 -13 0
v -230 -13 0
v -230 -12 0
v -229 -12 0
v -230 -13 0
v -231 -13 0
v -231 -12 0
v -230 -12 0
v -231 -13 0
v -232 -13 0
v -232 -12 0
v -231 -12 0
v -232 -13 0
v -233 -13 0
v -233 -12 0
v -232 -12 0
v -233 -13 0
v -234 -13 0
v -234 -12 0
v -233 -12 0
v -234 -13 0
v -235 -13 0
v -235 -12 0
v -234 -12 0
v -235 -13 0
v -236 -13 0
v -236 -12 0
v -235 -12 0
v -236 -13 0
v -237 -13 0
v -237 -12 0
v -236 -12 0
v -237 -13 0
v -238 -13 0
v -238 -12 0
v -237 -12 0
v -238 -13 0
v -239 -13 0
v -239 -12 0
v -238 -12 0
v -239 -13 0
v -240 -13 0
v -240 -12 0
v -239 -12 0
v -65 -14 0
v -66 -14 0
v -66 -13 0
v -65 -13 0
v -80 -14 0
v -81 -14 0
v -81 -13 0
v -80 -13 0
v -239 -14 0
v -240 -14 0
v -240 -13 0
v -239 -13 0
v -80 -15 0
v -81 -15 0
v -81 -14 0
v -80 -14 0
v -102 -15 0
v -103 -15 0
v -103 -14 0
v -102 -14 0
v -103 -15 0
v -104 -15 0
v -104 -14 0
v -103 -14 0
v -104 -15 0
v -105 -15 0
v -105 -14 0
v -104 -14 0
v -105 -15 0
v -106 -15 0
v -106 -14 0
v -105 -14 0
v -239 -15 0
v -240 -15 0
v -240 -14 0
v -239 -14 0
v -36 -16 0
v -37 -16 0
v -37 -15 0
v -36 -15 0
v -40 -16 0
v -41 -16 0
v -41 -15 0
v -40 -15 0
v -44 -16 0
v -45 -16 0
v -45 -15 0
v -44 -15 0
v -80 -16 0
v -81 -16 0
v -81 -15 0
v -80 -15 0
v -239 -16 0
v -240 -16 0
v -240 -15 0
v -239 -15 0
v -80 -17 0
v -81 -17 0
v -81 -16 0
v -80 -16 0
v -239 -17 0
v -240 -17 0
v -240 -16 0
v -239 -16 0
v -65 -18 0
v -66 -18 0
v -66 -17 0
v -65 -17 0
v -80 -18 0
v -81 -18 0
v -81 -17 0
v -80 -17 0
v -199 -18 0
v -200 -18 0
v -200 -17 0
v -199 -17 0
v -239 -18 0
v -240 -18 0
v -240 -17 0
v -239 -17 0
v -65 -19 0
v -66 -19 0
v -66 -18 0
v -65 -18 0
v -80 -19 0
v -81 -19 0
v -81 -18 0
v -80 -18 0
v -184 -19 0
v -185 -19 0
v -185 -18 0
v -184 -18 0
v -239 -19 0
v -240 -19 0
v -240 -18 0
v -239 -18 0
v -80 -20 0
v -81 -20 0
v -81 -19 0
v -80 -19 0
v -198 -20 0
v -199 -20 0
v -199 -19 0
v -198 -19 0
v -239 -20 0
v -240 -20 0
v -240 -19 0
v -239 -19 0
v -80 -21 0
v -81 -21 0
v -81 -20 0
v -80 -20 0
v -239 -21 0
v -240 -21 0
v -240 -20 0
v -239 -20 0
v -80 -22 0
v -81 -22 0
v -81 -21 0
v -80 -21 0
v -140 -22 0
v -141 -22 0
v -141 -21 0
v -140 -21 0
v -147 -22 0
v -148 -22 0
v -148 -21 0
v -147 -21 0
v -239 -22 0
v -240 -22 0
v -240 -21 0
v -239 -21 0
v -65 -23 0
v -66 -23 0
v -66 -22 0
v -65 -22 0
v -80 -23 0
v -81 -23 0
v -81 -22 0
v -80 -22 0
v -222 -23 0
v -223 -23 0
v -223 -22 0
v -222 -22 0
v -223 -23 0
v -224 -23 0
v -224 -22 0
v -223 -22 0
v -224 -23 0
v -225 -23 0
v -225 -22 0
v -224 -22 0
v -225 -23 0
v -226 -23 0
v -226 -22 0
v -225 -22 0
v -226 -23 0
v -227 -23 0
v -227 -22 0
v -226 -22 0
v -227 -23 0
v -228 -23 0
v -228 -22 0
v -227 -22 0
v -228 -23 0
v -229 -23 0
v -229 -22 0
v -228 -22 0
v -229 -23 0
v -230 -23 0
v -230 -22 0
v -229 -22 0
v -230 -23 0
v -231 -23 0
v -231 -22 0
v -230 -22 0
v -231 -23 0
v -232 -23 0
v -232 -22 0
v -231 -22 0
v -232 -23 0
v -233 -23 0
v -233 -22 0
v -232 -22 0
v -233 -23 0
v -234 -23 0
v -234 -22 0
v -233 -22 0
v -234 -23 0
v -235 -23 0
v -235 -22 0
v -234 -22 0
v -235 -23 0
v -236 -23 0
v -236 -22 0
v -235 -22 0
v -236 -23 0
v -237 -23 0
v -237 -22 0
v -236 -22 0
v -237 -23 0
v -238 -23 0
v -238 -22 0
v -237 -22 0
v -238 -23 0
v -239 -23 0
v -239 -22 0
v -238 -22 0
v -239 -23 0
v -240 -23 0
v -240 -22 0
v -239 -22 0
v -65 -24 0
v -66 -24 0
v -66 -23 0
v -65 -23 0
v -66 -24 0
v -67 -24 0
v -67 -23 0
v -66 -23 0
v -67 -24 0
v -68 -24 0
v -68 -23 0
v -67 -23 0
v -68 -24 0
v -69 -24 0
v -69 -23 0
v -68 -23 0
v -69 -24 0
v -70 -24 0
v -70 -23 0
v -69 -23 0
v -70 -24 0
v -71 -24 0
v -71 -23 0
v -70 -23 0
v -71 -24 0
v -72 -24 0
v -72 -23 0
v -71 -23 0
v -72 -24 0
v -73 -24 0
v -73 -23 0
v -72 -23 0
v -73 -24 0
v -74 -24 0
v -74 -23 0
v -73 -23 0
v -74 -24 0
v -75 -24 0
v -75 -23 0
v -74 -23 0
v -75 -24 0
v -76 -24 0
v -76 -23 0
v -75 -23 0
v -76 -24 0
v -77 -24 0
v -77 -23 0
v -76 -23 0
v -77 -24 0
v -78 -24 0
v -78 -23 0
v -77 -23 0
v -78 -24 0
v -79 -24 0
v -79 -23 0
v -78 -23 0
v -79 -24 0
v -80 -24 0
v -80 -23 0
v -79 -23 0
v -80 -24 0
v -81 -24 0
v -81 -23 0
v -80 -23 0
v -133 -27 0
v -134 -27 0
v -134 -26 0
v -133 -26 0
v -134 -27 0
v -135 -27 0
v -135 -26 0
v -134 -26 0
v -135 -27 0
v -136 -27 0
v -136 -26 0
v -135 -26 0
v -136 -27 0
v -137 -27 0
v -137 -26 0
v -136 -26 0
v -137 -27 0
v -138 -27 0
v -138 -26 0
v -137 -26 0
v -138 -27 0
v -139 -27 0
v -139 -26 0
v -138 -26 0
v -139 -27 0
v -140 -27 0
v -140 -26 0
v -139 -26 0
v -140 -27 0
v -141 -27 0
v -141 -26 0
v -140 -26 0
v -141 -27 0
v -142 -27 0
v -142 -26 0
v -141 -26 0
v -142 -27 0
v -143 -27 0
v -143 -26 0
v -142 -26 0
v -143 -27 0
v -144 -27 0
v -144 -26 0
v -143 -26 0
v -144 -27 0
v -145 -27 0
v -145 -26 0
v -144 -26 0
v -145 -27 0
v -146 -27 0
v -146 -26 0
v -145 -26 0
v -146 -27 0
v -147 -27 0
v -147 -26 0
v -146 -26 0
v -147 -27 0
v -148 -27 0
v -148 -26 0
v -147 -26 0
v -148 -27 0
v -149 -27 0
v -149 -26 0
v -148 -26 0
v -149 -27 0
v -150 -27 0
v -150 -26 0
v -149 -26 0
v -150 -27 0
v -151 -27 0
v -151 -26 0
v -150 -26 0
v -151 -27 0
v -152 -27 0
v -152 -26 0
v -151 -26 0
v -152 -27 0
v -153 -27 0
v -153 -26 0
v -152 -26 0
v -153 -27 0
v -154 -27 0
v -154 -26 0
v -153 -26 0
v -154 -27 0
v -155 -27 0
v -155 -26 0
v -154 -26 0
v -64 -28 0
v -65 -28 0
v -65 -27 0
v -64 -27 0
v -77 -28 0
v -78 -28 0
v -78 -27 0
v -77 -27 0
v -133 -28 0
v -134 -28 0
v -134 -27 0
v -133 -27 0
v -154 -28 0
v -155 -28 0
v -155 -27 0
v -154 -27 0
v -64 -29 0
v -65 -29 0
v -65 -28 0
v -64 -28 0
v -77 -29 0
v -78 -29 0
v -78 -28 0
v -77 -28 0
v -133 -29 0
v -134 -29 0
v -134 -28 0
v -133 -28 0
v -154 -29 0
v -155 -29 0
v -155 -28 0
v -154 -28 0
v -64 -30 0
v -65 -30 0
v -65 -29 0
v -64 -29 0
v -77 -30 0
v -78 -30 0
v -78 -29 0
v -77 -29 0
v -133 -30 0
v -134 -30 0
v -134 -29 0
v -133 -29 0
v -154 -30 0
v -155 -30 0
v -155 -29 0
v -154 -29 0
v -64 -31 0
v -65 -31 0
v -65 -30 0
v -64 -30 0
v -77 -31 0
v -78 -31 0
v -78 -30 0
v -77 -30 0
v -133 -31 0
v -134 -31 0
v -134 -30 0
v -133 -30 0
v -154 -31 0
v -155 -31 0
v -155 -30 0
v -154 -30 0
v -133 -32 0
v -134 -32 0
v -134 -31 0
v -133 -31 0
v -154 -32 0
v -155 -32 0
v -155 -31 0
v -154 -31 0
v -133 -33 0
v -134 -33 0
v -134 -32 0
v -133 -32 0
v -154 -33 0
v -155 -33 0
v -155 -32 0
v -154 -32 0
v -133 -34 0
v -134 -34 0
v -134 -33 0
v -133 -33 0
v -154 -34 0
v -155 -34 0
v -155 -33 0
v -154 -33 0
v -133 -35 0
v -134 -35 0
v -134 -34 0
v -133 -34 0
v -154 -35 0
v -155 -35 0
v -155 -34 0
v -154 -34 0
v -133 -36 0
v -134 -36 0
v -134 -35 0
v -133 -35 0
v -154 -36 0
v -155 -36 0
v -155 -35 0
v -154 -35 0
v -133 -37 0
v -134 -37 0
v -134 -36 0
v -133 -36 0
v -154 -37 0
v -155 -37 0
v -155 -36 0
v -154 -36 0
v -66 -38 0
v -67 -38 0
v -67 -37 0
v -66 -37 0
v -133 -38 0
v -134 -38 0
v -134 -37 0
v -133 -37 0
v -134 -38 0
v -135 -38 0
v -135 -37 0
v -134 -37 0
v -135 -38 0
v -136 -38 0
v -136 -37 0
v -135 -37 0
v -136 -38 0
v -137 -38 0
v -137 -37 0
v -136 -37 0
v -137 -38 0
v -138 -38 0
v -138 -37 0
v -137 -37 0
v -138 -38 0
v -139 -38 0
v -139 -37 0
v -138 -37 0
v -139 -38 0
v -140 -38 0
v -140 -37 0
v -139 -37 0
v -140 -38 0
v -141 -38 0
v -141 -37 0
v -140 -37 0
v -141 -38 0
v -142 -38 0
v -142 -37 0
v -141 -37 0
v -142 -38 0
v -143 -38 0
v -143 -37 0
v -142 -37 0
v -143 -38 0
v -144 -38 0
v -144 -37 0
v -143 -37 0
v -144 -38 0
v -145 -38 0
v -145 -37 0
v -144 -37 0
v -145 -38 0
v -146 -38 0
v -146 -37 0
v -145 -37 0
v -146 -38 0
v -147 -38 0
v -147 -37 0
v -146 -37 0
v -147 -38 0
v -148 -38 0
v -148 -37 0
v -147 -37 0
v -148 -38 0
v -149 -38 0
v -149 -37 0
v -148 -37 0
v -149 -38 0
v -150 -38 0
v -150 -37 0
v -149 -37 0
v -150 -38 0
v -151 -38 0
v -151 -37 0
v -150 -37 0
v -151 -38 0
v -152 -38 0
v -152 -37 0
v -151 -37 0
v -152 -38 0
v -153 -38 0
v -153 -37 0
v -152 -37 0
v -153 -38 0
v -154 -38 0
v -154 -37 0
v -153 -37 0
v -154 -38 0
v -155 -38 0
v -155 -37 0
v -154 -37 0
v -70 -40 0
v -71 -40 0
v -71 -39 0
v -70 -39 0
v -74 -41 0
v -75 -41 0
v -75 -40 0
v -74 -40 0
v -19 -42 0
v -20 -42 0
v -20 -41 0
v -19 -41 0
v -20 -42 0
v -21 -42 0
v -21 -41 0
v -20 -41 0
v -21 -42 0
v -22 -42 0
v -22 -41 0
v -21 -41 0
v -22 -42 0
v -23 -42 0
v -23 -41 0
v -22 -41 0
v -23 -42 0
v -24 -42 0
v -24 -41 0
v -23 -41 0
v -104 -42 0
v -105 -42 0
v -105 -41 0
v -104 -41 0
v -19 -43 0
v -20 -43 0
v -20 -42 0
v -19 -42 0
v -20 -43 0
v -21 -43 0
v -21 -42 0
v -20 -42 0
v -21 -43 0
v -22 -43 0
v -22 -42 0
v -21 -42 0
v -22 -43 0
v -23 -43 0
v -23 -42 0
v -22 -42 0
v -23 -43 0
v -24 -43 0
v -24 -42 0
v -23 -42 0
v -101 -43 0
v -102 -43 0
v -102 -42 0
v -101 -42 0
v -19 -44 0
v -20 -44 0
v -20 -43 0
v -19 -43 0
v -20 -44 0
v -21 -44 0
v -21 -43 0
v -20 -43 0
v -21 -44 0
v -22 -44 0
v -22 -43 0
v -21 -43 0
v -22 -44 0
v -23 -44 0
v -23 -43 0
v -22 -43 0
v -23 -44 0
v -24 -44 0
v -24 -43 0
v -23 -43 0
v -19 -45 0
v -20 -45 0
v -20 -44 0
v -19 -44 0
v -20 -45 0
v -21 -45 0
v -21 -44 0
v -20 -44 0
v -21 -45 0
v -22 -45 0
v -22 -44 0
v -21 -44 0
v -22 -45 0
v -23 -45 0
v -23 -44 0
v -22 -44 0
v -23 -45 0
v -24 -45 0
v -24 -44 0
v -23 -44 0
v -19 -46 0
v -20 -46 0
v -20 -45 0
v -19 -45 0
v -20 -46 0
v -21 -46 0
v -21 -45 0
v -20 -45 0
v -21 -46 0
v -22 -46 0
v -22 -45 0
v -21 -45 0
v -22 -46 0
v -23 -46 0
v -23 -45 0
v -22 -45 0
v -23 -46 0
v -24 -46 0
v -24 -45 0
v -23 -45 0
v -153 -48 0
v -154 -48 0
v -154 -47 0
v -153 -47 0
v -197 -51 0
v -198 -51 0
v -198 -50 0
v -197 -50 0
v -198 -51 0
v -199 -51 0
v -199 -50 0
v -198 -50 0
v -199 -51 0
v -200 -51 0
v -200 -50 0
v -199 -50 0
v -200 -51 0
v -201 -51 0
v -201 -50 0
v -200 -50 0
v -201 -51 0
v -202 -51 0
v -202 -50 0
v -201 -50 0
v -202 -51 0
v -203 -51 0
v -203 -50 0
v -202 -50 0
v -203 -51 0
v -204 -51 0
v -204 -50 0
v -203 -50 0
v -204 -51 0
v -205 -51 0
v -205 -50 0
v -204 -50 0
v -205 -51 0
v -206 -51 0
v -206 -50 0
v -205 -50 0
v -206 -51 0
v -207 -51 0
v -207 -50 0
v -206 -50 0
v -207 -51 0
v -208 -51 0
v -208 -50 0
v -207 -50 0
v -208 -51 0
v -209 -51 0
v -209 -50 0
v -208 -50 0
v -209 -51 0
v -210 -51 0
v -210 -50 0
v -209 -50 0
v -91 -52 0
v -92 -52 0
v -92 -51 0
v -91 -51 0
v -197 -52 0
v -198 -52 0
v -198 -51 0
v -197 -51 0
v -209 -52 0
v -210 -52 0
v -210 -51 0
v -209 -51 0
v -102 -53 0
v -103 -53 0
v -103 -52 0
v -102 -52 0
v -197 -53 0
v -198 -53 0
v -198 -52 0
v -197 -52 0
v -209 -53 0
v -210 -53 0
v -210 -52 0
v -209 -52 0
v -90 -54 0
v -91 -54 0
v -91 -53 0
v -90 -53 0
v -197 -54 0
v -198 -54 0
v -198 -53 0
v -197 -53 0
v -209 -54 0
v -210 -54 0
v -210 -53 0
v -209 -53 0
v -197 -55 0
v -198 -55 0
v -198 -54 0
v -197 -54 0
v -209 -55 0
v -210 -55 0
v -210 -54 0
v -209 -54 0
v -197 -56 0
v -198 -56 0
v -198 -55 0
v -197 -55 0
v -209 -56 0
v -210 -56 0
v -210 -55 0
v -209 -55 0
v -197 -57 0
v -198 -57 0
v -198 -56 0
v -197 -56 0
v -209 -57 0
v -210 -57 0
v -210 -56 0
v -209 -56 0
v -197 -58 0
v -198 -58 0
v -198 -57 0
v -197 -57 0
v -198 -58 0
v -199 -58 0
v -199 -57 0
v -198 -57 0
v -199 -58 0
v -200 -58 0
v -200 -57 0
v -199 -57 0
v -200 -58 0
v -201 -58 0
v -201 -57 0
v -200 -57 0
v -201 -58 0
v -202 -58 0
v -202 -57 0
v -201 -57 0
v -202 -58 0
v -203 -58 0
v -203 -57 0
v -202 -57 0
v -203 -58 0
v -204 -58 0
v -204 -57 0
v -203 -57 0
v -204 -58 0
v -205 -58 0
v -205 -57 0
v -204 -57 0
v -205 -58 0
v -206 -58 0
v -206 -57 0
v -205 -57 0
v -206 -58 0
v -207 -58 0
v -207 -57 0
v -206 -57 0
v -207 -58 0
v -208 -58 0
v -208 -57 0
v -207 -57 0
v -208 -58 0
v -209 -58 0
v -209 -57 0
v -208 -57 0
v -209 -58 0
v -210 -58 0
v -210 -57 0
v -209 -57 0
v -223 -58 0
v -224 -58 0
v -224 -57 0
v -223 -57 0
v -227 -60 0
v -228 -60 0
v -228 -59 0
v -227 -59 0

# Texture cooridinates (Count = 46)
vt 0.6875 0.84375
vt 0.71875 0.84375
vt 0.71875 0.875
vt 0.6875 0.875
vt 0.4375 0.90625
vt 0.46875 0.90625
vt 0.46875 0.9375
vt 0.4375 0.9375
vt 0.40625 0.9375
vt 0.40625 0.90625
vt 0.65625 0.3125
vt 0.6875 0.3125
vt 0.6875 0.34375
vt 0.65625 0.34375
vt 0.71875 0.3125
vt 0.71875 0.34375
vt 0.75 0.3125
vt 0.75 0.34375
vt 0.78125 0.3125
vt 0.78125 0.34375
vt 0.8125 0.3125
vt 0.8125 0.34375
vt 0.65625 0.28125
vt 0.6875 0.28125
vt 0.71875 0.28125
vt 0.75 0.28125
vt 0.78125 0.28125
vt 0.8125 0.28125
vt 0.65625 0.25
vt 0.6875 0.25
vt 0.71875 0.25
vt 0.75 0.25
vt 0.78125 0.25
vt 0.8125 0.25
vt 0.65625 0.21875
vt 0.6875 0.21875
vt 0.71875 0.21875
vt 0.75 0.21875
vt 0.78125 0.21875
vt 0.8125 0.21875
vt 0.65625 0.1875
vt 0.6875 0.1875
vt 0.71875 0.1875
vt 0.75 0.1875
vt 0.78125 0.1875
vt 0.8125 0.1875

# Normal
vn 0 0 -1

# Mesh description
g trapped2_mesh_0007

# Faces
f 1/1/1 2/2/1 3/3/1 4/4/1
f 5/4/1 6/1/1 7/2/1 8/3/1
f 9/4/1 10/1/1 11/2/1 12/3/1
f 13/4/1 14/1/1 15/2/1 16/3/1
f 17/5/1 18/6/1 19/7/1 20/8/1
f 21/5/1 22/8/1 23/9/1 24/10/1
f 25/5/1 26/8/1 27/9/1 28/10/1
f 29/5/1 30/8/1 31/9/1 32/10/1
f 33/5/1 34/8/1 35/9/1 36/10/1
f 37/5/1 38/8/1 39/9/1 40/10/1
f 41/5/1 42/8/1 43/9/1 44/10/1
f 45/5/1 46/8/1 47/9/1 48/10/1
f 49/5/1 50/8/1 51/9/1 52/10/1
f 53/5/1 54/8/1 55/9/1 56/10/1
f 57/5/1 58/8/1 59/9/1 60/10/1
f 61/5/1 62/8/1 63/9/1 64/10/1
f 65/5/1 66/8/1 67/9/1 68/10/1
f 69/5/1 70/8/1 71/9/1 72/10/1
f 73/5/1 74/8/1 75/9/1 76/10/1
f 77/6/1 78/7/1 79/8/1 80/5/1
f 81/5/1 82/6/1 83/7/1 84/8/1
f 85/5/1 86/8/1 87/9/1 88/10/1
f 89/5/1 90/8/1 91/9/1 92/10/1
f 93/5/1 94/8/1 95/9/1 96/10/1
f 97/5/1 98/8/1 99/9/1 100/10/1
f 101/5/1 102/8/1 103/9/1 104/10/1
f 105/5/1 106/8/1 107/9/1 108/10/1
f 109/5/1 110/8/1 111/9/1 112/10/1
f 113/5/1 114/8/1 115/9/1 116/10/1
f 117/5/1 118/8/1 119/9/1 120/10/1
f 121/5/1 122/8/1 123/9/1 124/10/1
f 125/5/1 126/8/1 127/9/1 128/10/1
f 129/5/1 130/8/1 131/9/1 132/10/1
f 133/5/1 134/8/1 135/9/1 136/10/1
f 137/5/1 138/8/1 139/9/1 140/10/1
f 141/5/1 142/8/1 143/9/1 144/10/1
f 145/5/1 146/8/1 147/9/1 148/10/1
f 149/6/1 150/7/1 151/8/1 152/5/1
f 153/10/1 154/5/1 155/8/1 156/9/1
f 157/8/1 158/9/1 159/10/1 160/5/1
f 161/8/1 162/9/1 163/10/1 164/5/1
f 165/8/1 166/9/1 167/10/1 168/5/1
f 169/5/1 170/8/1 171/9/1 172/10/1
f 173/5/1 174/8/1 175/9/1 176/10/1
f 177/5/1 178/8/1 179/9/1 180/10/1
f 181/5/1 182/8/1 183/9/1 184/10/1
f 185/8/1 186/9/1 187/10/1 188/5/1
f 189/4/1 190/1/1 191/2/1 192/3/1
f 193/4/1 194/1/1 195/2/1 196/3/1
f 197/4/1 198/1/1 199/2/1 200/3/1
f 201/8/1 202/9/1 203/10/1 204/5/1
f 205/8/1 206/9/1 207/10/1 208/5/1
f 209/8/1 210/9/1 211/10/1 212/5/1
f 213/8/1 214/9/1 215/10/1 216/5/1
f 217/10/1 218/5/1 219/8/1 220/9/1
f 221/8/1 222/9/1 223/10/1 224/5/1
f 225/1/1 226/2/1 227/3/1 228/4/1
f 229/8/1 230/9/1 231/10/1 232/5/1
f 233/10/1 234/5/1 235/8/1 236/9/1
f 237/8/1 238/9/1 239/10/1 240/5/1
f 241/4/1 242/1/1 243/2/1 244/3/1
f 245/8/1 246/9/1 247/10/1 248/5/1
f 249/8/1 250/9/1 251/10/1 252/5/1
f 253/3/1 254/4/1 255/1/1 256/2/1
f 257/8/1 258/9/1 259/10/1 260/5/1
f 261/8/1 262/9/1 263/10/1 264/5/1
f 265/8/1 266/9/1 267/10/1 268/5/1
f 269/8/1 270/9/1 271/10/1 272/5/1
f 273/4/1 274/1/1 275/2/1 276/3/1
f 277/4/1 278/1/1 279/2/1 280/3/1
f 281/8/1 282/9/1 283/10/1 284/5/1
f 285/10/1 286/5/1 287/8/1 288/9/1
f 289/8/1 290/9/1 291/10/1 292/5/1
f 293/8/1 294/5/1 295/6/1 296/7/1
f 297/9/1 298/10/1 299/5/1 300/8/1
f 301/9/1 302/10/1 303/5/1 304/8/1
f 305/9/1 306/10/1 307/5/1 308/8/1
f 309/9/1 310/10/1 311/5/1 312/8/1
f 313/9/1 314/10/1 315/5/1 316/8/1
f 317/9/1 318/10/1 319/5/1 320/8/1
f 321/9/1 322/10/1 323/5/1 324/8/1
f 325/9/1 326/10/1 327/5/1 328/8/1
f 329/9/1 330/10/1 331/5/1 332/8/1
f 333/9/1 334/10/1 335/5/1 336/8/1
f 337/9/1 338/10/1 339/5/1 340/8/1
f 341/9/1 342/10/1 343/5/1 344/8/1
f 345/9/1 346/10/1 347/5/1 348/8/1
f 349/9/1 350/10/1 351/5/1 352/8/1
f 353/9/1 354/10/1 355/5/1 356/8/1
f 357/9/1 358/10/1 359/5/1 360/8/1
f 361/7/1 362/8/1 363/5/1 364/6/1
f 365/8/1 366/5/1 367/6/1 368/7/1
f 369/9/1 370/10/1 371/5/1 372/8/1
f 373/9/1 374/10/1 375/5/1 376/8/1
f 377/9/1 378/10/1 379/5/1 380/8/1
f 381/9/1 382/10/1 383/5/1 384/8/1
f 385/9/1 386/10/1 387/5/1 388/8/1
f 389/9/1 390/10/1 391/5/1 392/8/1
f 393/9/1 394/10/1 395/5/1 396/8/1
f 397/9/1 398/10/1 399/5/1 400/8/1
f 401/9/1 402/10/1 403/5/1 404/8/1
f 405/9/1 406/10/1 407/5/1 408/8/1
f 409/9/1 410/10/1 411/5/1 412/8/1
f 413/9/1 414/10/1 415/5/1 416/8/1
f 417/9/1 418/10/1 419/5/1 420/8/1
f 421/9/1 422/10/1 423/5/1 424/8/1
f 425/7/1 426/8/1 427/5/1 428/6/1
f 429/5/1 430/6/1 431/7/1 432/8/1
f 433/5/1 434/8/1 435/9/1 436/10/1
f 437/5/1 438/8/1 439/9/1 440/10/1
f 441/5/1 442/8/1 443/9/1 444/10/1
f 445/5/1 446/8/1 447/9/1 448/10/1
f 449/5/1 450/8/1 451/9/1 452/10/1
f 453/5/1 454/8/1 455/9/1 456/10/1
f 457/5/1 458/8/1 459/9/1 460/10/1
f 461/5/1 462/8/1 463/9/1 464/10/1
f 465/5/1 466/8/1 467/9/1 468/10/1
f 469/5/1 470/8/1 471/9/1 472/10/1
f 473/5/1 474/8/1 475/9/1 476/10/1
f 477/5/1 478/8/1 479/9/1 480/10/1
f 481/5/1 482/8/1 483/9/1 484/10/1
f 485/5/1 486/8/1 487/9/1 488/10/1
f 489/5/1 490/8/1 491/9/1 492/10/1
f 493/5/1 494/8/1 495/9/1 496/10/1
f 497/5/1 498/8/1 499/9/1 500/10/1
f 501/5/1 502/8/1 503/9/1 504/10/1
f 505/5/1 506/8/1 507/9/1 508/10/1
f 509/5/1 510/8/1 511/9/1 512/10/1
f 513/6/1 514/7/1 515/8/1 516/5/1
f 517/10/1 518/5/1 519/8/1 520/9/1
f 521/8/1 522/9/1 523/10/1 524/5/1
f 525/10/1 526/5/1 527/8/1 528/9/1
f 529/8/1 530/9/1 531/10/1 532/5/1
f 533/10/1 534/5/1 535/8/1 536/9/1
f 537/8/1 538/9/1 539/10/1 540/5/1
f 541/10/1 542/5/1 543/8/1 544/9/1
f 545/8/1 546/9/1 547/10/1 548/5/1
f 549/10/1 550/5/1 551/8/1 552/9/1
f 553/8/1 554/9/1 555/10/1 556/5/1
f 557/10/1 558/5/1 559/8/1 560/9/1
f 561/8/1 562/9/1 563/10/1 564/5/1
f 565/10/1 566/5/1 567/8/1 568/9/1
f 569/8/1 570/9/1 571/10/1 572/5/1
f 573/10/1 574/5/1 575/8/1 576/9/1
f 577/8/1 578/9/1 579/10/1 580/5/1
f 581/10/1 582/5/1 583/8/1 584/9/1
f 585/8/1 586/9/1 587/10/1 588/5/1
f 589/10/1 590/5/1 591/8/1 592/9/1
f 593/8/1 594/9/1 595/10/1 596/5/1
f 597/10/1 598/5/1 599/8/1 600/9/1
f 601/8/1 602/9/1 603/10/1 604/5/1
f 605/10/1 606/5/1 607/8/1 608/9/1
f 609/8/1 610/9/1 611/10/1 612/5/1
f 613/10/1 614/5/1 615/8/1 616/9/1
f 617/8/1 618/9/1 619/10/1 620/5/1
f 621/10/1 622/5/1 623/8/1 624/9/1
f 625/8/1 626/9/1 627/10/1 628/5/1
f 629/4/1 630/1/1 631/2/1 632/3/1
f 633/8/1 634/5/1 635/6/1 636/7/1
f 637/9/1 638/10/1 639/5/1 640/8/1
f 641/9/1 642/10/1 643/5/1 644/8/1
f 645/9/1 646/10/1 647/5/1 648/8/1
f 649/9/1 650/10/1 651/5/1 652/8/1
f 653/9/1 654/10/1 655/5/1 656/8/1
f 657/9/1 658/10/1 659/5/1 660/8/1
f 661/9/1 662/10/1 663/5/1 664/8/1
f 665/9/1 666/10/1 667/5/1 668/8/1
f 669/9/1 670/10/1 671/5/1 672/8/1
f 673/9/1 674/10/1 675/5/1 676/8/1
f 677/9/1 678/10/1 679/5/1 680/8/1
f 681/9/1 682/10/1 683/5/1 684/8/1
f 685/9/1 686/10/1 687/5/1 688/8/1
f 689/9/1 690/10/1 691/5/1 692/8/1
f 693/9/1 694/10/1 695/5/1 696/8/1
f 697/9/1 698/10/1 699/5/1 700/8/1
f 701/9/1 702/10/1 703/5/1 704/8/1
f 705/9/1 706/10/1 707/5/1 708/8/1
f 709/9/1 710/10/1 711/5/1 712/8/1
f 713/9/1 714/10/1 715/5/1 716/8/1
f 717/7/1 718/8/1 719/5/1 720/6/1
f 721/1/1 722/2/1 723/3/1 724/4/1
f 725/3/1 726/4/1 727/1/1 728/2/1
f 729/11/1 730/12/1 731/13/1 732/14/1
f 733/12/1 734/15/1 735/16/1 736/13/1
f 737/15/1 738/17/1 739/18/1 740/16/1
f 741/17/1 742/19/1 743/20/1 744/18/1
f 745/19/1 746/21/1 747/22/1 748/20/1
f 749/1/1 750/2/1 751/3/1 752/4/1
f 753/23/1 754/24/1 755/12/1 756/11/1
f 757/24/1 758/25/1 759/15/1 760/12/1
f 761/25/1 762/26/1 763/17/1 764/15/1
f 765/26/1 766/27/1 767/19/1 768/17/1
f 769/27/1 770/28/1 771/21/1 772/19/1
f 773/1/1 774/2/1 775/3/1 776/4/1
f 777/29/1 778/30/1 779/24/1 780/23/1
f 781/30/1 782/31/1 783/25/1 784/24/1
f 785/31/1 786/32/1 787/26/1 788/25/1
f 789/32/1 790/33/1 791/27/1 792/26/1
f 793/33/1 794/34/1 795/28/1 796/27/1
f 797/35/1 798/36/1 799/30/1 800/29/1
f 801/36/1 802/37/1 803/31/1 804/30/1
f 805/37/1 806/38/1 807/32/1 808/31/1
f 809/38/1 810/39/1 811/33/1 812/32/1
f 813/39/1 814/40/1 815/34/1 816/33/1
f 817/41/1 818/42/1 819/36/1 820/35/1
f 821/42/1 822/43/1 823/37/1 824/36/1
f 825/43/1 826/44/1 827/38/1 828/37/1
f 829/44/1 830/45/1 831/39/1 832/38/1
f 833/45/1 834/46/1 835/40/1 836/39/1
f 837/1/1 838/2/1 839/3/1 840/4/1
f 841/5/1 842/6/1 843/7/1 844/8/1
f 845/5/1 846/8/1 847/9/1 848/10/1
f 849/5/1 850/8/1 851/9/1 852/10/1
f 853/5/1 854/8/1 855/9/1 856/10/1
f 857/5/1 858/8/1 859/9/1 860/10/1
f 861/5/1 862/8/1 863/9/1 864/10/1
f 865/5/1 866/8/1 867/9/1 868/10/1
f 869/5/1 870/8/1 871/9/1 872/10/1
f 873/5/1 874/8/1 875/9/1 876/10/1
f 877/5/1 878/8/1 879/9/1 880/10/1
f 881/5/1 882/8/1 883/9/1 884/10/1
f 885/5/1 886/8/1 887/9/1 888/10/1
f 889/6/1 890/7/1 891/8/1 892/5/1
f 893/1/1 894/2/1 895/3/1 896/4/1
f 897/10/1 898/5/1 899/8/1 900/9/1
f 901/8/1 902/9/1 903/10/1 904/5/1
f 905/1/1 906/2/1 907/3/1 908/4/1
f 909/10/1 910/5/1 911/8/1 912/9/1
f 913/8/1 914/9/1 915/10/1 916/5/1
f 917/3/1 918/4/1 919/1/1 920/2/1
f 921/10/1 922/5/1 923/8/1 924/9/1
f 925/8/1 926/9/1 927/10/1 928/5/1
f 929/10/1 930/5/1 931/8/1 932/9/1
f 933/8/1 934/9/1 935/10/1 936/5/1
f 937/10/1 938/5/1 939/8/1 940/9/1
f 941/8/1 942/9/1 943/10/1 944/5/1
f 945/10/1 946/5/1 947/8/1 948/9/1
f 949/8/1 950/9/1 951/10/1 952/5/1
f 953/8/1 954/5/1 955/6/1 956/7/1
f 957/9/1 958/10/1 959/5/1 960/8/1
f 961/9/1 962/10/1 963/5/1 964/8/1
f 965/9/1 966/10/1 967/5/1 968/8/1
f 969/9/1 970/10/1 971/5/1 972/8/1
f 973/9/1 974/10/1 975/5/1 976/8/1
f 977/9/1 978/10/1 979/5/1 980/8/1
f 981/9/1 982/10/1 983/5/1 984/8/1
f 985/9/1 986/10/1 987/5/1 988/8/1
f 989/9/1 990/10/1 991/5/1 992/8/1
f 993/9/1 994/10/1 995/5/1 996/8/1
f 997/9/1 998/10/1 999/5/1 1000/8/1
f 1001/7/1 1002/8/1 1003/5/1 1004/6/1
f 1005/1/1 1006/2/1 1007/3/1 1008/4/1
f 1009/1/1 1010/2/1 1011/3/1 1012/4/1

