# Tiled2Unity generated file. Do not modify by hand.
# Wavefront file for 'trapped2_mesh_0020.obj'

# Vertices (Count = 20)
v -70 -31 0
v -71 -31 0
v -71 -30 0
v -70 -30 0
v -70 -32 0
v -71 -32 0
v -71 -31 0
v -70 -31 0
v -70 -33 0
v -71 -33 0
v -71 -32 0
v -70 -32 0
v -70 -34 0
v -71 -34 0
v -71 -33 0
v -70 -33 0
v -70 -35 0
v -71 -35 0
v -71 -34 0
v -70 -34 0

# Texture cooridinates (Count = 10)
vt 0.5625 1
vt 0.5625 0.96875
vt 0.59375 0.96875
vt 0.59375 1
vt 0.53125 0.96875
vt 0.53125 1
vt 0.5 1
vt 0.5 0.96875
vt 0.46875 1
vt 0.46875 0.96875

# Normal
vn 0 0 -1

# Mesh description
g trapped2_mesh_0020

# Faces
f 1/1/1 2/2/1 3/3/1 4/4/1
f 5/5/1 6/6/1 7/7/1 8/8/1
f 9/8/1 10/7/1 11/9/1 12/10/1
f 13/8/1 14/7/1 15/9/1 16/10/1
f 17/5/1 18/6/1 19/7/1 20/8/1

