# Tiled2Unity generated file. Do not modify by hand.
# Wavefront file for 'trapped2_mesh_0005.obj'

# Vertices (Count = 64)
v -56 -22 0
v -57 -22 0
v -57 -21 0
v -56 -21 0
v -57 -22 0
v -58 -22 0
v -58 -21 0
v -57 -21 0
v -58 -22 0
v -59 -22 0
v -59 -21 0
v -58 -21 0
v -59 -22 0
v -60 -22 0
v -60 -21 0
v -59 -21 0
v -56 -23 0
v -57 -23 0
v -57 -22 0
v -56 -22 0
v -57 -23 0
v -58 -23 0
v -58 -22 0
v -57 -22 0
v -58 -23 0
v -59 -23 0
v -59 -22 0
v -58 -22 0
v -59 -23 0
v -60 -23 0
v -60 -22 0
v -59 -22 0
v -56 -24 0
v -57 -24 0
v -57 -23 0
v -56 -23 0
v -57 -24 0
v -58 -24 0
v -58 -23 0
v -57 -23 0
v -58 -24 0
v -59 -24 0
v -59 -23 0
v -58 -23 0
v -59 -24 0
v -60 -24 0
v -60 -23 0
v -59 -23 0
v -56 -25 0
v -57 -25 0
v -57 -24 0
v -56 -24 0
v -57 -25 0
v -58 -25 0
v -58 -24 0
v -57 -24 0
v -58 -25 0
v -59 -25 0
v -59 -24 0
v -58 -24 0
v -59 -25 0
v -60 -25 0
v -60 -24 0
v -59 -24 0

# Texture cooridinates (Count = 4)
vt 0.75 0.9375
vt 0.78125 0.9375
vt 0.78125 0.90625
vt 0.75 0.90625

# Normal
vn 0 0 -1

# Mesh description
g trapped2_mesh_0005

# Faces
f 1/1/1 2/2/1 3/3/1 4/4/1
f 5/1/1 6/2/1 7/3/1 8/4/1
f 9/2/1 10/1/1 11/4/1 12/3/1
f 13/2/1 14/1/1 15/4/1 16/3/1
f 17/1/1 18/2/1 19/3/1 20/4/1
f 21/1/1 22/2/1 23/3/1 24/4/1
f 25/2/1 26/1/1 27/4/1 28/3/1
f 29/2/1 30/1/1 31/4/1 32/3/1
f 33/3/1 34/4/1 35/1/1 36/2/1
f 37/3/1 38/4/1 39/1/1 40/2/1
f 41/4/1 42/3/1 43/2/1 44/1/1
f 45/4/1 46/3/1 47/2/1 48/1/1
f 49/3/1 50/4/1 51/1/1 52/2/1
f 53/3/1 54/4/1 55/1/1 56/2/1
f 57/4/1 58/3/1 59/2/1 60/1/1
f 61/4/1 62/3/1 63/2/1 64/1/1

