# Tiled2Unity generated file. Do not modify by hand.
# Wavefront file for 'trapped2_mesh_0010.obj'

# Vertices (Count = 32)
v -142 -39 0
v -143 -39 0
v -143 -38 0
v -142 -38 0
v -143 -39 0
v -144 -39 0
v -144 -38 0
v -143 -38 0
v -144 -39 0
v -145 -39 0
v -145 -38 0
v -144 -38 0
v -145 -39 0
v -146 -39 0
v -146 -38 0
v -145 -38 0
v -142 -46 0
v -143 -46 0
v -143 -45 0
v -142 -45 0
v -143 -46 0
v -144 -46 0
v -144 -45 0
v -143 -45 0
v -144 -46 0
v -145 -46 0
v -145 -45 0
v -144 -45 0
v -145 -46 0
v -146 -46 0
v -146 -45 0
v -145 -45 0

# Texture cooridinates (Count = 10)
vt 0.78125 0.96875
vt 0.8125 0.96875
vt 0.8125 1
vt 0.78125 1
vt 0.84375 0.96875
vt 0.84375 1
vt 0.875 0.96875
vt 0.875 1
vt 0.90625 0.96875
vt 0.90625 1

# Normal
vn 0 0 -1

# Mesh description
g trapped2_mesh_0010

# Faces
f 1/1/1 2/2/1 3/3/1 4/4/1
f 5/2/1 6/5/1 7/6/1 8/3/1
f 9/5/1 10/7/1 11/8/1 12/6/1
f 13/7/1 14/9/1 15/10/1 16/8/1
f 17/1/1 18/2/1 19/3/1 20/4/1
f 21/2/1 22/5/1 23/6/1 24/3/1
f 25/5/1 26/7/1 27/8/1 28/6/1
f 29/7/1 30/9/1 31/10/1 32/8/1

