# Tiled2Unity generated file. Do not modify by hand.
# Wavefront file for 'act1end_mesh_0003.obj'

# Vertices (Count = 128)
v -42 -30 0
v -43 -30 0
v -43 -29 0
v -42 -29 0
v -43 -30 0
v -44 -30 0
v -44 -29 0
v -43 -29 0
v -44 -30 0
v -45 -30 0
v -45 -29 0
v -44 -29 0
v -46 -30 0
v -47 -30 0
v -47 -29 0
v -46 -29 0
v -47 -30 0
v -48 -30 0
v -48 -29 0
v -47 -29 0
v -48 -30 0
v -49 -30 0
v -49 -29 0
v -48 -29 0
v -50 -30 0
v -51 -30 0
v -51 -29 0
v -50 -29 0
v -51 -30 0
v -52 -30 0
v -52 -29 0
v -51 -29 0
v -52 -30 0
v -53 -30 0
v -53 -29 0
v -52 -29 0
v -42 -31 0
v -43 -31 0
v -43 -30 0
v -42 -30 0
v -43 -31 0
v -44 -31 0
v -44 -30 0
v -43 -30 0
v -44 -31 0
v -45 -31 0
v -45 -30 0
v -44 -30 0
v -46 -31 0
v -47 -31 0
v -47 -30 0
v -46 -30 0
v -47 -31 0
v -48 -31 0
v -48 -30 0
v -47 -30 0
v -48 -31 0
v -49 -31 0
v -49 -30 0
v -48 -30 0
v -50 -31 0
v -51 -31 0
v -51 -30 0
v -50 -30 0
v -51 -31 0
v -52 -31 0
v -52 -30 0
v -51 -30 0
v -52 -31 0
v -53 -31 0
v -53 -30 0
v -52 -30 0
v -39 -49 0
v -40 -49 0
v -40 -48 0
v -39 -48 0
v -44 -49 0
v -45 -49 0
v -45 -48 0
v -44 -48 0
v -50 -49 0
v -51 -49 0
v -51 -48 0
v -50 -48 0
v -55 -49 0
v -56 -49 0
v -56 -48 0
v -55 -48 0
v -39 -50 0
v -40 -50 0
v -40 -49 0
v -39 -49 0
v -44 -50 0
v -45 -50 0
v -45 -49 0
v -44 -49 0
v -50 -50 0
v -51 -50 0
v -51 -49 0
v -50 -49 0
v -55 -50 0
v -56 -50 0
v -56 -49 0
v -55 -49 0
v -11 -54 0
v -12 -54 0
v -12 -53 0
v -11 -53 0
v -12 -54 0
v -13 -54 0
v -13 -53 0
v -12 -53 0
v -13 -54 0
v -14 -54 0
v -14 -53 0
v -13 -53 0
v -11 -55 0
v -12 -55 0
v -12 -54 0
v -11 -54 0
v -12 -55 0
v -13 -55 0
v -13 -54 0
v -12 -54 0
v -13 -55 0
v -14 -55 0
v -14 -54 0
v -13 -54 0

# Texture cooridinates (Count = 32)
vt 0.78125 0.75
vt 0.78125 0.78125
vt 0.75 0.78125
vt 0.75 0.75
vt 0.78125 0.8125
vt 0.75 0.8125
vt 0.78125 0.84375
vt 0.75 0.84375
vt 0.8125 0.75
vt 0.8125 0.78125
vt 0.8125 0.8125
vt 0.8125 0.84375
vt 0.28125 0.84375
vt 0.3125 0.84375
vt 0.3125 0.875
vt 0.28125 0.875
vt 0.375 0.84375
vt 0.40625 0.84375
vt 0.40625 0.875
vt 0.375 0.875
vt 0.03125 0.84375
vt 0.03125 0.8125
vt 0.0625 0.8125
vt 0.0625 0.84375
vt 0.03125 0.78125
vt 0.0625 0.78125
vt 0.03125 0.75
vt 0.0625 0.75
vt 0 0.84375
vt 0 0.8125
vt 0 0.78125
vt 0 0.75

# Normal
vn 0 0 -1

# Mesh description
g act1end_mesh_0003

# Faces
f 1/1/1 2/2/1 3/3/1 4/4/1
f 5/2/1 6/5/1 7/6/1 8/3/1
f 9/5/1 10/7/1 11/8/1 12/6/1
f 13/1/1 14/2/1 15/3/1 16/4/1
f 17/2/1 18/5/1 19/6/1 20/3/1
f 21/5/1 22/7/1 23/8/1 24/6/1
f 25/1/1 26/2/1 27/3/1 28/4/1
f 29/2/1 30/5/1 31/6/1 32/3/1
f 33/5/1 34/7/1 35/8/1 36/6/1
f 37/9/1 38/10/1 39/2/1 40/1/1
f 41/10/1 42/11/1 43/5/1 44/2/1
f 45/11/1 46/12/1 47/7/1 48/5/1
f 49/9/1 50/10/1 51/2/1 52/1/1
f 53/10/1 54/11/1 55/5/1 56/2/1
f 57/11/1 58/12/1 59/7/1 60/5/1
f 61/9/1 62/10/1 63/2/1 64/1/1
f 65/10/1 66/11/1 67/5/1 68/2/1
f 69/11/1 70/12/1 71/7/1 72/5/1
f 73/13/1 74/14/1 75/15/1 76/16/1
f 77/14/1 78/13/1 79/16/1 80/15/1
f 81/13/1 82/14/1 83/15/1 84/16/1
f 85/14/1 86/13/1 87/16/1 88/15/1
f 89/17/1 90/18/1 91/19/1 92/20/1
f 93/18/1 94/17/1 95/20/1 96/19/1
f 97/17/1 98/18/1 99/19/1 100/20/1
f 101/18/1 102/17/1 103/20/1 104/19/1
f 105/21/1 106/22/1 107/23/1 108/24/1
f 109/22/1 110/25/1 111/26/1 112/23/1
f 113/25/1 114/27/1 115/28/1 116/26/1
f 117/29/1 118/30/1 119/22/1 120/21/1
f 121/30/1 122/31/1 123/25/1 124/22/1
f 125/31/1 126/32/1 127/27/1 128/25/1

