# Tiled2Unity generated file. Do not modify by hand.
# Wavefront file for 'act1end_mesh_0003.obj'

# Vertices (Count = 132)
v -42 -30 0
v -43 -30 0
v -43 -29 0
v -42 -29 0
v -43 -30 0
v -44 -30 0
v -44 -29 0
v -43 -29 0
v -44 -30 0
v -45 -30 0
v -45 -29 0
v -44 -29 0
v -46 -30 0
v -47 -30 0
v -47 -29 0
v -46 -29 0
v -47 -30 0
v -48 -30 0
v -48 -29 0
v -47 -29 0
v -48 -30 0
v -49 -30 0
v -49 -29 0
v -48 -29 0
v -50 -30 0
v -51 -30 0
v -51 -29 0
v -50 -29 0
v -51 -30 0
v -52 -30 0
v -52 -29 0
v -51 -29 0
v -52 -30 0
v -53 -30 0
v -53 -29 0
v -52 -29 0
v -32 -31 0
v -33 -31 0
v -33 -30 0
v -32 -30 0
v -42 -31 0
v -43 -31 0
v -43 -30 0
v -42 -30 0
v -43 -31 0
v -44 -31 0
v -44 -30 0
v -43 -30 0
v -44 -31 0
v -45 -31 0
v -45 -30 0
v -44 -30 0
v -46 -31 0
v -47 -31 0
v -47 -30 0
v -46 -30 0
v -47 -31 0
v -48 -31 0
v -48 -30 0
v -47 -30 0
v -48 -31 0
v -49 -31 0
v -49 -30 0
v -48 -30 0
v -50 -31 0
v -51 -31 0
v -51 -30 0
v -50 -30 0
v -51 -31 0
v -52 -31 0
v -52 -30 0
v -51 -30 0
v -52 -31 0
v -53 -31 0
v -53 -30 0
v -52 -30 0
v -39 -49 0
v -40 -49 0
v -40 -48 0
v -39 -48 0
v -44 -49 0
v -45 -49 0
v -45 -48 0
v -44 -48 0
v -50 -49 0
v -51 -49 0
v -51 -48 0
v -50 -48 0
v -55 -49 0
v -56 -49 0
v -56 -48 0
v -55 -48 0
v -39 -50 0
v -40 -50 0
v -40 -49 0
v -39 -49 0
v -44 -50 0
v -45 -50 0
v -45 -49 0
v -44 -49 0
v -50 -50 0
v -51 -50 0
v -51 -49 0
v -50 -49 0
v -55 -50 0
v -56 -50 0
v -56 -49 0
v -55 -49 0
v -11 -54 0
v -12 -54 0
v -12 -53 0
v -11 -53 0
v -12 -54 0
v -13 -54 0
v -13 -53 0
v -12 -53 0
v -13 -54 0
v -14 -54 0
v -14 -53 0
v -13 -53 0
v -11 -55 0
v -12 -55 0
v -12 -54 0
v -11 -54 0
v -12 -55 0
v -13 -55 0
v -13 -54 0
v -12 -54 0
v -13 -55 0
v -14 -55 0
v -14 -54 0
v -13 -54 0

# Texture cooridinates (Count = 36)
vt 0.78125 0.75
vt 0.78125 0.78125
vt 0.75 0.78125
vt 0.75 0.75
vt 0.78125 0.8125
vt 0.75 0.8125
vt 0.78125 0.84375
vt 0.75 0.84375
vt 0.46875 0.9375
vt 0.5 0.9375
vt 0.5 0.96875
vt 0.46875 0.96875
vt 0.8125 0.75
vt 0.8125 0.78125
vt 0.8125 0.8125
vt 0.8125 0.84375
vt 0.28125 0.84375
vt 0.3125 0.84375
vt 0.3125 0.875
vt 0.28125 0.875
vt 0.375 0.84375
vt 0.40625 0.84375
vt 0.40625 0.875
vt 0.375 0.875
vt 0.03125 0.84375
vt 0.03125 0.8125
vt 0.0625 0.8125
vt 0.0625 0.84375
vt 0.03125 0.78125
vt 0.0625 0.78125
vt 0.03125 0.75
vt 0.0625 0.75
vt 0 0.84375
vt 0 0.8125
vt 0 0.78125
vt 0 0.75

# Normal
vn 0 0 -1

# Mesh description
g act1end_mesh_0003

# Faces
f 1/1/1 2/2/1 3/3/1 4/4/1
f 5/2/1 6/5/1 7/6/1 8/3/1
f 9/5/1 10/7/1 11/8/1 12/6/1
f 13/1/1 14/2/1 15/3/1 16/4/1
f 17/2/1 18/5/1 19/6/1 20/3/1
f 21/5/1 22/7/1 23/8/1 24/6/1
f 25/1/1 26/2/1 27/3/1 28/4/1
f 29/2/1 30/5/1 31/6/1 32/3/1
f 33/5/1 34/7/1 35/8/1 36/6/1
f 37/9/1 38/10/1 39/11/1 40/12/1
f 41/13/1 42/14/1 43/2/1 44/1/1
f 45/14/1 46/15/1 47/5/1 48/2/1
f 49/15/1 50/16/1 51/7/1 52/5/1
f 53/13/1 54/14/1 55/2/1 56/1/1
f 57/14/1 58/15/1 59/5/1 60/2/1
f 61/15/1 62/16/1 63/7/1 64/5/1
f 65/13/1 66/14/1 67/2/1 68/1/1
f 69/14/1 70/15/1 71/5/1 72/2/1
f 73/15/1 74/16/1 75/7/1 76/5/1
f 77/17/1 78/18/1 79/19/1 80/20/1
f 81/18/1 82/17/1 83/20/1 84/19/1
f 85/17/1 86/18/1 87/19/1 88/20/1
f 89/18/1 90/17/1 91/20/1 92/19/1
f 93/21/1 94/22/1 95/23/1 96/24/1
f 97/22/1 98/21/1 99/24/1 100/23/1
f 101/21/1 102/22/1 103/23/1 104/24/1
f 105/22/1 106/21/1 107/24/1 108/23/1
f 109/25/1 110/26/1 111/27/1 112/28/1
f 113/26/1 114/29/1 115/30/1 116/27/1
f 117/29/1 118/31/1 119/32/1 120/30/1
f 121/33/1 122/34/1 123/26/1 124/25/1
f 125/34/1 126/35/1 127/29/1 128/26/1
f 129/35/1 130/36/1 131/31/1 132/29/1

