# Tiled2Unity generated file. Do not modify by hand.
# Wavefront file for 'shitstorm_mesh_0018.obj'

# Vertices (Count = 32)
v -38 -64 0
v -39 -64 0
v -39 -63 0
v -38 -63 0
v -44 -64 0
v -45 -64 0
v -45 -63 0
v -44 -63 0
v -38 -65 0
v -39 -65 0
v -39 -64 0
v -38 -64 0
v -44 -65 0
v -45 -65 0
v -45 -64 0
v -44 -64 0
v -62 -105 0
v -63 -105 0
v -63 -104 0
v -62 -104 0
v -63 -105 0
v -64 -105 0
v -64 -104 0
v -63 -104 0
v -62 -111 0
v -63 -111 0
v -63 -110 0
v -62 -110 0
v -63 -111 0
v -64 -111 0
v -64 -110 0
v -63 -110 0

# Texture cooridinates (Count = 8)
vt 0.5625 1
vt 0.5625 0.96875
vt 0.59375 0.96875
vt 0.59375 1
vt 0.53125 0.96875
vt 0.53125 1
vt 0.5 1
vt 0.5 0.96875

# Normal
vn 0 0 -1

# Mesh description
g shitstorm_mesh_0018

# Faces
f 1/1/1 2/2/1 3/3/1 4/4/1
f 5/1/1 6/2/1 7/3/1 8/4/1
f 9/5/1 10/6/1 11/7/1 12/8/1
f 13/5/1 14/6/1 15/7/1 16/8/1
f 17/4/1 18/1/1 19/2/1 20/3/1
f 21/8/1 22/5/1 23/6/1 24/7/1
f 25/4/1 26/1/1 27/2/1 28/3/1
f 29/8/1 30/5/1 31/6/1 32/7/1

