# Tiled2Unity generated file. Do not modify by hand.
# Wavefront file for 'shitstorm_mesh_0008.obj'

# Vertices (Count = 520)
v -64 -46 0
v -65 -46 0
v -65 -45 0
v -64 -45 0
v -69 -46 0
v -70 -46 0
v -70 -45 0
v -69 -45 0
v -64 -47 0
v -65 -47 0
v -65 -46 0
v -64 -46 0
v -69 -47 0
v -70 -47 0
v -70 -46 0
v -69 -46 0
v -64 -48 0
v -65 -48 0
v -65 -47 0
v -64 -47 0
v -69 -48 0
v -70 -48 0
v -70 -47 0
v -69 -47 0
v 0 -49 0
v -1 -49 0
v -1 -48 0
v 0 -48 0
v -1 -49 0
v -2 -49 0
v -2 -48 0
v -1 -48 0
v -2 -49 0
v -3 -49 0
v -3 -48 0
v -2 -48 0
v -3 -49 0
v -4 -49 0
v -4 -48 0
v -3 -48 0
v -4 -49 0
v -5 -49 0
v -5 -48 0
v -4 -48 0
v -5 -49 0
v -6 -49 0
v -6 -48 0
v -5 -48 0
v -6 -49 0
v -7 -49 0
v -7 -48 0
v -6 -48 0
v -7 -49 0
v -8 -49 0
v -8 -48 0
v -7 -48 0
v -8 -49 0
v -9 -49 0
v -9 -48 0
v -8 -48 0
v -9 -49 0
v -10 -49 0
v -10 -48 0
v -9 -48 0
v -10 -49 0
v -11 -49 0
v -11 -48 0
v -10 -48 0
v -11 -49 0
v -12 -49 0
v -12 -48 0
v -11 -48 0
v -12 -49 0
v -13 -49 0
v -13 -48 0
v -12 -48 0
v -13 -49 0
v -14 -49 0
v -14 -48 0
v -13 -48 0
v -14 -49 0
v -15 -49 0
v -15 -48 0
v -14 -48 0
v -15 -49 0
v -16 -49 0
v -16 -48 0
v -15 -48 0
v -16 -49 0
v -17 -49 0
v -17 -48 0
v -16 -48 0
v -17 -49 0
v -18 -49 0
v -18 -48 0
v -17 -48 0
v -18 -49 0
v -19 -49 0
v -19 -48 0
v -18 -48 0
v -19 -49 0
v -20 -49 0
v -20 -48 0
v -19 -48 0
v -20 -49 0
v -21 -49 0
v -21 -48 0
v -20 -48 0
v -21 -49 0
v -22 -49 0
v -22 -48 0
v -21 -48 0
v -22 -49 0
v -23 -49 0
v -23 -48 0
v -22 -48 0
v -23 -49 0
v -24 -49 0
v -24 -48 0
v -23 -48 0
v -24 -49 0
v -25 -49 0
v -25 -48 0
v -24 -48 0
v -25 -49 0
v -26 -49 0
v -26 -48 0
v -25 -48 0
v -26 -49 0
v -27 -49 0
v -27 -48 0
v -26 -48 0
v -27 -49 0
v -28 -49 0
v -28 -48 0
v -27 -48 0
v -28 -49 0
v -29 -49 0
v -29 -48 0
v -28 -48 0
v -29 -49 0
v -30 -49 0
v -30 -48 0
v -29 -48 0
v -30 -49 0
v -31 -49 0
v -31 -48 0
v -30 -48 0
v -31 -49 0
v -32 -49 0
v -32 -48 0
v -31 -48 0
v -32 -49 0
v -33 -49 0
v -33 -48 0
v -32 -48 0
v -33 -49 0
v -34 -49 0
v -34 -48 0
v -33 -48 0
v -34 -49 0
v -35 -49 0
v -35 -48 0
v -34 -48 0
v -35 -49 0
v -36 -49 0
v -36 -48 0
v -35 -48 0
v -36 -49 0
v -37 -49 0
v -37 -48 0
v -36 -48 0
v -37 -49 0
v -38 -49 0
v -38 -48 0
v -37 -48 0
v -38 -49 0
v -39 -49 0
v -39 -48 0
v -38 -48 0
v -39 -49 0
v -40 -49 0
v -40 -48 0
v -39 -48 0
v -40 -49 0
v -41 -49 0
v -41 -48 0
v -40 -48 0
v -41 -49 0
v -42 -49 0
v -42 -48 0
v -41 -48 0
v -42 -49 0
v -43 -49 0
v -43 -48 0
v -42 -48 0
v -43 -49 0
v -44 -49 0
v -44 -48 0
v -43 -48 0
v -44 -49 0
v -45 -49 0
v -45 -48 0
v -44 -48 0
v -45 -49 0
v -46 -49 0
v -46 -48 0
v -45 -48 0
v -46 -49 0
v -47 -49 0
v -47 -48 0
v -46 -48 0
v -47 -49 0
v -48 -49 0
v -48 -48 0
v -47 -48 0
v -48 -49 0
v -49 -49 0
v -49 -48 0
v -48 -48 0
v -49 -49 0
v -50 -49 0
v -50 -48 0
v -49 -48 0
v -50 -49 0
v -51 -49 0
v -51 -48 0
v -50 -48 0
v -51 -49 0
v -52 -49 0
v -52 -48 0
v -51 -48 0
v -52 -49 0
v -53 -49 0
v -53 -48 0
v -52 -48 0
v -53 -49 0
v -54 -49 0
v -54 -48 0
v -53 -48 0
v -54 -49 0
v -55 -49 0
v -55 -48 0
v -54 -48 0
v -55 -49 0
v -56 -49 0
v -56 -48 0
v -55 -48 0
v -56 -49 0
v -57 -49 0
v -57 -48 0
v -56 -48 0
v -57 -49 0
v -58 -49 0
v -58 -48 0
v -57 -48 0
v -58 -49 0
v -59 -49 0
v -59 -48 0
v -58 -48 0
v -59 -49 0
v -60 -49 0
v -60 -48 0
v -59 -48 0
v -60 -49 0
v -61 -49 0
v -61 -48 0
v -60 -48 0
v -61 -49 0
v -62 -49 0
v -62 -48 0
v -61 -48 0
v -62 -49 0
v -63 -49 0
v -63 -48 0
v -62 -48 0
v -63 -49 0
v -64 -49 0
v -64 -48 0
v -63 -48 0
v -64 -49 0
v -65 -49 0
v -65 -48 0
v -64 -48 0
v -69 -49 0
v -70 -49 0
v -70 -48 0
v -69 -48 0
v -70 -49 0
v -71 -49 0
v -71 -48 0
v -70 -48 0
v -71 -49 0
v -72 -49 0
v -72 -48 0
v -71 -48 0
v -72 -49 0
v -73 -49 0
v -73 -48 0
v -72 -48 0
v -73 -49 0
v -74 -49 0
v -74 -48 0
v -73 -48 0
v -74 -49 0
v -75 -49 0
v -75 -48 0
v -74 -48 0
v -75 -49 0
v -76 -49 0
v -76 -48 0
v -75 -48 0
v -76 -49 0
v -77 -49 0
v -77 -48 0
v -76 -48 0
v -77 -49 0
v -78 -49 0
v -78 -48 0
v -77 -48 0
v -78 -49 0
v -79 -49 0
v -79 -48 0
v -78 -48 0
v -79 -49 0
v -80 -49 0
v -80 -48 0
v -79 -48 0
v -80 -49 0
v -81 -49 0
v -81 -48 0
v -80 -48 0
v -81 -49 0
v -82 -49 0
v -82 -48 0
v -81 -48 0
v -82 -49 0
v -83 -49 0
v -83 -48 0
v -82 -48 0
v -83 -49 0
v -84 -49 0
v -84 -48 0
v -83 -48 0
v -84 -49 0
v -85 -49 0
v -85 -48 0
v -84 -48 0
v -85 -49 0
v -86 -49 0
v -86 -48 0
v -85 -48 0
v -86 -49 0
v -87 -49 0
v -87 -48 0
v -86 -48 0
v -87 -49 0
v -88 -49 0
v -88 -48 0
v -87 -48 0
v -88 -49 0
v -89 -49 0
v -89 -48 0
v -88 -48 0
v -89 -49 0
v -90 -49 0
v -90 -48 0
v -89 -48 0
v -90 -49 0
v -91 -49 0
v -91 -48 0
v -90 -48 0
v -91 -49 0
v -92 -49 0
v -92 -48 0
v -91 -48 0
v -92 -49 0
v -93 -49 0
v -93 -48 0
v -92 -48 0
v -93 -49 0
v -94 -49 0
v -94 -48 0
v -93 -48 0
v -94 -49 0
v -95 -49 0
v -95 -48 0
v -94 -48 0
v -95 -49 0
v -96 -49 0
v -96 -48 0
v -95 -48 0
v -96 -49 0
v -97 -49 0
v -97 -48 0
v -96 -48 0
v -97 -49 0
v -98 -49 0
v -98 -48 0
v -97 -48 0
v -98 -49 0
v -99 -49 0
v -99 -48 0
v -98 -48 0
v -99 -49 0
v -100 -49 0
v -100 -48 0
v -99 -48 0
v -100 -49 0
v -101 -49 0
v -101 -48 0
v -100 -48 0
v -101 -49 0
v -102 -49 0
v -102 -48 0
v -101 -48 0
v -102 -49 0
v -103 -49 0
v -103 -48 0
v -102 -48 0
v -103 -49 0
v -104 -49 0
v -104 -48 0
v -103 -48 0
v -104 -49 0
v -105 -49 0
v -105 -48 0
v -104 -48 0
v -105 -49 0
v -106 -49 0
v -106 -48 0
v -105 -48 0
v -106 -49 0
v -107 -49 0
v -107 -48 0
v -106 -48 0
v -107 -49 0
v -108 -49 0
v -108 -48 0
v -107 -48 0
v -108 -49 0
v -109 -49 0
v -109 -48 0
v -108 -48 0
v -109 -49 0
v -110 -49 0
v -110 -48 0
v -109 -48 0
v -110 -49 0
v -111 -49 0
v -111 -48 0
v -110 -48 0
v -111 -49 0
v -112 -49 0
v -112 -48 0
v -111 -48 0
v -112 -49 0
v -113 -49 0
v -113 -48 0
v -112 -48 0
v -113 -49 0
v -114 -49 0
v -114 -48 0
v -113 -48 0
v -114 -49 0
v -115 -49 0
v -115 -48 0
v -114 -48 0
v -115 -49 0
v -116 -49 0
v -116 -48 0
v -115 -48 0
v -116 -49 0
v -117 -49 0
v -117 -48 0
v -116 -48 0
v -117 -49 0
v -118 -49 0
v -118 -48 0
v -117 -48 0
v -118 -49 0
v -119 -49 0
v -119 -48 0
v -118 -48 0
v -119 -49 0
v -120 -49 0
v -120 -48 0
v -119 -48 0
v -120 -49 0
v -121 -49 0
v -121 -48 0
v -120 -48 0
v -121 -49 0
v -122 -49 0
v -122 -48 0
v -121 -48 0
v -122 -49 0
v -123 -49 0
v -123 -48 0
v -122 -48 0
v -123 -49 0
v -124 -49 0
v -124 -48 0
v -123 -48 0
v -124 -49 0
v -125 -49 0
v -125 -48 0
v -124 -48 0
v -125 -49 0
v -126 -49 0
v -126 -48 0
v -125 -48 0
v -126 -49 0
v -127 -49 0
v -127 -48 0
v -126 -48 0
v -127 -49 0
v -128 -49 0
v -128 -48 0
v -127 -48 0

# Texture cooridinates (Count = 12)
vt 0.40625 0.96875
vt 0.375 0.96875
vt 0.375 0.9375
vt 0.40625 0.9375
vt 0.5 0.96875
vt 0.5 0.9375
vt 0.53125 0.9375
vt 0.53125 0.96875
vt 0.59375 0.96875
vt 0.5625 0.96875
vt 0.5625 0.9375
vt 0.59375 0.9375

# Normal
vn 0 0 -1

# Mesh description
g shitstorm_mesh_0008

# Faces
f 1/1/1 2/2/1 3/3/1 4/4/1
f 5/5/1 6/6/1 7/7/1 8/8/1
f 9/1/1 10/2/1 11/3/1 12/4/1
f 13/5/1 14/6/1 15/7/1 16/8/1
f 17/1/1 18/2/1 19/3/1 20/4/1
f 21/5/1 22/6/1 23/7/1 24/8/1
f 25/8/1 26/5/1 27/6/1 28/7/1
f 29/8/1 30/5/1 31/6/1 32/7/1
f 33/8/1 34/5/1 35/6/1 36/7/1
f 37/8/1 38/5/1 39/6/1 40/7/1
f 41/8/1 42/5/1 43/6/1 44/7/1
f 45/8/1 46/5/1 47/6/1 48/7/1
f 49/8/1 50/5/1 51/6/1 52/7/1
f 53/8/1 54/5/1 55/6/1 56/7/1
f 57/8/1 58/5/1 59/6/1 60/7/1
f 61/8/1 62/5/1 63/6/1 64/7/1
f 65/8/1 66/5/1 67/6/1 68/7/1
f 69/8/1 70/5/1 71/6/1 72/7/1
f 73/8/1 74/5/1 75/6/1 76/7/1
f 77/8/1 78/5/1 79/6/1 80/7/1
f 81/8/1 82/5/1 83/6/1 84/7/1
f 85/8/1 86/5/1 87/6/1 88/7/1
f 89/8/1 90/5/1 91/6/1 92/7/1
f 93/8/1 94/5/1 95/6/1 96/7/1
f 97/8/1 98/5/1 99/6/1 100/7/1
f 101/8/1 102/5/1 103/6/1 104/7/1
f 105/8/1 106/5/1 107/6/1 108/7/1
f 109/8/1 110/5/1 111/6/1 112/7/1
f 113/8/1 114/5/1 115/6/1 116/7/1
f 117/8/1 118/5/1 119/6/1 120/7/1
f 121/8/1 122/5/1 123/6/1 124/7/1
f 125/8/1 126/5/1 127/6/1 128/7/1
f 129/8/1 130/5/1 131/6/1 132/7/1
f 133/8/1 134/5/1 135/6/1 136/7/1
f 137/8/1 138/5/1 139/6/1 140/7/1
f 141/8/1 142/5/1 143/6/1 144/7/1
f 145/8/1 146/5/1 147/6/1 148/7/1
f 149/8/1 150/5/1 151/6/1 152/7/1
f 153/8/1 154/5/1 155/6/1 156/7/1
f 157/8/1 158/5/1 159/6/1 160/7/1
f 161/8/1 162/5/1 163/6/1 164/7/1
f 165/8/1 166/5/1 167/6/1 168/7/1
f 169/8/1 170/5/1 171/6/1 172/7/1
f 173/8/1 174/5/1 175/6/1 176/7/1
f 177/8/1 178/5/1 179/6/1 180/7/1
f 181/8/1 182/5/1 183/6/1 184/7/1
f 185/8/1 186/5/1 187/6/1 188/7/1
f 189/8/1 190/5/1 191/6/1 192/7/1
f 193/8/1 194/5/1 195/6/1 196/7/1
f 197/8/1 198/5/1 199/6/1 200/7/1
f 201/8/1 202/5/1 203/6/1 204/7/1
f 205/8/1 206/5/1 207/6/1 208/7/1
f 209/8/1 210/5/1 211/6/1 212/7/1
f 213/8/1 214/5/1 215/6/1 216/7/1
f 217/8/1 218/5/1 219/6/1 220/7/1
f 221/8/1 222/5/1 223/6/1 224/7/1
f 225/8/1 226/5/1 227/6/1 228/7/1
f 229/8/1 230/5/1 231/6/1 232/7/1
f 233/8/1 234/5/1 235/6/1 236/7/1
f 237/8/1 238/5/1 239/6/1 240/7/1
f 241/8/1 242/5/1 243/6/1 244/7/1
f 245/8/1 246/5/1 247/6/1 248/7/1
f 249/8/1 250/5/1 251/6/1 252/7/1
f 253/8/1 254/5/1 255/6/1 256/7/1
f 257/8/1 258/5/1 259/6/1 260/7/1
f 261/8/1 262/5/1 263/6/1 264/7/1
f 265/8/1 266/5/1 267/6/1 268/7/1
f 269/8/1 270/5/1 271/6/1 272/7/1
f 273/8/1 274/5/1 275/6/1 276/7/1
f 277/8/1 278/5/1 279/6/1 280/7/1
f 281/9/1 282/10/1 283/11/1 284/12/1
f 285/10/1 286/11/1 287/12/1 288/9/1
f 289/2/1 290/3/1 291/4/1 292/1/1
f 293/2/1 294/3/1 295/4/1 296/1/1
f 297/2/1 298/3/1 299/4/1 300/1/1
f 301/2/1 302/3/1 303/4/1 304/1/1
f 305/2/1 306/3/1 307/4/1 308/1/1
f 309/2/1 310/3/1 311/4/1 312/1/1
f 313/2/1 314/3/1 315/4/1 316/1/1
f 317/2/1 318/3/1 319/4/1 320/1/1
f 321/2/1 322/3/1 323/4/1 324/1/1
f 325/2/1 326/3/1 327/4/1 328/1/1
f 329/2/1 330/3/1 331/4/1 332/1/1
f 333/2/1 334/3/1 335/4/1 336/1/1
f 337/2/1 338/3/1 339/4/1 340/1/1
f 341/2/1 342/3/1 343/4/1 344/1/1
f 345/2/1 346/3/1 347/4/1 348/1/1
f 349/2/1 350/3/1 351/4/1 352/1/1
f 353/2/1 354/3/1 355/4/1 356/1/1
f 357/2/1 358/3/1 359/4/1 360/1/1
f 361/2/1 362/3/1 363/4/1 364/1/1
f 365/2/1 366/3/1 367/4/1 368/1/1
f 369/2/1 370/3/1 371/4/1 372/1/1
f 373/2/1 374/3/1 375/4/1 376/1/1
f 377/2/1 378/3/1 379/4/1 380/1/1
f 381/2/1 382/3/1 383/4/1 384/1/1
f 385/2/1 386/3/1 387/4/1 388/1/1
f 389/2/1 390/3/1 391/4/1 392/1/1
f 393/2/1 394/3/1 395/4/1 396/1/1
f 397/2/1 398/3/1 399/4/1 400/1/1
f 401/2/1 402/3/1 403/4/1 404/1/1
f 405/2/1 406/3/1 407/4/1 408/1/1
f 409/2/1 410/3/1 411/4/1 412/1/1
f 413/2/1 414/3/1 415/4/1 416/1/1
f 417/2/1 418/3/1 419/4/1 420/1/1
f 421/2/1 422/3/1 423/4/1 424/1/1
f 425/2/1 426/3/1 427/4/1 428/1/1
f 429/2/1 430/3/1 431/4/1 432/1/1
f 433/2/1 434/3/1 435/4/1 436/1/1
f 437/2/1 438/3/1 439/4/1 440/1/1
f 441/2/1 442/3/1 443/4/1 444/1/1
f 445/2/1 446/3/1 447/4/1 448/1/1
f 449/2/1 450/3/1 451/4/1 452/1/1
f 453/2/1 454/3/1 455/4/1 456/1/1
f 457/2/1 458/3/1 459/4/1 460/1/1
f 461/2/1 462/3/1 463/4/1 464/1/1
f 465/2/1 466/3/1 467/4/1 468/1/1
f 469/2/1 470/3/1 471/4/1 472/1/1
f 473/2/1 474/3/1 475/4/1 476/1/1
f 477/2/1 478/3/1 479/4/1 480/1/1
f 481/2/1 482/3/1 483/4/1 484/1/1
f 485/2/1 486/3/1 487/4/1 488/1/1
f 489/2/1 490/3/1 491/4/1 492/1/1
f 493/2/1 494/3/1 495/4/1 496/1/1
f 497/2/1 498/3/1 499/4/1 500/1/1
f 501/2/1 502/3/1 503/4/1 504/1/1
f 505/2/1 506/3/1 507/4/1 508/1/1
f 509/2/1 510/3/1 511/4/1 512/1/1
f 513/2/1 514/3/1 515/4/1 516/1/1
f 517/2/1 518/3/1 519/4/1 520/1/1

