# Tiled2Unity generated file. Do not modify by hand.
# Wavefront file for 'backdoor_grenade_mesh_0007.obj'

# Vertices (Count = 52)
v -13 -18 0
v -14 -18 0
v -14 -17 0
v -13 -17 0
v -15 -18 0
v -16 -18 0
v -16 -17 0
v -15 -17 0
v -16 -18 0
v -17 -18 0
v -17 -17 0
v -16 -17 0
v -15 -19 0
v -16 -19 0
v -16 -18 0
v -15 -18 0
v -16 -19 0
v -17 -19 0
v -17 -18 0
v -16 -18 0
v -15 -20 0
v -16 -20 0
v -16 -19 0
v -15 -19 0
v -16 -20 0
v -17 -20 0
v -17 -19 0
v -16 -19 0
v -11 -27 0
v -12 -27 0
v -12 -26 0
v -11 -26 0
v -12 -27 0
v -13 -27 0
v -13 -26 0
v -12 -26 0
v -13 -27 0
v -14 -27 0
v -14 -26 0
v -13 -26 0
v -11 -28 0
v -12 -28 0
v -12 -27 0
v -11 -27 0
v -12 -28 0
v -13 -28 0
v -13 -27 0
v -12 -27 0
v -13 -28 0
v -14 -28 0
v -14 -27 0
v -13 -27 0

# Texture cooridinates (Count = 28)
vt 0.6875 0.84375
vt 0.71875 0.84375
vt 0.71875 0.875
vt 0.6875 0.875
vt 0.5 0.8125
vt 0.53125 0.8125
vt 0.53125 0.84375
vt 0.5 0.84375
vt 0.5625 0.8125
vt 0.5625 0.84375
vt 0.5 0.78125
vt 0.53125 0.78125
vt 0.5625 0.78125
vt 0.5 0.75
vt 0.53125 0.75
vt 0.5625 0.75
vt 0.21875 0.75
vt 0.21875 0.71875
vt 0.25 0.71875
vt 0.25 0.75
vt 0.21875 0.6875
vt 0.25 0.6875
vt 0.21875 0.65625
vt 0.25 0.65625
vt 0.1875 0.75
vt 0.1875 0.71875
vt 0.1875 0.6875
vt 0.1875 0.65625

# Normal
vn 0 0 -1

# Mesh description
g backdoor_grenade_mesh_0007

# Faces
f 1/1/1 2/2/1 3/3/1 4/4/1
f 5/5/1 6/6/1 7/7/1 8/8/1
f 9/6/1 10/9/1 11/10/1 12/7/1
f 13/11/1 14/12/1 15/6/1 16/5/1
f 17/12/1 18/13/1 19/9/1 20/6/1
f 21/14/1 22/15/1 23/12/1 24/11/1
f 25/15/1 26/16/1 27/13/1 28/12/1
f 29/17/1 30/18/1 31/19/1 32/20/1
f 33/18/1 34/21/1 35/22/1 36/19/1
f 37/21/1 38/23/1 39/24/1 40/22/1
f 41/25/1 42/26/1 43/18/1 44/17/1
f 45/26/1 46/27/1 47/21/1 48/18/1
f 49/27/1 50/28/1 51/23/1 52/21/1

