# Tiled2Unity generated file. Do not modify by hand.
# Wavefront file for 'backdoor_grenade_mesh_0014.obj'

# Vertices (Count = 24)
v -5 -47 0
v -6 -47 0
v -6 -46 0
v -5 -46 0
v -6 -47 0
v -7 -47 0
v -7 -46 0
v -6 -46 0
v -5 -48 0
v -6 -48 0
v -6 -47 0
v -5 -47 0
v -6 -48 0
v -7 -48 0
v -7 -47 0
v -6 -47 0
v -5 -49 0
v -6 -49 0
v -6 -48 0
v -5 -48 0
v -6 -49 0
v -7 -49 0
v -7 -48 0
v -6 -48 0

# Texture cooridinates (Count = 12)
vt 0.25 0.625
vt 0.28125 0.625
vt 0.28125 0.65625
vt 0.25 0.65625
vt 0.3125 0.625
vt 0.3125 0.65625
vt 0.25 0.59375
vt 0.28125 0.59375
vt 0.3125 0.59375
vt 0.25 0.5625
vt 0.28125 0.5625
vt 0.3125 0.5625

# Normal
vn 0 0 -1

# Mesh description
g backdoor_grenade_mesh_0014

# Faces
f 1/1/1 2/2/1 3/3/1 4/4/1
f 5/2/1 6/5/1 7/6/1 8/3/1
f 9/7/1 10/8/1 11/2/1 12/1/1
f 13/8/1 14/9/1 15/5/1 16/2/1
f 17/10/1 18/11/1 19/8/1 20/7/1
f 21/11/1 22/12/1 23/9/1 24/8/1

