# Tiled2Unity generated file. Do not modify by hand.
# Wavefront file for 'backdoor_grenade_mesh_0006.obj'

# Vertices (Count = 156)
v -3 -35 0
v -4 -35 0
v -4 -34 0
v -3 -34 0
v -4 -35 0
v -5 -35 0
v -5 -34 0
v -4 -34 0
v -5 -35 0
v -6 -35 0
v -6 -34 0
v -5 -34 0
v -5 -36 0
v -6 -36 0
v -6 -35 0
v -5 -35 0
v -5 -37 0
v -6 -37 0
v -6 -36 0
v -5 -36 0
v -5 -38 0
v -6 -38 0
v -6 -37 0
v -5 -37 0
v -5 -39 0
v -6 -39 0
v -6 -38 0
v -5 -38 0
v -5 -40 0
v -6 -40 0
v -6 -39 0
v -5 -39 0
v -5 -41 0
v -6 -41 0
v -6 -40 0
v -5 -40 0
v -5 -43 0
v -6 -43 0
v -6 -42 0
v -5 -42 0
v -6 -43 0
v -7 -43 0
v -7 -42 0
v -6 -42 0
v -7 -43 0
v -8 -43 0
v -8 -42 0
v -7 -42 0
v -8 -43 0
v -9 -43 0
v -9 -42 0
v -8 -42 0
v -9 -43 0
v -10 -43 0
v -10 -42 0
v -9 -42 0
v -10 -43 0
v -11 -43 0
v -11 -42 0
v -10 -42 0
v -11 -43 0
v -12 -43 0
v -12 -42 0
v -11 -42 0
v -12 -43 0
v -13 -43 0
v -13 -42 0
v -12 -42 0
v -13 -43 0
v -14 -43 0
v -14 -42 0
v -13 -42 0
v -5 -44 0
v -6 -44 0
v -6 -43 0
v -5 -43 0
v -13 -44 0
v -14 -44 0
v -14 -43 0
v -13 -43 0
v -5 -45 0
v -6 -45 0
v -6 -44 0
v -5 -44 0
v -11 -45 0
v -12 -45 0
v -12 -44 0
v -11 -44 0
v -13 -45 0
v -14 -45 0
v -14 -44 0
v -13 -44 0
v -5 -46 0
v -6 -46 0
v -6 -45 0
v -5 -45 0
v -13 -46 0
v -14 -46 0
v -14 -45 0
v -13 -45 0
v -5 -47 0
v -6 -47 0
v -6 -46 0
v -5 -46 0
v -13 -47 0
v -14 -47 0
v -14 -46 0
v -13 -46 0
v -5 -48 0
v -6 -48 0
v -6 -47 0
v -5 -47 0
v -7 -48 0
v -8 -48 0
v -8 -47 0
v -7 -47 0
v -13 -48 0
v -14 -48 0
v -14 -47 0
v -13 -47 0
v -5 -49 0
v -6 -49 0
v -6 -48 0
v -5 -48 0
v -6 -49 0
v -7 -49 0
v -7 -48 0
v -6 -48 0
v -7 -49 0
v -8 -49 0
v -8 -48 0
v -7 -48 0
v -8 -49 0
v -9 -49 0
v -9 -48 0
v -8 -48 0
v -9 -49 0
v -10 -49 0
v -10 -48 0
v -9 -48 0
v -10 -49 0
v -11 -49 0
v -11 -48 0
v -10 -48 0
v -11 -49 0
v -12 -49 0
v -12 -48 0
v -11 -48 0
v -12 -49 0
v -13 -49 0
v -13 -48 0
v -12 -48 0
v -13 -49 0
v -14 -49 0
v -14 -48 0
v -13 -48 0

# Texture cooridinates (Count = 10)
vt 0.4375 0.9375
vt 0.4375 0.90625
vt 0.40625 0.90625
vt 0.40625 0.9375
vt 0.46875 0.90625
vt 0.46875 0.9375
vt 0.6875 0.84375
vt 0.71875 0.84375
vt 0.71875 0.875
vt 0.6875 0.875

# Normal
vn 0 0 -1

# Mesh description
g backdoor_grenade_mesh_0006

# Faces
f 1/1/1 2/2/1 3/3/1 4/4/1
f 5/1/1 6/2/1 7/3/1 8/4/1
f 9/5/1 10/2/1 11/1/1 12/6/1
f 13/1/1 14/4/1 15/3/1 16/2/1
f 17/1/1 18/4/1 19/3/1 20/2/1
f 21/1/1 22/4/1 23/3/1 24/2/1
f 25/1/1 26/4/1 27/3/1 28/2/1
f 29/1/1 30/4/1 31/3/1 32/2/1
f 33/1/1 34/4/1 35/3/1 36/2/1
f 37/2/1 38/5/1 39/6/1 40/1/1
f 41/2/1 42/1/1 43/4/1 44/3/1
f 45/2/1 46/1/1 47/4/1 48/3/1
f 49/2/1 50/1/1 51/4/1 52/3/1
f 53/2/1 54/1/1 55/4/1 56/3/1
f 57/2/1 58/1/1 59/4/1 60/3/1
f 61/2/1 62/1/1 63/4/1 64/3/1
f 65/2/1 66/1/1 67/4/1 68/3/1
f 69/5/1 70/6/1 71/1/1 72/2/1
f 73/3/1 74/2/1 75/1/1 76/4/1
f 77/1/1 78/4/1 79/3/1 80/2/1
f 81/3/1 82/2/1 83/1/1 84/4/1
f 85/7/1 86/8/1 87/9/1 88/10/1
f 89/1/1 90/4/1 91/3/1 92/2/1
f 93/3/1 94/2/1 95/1/1 96/4/1
f 97/1/1 98/4/1 99/3/1 100/2/1
f 101/3/1 102/2/1 103/1/1 104/4/1
f 105/1/1 106/4/1 107/3/1 108/2/1
f 109/3/1 110/2/1 111/1/1 112/4/1
f 113/9/1 114/10/1 115/7/1 116/8/1
f 117/1/1 118/4/1 119/3/1 120/2/1
f 121/1/1 122/2/1 123/5/1 124/6/1
f 125/4/1 126/3/1 127/2/1 128/1/1
f 129/4/1 130/3/1 131/2/1 132/1/1
f 133/4/1 134/3/1 135/2/1 136/1/1
f 137/4/1 138/3/1 139/2/1 140/1/1
f 141/4/1 142/3/1 143/2/1 144/1/1
f 145/4/1 146/3/1 147/2/1 148/1/1
f 149/4/1 150/3/1 151/2/1 152/1/1
f 153/6/1 154/1/1 155/2/1 156/5/1

