# Tiled2Unity generated file. Do not modify by hand.
# Wavefront file for 'gauntlet_mesh_0006.obj'

# Vertices (Count = 224)
v -33 -7 0
v -34 -7 0
v -34 -6 0
v -33 -6 0
v -37 -25 0
v -38 -25 0
v -38 -24 0
v -37 -24 0
v -28 -26 0
v -29 -26 0
v -29 -25 0
v -28 -25 0
v -14 -34 0
v -15 -34 0
v -15 -33 0
v -14 -33 0
v -15 -34 0
v -16 -34 0
v -16 -33 0
v -15 -33 0
v -14 -35 0
v -15 -35 0
v -15 -34 0
v -14 -34 0
v -15 -35 0
v -16 -35 0
v -16 -34 0
v -15 -34 0
v -14 -36 0
v -15 -36 0
v -15 -35 0
v -14 -35 0
v -15 -36 0
v -16 -36 0
v -16 -35 0
v -15 -35 0
v -10 -37 0
v -11 -37 0
v -11 -36 0
v -10 -36 0
v -10 -38 0
v -11 -38 0
v -11 -37 0
v -10 -37 0
v -10 -39 0
v -11 -39 0
v -11 -38 0
v -10 -38 0
v -12 -54 0
v -13 -54 0
v -13 -53 0
v -12 -53 0
v -13 -54 0
v -14 -54 0
v -14 -53 0
v -13 -53 0
v -14 -54 0
v -15 -54 0
v -15 -53 0
v -14 -53 0
v -15 -54 0
v -16 -54 0
v -16 -53 0
v -15 -53 0
v -12 -55 0
v -13 -55 0
v -13 -54 0
v -12 -54 0
v -13 -55 0
v -14 -55 0
v -14 -54 0
v -13 -54 0
v -14 -55 0
v -15 -55 0
v -15 -54 0
v -14 -54 0
v -15 -55 0
v -16 -55 0
v -16 -54 0
v -15 -54 0
v -12 -56 0
v -13 -56 0
v -13 -55 0
v -12 -55 0
v -13 -56 0
v -14 -56 0
v -14 -55 0
v -13 -55 0
v -14 -56 0
v -15 -56 0
v -15 -55 0
v -14 -55 0
v -15 -56 0
v -16 -56 0
v -16 -55 0
v -15 -55 0
v -12 -57 0
v -13 -57 0
v -13 -56 0
v -12 -56 0
v -13 -57 0
v -14 -57 0
v -14 -56 0
v -13 -56 0
v -14 -57 0
v -15 -57 0
v -15 -56 0
v -14 -56 0
v -15 -57 0
v -16 -57 0
v -16 -56 0
v -15 -56 0
v -12 -58 0
v -13 -58 0
v -13 -57 0
v -12 -57 0
v -13 -58 0
v -14 -58 0
v -14 -57 0
v -13 -57 0
v -14 -58 0
v -15 -58 0
v -15 -57 0
v -14 -57 0
v -15 -58 0
v -16 -58 0
v -16 -57 0
v -15 -57 0
v -12 -59 0
v -13 -59 0
v -13 -58 0
v -12 -58 0
v -13 -59 0
v -14 -59 0
v -14 -58 0
v -13 -58 0
v -14 -59 0
v -15 -59 0
v -15 -58 0
v -14 -58 0
v -15 -59 0
v -16 -59 0
v -16 -58 0
v -15 -58 0
v -12 -60 0
v -13 -60 0
v -13 -59 0
v -12 -59 0
v -13 -60 0
v -14 -60 0
v -14 -59 0
v -13 -59 0
v -14 -60 0
v -15 -60 0
v -15 -59 0
v -14 -59 0
v -15 -60 0
v -16 -60 0
v -16 -59 0
v -15 -59 0
v -12 -61 0
v -13 -61 0
v -13 -60 0
v -12 -60 0
v -13 -61 0
v -14 -61 0
v -14 -60 0
v -13 -60 0
v -14 -61 0
v -15 -61 0
v -15 -60 0
v -14 -60 0
v -15 -61 0
v -16 -61 0
v -16 -60 0
v -15 -60 0
v -12 -62 0
v -13 -62 0
v -13 -61 0
v -12 -61 0
v -13 -62 0
v -14 -62 0
v -14 -61 0
v -13 -61 0
v -14 -62 0
v -15 -62 0
v -15 -61 0
v -14 -61 0
v -15 -62 0
v -16 -62 0
v -16 -61 0
v -15 -61 0
v -12 -63 0
v -13 -63 0
v -13 -62 0
v -12 -62 0
v -13 -63 0
v -14 -63 0
v -14 -62 0
v -13 -62 0
v -14 -63 0
v -15 -63 0
v -15 -62 0
v -14 -62 0
v -15 -63 0
v -16 -63 0
v -16 -62 0
v -15 -62 0
v -12 -64 0
v -13 -64 0
v -13 -63 0
v -12 -63 0
v -13 -64 0
v -14 -64 0
v -14 -63 0
v -13 -63 0
v -14 -64 0
v -15 -64 0
v -15 -63 0
v -14 -63 0
v -15 -64 0
v -16 -64 0
v -16 -63 0
v -15 -63 0

# Texture cooridinates (Count = 31)
vt 0.6875 0.84375
vt 0.71875 0.84375
vt 0.71875 0.875
vt 0.6875 0.875
vt 0.65625 0.9375
vt 0.6875 0.9375
vt 0.6875 0.96875
vt 0.65625 0.96875
vt 0.75 0.9375
vt 0.78125 0.9375
vt 0.78125 0.96875
vt 0.75 0.96875
vt 0.4375 0.9375
vt 0.40625 0.9375
vt 0.40625 0.90625
vt 0.4375 0.90625
vt 0.90625 0.75
vt 0.90625 0.78125
vt 0.875 0.78125
vt 0.875 0.75
vt 0.90625 0.8125
vt 0.875 0.8125
vt 0.90625 0.84375
vt 0.875 0.84375
vt 0.90625 0.875
vt 0.875 0.875
vt 0.9375 0.75
vt 0.9375 0.78125
vt 0.9375 0.8125
vt 0.9375 0.84375
vt 0.9375 0.875

# Normal
vn 0 0 -1

# Mesh description
g gauntlet_mesh_0006

# Faces
f 1/1/1 2/2/1 3/3/1 4/4/1
f 5/1/1 6/2/1 7/3/1 8/4/1
f 9/1/1 10/2/1 11/3/1 12/4/1
f 13/5/1 14/6/1 15/7/1 16/8/1
f 17/9/1 18/10/1 19/11/1 20/12/1
f 21/5/1 22/6/1 23/7/1 24/8/1
f 25/9/1 26/10/1 27/11/1 28/12/1
f 29/5/1 30/6/1 31/7/1 32/8/1
f 33/9/1 34/10/1 35/11/1 36/12/1
f 37/13/1 38/14/1 39/15/1 40/16/1
f 41/13/1 42/14/1 43/15/1 44/16/1
f 45/13/1 46/14/1 47/15/1 48/16/1
f 49/17/1 50/18/1 51/19/1 52/20/1
f 53/18/1 54/21/1 55/22/1 56/19/1
f 57/21/1 58/23/1 59/24/1 60/22/1
f 61/23/1 62/25/1 63/26/1 64/24/1
f 65/27/1 66/28/1 67/18/1 68/17/1
f 69/28/1 70/29/1 71/21/1 72/18/1
f 73/29/1 74/30/1 75/23/1 76/21/1
f 77/30/1 78/31/1 79/25/1 80/23/1
f 81/27/1 82/28/1 83/18/1 84/17/1
f 85/28/1 86/29/1 87/21/1 88/18/1
f 89/29/1 90/30/1 91/23/1 92/21/1
f 93/30/1 94/31/1 95/25/1 96/23/1
f 97/27/1 98/28/1 99/18/1 100/17/1
f 101/28/1 102/29/1 103/21/1 104/18/1
f 105/29/1 106/30/1 107/23/1 108/21/1
f 109/30/1 110/31/1 111/25/1 112/23/1
f 113/27/1 114/28/1 115/18/1 116/17/1
f 117/28/1 118/29/1 119/21/1 120/18/1
f 121/29/1 122/30/1 123/23/1 124/21/1
f 125/30/1 126/31/1 127/25/1 128/23/1
f 129/27/1 130/28/1 131/18/1 132/17/1
f 133/28/1 134/29/1 135/21/1 136/18/1
f 137/29/1 138/30/1 139/23/1 140/21/1
f 141/30/1 142/31/1 143/25/1 144/23/1
f 145/27/1 146/28/1 147/18/1 148/17/1
f 149/28/1 150/29/1 151/21/1 152/18/1
f 153/29/1 154/30/1 155/23/1 156/21/1
f 157/30/1 158/31/1 159/25/1 160/23/1
f 161/27/1 162/28/1 163/18/1 164/17/1
f 165/28/1 166/29/1 167/21/1 168/18/1
f 169/29/1 170/30/1 171/23/1 172/21/1
f 173/30/1 174/31/1 175/25/1 176/23/1
f 177/27/1 178/28/1 179/18/1 180/17/1
f 181/28/1 182/29/1 183/21/1 184/18/1
f 185/29/1 186/30/1 187/23/1 188/21/1
f 189/30/1 190/31/1 191/25/1 192/23/1
f 193/27/1 194/28/1 195/18/1 196/17/1
f 197/28/1 198/29/1 199/21/1 200/18/1
f 201/29/1 202/30/1 203/23/1 204/21/1
f 205/30/1 206/31/1 207/25/1 208/23/1
f 209/27/1 210/28/1 211/18/1 212/17/1
f 213/28/1 214/29/1 215/21/1 216/18/1
f 217/29/1 218/30/1 219/23/1 220/21/1
f 221/30/1 222/31/1 223/25/1 224/23/1

