# Tiled2Unity generated file. Do not modify by hand.
# Wavefront file for 'gauntlet_mesh_0013.obj'

# Vertices (Count = 144)
v -23 -30 0
v -24 -30 0
v -24 -29 0
v -23 -29 0
v -24 -30 0
v -25 -30 0
v -25 -29 0
v -24 -29 0
v -25 -30 0
v -26 -30 0
v -26 -29 0
v -25 -29 0
v -38 -30 0
v -39 -30 0
v -39 -29 0
v -38 -29 0
v -39 -30 0
v -40 -30 0
v -40 -29 0
v -39 -29 0
v -40 -30 0
v -41 -30 0
v -41 -29 0
v -40 -29 0
v -23 -31 0
v -24 -31 0
v -24 -30 0
v -23 -30 0
v -24 -31 0
v -25 -31 0
v -25 -30 0
v -24 -30 0
v -25 -31 0
v -26 -31 0
v -26 -30 0
v -25 -30 0
v -38 -31 0
v -39 -31 0
v -39 -30 0
v -38 -30 0
v -39 -31 0
v -40 -31 0
v -40 -30 0
v -39 -30 0
v -40 -31 0
v -41 -31 0
v -41 -30 0
v -40 -30 0
v -23 -32 0
v -24 -32 0
v -24 -31 0
v -23 -31 0
v -24 -32 0
v -25 -32 0
v -25 -31 0
v -24 -31 0
v -25 -32 0
v -26 -32 0
v -26 -31 0
v -25 -31 0
v -38 -32 0
v -39 -32 0
v -39 -31 0
v -38 -31 0
v -39 -32 0
v -40 -32 0
v -40 -31 0
v -39 -31 0
v -40 -32 0
v -41 -32 0
v -41 -31 0
v -40 -31 0
v -23 -44 0
v -24 -44 0
v -24 -43 0
v -23 -43 0
v -24 -44 0
v -25 -44 0
v -25 -43 0
v -24 -43 0
v -25 -44 0
v -26 -44 0
v -26 -43 0
v -25 -43 0
v -38 -44 0
v -39 -44 0
v -39 -43 0
v -38 -43 0
v -39 -44 0
v -40 -44 0
v -40 -43 0
v -39 -43 0
v -40 -44 0
v -41 -44 0
v -41 -43 0
v -40 -43 0
v -23 -45 0
v -24 -45 0
v -24 -44 0
v -23 -44 0
v -24 -45 0
v -25 -45 0
v -25 -44 0
v -24 -44 0
v -25 -45 0
v -26 -45 0
v -26 -44 0
v -25 -44 0
v -38 -45 0
v -39 -45 0
v -39 -44 0
v -38 -44 0
v -39 -45 0
v -40 -45 0
v -40 -44 0
v -39 -44 0
v -40 -45 0
v -41 -45 0
v -41 -44 0
v -40 -44 0
v -23 -46 0
v -24 -46 0
v -24 -45 0
v -23 -45 0
v -24 -46 0
v -25 -46 0
v -25 -45 0
v -24 -45 0
v -25 -46 0
v -26 -46 0
v -26 -45 0
v -25 -45 0
v -38 -46 0
v -39 -46 0
v -39 -45 0
v -38 -45 0
v -39 -46 0
v -40 -46 0
v -40 -45 0
v -39 -45 0
v -40 -46 0
v -41 -46 0
v -41 -45 0
v -40 -45 0

# Texture cooridinates (Count = 16)
vt 0.3125 0.5
vt 0.34375 0.5
vt 0.34375 0.53125
vt 0.3125 0.53125
vt 0.375 0.5
vt 0.375 0.53125
vt 0.40625 0.5
vt 0.40625 0.53125
vt 0.3125 0.46875
vt 0.34375 0.46875
vt 0.375 0.46875
vt 0.40625 0.46875
vt 0.3125 0.4375
vt 0.34375 0.4375
vt 0.375 0.4375
vt 0.40625 0.4375

# Normal
vn 0 0 -1

# Mesh description
g gauntlet_mesh_0013

# Faces
f 1/1/1 2/2/1 3/3/1 4/4/1
f 5/2/1 6/5/1 7/6/1 8/3/1
f 9/5/1 10/7/1 11/8/1 12/6/1
f 13/1/1 14/2/1 15/3/1 16/4/1
f 17/2/1 18/5/1 19/6/1 20/3/1
f 21/5/1 22/7/1 23/8/1 24/6/1
f 25/9/1 26/10/1 27/2/1 28/1/1
f 29/10/1 30/11/1 31/5/1 32/2/1
f 33/11/1 34/12/1 35/7/1 36/5/1
f 37/9/1 38/10/1 39/2/1 40/1/1
f 41/10/1 42/11/1 43/5/1 44/2/1
f 45/11/1 46/12/1 47/7/1 48/5/1
f 49/13/1 50/14/1 51/10/1 52/9/1
f 53/14/1 54/15/1 55/11/1 56/10/1
f 57/15/1 58/16/1 59/12/1 60/11/1
f 61/13/1 62/14/1 63/10/1 64/9/1
f 65/14/1 66/15/1 67/11/1 68/10/1
f 69/15/1 70/16/1 71/12/1 72/11/1
f 73/1/1 74/2/1 75/3/1 76/4/1
f 77/2/1 78/5/1 79/6/1 80/3/1
f 81/5/1 82/7/1 83/8/1 84/6/1
f 85/1/1 86/2/1 87/3/1 88/4/1
f 89/2/1 90/5/1 91/6/1 92/3/1
f 93/5/1 94/7/1 95/8/1 96/6/1
f 97/9/1 98/10/1 99/2/1 100/1/1
f 101/10/1 102/11/1 103/5/1 104/2/1
f 105/11/1 106/12/1 107/7/1 108/5/1
f 109/9/1 110/10/1 111/2/1 112/1/1
f 113/10/1 114/11/1 115/5/1 116/2/1
f 117/11/1 118/12/1 119/7/1 120/5/1
f 121/13/1 122/14/1 123/10/1 124/9/1
f 125/14/1 126/15/1 127/11/1 128/10/1
f 129/15/1 130/16/1 131/12/1 132/11/1
f 133/13/1 134/14/1 135/10/1 136/9/1
f 137/14/1 138/15/1 139/11/1 140/10/1
f 141/15/1 142/16/1 143/12/1 144/11/1

