# Tiled2Unity generated file. Do not modify by hand.
# Wavefront file for 'gaslab_mesh_0003.obj'

# Vertices (Count = 136)
v -50 -15 0
v -51 -15 0
v -51 -14 0
v -50 -14 0
v -51 -15 0
v -52 -15 0
v -52 -14 0
v -51 -14 0
v -59 -15 0
v -60 -15 0
v -60 -14 0
v -59 -14 0
v -60 -15 0
v -61 -15 0
v -61 -14 0
v -60 -14 0
v -63 -15 0
v -64 -15 0
v -64 -14 0
v -63 -14 0
v -50 -16 0
v -51 -16 0
v -51 -15 0
v -50 -15 0
v -51 -16 0
v -52 -16 0
v -52 -15 0
v -51 -15 0
v -59 -16 0
v -60 -16 0
v -60 -15 0
v -59 -15 0
v -60 -16 0
v -61 -16 0
v -61 -15 0
v -60 -15 0
v -63 -16 0
v -64 -16 0
v -64 -15 0
v -63 -15 0
v -56 -19 0
v -57 -19 0
v -57 -18 0
v -56 -18 0
v -57 -19 0
v -58 -19 0
v -58 -18 0
v -57 -18 0
v -61 -19 0
v -62 -19 0
v -62 -18 0
v -61 -18 0
v -62 -19 0
v -63 -19 0
v -63 -18 0
v -62 -18 0
v -56 -20 0
v -57 -20 0
v -57 -19 0
v -56 -19 0
v -57 -20 0
v -58 -20 0
v -58 -19 0
v -57 -19 0
v -61 -20 0
v -62 -20 0
v -62 -19 0
v -61 -19 0
v -62 -20 0
v -63 -20 0
v -63 -19 0
v -62 -19 0
v -56 -21 0
v -57 -21 0
v -57 -20 0
v -56 -20 0
v -57 -21 0
v -58 -21 0
v -58 -20 0
v -57 -20 0
v -61 -21 0
v -62 -21 0
v -62 -20 0
v -61 -20 0
v -62 -21 0
v -63 -21 0
v -63 -20 0
v -62 -20 0
v -86 -34 0
v -87 -34 0
v -87 -33 0
v -86 -33 0
v -87 -34 0
v -88 -34 0
v -88 -33 0
v -87 -33 0
v -89 -34 0
v -90 -34 0
v -90 -33 0
v -89 -33 0
v -90 -34 0
v -91 -34 0
v -91 -33 0
v -90 -33 0
v -86 -35 0
v -87 -35 0
v -87 -34 0
v -86 -34 0
v -87 -35 0
v -88 -35 0
v -88 -34 0
v -87 -34 0
v -89 -35 0
v -90 -35 0
v -90 -34 0
v -89 -34 0
v -90 -35 0
v -91 -35 0
v -91 -34 0
v -90 -34 0
v -86 -36 0
v -87 -36 0
v -87 -35 0
v -86 -35 0
v -87 -36 0
v -88 -36 0
v -88 -35 0
v -87 -35 0
v -89 -36 0
v -90 -36 0
v -90 -35 0
v -89 -35 0
v -90 -36 0
v -91 -36 0
v -91 -35 0
v -90 -35 0

# Texture cooridinates (Count = 61)
vt 0.25 0.4375
vt 0.28125 0.4375
vt 0.28125 0.46875
vt 0.25 0.46875
vt 0.3125 0.4375
vt 0.3125 0.46875
vt 0.15625 0.96875
vt 0.1875 0.96875
vt 0.1875 1
vt 0.15625 1
vt 0.125 0.96875
vt 0.125 1
vt 0.21875 0.96875
vt 0.21875 1
vt 0.25 0.40625
vt 0.28125 0.40625
vt 0.3125 0.40625
vt 0.15625 0.9375
vt 0.1875 0.9375
vt 0.125 0.9375
vt 0.21875 0.9375
vt 0 0.8125
vt 0.03125 0.8125
vt 0.03125 0.84375
vt 0 0.84375
vt 0.0625 0.8125
vt 0.0625 0.84375
vt 0.125 0.8125
vt 0.15625 0.8125
vt 0.15625 0.84375
vt 0.125 0.84375
vt 0.1875 0.8125
vt 0.1875 0.84375
vt 0 0.78125
vt 0.03125 0.78125
vt 0.0625 0.78125
vt 0.125 0.78125
vt 0.15625 0.78125
vt 0.1875 0.78125
vt 0 0.75
vt 0.03125 0.75
vt 0.0625 0.75
vt 0.125 0.75
vt 0.15625 0.75
vt 0.1875 0.75
vt 0.25 0.8125
vt 0.28125 0.8125
vt 0.28125 0.84375
vt 0.25 0.84375
vt 0.3125 0.8125
vt 0.3125 0.84375
vt 0.21875 0.8125
vt 0.21875 0.84375
vt 0.25 0.78125
vt 0.28125 0.78125
vt 0.3125 0.78125
vt 0.21875 0.78125
vt 0.25 0.75
vt 0.28125 0.75
vt 0.3125 0.75
vt 0.21875 0.75

# Normal
vn 0 0 -1

# Mesh description
g gaslab_mesh_0003

# Faces
f 1/1/1 2/2/1 3/3/1 4/4/1
f 5/2/1 6/5/1 7/6/1 8/3/1
f 9/7/1 10/8/1 11/9/1 12/10/1
f 13/11/1 14/7/1 15/10/1 16/12/1
f 17/8/1 18/13/1 19/14/1 20/9/1
f 21/15/1 22/16/1 23/2/1 24/1/1
f 25/16/1 26/17/1 27/5/1 28/2/1
f 29/18/1 30/19/1 31/8/1 32/7/1
f 33/20/1 34/18/1 35/7/1 36/11/1
f 37/19/1 38/21/1 39/13/1 40/8/1
f 41/22/1 42/23/1 43/24/1 44/25/1
f 45/23/1 46/26/1 47/27/1 48/24/1
f 49/28/1 50/29/1 51/30/1 52/31/1
f 53/29/1 54/32/1 55/33/1 56/30/1
f 57/34/1 58/35/1 59/23/1 60/22/1
f 61/35/1 62/36/1 63/26/1 64/23/1
f 65/37/1 66/38/1 67/29/1 68/28/1
f 69/38/1 70/39/1 71/32/1 72/29/1
f 73/40/1 74/41/1 75/35/1 76/34/1
f 77/41/1 78/42/1 79/36/1 80/35/1
f 81/43/1 82/44/1 83/38/1 84/37/1
f 85/44/1 86/45/1 87/39/1 88/38/1
f 89/46/1 90/47/1 91/48/1 92/49/1
f 93/47/1 94/50/1 95/51/1 96/48/1
f 97/32/1 98/52/1 99/53/1 100/33/1
f 101/52/1 102/46/1 103/49/1 104/53/1
f 105/54/1 106/55/1 107/47/1 108/46/1
f 109/55/1 110/56/1 111/50/1 112/47/1
f 113/39/1 114/57/1 115/52/1 116/32/1
f 117/57/1 118/54/1 119/46/1 120/52/1
f 121/58/1 122/59/1 123/55/1 124/54/1
f 125/59/1 126/60/1 127/56/1 128/55/1
f 129/45/1 130/61/1 131/57/1 132/39/1
f 133/61/1 134/58/1 135/54/1 136/57/1

