# Tiled2Unity generated file. Do not modify by hand.
# Wavefront file for 'gaslab_mesh_0004.obj'

# Vertices (Count = 96)
v -39 -15 0
v -40 -15 0
v -40 -14 0
v -39 -14 0
v -40 -15 0
v -41 -15 0
v -41 -14 0
v -40 -14 0
v -41 -15 0
v -42 -15 0
v -42 -14 0
v -41 -14 0
v -47 -15 0
v -48 -15 0
v -48 -14 0
v -47 -14 0
v -48 -15 0
v -49 -15 0
v -49 -14 0
v -48 -14 0
v -49 -15 0
v -50 -15 0
v -50 -14 0
v -49 -14 0
v -39 -16 0
v -40 -16 0
v -40 -15 0
v -39 -15 0
v -40 -16 0
v -41 -16 0
v -41 -15 0
v -40 -15 0
v -41 -16 0
v -42 -16 0
v -42 -15 0
v -41 -15 0
v -47 -16 0
v -48 -16 0
v -48 -15 0
v -47 -15 0
v -48 -16 0
v -49 -16 0
v -49 -15 0
v -48 -15 0
v -49 -16 0
v -50 -16 0
v -50 -15 0
v -49 -15 0
v -86 -28 0
v -87 -28 0
v -87 -27 0
v -86 -27 0
v -87 -28 0
v -88 -28 0
v -88 -27 0
v -87 -27 0
v -88 -28 0
v -89 -28 0
v -89 -27 0
v -88 -27 0
v -86 -29 0
v -87 -29 0
v -87 -28 0
v -86 -28 0
v -87 -29 0
v -88 -29 0
v -88 -28 0
v -87 -28 0
v -88 -29 0
v -89 -29 0
v -89 -28 0
v -88 -28 0
v -77 -36 0
v -78 -36 0
v -78 -35 0
v -77 -35 0
v -78 -36 0
v -79 -36 0
v -79 -35 0
v -78 -35 0
v -79 -36 0
v -80 -36 0
v -80 -35 0
v -79 -35 0
v -77 -37 0
v -78 -37 0
v -78 -36 0
v -77 -36 0
v -78 -37 0
v -79 -37 0
v -79 -36 0
v -78 -36 0
v -79 -37 0
v -80 -37 0
v -80 -36 0
v -79 -36 0

# Texture cooridinates (Count = 12)
vt 0.71875 0.75
vt 0.71875 0.78125
vt 0.6875 0.78125
vt 0.6875 0.75
vt 0.71875 0.8125
vt 0.6875 0.8125
vt 0.71875 0.84375
vt 0.6875 0.84375
vt 0.75 0.75
vt 0.75 0.78125
vt 0.75 0.8125
vt 0.75 0.84375

# Normal
vn 0 0 -1

# Mesh description
g gaslab_mesh_0004

# Faces
f 1/1/1 2/2/1 3/3/1 4/4/1
f 5/2/1 6/5/1 7/6/1 8/3/1
f 9/5/1 10/7/1 11/8/1 12/6/1
f 13/1/1 14/2/1 15/3/1 16/4/1
f 17/2/1 18/5/1 19/6/1 20/3/1
f 21/5/1 22/7/1 23/8/1 24/6/1
f 25/9/1 26/10/1 27/2/1 28/1/1
f 29/10/1 30/11/1 31/5/1 32/2/1
f 33/11/1 34/12/1 35/7/1 36/5/1
f 37/9/1 38/10/1 39/2/1 40/1/1
f 41/10/1 42/11/1 43/5/1 44/2/1
f 45/11/1 46/12/1 47/7/1 48/5/1
f 49/1/1 50/2/1 51/3/1 52/4/1
f 53/2/1 54/5/1 55/6/1 56/3/1
f 57/5/1 58/7/1 59/8/1 60/6/1
f 61/9/1 62/10/1 63/2/1 64/1/1
f 65/10/1 66/11/1 67/5/1 68/2/1
f 69/11/1 70/12/1 71/7/1 72/5/1
f 73/7/1 74/5/1 75/11/1 76/12/1
f 77/5/1 78/2/1 79/10/1 80/11/1
f 81/2/1 82/1/1 83/9/1 84/10/1
f 85/8/1 86/6/1 87/5/1 88/7/1
f 89/6/1 90/3/1 91/2/1 92/5/1
f 93/3/1 94/4/1 95/1/1 96/2/1

