# Tiled2Unity generated file. Do not modify by hand.
# Wavefront file for '1stmap_mesh_0006.obj'

# Vertices (Count = 180)
v -33 -3 0
v -34 -3 0
v -34 -2 0
v -33 -2 0
v -33 -4 0
v -34 -4 0
v -34 -3 0
v -33 -3 0
v -33 -5 0
v -34 -5 0
v -34 -4 0
v -33 -4 0
v -58 -17 0
v -59 -17 0
v -59 -16 0
v -58 -16 0
v -60 -17 0
v -61 -17 0
v -61 -16 0
v -60 -16 0
v -58 -18 0
v -59 -18 0
v -59 -17 0
v -58 -17 0
v -60 -18 0
v -61 -18 0
v -61 -17 0
v -60 -17 0
v -58 -22 0
v -59 -22 0
v -59 -21 0
v -58 -21 0
v -60 -22 0
v -61 -22 0
v -61 -21 0
v -60 -21 0
v -58 -23 0
v -59 -23 0
v -59 -22 0
v -58 -22 0
v -60 -23 0
v -61 -23 0
v -61 -22 0
v -60 -22 0
v -52 -29 0
v -53 -29 0
v -53 -28 0
v -52 -28 0
v -57 -29 0
v -58 -29 0
v -58 -28 0
v -57 -28 0
v -47 -30 0
v -48 -30 0
v -48 -29 0
v -47 -29 0
v -48 -30 0
v -49 -30 0
v -49 -29 0
v -48 -29 0
v -49 -30 0
v -50 -30 0
v -50 -29 0
v -49 -29 0
v -50 -30 0
v -51 -30 0
v -51 -29 0
v -50 -29 0
v -51 -30 0
v -52 -30 0
v -52 -29 0
v -51 -29 0
v -52 -30 0
v -53 -30 0
v -53 -29 0
v -52 -29 0
v -57 -30 0
v -58 -30 0
v -58 -29 0
v -57 -29 0
v -58 -30 0
v -59 -30 0
v -59 -29 0
v -58 -29 0
v -59 -30 0
v -60 -30 0
v -60 -29 0
v -59 -29 0
v -60 -30 0
v -61 -30 0
v -61 -29 0
v -60 -29 0
v -61 -30 0
v -62 -30 0
v -62 -29 0
v -61 -29 0
v -62 -30 0
v -63 -30 0
v -63 -29 0
v -62 -29 0
v -63 -30 0
v -64 -30 0
v -64 -29 0
v -63 -29 0
v -47 -47 0
v -48 -47 0
v -48 -46 0
v -47 -46 0
v -48 -47 0
v -49 -47 0
v -49 -46 0
v -48 -46 0
v -49 -47 0
v -50 -47 0
v -50 -46 0
v -49 -46 0
v -50 -47 0
v -51 -47 0
v -51 -46 0
v -50 -46 0
v -51 -47 0
v -52 -47 0
v -52 -46 0
v -51 -46 0
v -52 -47 0
v -53 -47 0
v -53 -46 0
v -52 -46 0
v -53 -47 0
v -54 -47 0
v -54 -46 0
v -53 -46 0
v -54 -47 0
v -55 -47 0
v -55 -46 0
v -54 -46 0
v -55 -47 0
v -56 -47 0
v -56 -46 0
v -55 -46 0
v -56 -47 0
v -57 -47 0
v -57 -46 0
v -56 -46 0
v -57 -47 0
v -58 -47 0
v -58 -46 0
v -57 -46 0
v -58 -47 0
v -59 -47 0
v -59 -46 0
v -58 -46 0
v -59 -47 0
v -60 -47 0
v -60 -46 0
v -59 -46 0
v -60 -47 0
v -61 -47 0
v -61 -46 0
v -60 -46 0
v -61 -47 0
v -62 -47 0
v -62 -46 0
v -61 -46 0
v -62 -47 0
v -63 -47 0
v -63 -46 0
v -62 -46 0
v -63 -47 0
v -64 -47 0
v -64 -46 0
v -63 -46 0
v -62 -62 0
v -63 -62 0
v -63 -61 0
v -62 -61 0
v -62 -63 0
v -63 -63 0
v -63 -62 0
v -62 -62 0

# Texture cooridinates (Count = 37)
vt 0.09375 0.4375
vt 0.09375 0.46875
vt 0.0625 0.46875
vt 0.0625 0.4375
vt 0.15625 0.96875
vt 0.1875 0.96875
vt 0.1875 1
vt 0.15625 1
vt 0.0625 0.96875
vt 0.09375 0.96875
vt 0.09375 1
vt 0.0625 1
vt 0.15625 0.9375
vt 0.1875 0.9375
vt 0.0625 0.9375
vt 0.09375 0.9375
vt 0.3125 0.96875
vt 0.34375 0.96875
vt 0.34375 1
vt 0.3125 1
vt 0.125 0.96875
vt 0.125 1
vt 0.3125 0.9375
vt 0.34375 0.9375
vt 0.125 0.9375
vt 0.375 0.875
vt 0.40625 0.875
vt 0.40625 0.84375
vt 0.375 0.84375
vt 0.34375 0.875
vt 0.34375 0.84375
vt 0.28125 0.875
vt 0.3125 0.875
vt 0.3125 0.84375
vt 0.28125 0.84375
vt 0.25 0.875
vt 0.25 0.84375

# Normal
vn 0 0 -1

# Mesh description
g 1stmap_mesh_0006

# Faces
f 1/1/1 2/2/1 3/3/1 4/4/1
f 5/1/1 6/2/1 7/3/1 8/4/1
f 9/1/1 10/2/1 11/3/1 12/4/1
f 13/5/1 14/6/1 15/7/1 16/8/1
f 17/9/1 18/10/1 19/11/1 20/12/1
f 21/13/1 22/14/1 23/6/1 24/5/1
f 25/15/1 26/16/1 27/10/1 28/9/1
f 29/17/1 30/18/1 31/19/1 32/20/1
f 33/21/1 34/5/1 35/8/1 36/22/1
f 37/23/1 38/24/1 39/18/1 40/17/1
f 41/25/1 42/13/1 43/5/1 44/21/1
f 45/26/1 46/27/1 47/28/1 48/29/1
f 49/27/1 50/26/1 51/29/1 52/28/1
f 53/26/1 54/30/1 55/31/1 56/29/1
f 57/26/1 58/30/1 59/31/1 60/29/1
f 61/26/1 62/30/1 63/31/1 64/29/1
f 65/26/1 66/30/1 67/31/1 68/29/1
f 69/26/1 70/30/1 71/31/1 72/29/1
f 73/32/1 74/33/1 75/34/1 76/35/1
f 77/33/1 78/32/1 79/35/1 80/34/1
f 81/32/1 82/36/1 83/37/1 84/35/1
f 85/32/1 86/36/1 87/37/1 88/35/1
f 89/32/1 90/36/1 91/37/1 92/35/1
f 93/32/1 94/36/1 95/37/1 96/35/1
f 97/32/1 98/36/1 99/37/1 100/35/1
f 101/32/1 102/36/1 103/37/1 104/35/1
f 105/31/1 106/29/1 107/26/1 108/30/1
f 109/31/1 110/29/1 111/26/1 112/30/1
f 113/31/1 114/29/1 115/26/1 116/30/1
f 117/31/1 118/29/1 119/26/1 120/30/1
f 121/31/1 122/29/1 123/26/1 124/30/1
f 125/31/1 126/29/1 127/26/1 128/30/1
f 129/31/1 130/29/1 131/26/1 132/30/1
f 133/31/1 134/29/1 135/26/1 136/30/1
f 137/31/1 138/29/1 139/26/1 140/30/1
f 141/31/1 142/29/1 143/26/1 144/30/1
f 145/31/1 146/29/1 147/26/1 148/30/1
f 149/31/1 150/29/1 151/26/1 152/30/1
f 153/31/1 154/29/1 155/26/1 156/30/1
f 157/31/1 158/29/1 159/26/1 160/30/1
f 161/31/1 162/29/1 163/26/1 164/30/1
f 165/31/1 166/29/1 167/26/1 168/30/1
f 169/31/1 170/29/1 171/26/1 172/30/1
f 173/5/1 174/6/1 175/7/1 176/8/1
f 177/13/1 178/14/1 179/6/1 180/5/1

