# Tiled2Unity generated file. Do not modify by hand.
# Wavefront file for 'killzone_mesh_0003.obj'

# Vertices (Count = 440)
v -21 -22 0
v -22 -22 0
v -22 -21 0
v -21 -21 0
v -40 -22 0
v -41 -22 0
v -41 -21 0
v -40 -21 0
v -21 -23 0
v -22 -23 0
v -22 -22 0
v -21 -22 0
v -40 -23 0
v -41 -23 0
v -41 -22 0
v -40 -22 0
v -15 -31 0
v -16 -31 0
v -16 -30 0
v -15 -30 0
v -16 -31 0
v -17 -31 0
v -17 -30 0
v -16 -30 0
v -45 -31 0
v -46 -31 0
v -46 -30 0
v -45 -30 0
v -46 -31 0
v -47 -31 0
v -47 -30 0
v -46 -30 0
v -15 -32 0
v -16 -32 0
v -16 -31 0
v -15 -31 0
v -16 -32 0
v -17 -32 0
v -17 -31 0
v -16 -31 0
v -45 -32 0
v -46 -32 0
v -46 -31 0
v -45 -31 0
v -46 -32 0
v -47 -32 0
v -47 -31 0
v -46 -31 0
v -15 -33 0
v -16 -33 0
v -16 -32 0
v -15 -32 0
v -16 -33 0
v -17 -33 0
v -17 -32 0
v -16 -32 0
v -45 -33 0
v -46 -33 0
v -46 -32 0
v -45 -32 0
v -46 -33 0
v -47 -33 0
v -47 -32 0
v -46 -32 0
v -15 -34 0
v -16 -34 0
v -16 -33 0
v -15 -33 0
v -16 -34 0
v -17 -34 0
v -17 -33 0
v -16 -33 0
v -45 -34 0
v -46 -34 0
v -46 -33 0
v -45 -33 0
v -46 -34 0
v -47 -34 0
v -47 -33 0
v -46 -33 0
v -15 -35 0
v -16 -35 0
v -16 -34 0
v -15 -34 0
v -16 -35 0
v -17 -35 0
v -17 -34 0
v -16 -34 0
v -45 -35 0
v -46 -35 0
v -46 -34 0
v -45 -34 0
v -46 -35 0
v -47 -35 0
v -47 -34 0
v -46 -34 0
v -15 -36 0
v -16 -36 0
v -16 -35 0
v -15 -35 0
v -16 -36 0
v -17 -36 0
v -17 -35 0
v -16 -35 0
v -28 -36 0
v -29 -36 0
v -29 -35 0
v -28 -35 0
v -29 -36 0
v -30 -36 0
v -30 -35 0
v -29 -35 0
v -32 -36 0
v -33 -36 0
v -33 -35 0
v -32 -35 0
v -33 -36 0
v -34 -36 0
v -34 -35 0
v -33 -35 0
v -45 -36 0
v -46 -36 0
v -46 -35 0
v -45 -35 0
v -46 -36 0
v -47 -36 0
v -47 -35 0
v -46 -35 0
v -13 -64 0
v -14 -64 0
v -14 -63 0
v -13 -63 0
v -14 -64 0
v -15 -64 0
v -15 -63 0
v -14 -63 0
v -49 -64 0
v -50 -64 0
v -50 -63 0
v -49 -63 0
v -52 -64 0
v -53 -64 0
v -53 -63 0
v -52 -63 0
v -13 -65 0
v -14 -65 0
v -14 -64 0
v -13 -64 0
v -14 -65 0
v -15 -65 0
v -15 -64 0
v -14 -64 0
v -49 -65 0
v -50 -65 0
v -50 -64 0
v -49 -64 0
v -52 -65 0
v -53 -65 0
v -53 -64 0
v -52 -64 0
v -13 -66 0
v -14 -66 0
v -14 -65 0
v -13 -65 0
v -14 -66 0
v -15 -66 0
v -15 -65 0
v -14 -65 0
v -42 -69 0
v -43 -69 0
v -43 -68 0
v -42 -68 0
v -43 -69 0
v -44 -69 0
v -44 -68 0
v -43 -68 0
v -46 -69 0
v -47 -69 0
v -47 -68 0
v -46 -68 0
v -47 -69 0
v -48 -69 0
v -48 -68 0
v -47 -68 0
v -42 -70 0
v -43 -70 0
v -43 -69 0
v -42 -69 0
v -43 -70 0
v -44 -70 0
v -44 -69 0
v -43 -69 0
v -46 -70 0
v -47 -70 0
v -47 -69 0
v -46 -69 0
v -47 -70 0
v -48 -70 0
v -48 -69 0
v -47 -69 0
v -42 -71 0
v -43 -71 0
v -43 -70 0
v -42 -70 0
v -43 -71 0
v -44 -71 0
v -44 -70 0
v -43 -70 0
v -46 -71 0
v -47 -71 0
v -47 -70 0
v -46 -70 0
v -47 -71 0
v -48 -71 0
v -48 -70 0
v -47 -70 0
v -9 -74 0
v -10 -74 0
v -10 -73 0
v -9 -73 0
v -10 -74 0
v -11 -74 0
v -11 -73 0
v -10 -73 0
v -59 -74 0
v -60 -74 0
v -60 -73 0
v -59 -73 0
v -60 -74 0
v -61 -74 0
v -61 -73 0
v -60 -73 0
v -9 -75 0
v -10 -75 0
v -10 -74 0
v -9 -74 0
v -10 -75 0
v -11 -75 0
v -11 -74 0
v -10 -74 0
v -59 -75 0
v -60 -75 0
v -60 -74 0
v -59 -74 0
v -60 -75 0
v -61 -75 0
v -61 -74 0
v -60 -74 0
v -9 -76 0
v -10 -76 0
v -10 -75 0
v -9 -75 0
v -10 -76 0
v -11 -76 0
v -11 -75 0
v -10 -75 0
v -59 -76 0
v -60 -76 0
v -60 -75 0
v -59 -75 0
v -60 -76 0
v -61 -76 0
v -61 -75 0
v -60 -75 0
v -9 -77 0
v -10 -77 0
v -10 -76 0
v -9 -76 0
v -10 -77 0
v -11 -77 0
v -11 -76 0
v -10 -76 0
v -59 -77 0
v -60 -77 0
v -60 -76 0
v -59 -76 0
v -60 -77 0
v -61 -77 0
v -61 -76 0
v -60 -76 0
v -9 -78 0
v -10 -78 0
v -10 -77 0
v -9 -77 0
v -10 -78 0
v -11 -78 0
v -11 -77 0
v -10 -77 0
v -59 -78 0
v -60 -78 0
v -60 -77 0
v -59 -77 0
v -60 -78 0
v -61 -78 0
v -61 -77 0
v -60 -77 0
v -9 -79 0
v -10 -79 0
v -10 -78 0
v -9 -78 0
v -10 -79 0
v -11 -79 0
v -11 -78 0
v -10 -78 0
v -59 -79 0
v -60 -79 0
v -60 -78 0
v -59 -78 0
v -60 -79 0
v -61 -79 0
v -61 -78 0
v -60 -78 0
v -50 -81 0
v -51 -81 0
v -51 -80 0
v -50 -80 0
v -51 -81 0
v -52 -81 0
v -52 -80 0
v -51 -80 0
v -52 -81 0
v -53 -81 0
v -53 -80 0
v -52 -80 0
v -58 -81 0
v -59 -81 0
v -59 -80 0
v -58 -80 0
v -59 -81 0
v -60 -81 0
v -60 -80 0
v -59 -80 0
v -60 -81 0
v -61 -81 0
v -61 -80 0
v -60 -80 0
v -52 -82 0
v -53 -82 0
v -53 -81 0
v -52 -81 0
v -58 -82 0
v -59 -82 0
v -59 -81 0
v -58 -81 0
v -37 -83 0
v -38 -83 0
v -38 -82 0
v -37 -82 0
v -38 -83 0
v -39 -83 0
v -39 -82 0
v -38 -82 0
v -37 -84 0
v -38 -84 0
v -38 -83 0
v -37 -83 0
v -38 -84 0
v -39 -84 0
v -39 -83 0
v -38 -83 0
v -52 -84 0
v -53 -84 0
v -53 -83 0
v -52 -83 0
v -53 -84 0
v -54 -84 0
v -54 -83 0
v -53 -83 0
v -54 -84 0
v -55 -84 0
v -55 -83 0
v -54 -83 0
v -55 -84 0
v -56 -84 0
v -56 -83 0
v -55 -83 0
v -58 -84 0
v -59 -84 0
v -59 -83 0
v -58 -83 0
v -59 -84 0
v -60 -84 0
v -60 -83 0
v -59 -83 0
v -37 -85 0
v -38 -85 0
v -38 -84 0
v -37 -84 0
v -38 -85 0
v -39 -85 0
v -39 -84 0
v -38 -84 0
v -52 -85 0
v -53 -85 0
v -53 -84 0
v -52 -84 0
v -53 -85 0
v -54 -85 0
v -54 -84 0
v -53 -84 0
v -54 -85 0
v -55 -85 0
v -55 -84 0
v -54 -84 0
v -55 -85 0
v -56 -85 0
v -56 -84 0
v -55 -84 0
v -58 -85 0
v -59 -85 0
v -59 -84 0
v -58 -84 0
v -59 -85 0
v -60 -85 0
v -60 -84 0
v -59 -84 0
v -52 -86 0
v -53 -86 0
v -53 -85 0
v -52 -85 0
v -53 -86 0
v -54 -86 0
v -54 -85 0
v -53 -85 0
v -54 -86 0
v -55 -86 0
v -55 -85 0
v -54 -85 0
v -55 -86 0
v -56 -86 0
v -56 -85 0
v -55 -85 0
v -58 -86 0
v -59 -86 0
v -59 -85 0
v -58 -85 0
v -59 -86 0
v -60 -86 0
v -60 -85 0
v -59 -85 0

# Texture cooridinates (Count = 107)
vt 0.09375 0.4375
vt 0.09375 0.46875
vt 0.0625 0.46875
vt 0.0625 0.4375
vt 0.25 0.4375
vt 0.28125 0.4375
vt 0.28125 0.46875
vt 0.25 0.46875
vt 0.3125 0.4375
vt 0.3125 0.46875
vt 0.28125 0.40625
vt 0.3125 0.40625
vt 0.25 0.40625
vt 0.21875 0.46875
vt 0.21875 0.4375
vt 0.21875 0.40625
vt 0.0625 1
vt 0.0625 0.96875
vt 0.09375 0.96875
vt 0.09375 1
vt 0.0625 0.9375
vt 0.09375 0.9375
vt 0.15625 1
vt 0.15625 0.96875
vt 0.1875 0.96875
vt 0.1875 1
vt 0.15625 0.9375
vt 0.1875 0.9375
vt 0.1875 0.8125
vt 0.21875 0.8125
vt 0.21875 0.84375
vt 0.1875 0.84375
vt 0.25 0.8125
vt 0.25 0.84375
vt 0.21875 0.96875
vt 0.21875 1
vt 0.1875 0.78125
vt 0.21875 0.78125
vt 0.25 0.78125
vt 0.21875 0.9375
vt 0.1875 0.75
vt 0.21875 0.75
vt 0.25 0.75
vt 0 0.8125
vt 0.03125 0.8125
vt 0.03125 0.84375
vt 0 0.84375
vt 0.0625 0.8125
vt 0.0625 0.84375
vt 0 0.71875
vt 0.03125 0.71875
vt 0.03125 0.75
vt 0 0.75
vt 0.0625 0.71875
vt 0.0625 0.75
vt 0 0.78125
vt 0.03125 0.78125
vt 0.0625 0.78125
vt 0 0.6875
vt 0.03125 0.6875
vt 0.0625 0.6875
vt 0 0.65625
vt 0.03125 0.65625
vt 0.0625 0.65625
vt 0.5 0.8125
vt 0.53125 0.8125
vt 0.53125 0.84375
vt 0.5 0.84375
vt 0.5625 0.8125
vt 0.5625 0.84375
vt 0.75 0.78125
vt 0.71875 0.78125
vt 0.71875 0.75
vt 0.75 0.75
vt 0.6875 0.78125
vt 0.6875 0.75
vt 0.5 0.78125
vt 0.53125 0.78125
vt 0.5625 0.78125
vt 0.75 0.8125
vt 0.71875 0.8125
vt 0.6875 0.8125
vt 0.5 0.75
vt 0.53125 0.75
vt 0.5625 0.75
vt 0.75 0.84375
vt 0.71875 0.84375
vt 0.6875 0.84375
vt 0.28125 0.84375
vt 0.28125 0.875
vt 0.25 0.875
vt 0.3125 0.84375
vt 0.3125 0.875
vt 0.34375 0.84375
vt 0.375 0.84375
vt 0.375 0.875
vt 0.34375 0.875
vt 0.40625 0.84375
vt 0.40625 0.875
vt 0.09375 0.8125
vt 0.09375 0.84375
vt 0.125 0.8125
vt 0.125 0.84375
vt 0.09375 0.78125
vt 0.125 0.78125
vt 0.09375 0.75
vt 0.125 0.75

# Normal
vn 0 0 -1

# Mesh description
g killzone_mesh_0003

# Faces
f 1/1/1 2/2/1 3/3/1 4/4/1
f 5/1/1 6/2/1 7/3/1 8/4/1
f 9/1/1 10/2/1 11/3/1 12/4/1
f 13/1/1 14/2/1 15/3/1 16/4/1
f 17/5/1 18/6/1 19/7/1 20/8/1
f 21/6/1 22/9/1 23/10/1 24/7/1
f 25/9/1 26/6/1 27/11/1 28/12/1
f 29/6/1 30/5/1 31/13/1 32/11/1
f 33/13/1 34/11/1 35/6/1 36/5/1
f 37/11/1 38/12/1 39/9/1 40/6/1
f 41/10/1 42/7/1 43/6/1 44/9/1
f 45/7/1 46/8/1 47/5/1 48/6/1
f 49/14/1 50/15/1 51/5/1 52/8/1
f 53/15/1 54/16/1 55/13/1 56/5/1
f 57/13/1 58/5/1 59/15/1 60/16/1
f 61/5/1 62/8/1 63/14/1 64/15/1
f 65/14/1 66/15/1 67/5/1 68/8/1
f 69/15/1 70/16/1 71/13/1 72/5/1
f 73/13/1 74/5/1 75/15/1 76/16/1
f 77/5/1 78/8/1 79/14/1 80/15/1
f 81/5/1 82/6/1 83/7/1 84/8/1
f 85/6/1 86/9/1 87/10/1 88/7/1
f 89/9/1 90/6/1 91/11/1 92/12/1
f 93/6/1 94/5/1 95/13/1 96/11/1
f 97/13/1 98/11/1 99/6/1 100/5/1
f 101/11/1 102/12/1 103/9/1 104/6/1
f 105/17/1 106/18/1 107/19/1 108/20/1
f 109/18/1 110/21/1 111/22/1 112/19/1
f 113/23/1 114/24/1 115/25/1 116/26/1
f 117/24/1 118/27/1 119/28/1 120/25/1
f 121/10/1 122/7/1 123/6/1 124/9/1
f 125/7/1 126/8/1 127/5/1 128/6/1
f 129/29/1 130/30/1 131/31/1 132/32/1
f 133/30/1 134/33/1 135/34/1 136/31/1
f 137/18/1 138/19/1 139/20/1 140/17/1
f 141/25/1 142/35/1 143/36/1 144/26/1
f 145/37/1 146/38/1 147/30/1 148/29/1
f 149/38/1 150/39/1 151/33/1 152/30/1
f 153/21/1 154/22/1 155/19/1 156/18/1
f 157/28/1 158/40/1 159/35/1 160/25/1
f 161/41/1 162/42/1 163/38/1 164/37/1
f 165/42/1 166/43/1 167/39/1 168/38/1
f 169/44/1 170/45/1 171/46/1 172/47/1
f 173/45/1 174/48/1 175/49/1 176/46/1
f 177/50/1 178/51/1 179/52/1 180/53/1
f 181/51/1 182/54/1 183/55/1 184/52/1
f 185/56/1 186/57/1 187/45/1 188/44/1
f 189/57/1 190/58/1 191/48/1 192/45/1
f 193/59/1 194/60/1 195/51/1 196/50/1
f 197/60/1 198/61/1 199/54/1 200/51/1
f 201/53/1 202/52/1 203/57/1 204/56/1
f 205/52/1 206/55/1 207/58/1 208/57/1
f 209/62/1 210/63/1 211/60/1 212/59/1
f 213/63/1 214/64/1 215/61/1 216/60/1
f 217/65/1 218/66/1 219/67/1 220/68/1
f 221/66/1 222/69/1 223/70/1 224/67/1
f 225/71/1 226/72/1 227/73/1 228/74/1
f 229/72/1 230/75/1 231/76/1 232/73/1
f 233/77/1 234/78/1 235/66/1 236/65/1
f 237/78/1 238/79/1 239/69/1 240/66/1
f 241/80/1 242/81/1 243/72/1 244/71/1
f 245/81/1 246/82/1 247/75/1 248/72/1
f 249/83/1 250/84/1 251/78/1 252/77/1
f 253/84/1 254/85/1 255/79/1 256/78/1
f 257/86/1 258/87/1 259/81/1 260/80/1
f 261/87/1 262/88/1 263/82/1 264/81/1
f 265/29/1 266/30/1 267/31/1 268/32/1
f 269/30/1 270/33/1 271/34/1 272/31/1
f 273/71/1 274/72/1 275/73/1 276/74/1
f 277/72/1 278/75/1 279/76/1 280/73/1
f 281/37/1 282/38/1 283/30/1 284/29/1
f 285/38/1 286/39/1 287/33/1 288/30/1
f 289/80/1 290/81/1 291/72/1 292/71/1
f 293/81/1 294/82/1 295/75/1 296/72/1
f 297/41/1 298/42/1 299/38/1 300/37/1
f 301/42/1 302/43/1 303/39/1 304/38/1
f 305/86/1 306/87/1 307/81/1 308/80/1
f 309/87/1 310/88/1 311/82/1 312/81/1
f 313/34/1 314/89/1 315/90/1 316/91/1
f 317/34/1 318/89/1 319/90/1 320/91/1
f 321/89/1 322/92/1 323/93/1 324/90/1
f 325/92/1 326/89/1 327/90/1 328/93/1
f 329/94/1 330/95/1 331/96/1 332/97/1
f 333/94/1 334/95/1 335/96/1 336/97/1
f 337/95/1 338/98/1 339/99/1 340/96/1
f 341/98/1 342/95/1 343/96/1 344/99/1
f 345/29/1 346/30/1 347/31/1 348/32/1
f 349/30/1 350/33/1 351/34/1 352/31/1
f 353/37/1 354/38/1 355/30/1 356/29/1
f 357/38/1 358/39/1 359/33/1 360/30/1
f 361/50/1 362/51/1 363/52/1 364/53/1
f 365/51/1 366/54/1 367/55/1 368/52/1
f 369/48/1 370/100/1 371/101/1 372/49/1
f 373/100/1 374/102/1 375/103/1 376/101/1
f 377/50/1 378/51/1 379/52/1 380/53/1
f 381/51/1 382/54/1 383/55/1 384/52/1
f 385/41/1 386/42/1 387/38/1 388/37/1
f 389/42/1 390/43/1 391/39/1 392/38/1
f 393/59/1 394/60/1 395/51/1 396/50/1
f 397/60/1 398/61/1 399/54/1 400/51/1
f 401/58/1 402/104/1 403/100/1 404/48/1
f 405/104/1 406/105/1 407/102/1 408/100/1
f 409/59/1 410/60/1 411/51/1 412/50/1
f 413/60/1 414/61/1 415/54/1 416/51/1
f 417/62/1 418/63/1 419/60/1 420/59/1
f 421/63/1 422/64/1 423/61/1 424/60/1
f 425/55/1 426/106/1 427/104/1 428/58/1
f 429/106/1 430/107/1 431/105/1 432/104/1
f 433/62/1 434/63/1 435/60/1 436/59/1
f 437/63/1 438/64/1 439/61/1 440/60/1

