# Tiled2Unity generated file. Do not modify by hand.
# Wavefront file for 'corridors_mesh_0009.obj'

# Vertices (Count = 356)
v -9 -11 0
v -10 -11 0
v -10 -10 0
v -9 -10 0
v -10 -11 0
v -11 -11 0
v -11 -10 0
v -10 -10 0
v -20 -11 0
v -21 -11 0
v -21 -10 0
v -20 -10 0
v -9 -12 0
v -10 -12 0
v -10 -11 0
v -9 -11 0
v -10 -12 0
v -11 -12 0
v -11 -11 0
v -10 -11 0
v -20 -12 0
v -21 -12 0
v -21 -11 0
v -20 -11 0
v -21 -12 0
v -22 -12 0
v -22 -11 0
v -21 -11 0
v -9 -13 0
v -10 -13 0
v -10 -12 0
v -9 -12 0
v -10 -13 0
v -11 -13 0
v -11 -12 0
v -10 -12 0
v -51 -13 0
v -52 -13 0
v -52 -12 0
v -51 -12 0
v -52 -13 0
v -53 -13 0
v -53 -12 0
v -52 -12 0
v -53 -13 0
v -54 -13 0
v -54 -12 0
v -53 -12 0
v -54 -13 0
v -55 -13 0
v -55 -12 0
v -54 -12 0
v -9 -15 0
v -10 -15 0
v -10 -14 0
v -9 -14 0
v -10 -15 0
v -11 -15 0
v -11 -14 0
v -10 -14 0
v -9 -16 0
v -10 -16 0
v -10 -15 0
v -9 -15 0
v -10 -16 0
v -11 -16 0
v -11 -15 0
v -10 -15 0
v -9 -17 0
v -10 -17 0
v -10 -16 0
v -9 -16 0
v -10 -17 0
v -11 -17 0
v -11 -16 0
v -10 -16 0
v -20 -17 0
v -21 -17 0
v -21 -16 0
v -20 -16 0
v -21 -17 0
v -22 -17 0
v -22 -16 0
v -21 -16 0
v -20 -18 0
v -21 -18 0
v -21 -17 0
v -20 -17 0
v -60 -18 0
v -61 -18 0
v -61 -17 0
v -60 -17 0
v -60 -19 0
v -61 -19 0
v -61 -18 0
v -60 -18 0
v -15 -22 0
v -16 -22 0
v -16 -21 0
v -15 -21 0
v -16 -22 0
v -17 -22 0
v -17 -21 0
v -16 -21 0
v -9 -23 0
v -10 -23 0
v -10 -22 0
v -9 -22 0
v -10 -23 0
v -11 -23 0
v -11 -22 0
v -10 -22 0
v -15 -23 0
v -16 -23 0
v -16 -22 0
v -15 -22 0
v -16 -23 0
v -17 -23 0
v -17 -22 0
v -16 -22 0
v -8 -24 0
v -9 -24 0
v -9 -23 0
v -8 -23 0
v -9 -24 0
v -10 -24 0
v -10 -23 0
v -9 -23 0
v -10 -24 0
v -11 -24 0
v -11 -23 0
v -10 -23 0
v -15 -24 0
v -16 -24 0
v -16 -23 0
v -15 -23 0
v -16 -24 0
v -17 -24 0
v -17 -23 0
v -16 -23 0
v -39 -25 0
v -40 -25 0
v -40 -24 0
v -39 -24 0
v -42 -25 0
v -43 -25 0
v -43 -24 0
v -42 -24 0
v -39 -26 0
v -40 -26 0
v -40 -25 0
v -39 -25 0
v -42 -26 0
v -43 -26 0
v -43 -25 0
v -42 -25 0
v -46 -28 0
v -47 -28 0
v -47 -27 0
v -46 -27 0
v -47 -28 0
v -48 -28 0
v -48 -27 0
v -47 -27 0
v -47 -29 0
v -48 -29 0
v -48 -28 0
v -47 -28 0
v -46 -30 0
v -47 -30 0
v -47 -29 0
v -46 -29 0
v -47 -30 0
v -48 -30 0
v -48 -29 0
v -47 -29 0
v -38 -32 0
v -39 -32 0
v -39 -31 0
v -38 -31 0
v -39 -32 0
v -40 -32 0
v -40 -31 0
v -39 -31 0
v -46 -32 0
v -47 -32 0
v -47 -31 0
v -46 -31 0
v -47 -32 0
v -48 -32 0
v -48 -31 0
v -47 -31 0
v -38 -33 0
v -39 -33 0
v -39 -32 0
v -38 -32 0
v -39 -33 0
v -40 -33 0
v -40 -32 0
v -39 -32 0
v -46 -33 0
v -47 -33 0
v -47 -32 0
v -46 -32 0
v -47 -33 0
v -48 -33 0
v -48 -32 0
v -47 -32 0
v -38 -34 0
v -39 -34 0
v -39 -33 0
v -38 -33 0
v -39 -34 0
v -40 -34 0
v -40 -33 0
v -39 -33 0
v -46 -34 0
v -47 -34 0
v -47 -33 0
v -46 -33 0
v -47 -34 0
v -48 -34 0
v -48 -33 0
v -47 -33 0
v -10 -35 0
v -11 -35 0
v -11 -34 0
v -10 -34 0
v 0 -36 0
v -1 -36 0
v -1 -35 0
v 0 -35 0
v -1 -36 0
v -2 -36 0
v -2 -35 0
v -1 -35 0
v -2 -36 0
v -3 -36 0
v -3 -35 0
v -2 -35 0
v -3 -36 0
v -4 -36 0
v -4 -35 0
v -3 -35 0
v -4 -36 0
v -5 -36 0
v -5 -35 0
v -4 -35 0
v -5 -36 0
v -6 -36 0
v -6 -35 0
v -5 -35 0
v -6 -36 0
v -7 -36 0
v -7 -35 0
v -6 -35 0
v -7 -36 0
v -8 -36 0
v -8 -35 0
v -7 -35 0
v -8 -36 0
v -9 -36 0
v -9 -35 0
v -8 -35 0
v -9 -36 0
v -10 -36 0
v -10 -35 0
v -9 -35 0
v -10 -36 0
v -11 -36 0
v -11 -35 0
v -10 -35 0
v 0 -39 0
v -1 -39 0
v -1 -38 0
v 0 -38 0
v -1 -39 0
v -2 -39 0
v -2 -38 0
v -1 -38 0
v -2 -39 0
v -3 -39 0
v -3 -38 0
v -2 -38 0
v -3 -39 0
v -4 -39 0
v -4 -38 0
v -3 -38 0
v -4 -39 0
v -5 -39 0
v -5 -38 0
v -4 -38 0
v -5 -39 0
v -6 -39 0
v -6 -38 0
v -5 -38 0
v -6 -39 0
v -7 -39 0
v -7 -38 0
v -6 -38 0
v -7 -39 0
v -8 -39 0
v -8 -38 0
v -7 -38 0
v -8 -39 0
v -9 -39 0
v -9 -38 0
v -8 -38 0
v -9 -39 0
v -10 -39 0
v -10 -38 0
v -9 -38 0
v -10 -39 0
v -11 -39 0
v -11 -38 0
v -10 -38 0
v -10 -40 0
v -11 -40 0
v -11 -39 0
v -10 -39 0
v -50 -45 0
v -51 -45 0
v -51 -44 0
v -50 -44 0
v -54 -45 0
v -55 -45 0
v -55 -44 0
v -54 -44 0
v -55 -45 0
v -56 -45 0
v -56 -44 0
v -55 -44 0
v -50 -46 0
v -51 -46 0
v -51 -45 0
v -50 -45 0
v -50 -47 0
v -51 -47 0
v -51 -46 0
v -50 -46 0
v -50 -48 0
v -51 -48 0
v -51 -47 0
v -50 -47 0
v -50 -49 0
v -51 -49 0
v -51 -48 0
v -50 -48 0
v -54 -49 0
v -55 -49 0
v -55 -48 0
v -54 -48 0
v -55 -49 0
v -56 -49 0
v -56 -48 0
v -55 -48 0

# Texture cooridinates (Count = 81)
vt 0.0625 0.8125
vt 0.09375 0.8125
vt 0.09375 0.84375
vt 0.0625 0.84375
vt 0.125 0.8125
vt 0.125 0.84375
vt 0.09375 0.875
vt 0.125 0.875
vt 0.0625 0.78125
vt 0.09375 0.78125
vt 0.125 0.78125
vt 0.0625 0.875
vt 0.03125 0.84375
vt 0.03125 0.875
vt 0.40625 0.875
vt 0.40625 0.84375
vt 0.375 0.84375
vt 0.375 0.875
vt 0.0625 0.75
vt 0.09375 0.75
vt 0.125 0.75
vt 0.4375 0.84375
vt 0.46875 0.84375
vt 0.46875 0.875
vt 0.4375 0.875
vt 0.5 0.84375
vt 0.5 0.875
vt 0.15625 0.8125
vt 0.15625 0.84375
vt 0.1875 0.8125
vt 0.1875 0.84375
vt 0.15625 0.78125
vt 0.1875 0.78125
vt 0.15625 0.75
vt 0.1875 0.75
vt 0 0.875
vt 0 0.84375
vt 0.5625 0.84375
vt 0.5625 0.875
vt 0.53125 0.875
vt 0.53125 0.84375
vt 0.28125 0.96875
vt 0.25 0.96875
vt 0.25 0.9375
vt 0.28125 0.9375
vt 0.40625 1
vt 0.375 1
vt 0.375 0.96875
vt 0.40625 0.96875
vt 0.28125 1
vt 0.25 1
vt 0.09375 0.4375
vt 0.09375 0.46875
vt 0.0625 0.46875
vt 0.0625 0.4375
vt 0.125 0.25
vt 0.15625 0.25
vt 0.15625 0.28125
vt 0.125 0.28125
vt 0.1875 0.25
vt 0.1875 0.28125
vt 0.15625 0.21875
vt 0.1875 0.21875
vt 0.125 0.1875
vt 0.15625 0.1875
vt 0.125 0.21875
vt 0.1875 0.1875
vt 0 0.8125
vt 0.03125 0.8125
vt 0 0.78125
vt 0.03125 0.78125
vt 0 0.75
vt 0.03125 0.75
vt 0.28125 0.84375
vt 0.28125 0.875
vt 0.25 0.875
vt 0.25 0.84375
vt 0.3125 0.84375
vt 0.3125 0.875
vt 0.34375 0.875
vt 0.34375 0.84375

# Normal
vn 0 0 -1

# Mesh description
g corridors_mesh_0009

# Faces
f 1/1/1 2/2/1 3/3/1 4/4/1
f 5/2/1 6/5/1 7/6/1 8/3/1
f 9/7/1 10/3/1 11/6/1 12/8/1
f 13/9/1 14/10/1 15/2/1 16/1/1
f 17/10/1 18/11/1 19/5/1 20/2/1
f 21/12/1 22/4/1 23/13/1 24/14/1
f 25/15/1 26/16/1 27/17/1 28/18/1
f 29/19/1 30/20/1 31/10/1 32/9/1
f 33/20/1 34/21/1 35/11/1 36/10/1
f 37/22/1 38/23/1 39/24/1 40/25/1
f 41/23/1 42/26/1 43/27/1 44/24/1
f 45/22/1 46/23/1 47/24/1 48/25/1
f 49/23/1 50/26/1 51/27/1 52/24/1
f 53/5/1 54/28/1 55/29/1 56/6/1
f 57/28/1 58/30/1 59/31/1 60/29/1
f 61/11/1 62/32/1 63/28/1 64/5/1
f 65/32/1 66/33/1 67/30/1 68/28/1
f 69/21/1 70/34/1 71/32/1 72/11/1
f 73/34/1 74/35/1 75/33/1 76/32/1
f 77/14/1 78/13/1 79/4/1 80/12/1
f 81/18/1 82/17/1 83/16/1 84/15/1
f 85/36/1 86/37/1 87/13/1 88/14/1
f 89/38/1 90/39/1 91/40/1 92/41/1
f 93/41/1 94/40/1 95/39/1 96/38/1
f 97/1/1 98/2/1 99/3/1 100/4/1
f 101/2/1 102/5/1 103/6/1 104/3/1
f 105/42/1 106/43/1 107/44/1 108/45/1
f 109/42/1 110/43/1 111/44/1 112/45/1
f 113/9/1 114/10/1 115/2/1 116/1/1
f 117/10/1 118/11/1 119/5/1 120/2/1
f 121/46/1 122/47/1 123/48/1 124/49/1
f 125/50/1 126/51/1 127/43/1 128/42/1
f 129/50/1 130/51/1 131/43/1 132/42/1
f 133/19/1 134/20/1 135/10/1 136/9/1
f 137/20/1 138/21/1 139/11/1 140/10/1
f 141/52/1 142/53/1 143/54/1 144/55/1
f 145/52/1 146/53/1 147/54/1 148/55/1
f 149/52/1 150/53/1 151/54/1 152/55/1
f 153/52/1 154/53/1 155/54/1 156/55/1
f 157/56/1 158/57/1 159/58/1 160/59/1
f 161/57/1 162/60/1 163/61/1 164/58/1
f 165/62/1 166/63/1 167/60/1 168/57/1
f 169/64/1 170/65/1 171/62/1 172/66/1
f 173/65/1 174/67/1 175/63/1 176/62/1
f 177/68/1 178/69/1 179/13/1 180/37/1
f 181/69/1 182/1/1 183/4/1 184/13/1
f 185/1/1 186/2/1 187/3/1 188/4/1
f 189/2/1 190/5/1 191/6/1 192/3/1
f 193/70/1 194/71/1 195/69/1 196/68/1
f 197/71/1 198/9/1 199/1/1 200/69/1
f 201/9/1 202/10/1 203/2/1 204/1/1
f 205/10/1 206/11/1 207/5/1 208/2/1
f 209/72/1 210/73/1 211/71/1 212/70/1
f 213/73/1 214/19/1 215/9/1 216/71/1
f 217/19/1 218/20/1 219/10/1 220/9/1
f 221/20/1 222/21/1 223/11/1 224/10/1
f 225/74/1 226/75/1 227/76/1 228/77/1
f 229/22/1 230/25/1 231/15/1 232/16/1
f 233/22/1 234/25/1 235/15/1 236/16/1
f 237/22/1 238/25/1 239/15/1 240/16/1
f 241/22/1 242/25/1 243/15/1 244/16/1
f 245/22/1 246/25/1 247/15/1 248/16/1
f 249/22/1 250/25/1 251/15/1 252/16/1
f 253/22/1 254/25/1 255/15/1 256/16/1
f 257/22/1 258/25/1 259/15/1 260/16/1
f 261/22/1 262/25/1 263/15/1 264/16/1
f 265/22/1 266/25/1 267/15/1 268/16/1
f 269/78/1 270/79/1 271/75/1 272/74/1
f 273/15/1 274/16/1 275/22/1 276/25/1
f 277/15/1 278/16/1 279/22/1 280/25/1
f 281/15/1 282/16/1 283/22/1 284/25/1
f 285/15/1 286/16/1 287/22/1 288/25/1
f 289/15/1 290/16/1 291/22/1 292/25/1
f 293/15/1 294/16/1 295/22/1 296/25/1
f 297/15/1 298/16/1 299/22/1 300/25/1
f 301/15/1 302/16/1 303/22/1 304/25/1
f 305/15/1 306/16/1 307/22/1 308/25/1
f 309/15/1 310/16/1 311/22/1 312/25/1
f 313/74/1 314/75/1 315/79/1 316/78/1
f 317/17/1 318/18/1 319/80/1 320/81/1
f 321/52/1 322/53/1 323/54/1 324/55/1
f 325/79/1 326/78/1 327/74/1 328/75/1
f 329/15/1 330/16/1 331/17/1 332/18/1
f 333/52/1 334/53/1 335/54/1 336/55/1
f 337/52/1 338/53/1 339/54/1 340/55/1
f 341/52/1 342/53/1 343/54/1 344/55/1
f 345/52/1 346/53/1 347/54/1 348/55/1
f 349/75/1 350/74/1 351/78/1 352/79/1
f 353/18/1 354/17/1 355/16/1 356/15/1

