# Tiled2Unity generated file. Do not modify by hand.
# Wavefront file for 'glassfloor_mesh_0002.obj'

# Vertices (Count = 48)
v -24 -13 0
v -25 -13 0
v -25 -12 0
v -24 -12 0
v -27 -13 0
v -28 -13 0
v -28 -12 0
v -27 -12 0
v -7 -31 0
v -8 -31 0
v -8 -30 0
v -7 -30 0
v -8 -37 0
v -9 -37 0
v -9 -36 0
v -8 -36 0
v -17 -54 0
v -18 -54 0
v -18 -53 0
v -17 -53 0
v -17 -55 0
v -18 -55 0
v -18 -54 0
v -17 -54 0
v -17 -56 0
v -18 -56 0
v -18 -55 0
v -17 -55 0
v -17 -57 0
v -18 -57 0
v -18 -56 0
v -17 -56 0
v -17 -58 0
v -18 -58 0
v -18 -57 0
v -17 -57 0
v -17 -59 0
v -18 -59 0
v -18 -58 0
v -17 -58 0
v -17 -60 0
v -18 -60 0
v -18 -59 0
v -17 -59 0
v -17 -61 0
v -18 -61 0
v -18 -60 0
v -17 -60 0

# Texture cooridinates (Count = 10)
vt 0.6875 0.875
vt 0.6875 0.84375
vt 0.71875 0.84375
vt 0.71875 0.875
vt 0.625 0.84375
vt 0.625 0.875
vt 0.59375 0.875
vt 0.59375 0.84375
vt 0.65625 0.84375
vt 0.65625 0.875

# Normal
vn 0 0 -1

# Mesh description
g glassfloor_mesh_0002

# Faces
f 1/1/1 2/2/1 3/3/1 4/4/1
f 5/1/1 6/2/1 7/3/1 8/4/1
f 9/4/1 10/1/1 11/2/1 12/3/1
f 13/4/1 14/1/1 15/2/1 16/3/1
f 17/5/1 18/6/1 19/7/1 20/8/1
f 21/9/1 22/10/1 23/6/1 24/5/1
f 25/9/1 26/10/1 27/6/1 28/5/1
f 29/9/1 30/10/1 31/6/1 32/5/1
f 33/9/1 34/10/1 35/6/1 36/5/1
f 37/9/1 38/10/1 39/6/1 40/5/1
f 41/9/1 42/10/1 43/6/1 44/5/1
f 45/2/1 46/1/1 47/10/1 48/9/1

