# Tiled2Unity generated file. Do not modify by hand.
# Wavefront file for 'glassfloor_mesh_0003.obj'

# Vertices (Count = 372)
v -26 -11 0
v -27 -11 0
v -27 -10 0
v -26 -10 0
v -27 -11 0
v -28 -11 0
v -28 -10 0
v -27 -10 0
v -28 -11 0
v -29 -11 0
v -29 -10 0
v -28 -10 0
v -29 -11 0
v -30 -11 0
v -30 -10 0
v -29 -10 0
v -30 -11 0
v -31 -11 0
v -31 -10 0
v -30 -10 0
v -26 -12 0
v -27 -12 0
v -27 -11 0
v -26 -11 0
v -27 -12 0
v -28 -12 0
v -28 -11 0
v -27 -11 0
v -28 -12 0
v -29 -12 0
v -29 -11 0
v -28 -11 0
v -61 -13 0
v -62 -13 0
v -62 -12 0
v -61 -12 0
v -61 -14 0
v -62 -14 0
v -62 -13 0
v -61 -13 0
v -61 -15 0
v -62 -15 0
v -62 -14 0
v -61 -14 0
v -61 -16 0
v -62 -16 0
v -62 -15 0
v -61 -15 0
v -5 -28 0
v -6 -28 0
v -6 -27 0
v -5 -27 0
v -6 -28 0
v -7 -28 0
v -7 -27 0
v -6 -27 0
v -5 -29 0
v -6 -29 0
v -6 -28 0
v -5 -28 0
v -6 -29 0
v -7 -29 0
v -7 -28 0
v -6 -28 0
v -5 -34 0
v -6 -34 0
v -6 -33 0
v -5 -33 0
v -6 -34 0
v -7 -34 0
v -7 -33 0
v -6 -33 0
v -5 -35 0
v -6 -35 0
v -6 -34 0
v -5 -34 0
v -6 -35 0
v -7 -35 0
v -7 -34 0
v -6 -34 0
v -58 -35 0
v -59 -35 0
v -59 -34 0
v -58 -34 0
v -59 -35 0
v -60 -35 0
v -60 -34 0
v -59 -34 0
v -60 -35 0
v -61 -35 0
v -61 -34 0
v -60 -34 0
v -61 -35 0
v -62 -35 0
v -62 -34 0
v -61 -34 0
v -58 -36 0
v -59 -36 0
v -59 -35 0
v -58 -35 0
v -59 -36 0
v -60 -36 0
v -60 -35 0
v -59 -35 0
v -60 -36 0
v -61 -36 0
v -61 -35 0
v -60 -35 0
v -61 -36 0
v -62 -36 0
v -62 -35 0
v -61 -35 0
v -39 -37 0
v -40 -37 0
v -40 -36 0
v -39 -36 0
v -40 -37 0
v -41 -37 0
v -41 -36 0
v -40 -36 0
v -42 -37 0
v -43 -37 0
v -43 -36 0
v -42 -36 0
v -43 -37 0
v -44 -37 0
v -44 -36 0
v -43 -36 0
v -45 -37 0
v -46 -37 0
v -46 -36 0
v -45 -36 0
v -46 -37 0
v -47 -37 0
v -47 -36 0
v -46 -36 0
v -48 -37 0
v -49 -37 0
v -49 -36 0
v -48 -36 0
v -49 -37 0
v -50 -37 0
v -50 -36 0
v -49 -36 0
v -51 -37 0
v -52 -37 0
v -52 -36 0
v -51 -36 0
v -52 -37 0
v -53 -37 0
v -53 -36 0
v -52 -36 0
v -54 -37 0
v -55 -37 0
v -55 -36 0
v -54 -36 0
v -55 -37 0
v -56 -37 0
v -56 -36 0
v -55 -36 0
v -58 -37 0
v -59 -37 0
v -59 -36 0
v -58 -36 0
v -59 -37 0
v -60 -37 0
v -60 -36 0
v -59 -36 0
v -60 -37 0
v -61 -37 0
v -61 -36 0
v -60 -36 0
v -61 -37 0
v -62 -37 0
v -62 -36 0
v -61 -36 0
v -39 -38 0
v -40 -38 0
v -40 -37 0
v -39 -37 0
v -40 -38 0
v -41 -38 0
v -41 -37 0
v -40 -37 0
v -42 -38 0
v -43 -38 0
v -43 -37 0
v -42 -37 0
v -43 -38 0
v -44 -38 0
v -44 -37 0
v -43 -37 0
v -45 -38 0
v -46 -38 0
v -46 -37 0
v -45 -37 0
v -46 -38 0
v -47 -38 0
v -47 -37 0
v -46 -37 0
v -48 -38 0
v -49 -38 0
v -49 -37 0
v -48 -37 0
v -49 -38 0
v -50 -38 0
v -50 -37 0
v -49 -37 0
v -51 -38 0
v -52 -38 0
v -52 -37 0
v -51 -37 0
v -52 -38 0
v -53 -38 0
v -53 -37 0
v -52 -37 0
v -54 -38 0
v -55 -38 0
v -55 -37 0
v -54 -37 0
v -55 -38 0
v -56 -38 0
v -56 -37 0
v -55 -37 0
v -39 -39 0
v -40 -39 0
v -40 -38 0
v -39 -38 0
v -40 -39 0
v -41 -39 0
v -41 -38 0
v -40 -38 0
v -42 -39 0
v -43 -39 0
v -43 -38 0
v -42 -38 0
v -43 -39 0
v -44 -39 0
v -44 -38 0
v -43 -38 0
v -45 -39 0
v -46 -39 0
v -46 -38 0
v -45 -38 0
v -46 -39 0
v -47 -39 0
v -47 -38 0
v -46 -38 0
v -48 -39 0
v -49 -39 0
v -49 -38 0
v -48 -38 0
v -49 -39 0
v -50 -39 0
v -50 -38 0
v -49 -38 0
v -51 -39 0
v -52 -39 0
v -52 -38 0
v -51 -38 0
v -52 -39 0
v -53 -39 0
v -53 -38 0
v -52 -38 0
v -54 -39 0
v -55 -39 0
v -55 -38 0
v -54 -38 0
v -55 -39 0
v -56 -39 0
v -56 -38 0
v -55 -38 0
v -39 -40 0
v -40 -40 0
v -40 -39 0
v -39 -39 0
v -40 -40 0
v -41 -40 0
v -41 -39 0
v -40 -39 0
v -42 -40 0
v -43 -40 0
v -43 -39 0
v -42 -39 0
v -43 -40 0
v -44 -40 0
v -44 -39 0
v -43 -39 0
v -45 -40 0
v -46 -40 0
v -46 -39 0
v -45 -39 0
v -46 -40 0
v -47 -40 0
v -47 -39 0
v -46 -39 0
v -48 -40 0
v -49 -40 0
v -49 -39 0
v -48 -39 0
v -49 -40 0
v -50 -40 0
v -50 -39 0
v -49 -39 0
v -51 -40 0
v -52 -40 0
v -52 -39 0
v -51 -39 0
v -52 -40 0
v -53 -40 0
v -53 -39 0
v -52 -39 0
v -54 -40 0
v -55 -40 0
v -55 -39 0
v -54 -39 0
v -55 -40 0
v -56 -40 0
v -56 -39 0
v -55 -39 0
v -8 -53 0
v -9 -53 0
v -9 -52 0
v -8 -52 0
v -9 -53 0
v -10 -53 0
v -10 -52 0
v -9 -52 0
v -10 -53 0
v -11 -53 0
v -11 -52 0
v -10 -52 0
v -11 -53 0
v -12 -53 0
v -12 -52 0
v -11 -52 0
v -12 -53 0
v -13 -53 0
v -13 -52 0
v -12 -52 0
v -8 -60 0
v -9 -60 0
v -9 -59 0
v -8 -59 0
v -9 -60 0
v -10 -60 0
v -10 -59 0
v -9 -59 0
v -12 -60 0
v -13 -60 0
v -13 -59 0
v -12 -59 0
v -13 -60 0
v -14 -60 0
v -14 -59 0
v -13 -59 0
v -8 -61 0
v -9 -61 0
v -9 -60 0
v -8 -60 0
v -9 -61 0
v -10 -61 0
v -10 -60 0
v -9 -60 0
v -12 -61 0
v -13 -61 0
v -13 -60 0
v -12 -60 0
v -13 -61 0
v -14 -61 0
v -14 -60 0
v -13 -60 0

# Texture cooridinates (Count = 89)
vt 0.21875 0.75
vt 0.21875 0.71875
vt 0.25 0.71875
vt 0.25 0.75
vt 0.21875 0.6875
vt 0.25 0.6875
vt 0.21875 0.65625
vt 0.25 0.65625
vt 0.0625 1
vt 0.0625 0.96875
vt 0.09375 0.96875
vt 0.09375 1
vt 0.0625 0.9375
vt 0.09375 0.9375
vt 0.1875 0.75
vt 0.1875 0.71875
vt 0.1875 0.6875
vt 0.1875 0.65625
vt 0.1875 0.96875
vt 0.21875 0.96875
vt 0.21875 1
vt 0.1875 1
vt 0.1875 0.9375
vt 0.21875 0.9375
vt 0.25 0.96875
vt 0.25 1
vt 0.25 0.9375
vt 0.125 0.96875
vt 0.125 1
vt 0.15625 0.96875
vt 0.15625 1
vt 0.125 0.9375
vt 0.15625 0.9375
vt 0.28125 0.71875
vt 0.28125 0.75
vt 0.3125 0.71875
vt 0.3125 0.75
vt 0.1875 0.8125
vt 0.21875 0.8125
vt 0.21875 0.84375
vt 0.1875 0.84375
vt 0.25 0.8125
vt 0.25 0.84375
vt 0.28125 0.6875
vt 0.3125 0.6875
vt 0.1875 0.78125
vt 0.21875 0.78125
vt 0.25 0.78125
vt 0.4375 0.8125
vt 0.46875 0.8125
vt 0.46875 0.84375
vt 0.4375 0.84375
vt 0.5 0.8125
vt 0.5 0.84375
vt 0.53125 0.8125
vt 0.53125 0.84375
vt 0.5625 0.8125
vt 0.5625 0.84375
vt 0.5 0.75
vt 0.46875 0.75
vt 0.46875 0.71875
vt 0.5 0.71875
vt 0.4375 0.75
vt 0.4375 0.71875
vt 0.28125 0.65625
vt 0.3125 0.65625
vt 0.4375 0.78125
vt 0.46875 0.78125
vt 0.5 0.78125
vt 0.53125 0.78125
vt 0.5625 0.78125
vt 0.53125 0.75
vt 0.5625 0.75
vt 0.5625 0.875
vt 0.53125 0.875
vt 0.59375 0.84375
vt 0.59375 0.875
vt 0.46875 0.875
vt 0.4375 0.875
vt 0.5 0.875
vt 0.75 0.90625
vt 0.75 0.875
vt 0.78125 0.875
vt 0.78125 0.90625
vt 0.75 0.84375
vt 0.78125 0.84375
vt 0.71875 0.90625
vt 0.71875 0.875
vt 0.71875 0.84375

# Normal
vn 0 0 -1

# Mesh description
g glassfloor_mesh_0003

# Faces
f 1/1/1 2/2/1 3/3/1 4/4/1
f 5/2/1 6/5/1 7/6/1 8/3/1
f 9/5/1 10/7/1 11/8/1 12/6/1
f 13/9/1 14/10/1 15/11/1 16/12/1
f 17/10/1 18/13/1 19/14/1 20/11/1
f 21/15/1 22/16/1 23/2/1 24/1/1
f 25/16/1 26/17/1 27/5/1 28/2/1
f 29/17/1 30/18/1 31/7/1 32/5/1
f 33/19/1 34/20/1 35/21/1 36/22/1
f 37/23/1 38/24/1 39/20/1 40/19/1
f 41/20/1 42/25/1 43/26/1 44/21/1
f 45/24/1 46/27/1 47/25/1 48/20/1
f 49/11/1 50/28/1 51/29/1 52/12/1
f 53/30/1 54/19/1 55/22/1 56/31/1
f 57/14/1 58/32/1 59/28/1 60/11/1
f 61/33/1 62/23/1 63/19/1 64/30/1
f 65/30/1 66/19/1 67/22/1 68/31/1
f 69/10/1 70/11/1 71/12/1 72/9/1
f 73/33/1 74/23/1 75/19/1 76/30/1
f 77/13/1 78/14/1 79/11/1 80/10/1
f 81/3/1 82/34/1 83/35/1 84/4/1
f 85/34/1 86/36/1 87/37/1 88/35/1
f 89/38/1 90/39/1 91/40/1 92/41/1
f 93/39/1 94/42/1 95/43/1 96/40/1
f 97/6/1 98/44/1 99/34/1 100/3/1
f 101/44/1 102/45/1 103/36/1 104/34/1
f 105/46/1 106/47/1 107/39/1 108/38/1
f 109/47/1 110/48/1 111/42/1 112/39/1
f 113/49/1 114/50/1 115/51/1 116/52/1
f 117/50/1 118/53/1 119/54/1 120/51/1
f 121/53/1 122/55/1 123/56/1 124/54/1
f 125/55/1 126/57/1 127/58/1 128/56/1
f 129/59/1 130/60/1 131/61/1 132/62/1
f 133/60/1 134/63/1 135/64/1 136/61/1
f 137/49/1 138/50/1 139/51/1 140/52/1
f 141/50/1 142/53/1 143/54/1 144/51/1
f 145/53/1 146/55/1 147/56/1 148/54/1
f 149/55/1 150/57/1 151/58/1 152/56/1
f 153/59/1 154/60/1 155/61/1 156/62/1
f 157/60/1 158/63/1 159/64/1 160/61/1
f 161/8/1 162/65/1 163/44/1 164/6/1
f 165/65/1 166/66/1 167/45/1 168/44/1
f 169/15/1 170/1/1 171/47/1 172/46/1
f 173/1/1 174/4/1 175/48/1 176/47/1
f 177/67/1 178/68/1 179/50/1 180/49/1
f 181/68/1 182/69/1 183/53/1 184/50/1
f 185/69/1 186/70/1 187/55/1 188/53/1
f 189/70/1 190/71/1 191/57/1 192/55/1
f 193/69/1 194/68/1 195/60/1 196/59/1
f 197/68/1 198/67/1 199/63/1 200/60/1
f 201/67/1 202/68/1 203/50/1 204/49/1
f 205/68/1 206/69/1 207/53/1 208/50/1
f 209/69/1 210/70/1 211/55/1 212/53/1
f 213/70/1 214/71/1 215/57/1 216/55/1
f 217/69/1 218/68/1 219/60/1 220/59/1
f 221/68/1 222/67/1 223/63/1 224/60/1
f 225/63/1 226/60/1 227/68/1 228/67/1
f 229/60/1 230/59/1 231/69/1 232/68/1
f 233/69/1 234/70/1 235/55/1 236/53/1
f 237/70/1 238/71/1 239/57/1 240/55/1
f 241/53/1 242/50/1 243/68/1 244/69/1
f 245/50/1 246/49/1 247/67/1 248/68/1
f 249/63/1 250/60/1 251/68/1 252/67/1
f 253/60/1 254/59/1 255/69/1 256/68/1
f 257/69/1 258/70/1 259/55/1 260/53/1
f 261/70/1 262/71/1 263/57/1 264/55/1
f 265/53/1 266/50/1 267/68/1 268/69/1
f 269/50/1 270/49/1 271/67/1 272/68/1
f 273/64/1 274/61/1 275/60/1 276/63/1
f 277/61/1 278/62/1 279/59/1 280/60/1
f 281/59/1 282/72/1 283/70/1 284/69/1
f 285/72/1 286/73/1 287/71/1 288/70/1
f 289/54/1 290/51/1 291/50/1 292/53/1
f 293/51/1 294/52/1 295/49/1 296/50/1
f 297/64/1 298/61/1 299/60/1 300/63/1
f 301/61/1 302/62/1 303/59/1 304/60/1
f 305/59/1 306/72/1 307/70/1 308/69/1
f 309/72/1 310/73/1 311/71/1 312/70/1
f 313/54/1 314/51/1 315/50/1 316/53/1
f 317/51/1 318/52/1 319/49/1 320/50/1
f 321/56/1 322/58/1 323/74/1 324/75/1
f 325/58/1 326/76/1 327/77/1 328/74/1
f 329/58/1 330/56/1 331/75/1 332/74/1
f 333/52/1 334/51/1 335/78/1 336/79/1
f 337/51/1 338/54/1 339/80/1 340/78/1
f 341/81/1 342/82/1 343/83/1 344/84/1
f 345/82/1 346/85/1 347/86/1 348/83/1
f 349/81/1 350/82/1 351/83/1 352/84/1
f 353/82/1 354/85/1 355/86/1 356/83/1
f 357/87/1 358/88/1 359/82/1 360/81/1
f 361/88/1 362/89/1 363/85/1 364/82/1
f 365/87/1 366/88/1 367/82/1 368/81/1
f 369/88/1 370/89/1 371/85/1 372/82/1

