# Tiled2Unity generated file. Do not modify by hand.
# Wavefront file for 'pranked_mesh_0007.obj'

# Vertices (Count = 96)
v -2 -3 0
v -3 -3 0
v -3 -2 0
v -2 -2 0
v -3 -3 0
v -4 -3 0
v -4 -2 0
v -3 -2 0
v -4 -3 0
v -5 -3 0
v -5 -2 0
v -4 -2 0
v -7 -3 0
v -8 -3 0
v -8 -2 0
v -7 -2 0
v -8 -3 0
v -9 -3 0
v -9 -2 0
v -8 -2 0
v -9 -3 0
v -10 -3 0
v -10 -2 0
v -9 -2 0
v -22 -3 0
v -23 -3 0
v -23 -2 0
v -22 -2 0
v -23 -3 0
v -24 -3 0
v -24 -2 0
v -23 -2 0
v -24 -3 0
v -25 -3 0
v -25 -2 0
v -24 -2 0
v -27 -3 0
v -28 -3 0
v -28 -2 0
v -27 -2 0
v -28 -3 0
v -29 -3 0
v -29 -2 0
v -28 -2 0
v -29 -3 0
v -30 -3 0
v -30 -2 0
v -29 -2 0
v -2 -4 0
v -3 -4 0
v -3 -3 0
v -2 -3 0
v -3 -4 0
v -4 -4 0
v -4 -3 0
v -3 -3 0
v -4 -4 0
v -5 -4 0
v -5 -3 0
v -4 -3 0
v -7 -4 0
v -8 -4 0
v -8 -3 0
v -7 -3 0
v -8 -4 0
v -9 -4 0
v -9 -3 0
v -8 -3 0
v -9 -4 0
v -10 -4 0
v -10 -3 0
v -9 -3 0
v -22 -4 0
v -23 -4 0
v -23 -3 0
v -22 -3 0
v -23 -4 0
v -24 -4 0
v -24 -3 0
v -23 -3 0
v -24 -4 0
v -25 -4 0
v -25 -3 0
v -24 -3 0
v -27 -4 0
v -28 -4 0
v -28 -3 0
v -27 -3 0
v -28 -4 0
v -29 -4 0
v -29 -3 0
v -28 -3 0
v -29 -4 0
v -30 -4 0
v -30 -3 0
v -29 -3 0

# Texture cooridinates (Count = 12)
vt 0.28125 0.5625
vt 0.28125 0.59375
vt 0.25 0.59375
vt 0.25 0.5625
vt 0.28125 0.625
vt 0.25 0.625
vt 0.28125 0.65625
vt 0.25 0.65625
vt 0.3125 0.5625
vt 0.3125 0.59375
vt 0.3125 0.625
vt 0.3125 0.65625

# Normal
vn 0 0 -1

# Mesh description
g pranked_mesh_0007

# Faces
f 1/1/1 2/2/1 3/3/1 4/4/1
f 5/2/1 6/5/1 7/6/1 8/3/1
f 9/5/1 10/7/1 11/8/1 12/6/1
f 13/1/1 14/2/1 15/3/1 16/4/1
f 17/2/1 18/5/1 19/6/1 20/3/1
f 21/5/1 22/7/1 23/8/1 24/6/1
f 25/1/1 26/2/1 27/3/1 28/4/1
f 29/2/1 30/5/1 31/6/1 32/3/1
f 33/5/1 34/7/1 35/8/1 36/6/1
f 37/1/1 38/2/1 39/3/1 40/4/1
f 41/2/1 42/5/1 43/6/1 44/3/1
f 45/5/1 46/7/1 47/8/1 48/6/1
f 49/9/1 50/10/1 51/2/1 52/1/1
f 53/10/1 54/11/1 55/5/1 56/2/1
f 57/11/1 58/12/1 59/7/1 60/5/1
f 61/9/1 62/10/1 63/2/1 64/1/1
f 65/10/1 66/11/1 67/5/1 68/2/1
f 69/11/1 70/12/1 71/7/1 72/5/1
f 73/9/1 74/10/1 75/2/1 76/1/1
f 77/10/1 78/11/1 79/5/1 80/2/1
f 81/11/1 82/12/1 83/7/1 84/5/1
f 85/9/1 86/10/1 87/2/1 88/1/1
f 89/10/1 90/11/1 91/5/1 92/2/1
f 93/11/1 94/12/1 95/7/1 96/5/1

