# Tiled2Unity generated file. Do not modify by hand.
# Wavefront file for 'redalert_mesh_0003.obj'

# Vertices (Count = 520)
v -24 -6 0
v -25 -6 0
v -25 -5 0
v -24 -5 0
v -25 -6 0
v -26 -6 0
v -26 -5 0
v -25 -5 0
v -24 -7 0
v -25 -7 0
v -25 -6 0
v -24 -6 0
v -25 -7 0
v -26 -7 0
v -26 -6 0
v -25 -6 0
v -24 -8 0
v -25 -8 0
v -25 -7 0
v -24 -7 0
v -25 -8 0
v -26 -8 0
v -26 -7 0
v -25 -7 0
v -24 -9 0
v -25 -9 0
v -25 -8 0
v -24 -8 0
v -25 -9 0
v -26 -9 0
v -26 -8 0
v -25 -8 0
v -12 -10 0
v -13 -10 0
v -13 -9 0
v -12 -9 0
v -13 -10 0
v -14 -10 0
v -14 -9 0
v -13 -9 0
v -24 -10 0
v -25 -10 0
v -25 -9 0
v -24 -9 0
v -25 -10 0
v -26 -10 0
v -26 -9 0
v -25 -9 0
v -12 -11 0
v -13 -11 0
v -13 -10 0
v -12 -10 0
v -13 -11 0
v -14 -11 0
v -14 -10 0
v -13 -10 0
v -24 -11 0
v -25 -11 0
v -25 -10 0
v -24 -10 0
v -25 -11 0
v -26 -11 0
v -26 -10 0
v -25 -10 0
v -12 -12 0
v -13 -12 0
v -13 -11 0
v -12 -11 0
v -13 -12 0
v -14 -12 0
v -14 -11 0
v -13 -11 0
v -24 -12 0
v -25 -12 0
v -25 -11 0
v -24 -11 0
v -25 -12 0
v -26 -12 0
v -26 -11 0
v -25 -11 0
v -12 -13 0
v -13 -13 0
v -13 -12 0
v -12 -12 0
v -13 -13 0
v -14 -13 0
v -14 -12 0
v -13 -12 0
v -24 -13 0
v -25 -13 0
v -25 -12 0
v -24 -12 0
v -25 -13 0
v -26 -13 0
v -26 -12 0
v -25 -12 0
v -24 -14 0
v -25 -14 0
v -25 -13 0
v -24 -13 0
v -25 -14 0
v -26 -14 0
v -26 -13 0
v -25 -13 0
v -24 -15 0
v -25 -15 0
v -25 -14 0
v -24 -14 0
v -25 -15 0
v -26 -15 0
v -26 -14 0
v -25 -14 0
v -73 -25 0
v -74 -25 0
v -74 -24 0
v -73 -24 0
v -74 -25 0
v -75 -25 0
v -75 -24 0
v -74 -24 0
v -78 -25 0
v -79 -25 0
v -79 -24 0
v -78 -24 0
v -79 -25 0
v -80 -25 0
v -80 -24 0
v -79 -24 0
v -73 -26 0
v -74 -26 0
v -74 -25 0
v -73 -25 0
v -74 -26 0
v -75 -26 0
v -75 -25 0
v -74 -25 0
v -79 -26 0
v -80 -26 0
v -80 -25 0
v -79 -25 0
v -73 -27 0
v -74 -27 0
v -74 -26 0
v -73 -26 0
v -74 -27 0
v -75 -27 0
v -75 -26 0
v -74 -26 0
v -78 -27 0
v -79 -27 0
v -79 -26 0
v -78 -26 0
v -79 -27 0
v -80 -27 0
v -80 -26 0
v -79 -26 0
v -12 -28 0
v -13 -28 0
v -13 -27 0
v -12 -27 0
v -13 -28 0
v -14 -28 0
v -14 -27 0
v -13 -27 0
v -14 -28 0
v -15 -28 0
v -15 -27 0
v -14 -27 0
v -15 -28 0
v -16 -28 0
v -16 -27 0
v -15 -27 0
v -12 -29 0
v -13 -29 0
v -13 -28 0
v -12 -28 0
v -13 -29 0
v -14 -29 0
v -14 -28 0
v -13 -28 0
v -14 -29 0
v -15 -29 0
v -15 -28 0
v -14 -28 0
v -15 -29 0
v -16 -29 0
v -16 -28 0
v -15 -28 0
v -78 -30 0
v -79 -30 0
v -79 -29 0
v -78 -29 0
v -79 -30 0
v -80 -30 0
v -80 -29 0
v -79 -29 0
v -78 -31 0
v -79 -31 0
v -79 -30 0
v -78 -30 0
v -79 -31 0
v -80 -31 0
v -80 -30 0
v -79 -30 0
v -78 -32 0
v -79 -32 0
v -79 -31 0
v -78 -31 0
v -79 -32 0
v -80 -32 0
v -80 -31 0
v -79 -31 0
v -92 -32 0
v -93 -32 0
v -93 -31 0
v -92 -31 0
v -93 -32 0
v -94 -32 0
v -94 -31 0
v -93 -31 0
v -94 -32 0
v -95 -32 0
v -95 -31 0
v -94 -31 0
v -95 -32 0
v -96 -32 0
v -96 -31 0
v -95 -31 0
v -92 -33 0
v -93 -33 0
v -93 -32 0
v -92 -32 0
v -93 -33 0
v -94 -33 0
v -94 -32 0
v -93 -32 0
v -94 -33 0
v -95 -33 0
v -95 -32 0
v -94 -32 0
v -95 -33 0
v -96 -33 0
v -96 -32 0
v -95 -32 0
v -16 -35 0
v -17 -35 0
v -17 -34 0
v -16 -34 0
v -17 -35 0
v -18 -35 0
v -18 -34 0
v -17 -34 0
v -19 -35 0
v -20 -35 0
v -20 -34 0
v -19 -34 0
v -20 -35 0
v -21 -35 0
v -21 -34 0
v -20 -34 0
v -78 -35 0
v -79 -35 0
v -79 -34 0
v -78 -34 0
v -79 -35 0
v -80 -35 0
v -80 -34 0
v -79 -34 0
v -16 -36 0
v -17 -36 0
v -17 -35 0
v -16 -35 0
v -17 -36 0
v -18 -36 0
v -18 -35 0
v -17 -35 0
v -19 -36 0
v -20 -36 0
v -20 -35 0
v -19 -35 0
v -20 -36 0
v -21 -36 0
v -21 -35 0
v -20 -35 0
v -78 -36 0
v -79 -36 0
v -79 -35 0
v -78 -35 0
v -79 -36 0
v -80 -36 0
v -80 -35 0
v -79 -35 0
v -16 -37 0
v -17 -37 0
v -17 -36 0
v -16 -36 0
v -17 -37 0
v -18 -37 0
v -18 -36 0
v -17 -36 0
v -19 -37 0
v -20 -37 0
v -20 -36 0
v -19 -36 0
v -20 -37 0
v -21 -37 0
v -21 -36 0
v -20 -36 0
v -78 -37 0
v -79 -37 0
v -79 -36 0
v -78 -36 0
v -79 -37 0
v -80 -37 0
v -80 -36 0
v -79 -36 0
v -78 -38 0
v -79 -38 0
v -79 -37 0
v -78 -37 0
v -79 -38 0
v -80 -38 0
v -80 -37 0
v -79 -37 0
v -56 -41 0
v -57 -41 0
v -57 -40 0
v -56 -40 0
v -57 -41 0
v -58 -41 0
v -58 -40 0
v -57 -40 0
v -58 -41 0
v -59 -41 0
v -59 -40 0
v -58 -40 0
v -59 -41 0
v -60 -41 0
v -60 -40 0
v -59 -40 0
v -60 -41 0
v -61 -41 0
v -61 -40 0
v -60 -40 0
v -61 -41 0
v -62 -41 0
v -62 -40 0
v -61 -40 0
v -62 -41 0
v -63 -41 0
v -63 -40 0
v -62 -40 0
v -63 -41 0
v -64 -41 0
v -64 -40 0
v -63 -40 0
v -64 -41 0
v -65 -41 0
v -65 -40 0
v -64 -40 0
v -90 -41 0
v -91 -41 0
v -91 -40 0
v -90 -40 0
v -91 -41 0
v -92 -41 0
v -92 -40 0
v -91 -40 0
v -92 -41 0
v -93 -41 0
v -93 -40 0
v -92 -40 0
v -93 -41 0
v -94 -41 0
v -94 -40 0
v -93 -40 0
v -94 -41 0
v -95 -41 0
v -95 -40 0
v -94 -40 0
v -95 -41 0
v -96 -41 0
v -96 -40 0
v -95 -40 0
v -56 -42 0
v -57 -42 0
v -57 -41 0
v -56 -41 0
v -90 -42 0
v -91 -42 0
v -91 -41 0
v -90 -41 0
v -107 -44 0
v -108 -44 0
v -108 -43 0
v -107 -43 0
v -108 -44 0
v -109 -44 0
v -109 -43 0
v -108 -43 0
v -109 -44 0
v -110 -44 0
v -110 -43 0
v -109 -43 0
v -116 -44 0
v -117 -44 0
v -117 -43 0
v -116 -43 0
v -117 -44 0
v -118 -44 0
v -118 -43 0
v -117 -43 0
v -118 -44 0
v -119 -44 0
v -119 -43 0
v -118 -43 0
v -37 -51 0
v -38 -51 0
v -38 -50 0
v -37 -50 0
v -38 -51 0
v -39 -51 0
v -39 -50 0
v -38 -50 0
v -39 -51 0
v -40 -51 0
v -40 -50 0
v -39 -50 0
v -41 -51 0
v -42 -51 0
v -42 -50 0
v -41 -50 0
v -42 -51 0
v -43 -51 0
v -43 -50 0
v -42 -50 0
v -43 -51 0
v -44 -51 0
v -44 -50 0
v -43 -50 0
v -37 -52 0
v -38 -52 0
v -38 -51 0
v -37 -51 0
v -39 -52 0
v -40 -52 0
v -40 -51 0
v -39 -51 0
v -41 -52 0
v -42 -52 0
v -42 -51 0
v -41 -51 0
v -42 -52 0
v -43 -52 0
v -43 -51 0
v -42 -51 0
v -43 -52 0
v -44 -52 0
v -44 -51 0
v -43 -51 0
v -75 -55 0
v -76 -55 0
v -76 -54 0
v -75 -54 0
v -76 -55 0
v -77 -55 0
v -77 -54 0
v -76 -54 0
v -79 -55 0
v -80 -55 0
v -80 -54 0
v -79 -54 0
v -80 -55 0
v -81 -55 0
v -81 -54 0
v -80 -54 0
v -29 -56 0
v -30 -56 0
v -30 -55 0
v -29 -55 0
v -32 -56 0
v -33 -56 0
v -33 -55 0
v -32 -55 0
v -75 -56 0
v -76 -56 0
v -76 -55 0
v -75 -55 0
v -76 -56 0
v -77 -56 0
v -77 -55 0
v -76 -55 0
v -80 -56 0
v -81 -56 0
v -81 -55 0
v -80 -55 0
v -29 -57 0
v -30 -57 0
v -30 -56 0
v -29 -56 0
v -32 -57 0
v -33 -57 0
v -33 -56 0
v -32 -56 0
v -75 -57 0
v -76 -57 0
v -76 -56 0
v -75 -56 0
v -76 -57 0
v -77 -57 0
v -77 -56 0
v -76 -56 0
v -79 -57 0
v -80 -57 0
v -80 -56 0
v -79 -56 0
v -80 -57 0
v -81 -57 0
v -81 -56 0
v -80 -56 0

# Texture cooridinates (Count = 119)
vt 0.09375 0.4375
vt 0.09375 0.46875
vt 0.0625 0.46875
vt 0.0625 0.4375
vt 0.5 0.8125
vt 0.53125 0.8125
vt 0.53125 0.84375
vt 0.5 0.84375
vt 0.5625 0.8125
vt 0.5625 0.84375
vt 0.5 0.78125
vt 0.53125 0.78125
vt 0.5625 0.78125
vt 0.5 0.75
vt 0.53125 0.75
vt 0.5625 0.75
vt 0.125 0.8125
vt 0.15625 0.8125
vt 0.15625 0.84375
vt 0.125 0.84375
vt 0.1875 0.8125
vt 0.1875 0.84375
vt 0.125 0.25
vt 0.15625 0.25
vt 0.15625 0.28125
vt 0.125 0.28125
vt 0.1875 0.25
vt 0.1875 0.28125
vt 0.125 0.78125
vt 0.15625 0.78125
vt 0.1875 0.78125
vt 0.15625 0.21875
vt 0.1875 0.21875
vt 0.125 0.75
vt 0.15625 0.75
vt 0.1875 0.75
vt 0.125 0.1875
vt 0.15625 0.1875
vt 0.125 0.21875
vt 0.1875 0.1875
vt 0.25 0.4375
vt 0.28125 0.4375
vt 0.28125 0.46875
vt 0.25 0.46875
vt 0.3125 0.4375
vt 0.3125 0.46875
vt 0.25 0.40625
vt 0.28125 0.40625
vt 0.3125 0.40625
vt 0.0625 0.8125
vt 0.09375 0.8125
vt 0.09375 0.84375
vt 0.0625 0.84375
vt 0.0625 0.78125
vt 0.09375 0.78125
vt 0.0625 0.75
vt 0.09375 0.75
vt 0 0.71875
vt 0.03125 0.71875
vt 0.03125 0.75
vt 0 0.75
vt 0.0625 0.71875
vt 0 0.6875
vt 0.03125 0.6875
vt 0.0625 0.6875
vt 0 0.65625
vt 0.03125 0.65625
vt 0.0625 0.65625
vt 0.03125 0.84375
vt 0.03125 0.875
vt 0.0625 0.875
vt 0.125 0.875
vt 0.09375 0.875
vt 0.40625 0.84375
vt 0.375 0.84375
vt 0.375 0.875
vt 0.40625 0.875
vt 0.4375 0.84375
vt 0.46875 0.84375
vt 0.46875 0.875
vt 0.4375 0.875
vt 0.5 0.875
vt 0.53125 0.875
vt 0.5625 0.875
vt 0.59375 0.84375
vt 0.59375 0.875
vt 0.25 0.71875
vt 0.28125 0.71875
vt 0.28125 0.75
vt 0.25 0.75
vt 0.3125 0.71875
vt 0.3125 0.75
vt 0 0.25
vt 0.03125 0.25
vt 0.03125 0.28125
vt 0 0.28125
vt 0.0625 0.25
vt 0.0625 0.28125
vt 0.15625 0.96875
vt 0.1875 0.96875
vt 0.1875 1
vt 0.15625 1
vt 0.21875 0.96875
vt 0.21875 1
vt 0.25 0.6875
vt 0.28125 0.6875
vt 0.3125 0.6875
vt 0.03125 0.21875
vt 0.0625 0.21875
vt 0.15625 0.9375
vt 0.1875 0.9375
vt 0.21875 0.9375
vt 0.25 0.65625
vt 0.28125 0.65625
vt 0.3125 0.65625
vt 0 0.1875
vt 0.03125 0.1875
vt 0 0.21875
vt 0.0625 0.1875

# Normal
vn 0 0 -1

# Mesh description
g redalert_mesh_0003

# Faces
f 1/1/1 2/2/1 3/3/1 4/4/1
f 5/1/1 6/2/1 7/3/1 8/4/1
f 9/1/1 10/2/1 11/3/1 12/4/1
f 13/1/1 14/2/1 15/3/1 16/4/1
f 17/1/1 18/2/1 19/3/1 20/4/1
f 21/1/1 22/2/1 23/3/1 24/4/1
f 25/1/1 26/2/1 27/3/1 28/4/1
f 29/1/1 30/2/1 31/3/1 32/4/1
f 33/5/1 34/6/1 35/7/1 36/8/1
f 37/6/1 38/9/1 39/10/1 40/7/1
f 41/1/1 42/2/1 43/3/1 44/4/1
f 45/1/1 46/2/1 47/3/1 48/4/1
f 49/11/1 50/12/1 51/6/1 52/5/1
f 53/12/1 54/13/1 55/9/1 56/6/1
f 57/1/1 58/2/1 59/3/1 60/4/1
f 61/1/1 62/2/1 63/3/1 64/4/1
f 65/11/1 66/12/1 67/6/1 68/5/1
f 69/12/1 70/13/1 71/9/1 72/6/1
f 73/1/1 74/2/1 75/3/1 76/4/1
f 77/1/1 78/2/1 79/3/1 80/4/1
f 81/14/1 82/15/1 83/12/1 84/11/1
f 85/15/1 86/16/1 87/13/1 88/12/1
f 89/1/1 90/2/1 91/3/1 92/4/1
f 93/1/1 94/2/1 95/3/1 96/4/1
f 97/1/1 98/2/1 99/3/1 100/4/1
f 101/1/1 102/2/1 103/3/1 104/4/1
f 105/1/1 106/2/1 107/3/1 108/4/1
f 109/1/1 110/2/1 111/3/1 112/4/1
f 113/17/1 114/18/1 115/19/1 116/20/1
f 117/18/1 118/21/1 119/22/1 120/19/1
f 121/23/1 122/24/1 123/25/1 124/26/1
f 125/24/1 126/27/1 127/28/1 128/25/1
f 129/29/1 130/30/1 131/18/1 132/17/1
f 133/30/1 134/31/1 135/21/1 136/18/1
f 137/32/1 138/33/1 139/27/1 140/24/1
f 141/34/1 142/35/1 143/30/1 144/29/1
f 145/35/1 146/36/1 147/31/1 148/30/1
f 149/37/1 150/38/1 151/32/1 152/39/1
f 153/38/1 154/40/1 155/33/1 156/32/1
f 157/41/1 158/42/1 159/43/1 160/44/1
f 161/42/1 162/45/1 163/46/1 164/43/1
f 165/41/1 166/42/1 167/43/1 168/44/1
f 169/42/1 170/45/1 171/46/1 172/43/1
f 173/47/1 174/48/1 175/42/1 176/41/1
f 177/48/1 178/49/1 179/45/1 180/42/1
f 181/47/1 182/48/1 183/42/1 184/41/1
f 185/48/1 186/49/1 187/45/1 188/42/1
f 189/50/1 190/51/1 191/52/1 192/53/1
f 193/51/1 194/17/1 195/20/1 196/52/1
f 197/54/1 198/55/1 199/51/1 200/50/1
f 201/55/1 202/29/1 203/17/1 204/51/1
f 205/56/1 206/57/1 207/55/1 208/54/1
f 209/57/1 210/34/1 211/29/1 212/55/1
f 213/7/1 214/6/1 215/9/1 216/10/1
f 217/6/1 218/12/1 219/13/1 220/9/1
f 221/6/1 222/12/1 223/13/1 224/9/1
f 225/12/1 226/15/1 227/16/1 228/13/1
f 229/8/1 230/5/1 231/6/1 232/7/1
f 233/5/1 234/11/1 235/12/1 236/6/1
f 237/5/1 238/11/1 239/12/1 240/6/1
f 241/11/1 242/14/1 243/15/1 244/12/1
f 245/50/1 246/51/1 247/52/1 248/53/1
f 249/51/1 250/17/1 251/20/1 252/52/1
f 253/58/1 254/59/1 255/60/1 256/61/1
f 257/59/1 258/62/1 259/56/1 260/60/1
f 261/50/1 262/51/1 263/52/1 264/53/1
f 265/51/1 266/17/1 267/20/1 268/52/1
f 269/54/1 270/55/1 271/51/1 272/50/1
f 273/55/1 274/29/1 275/17/1 276/51/1
f 277/63/1 278/64/1 279/59/1 280/58/1
f 281/64/1 282/65/1 283/62/1 284/59/1
f 285/54/1 286/55/1 287/51/1 288/50/1
f 289/55/1 290/29/1 291/17/1 292/51/1
f 293/56/1 294/57/1 295/55/1 296/54/1
f 297/57/1 298/34/1 299/29/1 300/55/1
f 301/66/1 302/67/1 303/64/1 304/63/1
f 305/67/1 306/68/1 307/65/1 308/64/1
f 309/54/1 310/55/1 311/51/1 312/50/1
f 313/55/1 314/29/1 315/17/1 316/51/1
f 317/34/1 318/35/1 319/30/1 320/29/1
f 321/35/1 322/36/1 323/31/1 324/30/1
f 325/53/1 326/69/1 327/70/1 328/71/1
f 329/52/1 330/20/1 331/72/1 332/73/1
f 333/52/1 334/20/1 335/72/1 336/73/1
f 337/52/1 338/20/1 339/72/1 340/73/1
f 341/52/1 342/20/1 343/72/1 344/73/1
f 345/52/1 346/20/1 347/72/1 348/73/1
f 349/52/1 350/20/1 351/72/1 352/73/1
f 353/52/1 354/20/1 355/72/1 356/73/1
f 357/52/1 358/20/1 359/72/1 360/73/1
f 361/53/1 362/69/1 363/70/1 364/71/1
f 365/52/1 366/20/1 367/72/1 368/73/1
f 369/52/1 370/20/1 371/72/1 372/73/1
f 373/52/1 374/20/1 375/72/1 376/73/1
f 377/52/1 378/20/1 379/72/1 380/73/1
f 381/52/1 382/20/1 383/72/1 384/73/1
f 385/74/1 386/75/1 387/76/1 388/77/1
f 389/74/1 390/75/1 391/76/1 392/77/1
f 393/78/1 394/79/1 395/80/1 396/81/1
f 397/79/1 398/8/1 399/82/1 400/80/1
f 401/8/1 402/7/1 403/83/1 404/82/1
f 405/7/1 406/10/1 407/84/1 408/83/1
f 409/10/1 410/85/1 411/86/1 412/84/1
f 413/10/1 414/7/1 415/83/1 416/84/1
f 417/25/1 418/24/1 419/27/1 420/28/1
f 421/24/1 422/32/1 423/33/1 424/27/1
f 425/32/1 426/38/1 427/40/1 428/33/1
f 429/60/1 430/59/1 431/62/1 432/56/1
f 433/59/1 434/64/1 435/65/1 436/62/1
f 437/64/1 438/67/1 439/68/1 440/65/1
f 441/26/1 442/23/1 443/24/1 444/25/1
f 445/39/1 446/37/1 447/38/1 448/32/1
f 449/61/1 450/58/1 451/59/1 452/60/1
f 453/58/1 454/63/1 455/64/1 456/59/1
f 457/63/1 458/66/1 459/67/1 460/64/1
f 461/87/1 462/88/1 463/89/1 464/90/1
f 465/88/1 466/91/1 467/92/1 468/89/1
f 469/93/1 470/94/1 471/95/1 472/96/1
f 473/94/1 474/97/1 475/98/1 476/95/1
f 477/99/1 478/100/1 479/101/1 480/102/1
f 481/100/1 482/103/1 483/104/1 484/101/1
f 485/105/1 486/106/1 487/88/1 488/87/1
f 489/106/1 490/107/1 491/91/1 492/88/1
f 493/108/1 494/109/1 495/97/1 496/94/1
f 497/110/1 498/111/1 499/100/1 500/99/1
f 501/111/1 502/112/1 503/103/1 504/100/1
f 505/113/1 506/114/1 507/106/1 508/105/1
f 509/114/1 510/115/1 511/107/1 512/106/1
f 513/116/1 514/117/1 515/108/1 516/118/1
f 517/117/1 518/119/1 519/109/1 520/108/1

