# Tiled2Unity generated file. Do not modify by hand.
# Wavefront file for 'redalert_mesh_0005.obj'

# Vertices (Count = 12)
v -78 -26 0
v -79 -26 0
v -79 -25 0
v -78 -25 0
v -38 -52 0
v -39 -52 0
v -39 -51 0
v -38 -51 0
v -79 -56 0
v -80 -56 0
v -80 -55 0
v -79 -55 0

# Texture cooridinates (Count = 8)
vt 0.1875 0.21875
vt 0.21875 0.21875
vt 0.21875 0.25
vt 0.1875 0.25
vt 0.0625 0.21875
vt 0.09375 0.21875
vt 0.09375 0.25
vt 0.0625 0.25

# Normal
vn 0 0 -1

# Mesh description
g redalert_mesh_0005

# Faces
f 1/1/1 2/2/1 3/3/1 4/4/1
f 5/4/1 6/1/1 7/2/1 8/3/1
f 9/5/1 10/6/1 11/7/1 12/8/1

