# Tiled2Unity generated file. Do not modify by hand.
# Wavefront file for 'redalert_mesh_0011.obj'

# Vertices (Count = 168)
v -28 -28 0
v -29 -28 0
v -29 -27 0
v -28 -27 0
v -29 -28 0
v -30 -28 0
v -30 -27 0
v -29 -27 0
v -30 -28 0
v -31 -28 0
v -31 -27 0
v -30 -27 0
v -28 -29 0
v -29 -29 0
v -29 -28 0
v -28 -28 0
v -29 -29 0
v -30 -29 0
v -30 -28 0
v -29 -28 0
v -30 -29 0
v -31 -29 0
v -31 -28 0
v -30 -28 0
v -5 -53 0
v -6 -53 0
v -6 -52 0
v -5 -52 0
v -6 -53 0
v -7 -53 0
v -7 -52 0
v -6 -52 0
v -7 -53 0
v -8 -53 0
v -8 -52 0
v -7 -52 0
v -9 -53 0
v -10 -53 0
v -10 -52 0
v -9 -52 0
v -10 -53 0
v -11 -53 0
v -11 -52 0
v -10 -52 0
v -11 -53 0
v -12 -53 0
v -12 -52 0
v -11 -52 0
v -14 -53 0
v -15 -53 0
v -15 -52 0
v -14 -52 0
v -15 -53 0
v -16 -53 0
v -16 -52 0
v -15 -52 0
v -16 -53 0
v -17 -53 0
v -17 -52 0
v -16 -52 0
v -18 -53 0
v -19 -53 0
v -19 -52 0
v -18 -52 0
v -19 -53 0
v -20 -53 0
v -20 -52 0
v -19 -52 0
v -20 -53 0
v -21 -53 0
v -21 -52 0
v -20 -52 0
v -5 -54 0
v -6 -54 0
v -6 -53 0
v -5 -53 0
v -6 -54 0
v -7 -54 0
v -7 -53 0
v -6 -53 0
v -7 -54 0
v -8 -54 0
v -8 -53 0
v -7 -53 0
v -9 -54 0
v -10 -54 0
v -10 -53 0
v -9 -53 0
v -10 -54 0
v -11 -54 0
v -11 -53 0
v -10 -53 0
v -11 -54 0
v -12 -54 0
v -12 -53 0
v -11 -53 0
v -14 -54 0
v -15 -54 0
v -15 -53 0
v -14 -53 0
v -15 -54 0
v -16 -54 0
v -16 -53 0
v -15 -53 0
v -16 -54 0
v -17 -54 0
v -17 -53 0
v -16 -53 0
v -18 -54 0
v -19 -54 0
v -19 -53 0
v -18 -53 0
v -19 -54 0
v -20 -54 0
v -20 -53 0
v -19 -53 0
v -20 -54 0
v -21 -54 0
v -21 -53 0
v -20 -53 0
v -37 -56 0
v -38 -56 0
v -38 -55 0
v -37 -55 0
v -38 -56 0
v -39 -56 0
v -39 -55 0
v -38 -55 0
v -39 -56 0
v -40 -56 0
v -40 -55 0
v -39 -55 0
v -41 -56 0
v -42 -56 0
v -42 -55 0
v -41 -55 0
v -42 -56 0
v -43 -56 0
v -43 -55 0
v -42 -55 0
v -43 -56 0
v -44 -56 0
v -44 -55 0
v -43 -55 0
v -37 -57 0
v -38 -57 0
v -38 -56 0
v -37 -56 0
v -38 -57 0
v -39 -57 0
v -39 -56 0
v -38 -56 0
v -39 -57 0
v -40 -57 0
v -40 -56 0
v -39 -56 0
v -41 -57 0
v -42 -57 0
v -42 -56 0
v -41 -56 0
v -42 -57 0
v -43 -57 0
v -43 -56 0
v -42 -56 0
v -43 -57 0
v -44 -57 0
v -44 -56 0
v -43 -56 0

# Texture cooridinates (Count = 12)
vt 0.28125 0.5625
vt 0.28125 0.59375
vt 0.25 0.59375
vt 0.25 0.5625
vt 0.28125 0.625
vt 0.25 0.625
vt 0.28125 0.65625
vt 0.25 0.65625
vt 0.3125 0.5625
vt 0.3125 0.59375
vt 0.3125 0.625
vt 0.3125 0.65625

# Normal
vn 0 0 -1

# Mesh description
g redalert_mesh_0011

# Faces
f 1/1/1 2/2/1 3/3/1 4/4/1
f 5/2/1 6/5/1 7/6/1 8/3/1
f 9/5/1 10/7/1 11/8/1 12/6/1
f 13/9/1 14/10/1 15/2/1 16/1/1
f 17/10/1 18/11/1 19/5/1 20/2/1
f 21/11/1 22/12/1 23/7/1 24/5/1
f 25/1/1 26/2/1 27/3/1 28/4/1
f 29/2/1 30/5/1 31/6/1 32/3/1
f 33/5/1 34/7/1 35/8/1 36/6/1
f 37/1/1 38/2/1 39/3/1 40/4/1
f 41/2/1 42/5/1 43/6/1 44/3/1
f 45/5/1 46/7/1 47/8/1 48/6/1
f 49/1/1 50/2/1 51/3/1 52/4/1
f 53/2/1 54/5/1 55/6/1 56/3/1
f 57/5/1 58/7/1 59/8/1 60/6/1
f 61/1/1 62/2/1 63/3/1 64/4/1
f 65/2/1 66/5/1 67/6/1 68/3/1
f 69/5/1 70/7/1 71/8/1 72/6/1
f 73/9/1 74/10/1 75/2/1 76/1/1
f 77/10/1 78/11/1 79/5/1 80/2/1
f 81/11/1 82/12/1 83/7/1 84/5/1
f 85/9/1 86/10/1 87/2/1 88/1/1
f 89/10/1 90/11/1 91/5/1 92/2/1
f 93/11/1 94/12/1 95/7/1 96/5/1
f 97/9/1 98/10/1 99/2/1 100/1/1
f 101/10/1 102/11/1 103/5/1 104/2/1
f 105/11/1 106/12/1 107/7/1 108/5/1
f 109/9/1 110/10/1 111/2/1 112/1/1
f 113/10/1 114/11/1 115/5/1 116/2/1
f 117/11/1 118/12/1 119/7/1 120/5/1
f 121/7/1 122/5/1 123/11/1 124/12/1
f 125/5/1 126/2/1 127/10/1 128/11/1
f 129/2/1 130/1/1 131/9/1 132/10/1
f 133/7/1 134/5/1 135/11/1 136/12/1
f 137/5/1 138/2/1 139/10/1 140/11/1
f 141/2/1 142/1/1 143/9/1 144/10/1
f 145/8/1 146/6/1 147/5/1 148/7/1
f 149/6/1 150/3/1 151/2/1 152/5/1
f 153/3/1 154/4/1 155/1/1 156/2/1
f 157/8/1 158/6/1 159/5/1 160/7/1
f 161/6/1 162/3/1 163/2/1 164/5/1
f 165/3/1 166/4/1 167/1/1 168/2/1

