# Tiled2Unity generated file. Do not modify by hand.
# Wavefront file for 'switch_hell_mesh_0007.obj'

# Vertices (Count = 48)
v -11 -27 0
v -12 -27 0
v -12 -26 0
v -11 -26 0
v -12 -27 0
v -13 -27 0
v -13 -26 0
v -12 -26 0
v -35 -27 0
v -36 -27 0
v -36 -26 0
v -35 -26 0
v -36 -27 0
v -37 -27 0
v -37 -26 0
v -36 -26 0
v -11 -28 0
v -12 -28 0
v -12 -27 0
v -11 -27 0
v -12 -28 0
v -13 -28 0
v -13 -27 0
v -12 -27 0
v -35 -28 0
v -36 -28 0
v -36 -27 0
v -35 -27 0
v -36 -28 0
v -37 -28 0
v -37 -27 0
v -36 -27 0
v -11 -29 0
v -12 -29 0
v -12 -28 0
v -11 -28 0
v -12 -29 0
v -13 -29 0
v -13 -28 0
v -12 -28 0
v -35 -29 0
v -36 -29 0
v -36 -28 0
v -35 -28 0
v -36 -29 0
v -37 -29 0
v -37 -28 0
v -36 -28 0

# Texture cooridinates (Count = 12)
vt 0.5625 0.8125
vt 0.59375 0.8125
vt 0.59375 0.84375
vt 0.5625 0.84375
vt 0.625 0.8125
vt 0.625 0.84375
vt 0.625 0.78125
vt 0.59375 0.78125
vt 0.59375 0.75
vt 0.625 0.75
vt 0.5625 0.78125
vt 0.5625 0.75

# Normal
vn 0 0 -1

# Mesh description
g switch_hell_mesh_0007

# Faces
f 1/1/1 2/2/1 3/3/1 4/4/1
f 5/2/1 6/5/1 7/6/1 8/3/1
f 9/7/1 10/8/1 11/9/1 12/10/1
f 13/8/1 14/11/1 15/12/1 16/9/1
f 17/11/1 18/8/1 19/2/1 20/1/1
f 21/8/1 22/7/1 23/5/1 24/2/1
f 25/5/1 26/2/1 27/8/1 28/7/1
f 29/2/1 30/1/1 31/11/1 32/8/1
f 33/12/1 34/9/1 35/8/1 36/11/1
f 37/9/1 38/10/1 39/7/1 40/8/1
f 41/6/1 42/3/1 43/2/1 44/5/1
f 45/3/1 46/4/1 47/1/1 48/2/1

