# Tiled2Unity generated file. Do not modify by hand.
# Wavefront file for 'switch_hell_mesh_0002.obj'

# Vertices (Count = 192)
v -23 -22 0
v -24 -22 0
v -24 -21 0
v -23 -21 0
v -24 -22 0
v -25 -22 0
v -25 -21 0
v -24 -21 0
v -23 -23 0
v -24 -23 0
v -24 -22 0
v -23 -22 0
v -24 -23 0
v -25 -23 0
v -25 -22 0
v -24 -22 0
v -22 -24 0
v -23 -24 0
v -23 -23 0
v -22 -23 0
v -23 -24 0
v -24 -24 0
v -24 -23 0
v -23 -23 0
v -24 -24 0
v -25 -24 0
v -25 -23 0
v -24 -23 0
v -25 -24 0
v -26 -24 0
v -26 -23 0
v -25 -23 0
v -20 -26 0
v -21 -26 0
v -21 -25 0
v -20 -25 0
v -27 -26 0
v -28 -26 0
v -28 -25 0
v -27 -25 0
v -20 -27 0
v -21 -27 0
v -21 -26 0
v -20 -26 0
v -24 -27 0
v -25 -27 0
v -25 -26 0
v -24 -26 0
v -27 -27 0
v -28 -27 0
v -28 -26 0
v -27 -26 0
v -20 -28 0
v -21 -28 0
v -21 -27 0
v -20 -27 0
v -27 -28 0
v -28 -28 0
v -28 -27 0
v -27 -27 0
v -20 -29 0
v -21 -29 0
v -21 -28 0
v -20 -28 0
v -27 -29 0
v -28 -29 0
v -28 -28 0
v -27 -28 0
v -22 -31 0
v -23 -31 0
v -23 -30 0
v -22 -30 0
v -23 -31 0
v -24 -31 0
v -24 -30 0
v -23 -30 0
v -24 -31 0
v -25 -31 0
v -25 -30 0
v -24 -30 0
v -25 -31 0
v -26 -31 0
v -26 -30 0
v -25 -30 0
v -23 -32 0
v -24 -32 0
v -24 -31 0
v -23 -31 0
v -24 -32 0
v -25 -32 0
v -25 -31 0
v -24 -31 0
v -23 -33 0
v -24 -33 0
v -24 -32 0
v -23 -32 0
v -24 -33 0
v -25 -33 0
v -25 -32 0
v -24 -32 0
v -22 -34 0
v -23 -34 0
v -23 -33 0
v -22 -33 0
v -25 -34 0
v -26 -34 0
v -26 -33 0
v -25 -33 0
v -22 -35 0
v -23 -35 0
v -23 -34 0
v -22 -34 0
v -25 -35 0
v -26 -35 0
v -26 -34 0
v -25 -34 0
v -22 -37 0
v -23 -37 0
v -23 -36 0
v -22 -36 0
v -23 -37 0
v -24 -37 0
v -24 -36 0
v -23 -36 0
v -24 -37 0
v -25 -37 0
v -25 -36 0
v -24 -36 0
v -25 -37 0
v -26 -37 0
v -26 -36 0
v -25 -36 0
v -16 -42 0
v -17 -42 0
v -17 -41 0
v -16 -41 0
v -31 -42 0
v -32 -42 0
v -32 -41 0
v -31 -41 0
v -13 -44 0
v -14 -44 0
v -14 -43 0
v -13 -43 0
v -34 -45 0
v -35 -45 0
v -35 -44 0
v -34 -44 0
v -21 -51 0
v -22 -51 0
v -22 -50 0
v -21 -50 0
v -24 -51 0
v -25 -51 0
v -25 -50 0
v -24 -50 0
v -31 -57 0
v -32 -57 0
v -32 -56 0
v -31 -56 0
v -16 -58 0
v -17 -58 0
v -17 -57 0
v -16 -57 0
v -31 -58 0
v -32 -58 0
v -32 -57 0
v -31 -57 0
v -16 -59 0
v -17 -59 0
v -17 -58 0
v -16 -58 0
v -18 -59 0
v -19 -59 0
v -19 -58 0
v -18 -58 0
v -19 -59 0
v -20 -59 0
v -20 -58 0
v -19 -58 0
v -28 -59 0
v -29 -59 0
v -29 -58 0
v -28 -58 0
v -29 -59 0
v -30 -59 0
v -30 -58 0
v -29 -58 0
v -31 -59 0
v -32 -59 0
v -32 -58 0
v -31 -58 0

# Texture cooridinates (Count = 14)
vt 0.5 0.875
vt 0.5 0.90625
vt 0.46875 0.90625
vt 0.46875 0.875
vt 0.53125 0.875
vt 0.53125 0.90625
vt 0.4375 0.90625
vt 0.4375 0.9375
vt 0.40625 0.9375
vt 0.40625 0.90625
vt 0.6875 0.84375
vt 0.71875 0.84375
vt 0.71875 0.875
vt 0.6875 0.875

# Normal
vn 0 0 -1

# Mesh description
g switch_hell_mesh_0002

# Faces
f 1/1/1 2/2/1 3/3/1 4/4/1
f 5/1/1 6/2/1 7/3/1 8/4/1
f 9/5/1 10/6/1 11/2/1 12/1/1
f 13/5/1 14/6/1 15/2/1 16/1/1
f 17/7/1 18/8/1 19/9/1 20/10/1
f 21/7/1 22/8/1 23/9/1 24/10/1
f 25/7/1 26/8/1 27/9/1 28/10/1
f 29/7/1 30/8/1 31/9/1 32/10/1
f 33/10/1 34/7/1 35/8/1 36/9/1
f 37/8/1 38/9/1 39/10/1 40/7/1
f 41/10/1 42/7/1 43/8/1 44/9/1
f 45/11/1 46/12/1 47/13/1 48/14/1
f 49/8/1 50/9/1 51/10/1 52/7/1
f 53/10/1 54/7/1 55/8/1 56/9/1
f 57/8/1 58/9/1 59/10/1 60/7/1
f 61/10/1 62/7/1 63/8/1 64/9/1
f 65/8/1 66/9/1 67/10/1 68/7/1
f 69/9/1 70/10/1 71/7/1 72/8/1
f 73/9/1 74/10/1 75/7/1 76/8/1
f 77/9/1 78/10/1 79/7/1 80/8/1
f 81/9/1 82/10/1 83/7/1 84/8/1
f 85/2/1 86/1/1 87/5/1 88/6/1
f 89/2/1 90/1/1 91/5/1 92/6/1
f 93/3/1 94/4/1 95/1/1 96/2/1
f 97/3/1 98/4/1 99/1/1 100/2/1
f 101/1/1 102/2/1 103/3/1 104/4/1
f 105/1/1 106/2/1 107/3/1 108/4/1
f 109/5/1 110/6/1 111/2/1 112/1/1
f 113/5/1 114/6/1 115/2/1 116/1/1
f 117/7/1 118/8/1 119/9/1 120/10/1
f 121/7/1 122/8/1 123/9/1 124/10/1
f 125/7/1 126/8/1 127/9/1 128/10/1
f 129/7/1 130/8/1 131/9/1 132/10/1
f 133/14/1 134/11/1 135/12/1 136/13/1
f 137/14/1 138/11/1 139/12/1 140/13/1
f 141/13/1 142/14/1 143/11/1 144/12/1
f 145/11/1 146/12/1 147/13/1 148/14/1
f 149/11/1 150/12/1 151/13/1 152/14/1
f 153/14/1 154/11/1 155/12/1 156/13/1
f 157/10/1 158/7/1 159/8/1 160/9/1
f 161/8/1 162/9/1 163/10/1 164/7/1
f 165/10/1 166/7/1 167/8/1 168/9/1
f 169/8/1 170/9/1 171/10/1 172/7/1
f 173/6/1 174/2/1 175/1/1 176/5/1
f 177/2/1 178/3/1 179/4/1 180/1/1
f 181/4/1 182/1/1 183/2/1 184/3/1
f 185/1/1 186/5/1 187/6/1 188/2/1
f 189/10/1 190/7/1 191/8/1 192/9/1

