# Tiled2Unity generated file. Do not modify by hand.
# Wavefront file for 'switch_hell_mesh_0006.obj'

# Vertices (Count = 20)
v -25 -27 0
v -26 -27 0
v -26 -26 0
v -25 -26 0
v -16 -41 0
v -17 -41 0
v -17 -40 0
v -16 -40 0
v -17 -41 0
v -18 -41 0
v -18 -40 0
v -17 -40 0
v -30 -41 0
v -31 -41 0
v -31 -40 0
v -30 -40 0
v -31 -41 0
v -32 -41 0
v -32 -40 0
v -31 -40 0

# Texture cooridinates (Count = 10)
vt 0.0625 0.21875
vt 0.09375 0.21875
vt 0.09375 0.25
vt 0.0625 0.25
vt 0.03125 0.1875
vt 0.03125 0.15625
vt 0.0625 0.15625
vt 0.0625 0.1875
vt 0.03125 0.125
vt 0.0625 0.125

# Normal
vn 0 0 -1

# Mesh description
g switch_hell_mesh_0006

# Faces
f 1/1/1 2/2/1 3/3/1 4/4/1
f 5/5/1 6/6/1 7/7/1 8/8/1
f 9/6/1 10/9/1 11/10/1 12/7/1
f 13/5/1 14/6/1 15/7/1 16/8/1
f 17/6/1 18/9/1 19/10/1 20/7/1

