# Tiled2Unity generated file. Do not modify by hand.
# Wavefront file for 'switch_hell_mesh_0002.obj'

# Vertices (Count = 164)
v -23 -22 0
v -24 -22 0
v -24 -21 0
v -23 -21 0
v -24 -22 0
v -25 -22 0
v -25 -21 0
v -24 -21 0
v -23 -23 0
v -24 -23 0
v -24 -22 0
v -23 -22 0
v -24 -23 0
v -25 -23 0
v -25 -22 0
v -24 -22 0
v -22 -24 0
v -23 -24 0
v -23 -23 0
v -22 -23 0
v -23 -24 0
v -24 -24 0
v -24 -23 0
v -23 -23 0
v -24 -24 0
v -25 -24 0
v -25 -23 0
v -24 -23 0
v -25 -24 0
v -26 -24 0
v -26 -23 0
v -25 -23 0
v -20 -26 0
v -21 -26 0
v -21 -25 0
v -20 -25 0
v -27 -26 0
v -28 -26 0
v -28 -25 0
v -27 -25 0
v -20 -27 0
v -21 -27 0
v -21 -26 0
v -20 -26 0
v -27 -27 0
v -28 -27 0
v -28 -26 0
v -27 -26 0
v -20 -28 0
v -21 -28 0
v -21 -27 0
v -20 -27 0
v -27 -28 0
v -28 -28 0
v -28 -27 0
v -27 -27 0
v -20 -29 0
v -21 -29 0
v -21 -28 0
v -20 -28 0
v -27 -29 0
v -28 -29 0
v -28 -28 0
v -27 -28 0
v -22 -31 0
v -23 -31 0
v -23 -30 0
v -22 -30 0
v -23 -31 0
v -24 -31 0
v -24 -30 0
v -23 -30 0
v -24 -31 0
v -25 -31 0
v -25 -30 0
v -24 -30 0
v -25 -31 0
v -26 -31 0
v -26 -30 0
v -25 -30 0
v -23 -32 0
v -24 -32 0
v -24 -31 0
v -23 -31 0
v -24 -32 0
v -25 -32 0
v -25 -31 0
v -24 -31 0
v -23 -33 0
v -24 -33 0
v -24 -32 0
v -23 -32 0
v -24 -33 0
v -25 -33 0
v -25 -32 0
v -24 -32 0
v -22 -34 0
v -23 -34 0
v -23 -33 0
v -22 -33 0
v -25 -34 0
v -26 -34 0
v -26 -33 0
v -25 -33 0
v -22 -35 0
v -23 -35 0
v -23 -34 0
v -22 -34 0
v -25 -35 0
v -26 -35 0
v -26 -34 0
v -25 -34 0
v -22 -37 0
v -23 -37 0
v -23 -36 0
v -22 -36 0
v -23 -37 0
v -24 -37 0
v -24 -36 0
v -23 -36 0
v -24 -37 0
v -25 -37 0
v -25 -36 0
v -24 -36 0
v -25 -37 0
v -26 -37 0
v -26 -36 0
v -25 -36 0
v -31 -57 0
v -32 -57 0
v -32 -56 0
v -31 -56 0
v -16 -58 0
v -17 -58 0
v -17 -57 0
v -16 -57 0
v -31 -58 0
v -32 -58 0
v -32 -57 0
v -31 -57 0
v -16 -59 0
v -17 -59 0
v -17 -58 0
v -16 -58 0
v -18 -59 0
v -19 -59 0
v -19 -58 0
v -18 -58 0
v -19 -59 0
v -20 -59 0
v -20 -58 0
v -19 -58 0
v -28 -59 0
v -29 -59 0
v -29 -58 0
v -28 -58 0
v -29 -59 0
v -30 -59 0
v -30 -58 0
v -29 -58 0
v -31 -59 0
v -32 -59 0
v -32 -58 0
v -31 -58 0

# Texture cooridinates (Count = 10)
vt 0.5 0.875
vt 0.5 0.90625
vt 0.46875 0.90625
vt 0.46875 0.875
vt 0.53125 0.875
vt 0.53125 0.90625
vt 0.4375 0.90625
vt 0.4375 0.9375
vt 0.40625 0.9375
vt 0.40625 0.90625

# Normal
vn 0 0 -1

# Mesh description
g switch_hell_mesh_0002

# Faces
f 1/1/1 2/2/1 3/3/1 4/4/1
f 5/1/1 6/2/1 7/3/1 8/4/1
f 9/5/1 10/6/1 11/2/1 12/1/1
f 13/5/1 14/6/1 15/2/1 16/1/1
f 17/7/1 18/8/1 19/9/1 20/10/1
f 21/7/1 22/8/1 23/9/1 24/10/1
f 25/7/1 26/8/1 27/9/1 28/10/1
f 29/7/1 30/8/1 31/9/1 32/10/1
f 33/10/1 34/7/1 35/8/1 36/9/1
f 37/8/1 38/9/1 39/10/1 40/7/1
f 41/10/1 42/7/1 43/8/1 44/9/1
f 45/8/1 46/9/1 47/10/1 48/7/1
f 49/10/1 50/7/1 51/8/1 52/9/1
f 53/8/1 54/9/1 55/10/1 56/7/1
f 57/10/1 58/7/1 59/8/1 60/9/1
f 61/8/1 62/9/1 63/10/1 64/7/1
f 65/9/1 66/10/1 67/7/1 68/8/1
f 69/9/1 70/10/1 71/7/1 72/8/1
f 73/9/1 74/10/1 75/7/1 76/8/1
f 77/9/1 78/10/1 79/7/1 80/8/1
f 81/2/1 82/1/1 83/5/1 84/6/1
f 85/2/1 86/1/1 87/5/1 88/6/1
f 89/3/1 90/4/1 91/1/1 92/2/1
f 93/3/1 94/4/1 95/1/1 96/2/1
f 97/1/1 98/2/1 99/3/1 100/4/1
f 101/1/1 102/2/1 103/3/1 104/4/1
f 105/5/1 106/6/1 107/2/1 108/1/1
f 109/5/1 110/6/1 111/2/1 112/1/1
f 113/7/1 114/8/1 115/9/1 116/10/1
f 117/7/1 118/8/1 119/9/1 120/10/1
f 121/7/1 122/8/1 123/9/1 124/10/1
f 125/7/1 126/8/1 127/9/1 128/10/1
f 129/10/1 130/7/1 131/8/1 132/9/1
f 133/8/1 134/9/1 135/10/1 136/7/1
f 137/10/1 138/7/1 139/8/1 140/9/1
f 141/8/1 142/9/1 143/10/1 144/7/1
f 145/6/1 146/2/1 147/1/1 148/5/1
f 149/2/1 150/3/1 151/4/1 152/1/1
f 153/4/1 154/1/1 155/2/1 156/3/1
f 157/1/1 158/5/1 159/6/1 160/2/1
f 161/10/1 162/7/1 163/8/1 164/9/1

