# Tiled2Unity generated file. Do not modify by hand.
# Wavefront file for 'madlab_mesh_0003.obj'

# Vertices (Count = 384)
v -47 -12 0
v -48 -12 0
v -48 -11 0
v -47 -11 0
v -48 -12 0
v -49 -12 0
v -49 -11 0
v -48 -11 0
v -50 -12 0
v -51 -12 0
v -51 -11 0
v -50 -11 0
v -51 -12 0
v -52 -12 0
v -52 -11 0
v -51 -11 0
v -56 -12 0
v -57 -12 0
v -57 -11 0
v -56 -11 0
v -57 -12 0
v -58 -12 0
v -58 -11 0
v -57 -11 0
v -59 -12 0
v -60 -12 0
v -60 -11 0
v -59 -11 0
v -60 -12 0
v -61 -12 0
v -61 -11 0
v -60 -11 0
v -47 -13 0
v -48 -13 0
v -48 -12 0
v -47 -12 0
v -48 -13 0
v -49 -13 0
v -49 -12 0
v -48 -12 0
v -50 -13 0
v -51 -13 0
v -51 -12 0
v -50 -12 0
v -51 -13 0
v -52 -13 0
v -52 -12 0
v -51 -12 0
v -56 -13 0
v -57 -13 0
v -57 -12 0
v -56 -12 0
v -57 -13 0
v -58 -13 0
v -58 -12 0
v -57 -12 0
v -59 -13 0
v -60 -13 0
v -60 -12 0
v -59 -12 0
v -60 -13 0
v -61 -13 0
v -61 -12 0
v -60 -12 0
v -47 -14 0
v -48 -14 0
v -48 -13 0
v -47 -13 0
v -48 -14 0
v -49 -14 0
v -49 -13 0
v -48 -13 0
v -51 -14 0
v -52 -14 0
v -52 -13 0
v -51 -13 0
v -56 -14 0
v -57 -14 0
v -57 -13 0
v -56 -13 0
v -59 -14 0
v -60 -14 0
v -60 -13 0
v -59 -13 0
v -60 -14 0
v -61 -14 0
v -61 -13 0
v -60 -13 0
v -29 -15 0
v -30 -15 0
v -30 -14 0
v -29 -14 0
v -32 -15 0
v -33 -15 0
v -33 -14 0
v -32 -14 0
v -47 -15 0
v -48 -15 0
v -48 -14 0
v -47 -14 0
v -48 -15 0
v -49 -15 0
v -49 -14 0
v -48 -14 0
v -51 -15 0
v -52 -15 0
v -52 -14 0
v -51 -14 0
v -56 -15 0
v -57 -15 0
v -57 -14 0
v -56 -14 0
v -59 -15 0
v -60 -15 0
v -60 -14 0
v -59 -14 0
v -60 -15 0
v -61 -15 0
v -61 -14 0
v -60 -14 0
v -29 -16 0
v -30 -16 0
v -30 -15 0
v -29 -15 0
v -32 -16 0
v -33 -16 0
v -33 -15 0
v -32 -15 0
v -29 -17 0
v -30 -17 0
v -30 -16 0
v -29 -16 0
v -32 -17 0
v -33 -17 0
v -33 -16 0
v -32 -16 0
v -47 -17 0
v -48 -17 0
v -48 -16 0
v -47 -16 0
v -48 -17 0
v -49 -17 0
v -49 -16 0
v -48 -16 0
v -49 -17 0
v -50 -17 0
v -50 -16 0
v -49 -16 0
v -50 -17 0
v -51 -17 0
v -51 -16 0
v -50 -16 0
v -51 -17 0
v -52 -17 0
v -52 -16 0
v -51 -16 0
v -56 -17 0
v -57 -17 0
v -57 -16 0
v -56 -16 0
v -57 -17 0
v -58 -17 0
v -58 -16 0
v -57 -16 0
v -58 -17 0
v -59 -17 0
v -59 -16 0
v -58 -16 0
v -59 -17 0
v -60 -17 0
v -60 -16 0
v -59 -16 0
v -60 -17 0
v -61 -17 0
v -61 -16 0
v -60 -16 0
v -27 -26 0
v -28 -26 0
v -28 -25 0
v -27 -25 0
v -34 -26 0
v -35 -26 0
v -35 -25 0
v -34 -25 0
v -27 -27 0
v -28 -27 0
v -28 -26 0
v -27 -26 0
v -34 -27 0
v -35 -27 0
v -35 -26 0
v -34 -26 0
v -27 -30 0
v -28 -30 0
v -28 -29 0
v -27 -29 0
v -28 -30 0
v -29 -30 0
v -29 -29 0
v -28 -29 0
v -29 -30 0
v -30 -30 0
v -30 -29 0
v -29 -29 0
v -27 -31 0
v -28 -31 0
v -28 -30 0
v -27 -30 0
v -28 -31 0
v -29 -31 0
v -29 -30 0
v -28 -30 0
v -29 -31 0
v -30 -31 0
v -30 -30 0
v -29 -30 0
v -52 -31 0
v -53 -31 0
v -53 -30 0
v -52 -30 0
v -55 -31 0
v -56 -31 0
v -56 -30 0
v -55 -30 0
v -52 -32 0
v -53 -32 0
v -53 -31 0
v -52 -31 0
v -55 -32 0
v -56 -32 0
v -56 -31 0
v -55 -31 0
v -58 -35 0
v -59 -35 0
v -59 -34 0
v -58 -34 0
v -59 -35 0
v -60 -35 0
v -60 -34 0
v -59 -34 0
v -3 -37 0
v -4 -37 0
v -4 -36 0
v -3 -36 0
v -4 -37 0
v -5 -37 0
v -5 -36 0
v -4 -36 0
v -3 -38 0
v -4 -38 0
v -4 -37 0
v -3 -37 0
v -4 -38 0
v -5 -38 0
v -5 -37 0
v -4 -37 0
v -3 -39 0
v -4 -39 0
v -4 -38 0
v -3 -38 0
v -4 -39 0
v -5 -39 0
v -5 -38 0
v -4 -38 0
v -12 -45 0
v -13 -45 0
v -13 -44 0
v -12 -44 0
v -13 -45 0
v -14 -45 0
v -14 -44 0
v -13 -44 0
v -12 -46 0
v -13 -46 0
v -13 -45 0
v -12 -45 0
v -13 -46 0
v -14 -46 0
v -14 -45 0
v -13 -45 0
v -12 -47 0
v -13 -47 0
v -13 -46 0
v -12 -46 0
v -13 -47 0
v -14 -47 0
v -14 -46 0
v -13 -46 0
v -12 -48 0
v -13 -48 0
v -13 -47 0
v -12 -47 0
v -13 -48 0
v -14 -48 0
v -14 -47 0
v -13 -47 0
v -12 -49 0
v -13 -49 0
v -13 -48 0
v -12 -48 0
v -13 -49 0
v -14 -49 0
v -14 -48 0
v -13 -48 0
v -3 -50 0
v -4 -50 0
v -4 -49 0
v -3 -49 0
v -4 -50 0
v -5 -50 0
v -5 -49 0
v -4 -49 0
v -12 -50 0
v -13 -50 0
v -13 -49 0
v -12 -49 0
v -13 -50 0
v -14 -50 0
v -14 -49 0
v -13 -49 0
v -3 -51 0
v -4 -51 0
v -4 -50 0
v -3 -50 0
v -4 -51 0
v -5 -51 0
v -5 -50 0
v -4 -50 0
v -3 -52 0
v -4 -52 0
v -4 -51 0
v -3 -51 0
v -4 -52 0
v -5 -52 0
v -5 -51 0
v -4 -51 0
v -7 -61 0
v -8 -61 0
v -8 -60 0
v -7 -60 0
v -8 -61 0
v -9 -61 0
v -9 -60 0
v -8 -60 0
v -11 -61 0
v -12 -61 0
v -12 -60 0
v -11 -60 0
v -12 -61 0
v -13 -61 0
v -13 -60 0
v -12 -60 0
v -7 -62 0
v -8 -62 0
v -8 -61 0
v -7 -61 0
v -8 -62 0
v -9 -62 0
v -9 -61 0
v -8 -61 0
v -11 -62 0
v -12 -62 0
v -12 -61 0
v -11 -61 0
v -12 -62 0
v -13 -62 0
v -13 -61 0
v -12 -61 0
v -7 -63 0
v -8 -63 0
v -8 -62 0
v -7 -62 0
v -8 -63 0
v -9 -63 0
v -9 -62 0
v -8 -62 0
v -11 -63 0
v -12 -63 0
v -12 -62 0
v -11 -62 0
v -12 -63 0
v -13 -63 0
v -13 -62 0
v -12 -62 0

# Texture cooridinates (Count = 108)
vt 0 0.375
vt 0.03125 0.375
vt 0.03125 0.40625
vt 0 0.40625
vt 0.0625 0.375
vt 0.0625 0.40625
vt 0.78125 0.875
vt 0.75 0.875
vt 0.75 0.84375
vt 0.78125 0.84375
vt 0.71875 0.875
vt 0.71875 0.84375
vt 0.75 0.90625
vt 0.71875 0.90625
vt 0.78125 0.90625
vt 0 0.34375
vt 0.03125 0.34375
vt 0.0625 0.34375
vt 0 0.3125
vt 0.03125 0.3125
vt 0.0625 0.3125
vt 0.46875 0.84375
vt 0.46875 0.875
vt 0.4375 0.875
vt 0.4375 0.84375
vt 0.5 0.84375
vt 0.5 0.875
vt 0.15625 0.84375
vt 0.1875 0.84375
vt 0.1875 0.875
vt 0.15625 0.875
vt 0 0.28125
vt 0.03125 0.28125
vt 0.0625 0.28125
vt 0.40625 0.84375
vt 0.40625 0.875
vt 0.375 0.84375
vt 0.375 0.875
vt 0.0625 0.4375
vt 0.09375 0.4375
vt 0.09375 0.46875
vt 0.0625 0.46875
vt 0.96875 0.625
vt 1 0.625
vt 1 0.65625
vt 0.96875 0.65625
vt 0.96875 0.59375
vt 1 0.59375
vt 0.21875 0.75
vt 0.21875 0.71875
vt 0.25 0.71875
vt 0.25 0.75
vt 0.21875 0.6875
vt 0.25 0.6875
vt 0.21875 0.65625
vt 0.25 0.65625
vt 0.1875 0.75
vt 0.1875 0.71875
vt 0.1875 0.6875
vt 0.1875 0.65625
vt 0.28125 0.84375
vt 0.3125 0.84375
vt 0.3125 0.875
vt 0.28125 0.875
vt 0.1875 0.8125
vt 0.21875 0.8125
vt 0.21875 0.84375
vt 0.25 0.8125
vt 0.25 0.84375
vt 0.1875 0.78125
vt 0.21875 0.78125
vt 0.25 0.78125
vt 0.125 0.71875
vt 0.15625 0.71875
vt 0.15625 0.75
vt 0.125 0.75
vt 0.125 0.6875
vt 0.15625 0.6875
vt 0.125 0.65625
vt 0.15625 0.65625
vt 0.0625 0.8125
vt 0.09375 0.8125
vt 0.09375 0.84375
vt 0.0625 0.84375
vt 0.125 0.8125
vt 0.125 0.84375
vt 0.0625 0.78125
vt 0.09375 0.78125
vt 0.125 0.78125
vt 0.0625 0.6875
vt 0.03125 0.6875
vt 0.03125 0.65625
vt 0.0625 0.65625
vt 0 0.6875
vt 0 0.65625
vt 0.0625 0.75
vt 0.09375 0.75
vt 0.0625 0.71875
vt 0.03125 0.71875
vt 0 0.71875
vt 0.03125 0.75
vt 0 0.75
vt 0.28125 0.8125
vt 0.3125 0.8125
vt 0.28125 0.78125
vt 0.3125 0.78125
vt 0.28125 0.75
vt 0.3125 0.75

# Normal
vn 0 0 -1

# Mesh description
g madlab_mesh_0003

# Faces
f 1/1/1 2/2/1 3/3/1 4/4/1
f 5/2/1 6/5/1 7/6/1 8/3/1
f 9/7/1 10/8/1 11/9/1 12/10/1
f 13/8/1 14/11/1 15/12/1 16/9/1
f 17/11/1 18/8/1 19/13/1 20/14/1
f 21/8/1 22/7/1 23/15/1 24/13/1
f 25/1/1 26/2/1 27/3/1 28/4/1
f 29/2/1 30/5/1 31/6/1 32/3/1
f 33/16/1 34/17/1 35/2/1 36/1/1
f 37/17/1 38/18/1 39/5/1 40/2/1
f 41/15/1 42/13/1 43/8/1 44/7/1
f 45/13/1 46/14/1 47/11/1 48/8/1
f 49/12/1 50/9/1 51/8/1 52/11/1
f 53/9/1 54/10/1 55/7/1 56/8/1
f 57/16/1 58/17/1 59/2/1 60/1/1
f 61/17/1 62/18/1 63/5/1 64/2/1
f 65/19/1 66/20/1 67/17/1 68/16/1
f 69/20/1 70/21/1 71/18/1 72/17/1
f 73/22/1 74/23/1 75/24/1 76/25/1
f 77/23/1 78/22/1 79/26/1 80/27/1
f 81/19/1 82/20/1 83/17/1 84/16/1
f 85/20/1 86/21/1 87/18/1 88/17/1
f 89/28/1 90/29/1 91/30/1 92/31/1
f 93/29/1 94/28/1 95/31/1 96/30/1
f 97/32/1 98/33/1 99/20/1 100/19/1
f 101/33/1 102/34/1 103/21/1 104/20/1
f 105/26/1 106/27/1 107/23/1 108/22/1
f 109/24/1 110/25/1 111/22/1 112/23/1
f 113/32/1 114/33/1 115/20/1 116/19/1
f 117/33/1 118/34/1 119/21/1 120/20/1
f 121/35/1 122/25/1 123/24/1 124/36/1
f 125/24/1 126/36/1 127/35/1 128/25/1
f 129/37/1 130/35/1 131/36/1 132/38/1
f 133/35/1 134/37/1 135/38/1 136/36/1
f 137/39/1 138/40/1 139/41/1 140/42/1
f 141/39/1 142/40/1 143/41/1 144/42/1
f 145/39/1 146/40/1 147/41/1 148/42/1
f 149/39/1 150/40/1 151/41/1 152/42/1
f 153/39/1 154/40/1 155/41/1 156/42/1
f 157/39/1 158/40/1 159/41/1 160/42/1
f 161/39/1 162/40/1 163/41/1 164/42/1
f 165/39/1 166/40/1 167/41/1 168/42/1
f 169/39/1 170/40/1 171/41/1 172/42/1
f 173/39/1 174/40/1 175/41/1 176/42/1
f 177/43/1 178/44/1 179/45/1 180/46/1
f 181/44/1 182/43/1 183/47/1 184/48/1
f 185/47/1 186/48/1 187/44/1 188/43/1
f 189/45/1 190/46/1 191/43/1 192/44/1
f 193/49/1 194/50/1 195/51/1 196/52/1
f 197/50/1 198/53/1 199/54/1 200/51/1
f 201/53/1 202/55/1 203/56/1 204/54/1
f 205/57/1 206/58/1 207/50/1 208/49/1
f 209/58/1 210/59/1 211/53/1 212/50/1
f 213/59/1 214/60/1 215/55/1 216/53/1
f 217/61/1 218/62/1 219/63/1 220/64/1
f 221/62/1 222/61/1 223/64/1 224/63/1
f 225/37/1 226/35/1 227/36/1 228/38/1
f 229/35/1 230/37/1 231/38/1 232/36/1
f 233/48/1 234/44/1 235/43/1 236/47/1
f 237/44/1 238/45/1 239/46/1 240/43/1
f 241/65/1 242/66/1 243/67/1 244/29/1
f 245/66/1 246/68/1 247/69/1 248/67/1
f 249/70/1 250/71/1 251/66/1 252/65/1
f 253/71/1 254/72/1 255/68/1 256/66/1
f 257/57/1 258/49/1 259/71/1 260/70/1
f 261/49/1 262/52/1 263/72/1 264/71/1
f 265/73/1 266/74/1 267/75/1 268/76/1
f 269/74/1 270/58/1 271/57/1 272/75/1
f 273/77/1 274/78/1 275/74/1 276/73/1
f 277/78/1 278/59/1 279/58/1 280/74/1
f 281/79/1 282/80/1 283/78/1 284/77/1
f 285/80/1 286/60/1 287/59/1 288/78/1
f 289/81/1 290/82/1 291/83/1 292/84/1
f 293/82/1 294/85/1 295/86/1 296/83/1
f 297/87/1 298/88/1 299/82/1 300/81/1
f 301/88/1 302/89/1 303/85/1 304/82/1
f 305/90/1 306/91/1 307/92/1 308/93/1
f 309/91/1 310/94/1 311/95/1 312/92/1
f 313/96/1 314/97/1 315/88/1 316/87/1
f 317/97/1 318/76/1 319/89/1 320/88/1
f 321/98/1 322/99/1 323/91/1 324/90/1
f 325/99/1 326/100/1 327/94/1 328/91/1
f 329/96/1 330/101/1 331/99/1 332/98/1
f 333/101/1 334/102/1 335/100/1 336/99/1
f 337/68/1 338/103/1 339/61/1 340/69/1
f 341/103/1 342/104/1 343/62/1 344/61/1
f 345/58/1 346/50/1 347/49/1 348/57/1
f 349/50/1 350/51/1 351/52/1 352/49/1
f 353/72/1 354/105/1 355/103/1 356/68/1
f 357/105/1 358/106/1 359/104/1 360/103/1
f 361/59/1 362/53/1 363/50/1 364/58/1
f 365/53/1 366/54/1 367/51/1 368/50/1
f 369/52/1 370/107/1 371/105/1 372/72/1
f 373/107/1 374/108/1 375/106/1 376/105/1
f 377/60/1 378/55/1 379/53/1 380/59/1
f 381/55/1 382/56/1 383/54/1 384/53/1

