# Tiled2Unity generated file. Do not modify by hand.
# Wavefront file for 'trapped_mesh_0008.obj'

# Vertices (Count = 264)
v -87 -13 0
v -88 -13 0
v -88 -12 0
v -87 -12 0
v -88 -13 0
v -89 -13 0
v -89 -12 0
v -88 -12 0
v -89 -13 0
v -90 -13 0
v -90 -12 0
v -89 -12 0
v -90 -13 0
v -91 -13 0
v -91 -12 0
v -90 -12 0
v -91 -13 0
v -92 -13 0
v -92 -12 0
v -91 -12 0
v -92 -13 0
v -93 -13 0
v -93 -12 0
v -92 -12 0
v -87 -14 0
v -88 -14 0
v -88 -13 0
v -87 -13 0
v -88 -14 0
v -89 -14 0
v -89 -13 0
v -88 -13 0
v -89 -14 0
v -90 -14 0
v -90 -13 0
v -89 -13 0
v -90 -14 0
v -91 -14 0
v -91 -13 0
v -90 -13 0
v -91 -14 0
v -92 -14 0
v -92 -13 0
v -91 -13 0
v -92 -14 0
v -93 -14 0
v -93 -13 0
v -92 -13 0
v -60 -17 0
v -61 -17 0
v -61 -16 0
v -60 -16 0
v -61 -17 0
v -62 -17 0
v -62 -16 0
v -61 -16 0
v -62 -17 0
v -63 -17 0
v -63 -16 0
v -62 -16 0
v -60 -18 0
v -61 -18 0
v -61 -17 0
v -60 -17 0
v -61 -18 0
v -62 -18 0
v -62 -17 0
v -61 -17 0
v -62 -18 0
v -63 -18 0
v -63 -17 0
v -62 -17 0
v -18 -20 0
v -19 -20 0
v -19 -19 0
v -18 -19 0
v -19 -20 0
v -20 -20 0
v -20 -19 0
v -19 -19 0
v -20 -20 0
v -21 -20 0
v -21 -19 0
v -20 -19 0
v -18 -21 0
v -19 -21 0
v -19 -20 0
v -18 -20 0
v -19 -21 0
v -20 -21 0
v -20 -20 0
v -19 -20 0
v -20 -21 0
v -21 -21 0
v -21 -20 0
v -20 -20 0
v -88 -21 0
v -89 -21 0
v -89 -20 0
v -88 -20 0
v -89 -21 0
v -90 -21 0
v -90 -20 0
v -89 -20 0
v -88 -22 0
v -89 -22 0
v -89 -21 0
v -88 -21 0
v -89 -22 0
v -90 -22 0
v -90 -21 0
v -89 -21 0
v -88 -23 0
v -89 -23 0
v -89 -22 0
v -88 -22 0
v -89 -23 0
v -90 -23 0
v -90 -22 0
v -89 -22 0
v -52 -53 0
v -53 -53 0
v -53 -52 0
v -52 -52 0
v -53 -53 0
v -54 -53 0
v -54 -52 0
v -53 -52 0
v -54 -53 0
v -55 -53 0
v -55 -52 0
v -54 -52 0
v -57 -53 0
v -58 -53 0
v -58 -52 0
v -57 -52 0
v -58 -53 0
v -59 -53 0
v -59 -52 0
v -58 -52 0
v -59 -53 0
v -60 -53 0
v -60 -52 0
v -59 -52 0
v -62 -53 0
v -63 -53 0
v -63 -52 0
v -62 -52 0
v -63 -53 0
v -64 -53 0
v -64 -52 0
v -63 -52 0
v -64 -53 0
v -65 -53 0
v -65 -52 0
v -64 -52 0
v -52 -54 0
v -53 -54 0
v -53 -53 0
v -52 -53 0
v -53 -54 0
v -54 -54 0
v -54 -53 0
v -53 -53 0
v -54 -54 0
v -55 -54 0
v -55 -53 0
v -54 -53 0
v -57 -54 0
v -58 -54 0
v -58 -53 0
v -57 -53 0
v -58 -54 0
v -59 -54 0
v -59 -53 0
v -58 -53 0
v -59 -54 0
v -60 -54 0
v -60 -53 0
v -59 -53 0
v -62 -54 0
v -63 -54 0
v -63 -53 0
v -62 -53 0
v -63 -54 0
v -64 -54 0
v -64 -53 0
v -63 -53 0
v -64 -54 0
v -65 -54 0
v -65 -53 0
v -64 -53 0
v -52 -59 0
v -53 -59 0
v -53 -58 0
v -52 -58 0
v -53 -59 0
v -54 -59 0
v -54 -58 0
v -53 -58 0
v -54 -59 0
v -55 -59 0
v -55 -58 0
v -54 -58 0
v -57 -59 0
v -58 -59 0
v -58 -58 0
v -57 -58 0
v -58 -59 0
v -59 -59 0
v -59 -58 0
v -58 -58 0
v -59 -59 0
v -60 -59 0
v -60 -58 0
v -59 -58 0
v -62 -59 0
v -63 -59 0
v -63 -58 0
v -62 -58 0
v -63 -59 0
v -64 -59 0
v -64 -58 0
v -63 -58 0
v -64 -59 0
v -65 -59 0
v -65 -58 0
v -64 -58 0
v -52 -60 0
v -53 -60 0
v -53 -59 0
v -52 -59 0
v -53 -60 0
v -54 -60 0
v -54 -59 0
v -53 -59 0
v -54 -60 0
v -55 -60 0
v -55 -59 0
v -54 -59 0
v -57 -60 0
v -58 -60 0
v -58 -59 0
v -57 -59 0
v -58 -60 0
v -59 -60 0
v -59 -59 0
v -58 -59 0
v -59 -60 0
v -60 -60 0
v -60 -59 0
v -59 -59 0
v -62 -60 0
v -63 -60 0
v -63 -59 0
v -62 -59 0
v -63 -60 0
v -64 -60 0
v -64 -59 0
v -63 -59 0
v -64 -60 0
v -65 -60 0
v -65 -59 0
v -64 -59 0

# Texture cooridinates (Count = 28)
vt 0.78125 0.75
vt 0.78125 0.78125
vt 0.75 0.78125
vt 0.75 0.75
vt 0.78125 0.8125
vt 0.75 0.8125
vt 0.78125 0.84375
vt 0.75 0.84375
vt 0.84375 0.75
vt 0.84375 0.78125
vt 0.8125 0.78125
vt 0.8125 0.75
vt 0.84375 0.8125
vt 0.8125 0.8125
vt 0.84375 0.84375
vt 0.8125 0.84375
vt 0.875 0.75
vt 0.875 0.78125
vt 0.875 0.8125
vt 0.875 0.84375
vt 0.71875 0.75
vt 0.71875 0.78125
vt 0.6875 0.78125
vt 0.6875 0.75
vt 0.71875 0.8125
vt 0.6875 0.8125
vt 0.71875 0.84375
vt 0.6875 0.84375

# Normal
vn 0 0 -1

# Mesh description
g trapped_mesh_0008

# Faces
f 1/1/1 2/2/1 3/3/1 4/4/1
f 5/2/1 6/5/1 7/6/1 8/3/1
f 9/5/1 10/7/1 11/8/1 12/6/1
f 13/9/1 14/10/1 15/11/1 16/12/1
f 17/10/1 18/13/1 19/14/1 20/11/1
f 21/13/1 22/15/1 23/16/1 24/14/1
f 25/12/1 26/11/1 27/2/1 28/1/1
f 29/11/1 30/14/1 31/5/1 32/2/1
f 33/14/1 34/16/1 35/7/1 36/5/1
f 37/17/1 38/18/1 39/10/1 40/9/1
f 41/18/1 42/19/1 43/13/1 44/10/1
f 45/19/1 46/20/1 47/15/1 48/13/1
f 49/21/1 50/22/1 51/23/1 52/24/1
f 53/22/1 54/25/1 55/26/1 56/23/1
f 57/25/1 58/27/1 59/28/1 60/26/1
f 61/4/1 62/3/1 63/22/1 64/21/1
f 65/3/1 66/6/1 67/25/1 68/22/1
f 69/6/1 70/8/1 71/27/1 72/25/1
f 73/21/1 74/22/1 75/23/1 76/24/1
f 77/22/1 78/25/1 79/26/1 80/23/1
f 81/25/1 82/27/1 83/28/1 84/26/1
f 85/4/1 86/3/1 87/22/1 88/21/1
f 89/3/1 90/6/1 91/25/1 92/22/1
f 93/6/1 94/8/1 95/27/1 96/25/1
f 97/6/1 98/5/1 99/7/1 100/8/1
f 101/5/1 102/14/1 103/16/1 104/7/1
f 105/3/1 106/2/1 107/5/1 108/6/1
f 109/2/1 110/11/1 111/14/1 112/5/1
f 113/4/1 114/1/1 115/2/1 116/3/1
f 117/1/1 118/12/1 119/11/1 120/2/1
f 121/21/1 122/22/1 123/23/1 124/24/1
f 125/22/1 126/25/1 127/26/1 128/23/1
f 129/25/1 130/27/1 131/28/1 132/26/1
f 133/21/1 134/22/1 135/23/1 136/24/1
f 137/22/1 138/25/1 139/26/1 140/23/1
f 141/25/1 142/27/1 143/28/1 144/26/1
f 145/21/1 146/22/1 147/23/1 148/24/1
f 149/22/1 150/25/1 151/26/1 152/23/1
f 153/25/1 154/27/1 155/28/1 156/26/1
f 157/4/1 158/3/1 159/22/1 160/21/1
f 161/3/1 162/6/1 163/25/1 164/22/1
f 165/6/1 166/8/1 167/27/1 168/25/1
f 169/4/1 170/3/1 171/22/1 172/21/1
f 173/3/1 174/6/1 175/25/1 176/22/1
f 177/6/1 178/8/1 179/27/1 180/25/1
f 181/4/1 182/3/1 183/22/1 184/21/1
f 185/3/1 186/6/1 187/25/1 188/22/1
f 189/6/1 190/8/1 191/27/1 192/25/1
f 193/27/1 194/25/1 195/6/1 196/8/1
f 197/25/1 198/22/1 199/3/1 200/6/1
f 201/22/1 202/21/1 203/4/1 204/3/1
f 205/27/1 206/25/1 207/6/1 208/8/1
f 209/25/1 210/22/1 211/3/1 212/6/1
f 213/22/1 214/21/1 215/4/1 216/3/1
f 217/27/1 218/25/1 219/6/1 220/8/1
f 221/25/1 222/22/1 223/3/1 224/6/1
f 225/22/1 226/21/1 227/4/1 228/3/1
f 229/28/1 230/26/1 231/25/1 232/27/1
f 233/26/1 234/23/1 235/22/1 236/25/1
f 237/23/1 238/24/1 239/21/1 240/22/1
f 241/28/1 242/26/1 243/25/1 244/27/1
f 245/26/1 246/23/1 247/22/1 248/25/1
f 249/23/1 250/24/1 251/21/1 252/22/1
f 253/28/1 254/26/1 255/25/1 256/27/1
f 257/26/1 258/23/1 259/22/1 260/25/1
f 261/23/1 262/24/1 263/21/1 264/22/1

