# Tiled2Unity generated file. Do not modify by hand.
# Wavefront file for 'trapped_mesh_0004.obj'

# Vertices (Count = 336)
v -79 -15 0
v -80 -15 0
v -80 -14 0
v -79 -14 0
v -80 -15 0
v -81 -15 0
v -81 -14 0
v -80 -14 0
v -79 -16 0
v -80 -16 0
v -80 -15 0
v -79 -15 0
v -80 -16 0
v -81 -16 0
v -81 -15 0
v -80 -15 0
v -79 -17 0
v -80 -17 0
v -80 -16 0
v -79 -16 0
v -80 -17 0
v -81 -17 0
v -81 -16 0
v -80 -16 0
v -68 -18 0
v -69 -18 0
v -69 -17 0
v -68 -17 0
v -69 -18 0
v -70 -18 0
v -70 -17 0
v -69 -17 0
v -72 -18 0
v -73 -18 0
v -73 -17 0
v -72 -17 0
v -73 -18 0
v -74 -18 0
v -74 -17 0
v -73 -17 0
v -79 -18 0
v -80 -18 0
v -80 -17 0
v -79 -17 0
v -80 -18 0
v -81 -18 0
v -81 -17 0
v -80 -17 0
v -68 -19 0
v -69 -19 0
v -69 -18 0
v -68 -18 0
v -69 -19 0
v -70 -19 0
v -70 -18 0
v -69 -18 0
v -72 -19 0
v -73 -19 0
v -73 -18 0
v -72 -18 0
v -73 -19 0
v -74 -19 0
v -74 -18 0
v -73 -18 0
v -25 -20 0
v -26 -20 0
v -26 -19 0
v -25 -19 0
v -26 -20 0
v -27 -20 0
v -27 -19 0
v -26 -19 0
v -68 -20 0
v -69 -20 0
v -69 -19 0
v -68 -19 0
v -69 -20 0
v -70 -20 0
v -70 -19 0
v -69 -19 0
v -72 -20 0
v -73 -20 0
v -73 -19 0
v -72 -19 0
v -73 -20 0
v -74 -20 0
v -74 -19 0
v -73 -19 0
v -88 -20 0
v -89 -20 0
v -89 -19 0
v -88 -19 0
v -89 -20 0
v -90 -20 0
v -90 -19 0
v -89 -19 0
v -62 -23 0
v -63 -23 0
v -63 -22 0
v -62 -22 0
v -62 -24 0
v -63 -24 0
v -63 -23 0
v -62 -23 0
v -22 -25 0
v -23 -25 0
v -23 -24 0
v -22 -24 0
v -23 -25 0
v -24 -25 0
v -24 -24 0
v -23 -24 0
v -56 -35 0
v -57 -35 0
v -57 -34 0
v -56 -34 0
v -62 -35 0
v -63 -35 0
v -63 -34 0
v -62 -34 0
v -56 -36 0
v -57 -36 0
v -57 -35 0
v -56 -35 0
v -62 -36 0
v -63 -36 0
v -63 -35 0
v -62 -35 0
v 0 -47 0
v -1 -47 0
v -1 -46 0
v 0 -46 0
v -1 -47 0
v -2 -47 0
v -2 -46 0
v -1 -46 0
v -4 -47 0
v -5 -47 0
v -5 -46 0
v -4 -46 0
v -4 -48 0
v -5 -48 0
v -5 -47 0
v -4 -47 0
v -4 -49 0
v -5 -49 0
v -5 -48 0
v -4 -48 0
v -4 -50 0
v -5 -50 0
v -5 -49 0
v -4 -49 0
v -4 -51 0
v -5 -51 0
v -5 -50 0
v -4 -50 0
v 0 -52 0
v -1 -52 0
v -1 -51 0
v 0 -51 0
v -1 -52 0
v -2 -52 0
v -2 -51 0
v -1 -51 0
v -4 -52 0
v -5 -52 0
v -5 -51 0
v -4 -51 0
v -1 -53 0
v -2 -53 0
v -2 -52 0
v -1 -52 0
v -4 -53 0
v -5 -53 0
v -5 -52 0
v -4 -52 0
v -14 -54 0
v -15 -54 0
v -15 -53 0
v -14 -53 0
v -17 -54 0
v -18 -54 0
v -18 -53 0
v -17 -53 0
v -14 -55 0
v -15 -55 0
v -15 -54 0
v -14 -54 0
v -17 -55 0
v -18 -55 0
v -18 -54 0
v -17 -54 0
v -14 -56 0
v -15 -56 0
v -15 -55 0
v -14 -55 0
v -17 -56 0
v -18 -56 0
v -18 -55 0
v -17 -55 0
v -14 -57 0
v -15 -57 0
v -15 -56 0
v -14 -56 0
v -17 -57 0
v -18 -57 0
v -18 -56 0
v -17 -56 0
v -14 -58 0
v -15 -58 0
v -15 -57 0
v -14 -57 0
v -17 -58 0
v -18 -58 0
v -18 -57 0
v -17 -57 0
v -92 -58 0
v -93 -58 0
v -93 -57 0
v -92 -57 0
v -93 -58 0
v -94 -58 0
v -94 -57 0
v -93 -57 0
v -96 -58 0
v -97 -58 0
v -97 -57 0
v -96 -57 0
v -97 -58 0
v -98 -58 0
v -98 -57 0
v -97 -57 0
v -100 -58 0
v -101 -58 0
v -101 -57 0
v -100 -57 0
v -101 -58 0
v -102 -58 0
v -102 -57 0
v -101 -57 0
v -14 -59 0
v -15 -59 0
v -15 -58 0
v -14 -58 0
v -17 -59 0
v -18 -59 0
v -18 -58 0
v -17 -58 0
v -92 -59 0
v -93 -59 0
v -93 -58 0
v -92 -58 0
v -93 -59 0
v -94 -59 0
v -94 -58 0
v -93 -58 0
v -96 -59 0
v -97 -59 0
v -97 -58 0
v -96 -58 0
v -97 -59 0
v -98 -59 0
v -98 -58 0
v -97 -58 0
v -100 -59 0
v -101 -59 0
v -101 -58 0
v -100 -58 0
v -101 -59 0
v -102 -59 0
v -102 -58 0
v -101 -58 0
v -14 -60 0
v -15 -60 0
v -15 -59 0
v -14 -59 0
v -17 -60 0
v -18 -60 0
v -18 -59 0
v -17 -59 0
v -92 -60 0
v -93 -60 0
v -93 -59 0
v -92 -59 0
v -93 -60 0
v -94 -60 0
v -94 -59 0
v -93 -59 0
v -96 -60 0
v -97 -60 0
v -97 -59 0
v -96 -59 0
v -97 -60 0
v -98 -60 0
v -98 -59 0
v -97 -59 0
v -100 -60 0
v -101 -60 0
v -101 -59 0
v -100 -59 0
v -101 -60 0
v -102 -60 0
v -102 -59 0
v -101 -59 0
v -14 -61 0
v -15 -61 0
v -15 -60 0
v -14 -60 0
v -17 -61 0
v -18 -61 0
v -18 -60 0
v -17 -60 0
v -14 -62 0
v -15 -62 0
v -15 -61 0
v -14 -61 0
v -17 -62 0
v -18 -62 0
v -18 -61 0
v -17 -61 0
v -14 -63 0
v -15 -63 0
v -15 -62 0
v -14 -62 0
v -17 -63 0
v -18 -63 0
v -18 -62 0
v -17 -62 0
v -14 -64 0
v -15 -64 0
v -15 -63 0
v -14 -63 0
v -17 -64 0
v -18 -64 0
v -18 -63 0
v -17 -63 0

# Texture cooridinates (Count = 89)
vt 1 0.59375
vt 1 0.625
vt 0.96875 0.625
vt 0.96875 0.59375
vt 1 0.65625
vt 0.96875 0.65625
vt 0.25 0.6875
vt 0.21875 0.6875
vt 0.21875 0.65625
vt 0.25 0.65625
vt 0.1875 0.6875
vt 0.1875 0.65625
vt 0.25 0.71875
vt 0.21875 0.71875
vt 0.1875 0.71875
vt 0.0625 0.8125
vt 0.09375 0.8125
vt 0.09375 0.84375
vt 0.0625 0.84375
vt 0.125 0.8125
vt 0.125 0.84375
vt 0.15625 0.8125
vt 0.15625 0.84375
vt 0.1875 0.8125
vt 0.1875 0.84375
vt 0.25 0.75
vt 0.21875 0.75
vt 0.1875 0.75
vt 0.0625 0.78125
vt 0.09375 0.78125
vt 0.125 0.78125
vt 0.15625 0.78125
vt 0.1875 0.78125
vt 0.0625 1
vt 0.0625 0.96875
vt 0.09375 0.96875
vt 0.09375 1
vt 0.0625 0.9375
vt 0.09375 0.9375
vt 0.0625 0.75
vt 0.09375 0.75
vt 0.125 0.75
vt 0.15625 0.75
vt 0.125 0.96875
vt 0.15625 0.96875
vt 0.15625 1
vt 0.125 1
vt 0.1875 0.96875
vt 0.21875 0.96875
vt 0.21875 1
vt 0.1875 1
vt 0.125 0.9375
vt 0.15625 0.9375
vt 0.1875 0.9375
vt 0.21875 0.9375
vt 0.4375 0.84375
vt 0.4375 0.875
vt 0.40625 0.875
vt 0.40625 0.84375
vt 0.3125 0.84375
vt 0.3125 0.875
vt 0.28125 0.875
vt 0.28125 0.84375
vt 0.09375 0.4375
vt 0.09375 0.46875
vt 0.0625 0.46875
vt 0.0625 0.4375
vt 0.375 0.84375
vt 0.375 0.875
vt 0.34375 0.875
vt 0.34375 0.84375
vt 0.3125 0.8125
vt 0.34375 0.8125
vt 0.375 0.8125
vt 0.25 0.8125
vt 0.28125 0.8125
vt 0.25 0.84375
vt 0.21875 0.8125
vt 0.21875 0.84375
vt 0.3125 0.78125
vt 0.34375 0.78125
vt 0.375 0.78125
vt 0.25 0.78125
vt 0.28125 0.78125
vt 0.21875 0.78125
vt 0.3125 0.75
vt 0.34375 0.75
vt 0.375 0.75
vt 0.28125 0.75

# Normal
vn 0 0 -1

# Mesh description
g trapped_mesh_0004

# Faces
f 1/1/1 2/2/1 3/3/1 4/4/1
f 5/2/1 6/5/1 7/6/1 8/3/1
f 9/7/1 10/8/1 11/9/1 12/10/1
f 13/8/1 14/11/1 15/12/1 16/9/1
f 17/13/1 18/14/1 19/8/1 20/7/1
f 21/14/1 22/15/1 23/11/1 24/8/1
f 25/16/1 26/17/1 27/18/1 28/19/1
f 29/17/1 30/20/1 31/21/1 32/18/1
f 33/20/1 34/22/1 35/23/1 36/21/1
f 37/22/1 38/24/1 39/25/1 40/23/1
f 41/26/1 42/27/1 43/14/1 44/13/1
f 45/27/1 46/28/1 47/15/1 48/14/1
f 49/29/1 50/30/1 51/17/1 52/16/1
f 53/30/1 54/31/1 55/20/1 56/17/1
f 57/31/1 58/32/1 59/22/1 60/20/1
f 61/32/1 62/33/1 63/24/1 64/22/1
f 65/34/1 66/35/1 67/36/1 68/37/1
f 69/35/1 70/38/1 71/39/1 72/36/1
f 73/40/1 74/41/1 75/30/1 76/29/1
f 77/41/1 78/42/1 79/31/1 80/30/1
f 81/42/1 82/43/1 83/32/1 84/31/1
f 85/43/1 86/28/1 87/33/1 88/32/1
f 89/1/1 90/2/1 91/3/1 92/4/1
f 93/2/1 94/5/1 95/6/1 96/3/1
f 97/3/1 98/2/1 99/5/1 100/6/1
f 101/4/1 102/1/1 103/2/1 104/3/1
f 105/1/1 106/2/1 107/3/1 108/4/1
f 109/2/1 110/5/1 111/6/1 112/3/1
f 113/44/1 114/45/1 115/46/1 116/47/1
f 117/48/1 118/49/1 119/50/1 120/51/1
f 121/52/1 122/53/1 123/45/1 124/44/1
f 125/54/1 126/55/1 127/49/1 128/48/1
f 129/56/1 130/57/1 131/58/1 132/59/1
f 133/60/1 134/61/1 135/62/1 136/63/1
f 137/64/1 138/65/1 139/66/1 140/67/1
f 141/64/1 142/65/1 143/66/1 144/67/1
f 145/64/1 146/65/1 147/66/1 148/67/1
f 149/64/1 150/65/1 151/66/1 152/67/1
f 153/64/1 154/65/1 155/66/1 156/67/1
f 157/58/1 158/59/1 159/56/1 160/57/1
f 161/63/1 162/62/1 163/61/1 164/60/1
f 165/64/1 166/65/1 167/66/1 168/67/1
f 169/68/1 170/69/1 171/70/1 172/71/1
f 173/64/1 174/65/1 175/66/1 176/67/1
f 177/63/1 178/60/1 179/61/1 180/62/1
f 181/60/1 182/63/1 183/62/1 184/61/1
f 185/59/1 186/56/1 187/57/1 188/58/1
f 189/57/1 190/58/1 191/59/1 192/56/1
f 193/59/1 194/56/1 195/57/1 196/58/1
f 197/57/1 198/58/1 199/59/1 200/56/1
f 201/59/1 202/56/1 203/57/1 204/58/1
f 205/57/1 206/58/1 207/59/1 208/56/1
f 209/59/1 210/56/1 211/57/1 212/58/1
f 213/57/1 214/58/1 215/59/1 216/56/1
f 217/72/1 218/73/1 219/71/1 220/60/1
f 221/73/1 222/74/1 223/68/1 224/71/1
f 225/75/1 226/76/1 227/63/1 228/77/1
f 229/76/1 230/72/1 231/60/1 232/63/1
f 233/24/1 234/78/1 235/79/1 236/25/1
f 237/78/1 238/75/1 239/77/1 240/79/1
f 241/59/1 242/56/1 243/57/1 244/58/1
f 245/57/1 246/58/1 247/59/1 248/56/1
f 249/80/1 250/81/1 251/73/1 252/72/1
f 253/81/1 254/82/1 255/74/1 256/73/1
f 257/83/1 258/84/1 259/76/1 260/75/1
f 261/84/1 262/80/1 263/72/1 264/76/1
f 265/33/1 266/85/1 267/78/1 268/24/1
f 269/85/1 270/83/1 271/75/1 272/78/1
f 273/59/1 274/56/1 275/57/1 276/58/1
f 277/57/1 278/58/1 279/59/1 280/56/1
f 281/86/1 282/87/1 283/81/1 284/80/1
f 285/87/1 286/88/1 287/82/1 288/81/1
f 289/26/1 290/89/1 291/84/1 292/83/1
f 293/89/1 294/86/1 295/80/1 296/84/1
f 297/28/1 298/27/1 299/85/1 300/33/1
f 301/27/1 302/26/1 303/83/1 304/85/1
f 305/59/1 306/56/1 307/57/1 308/58/1
f 309/57/1 310/58/1 311/59/1 312/56/1
f 313/59/1 314/56/1 315/57/1 316/58/1
f 317/57/1 318/58/1 319/59/1 320/56/1
f 321/59/1 322/56/1 323/57/1 324/58/1
f 325/57/1 326/58/1 327/59/1 328/56/1
f 329/59/1 330/56/1 331/57/1 332/58/1
f 333/57/1 334/58/1 335/59/1 336/56/1

