# Tiled2Unity generated file. Do not modify by hand.
# Wavefront file for 'trapped_mesh_0004.obj'

# Vertices (Count = 252)
v -79 -15 0
v -80 -15 0
v -80 -14 0
v -79 -14 0
v -80 -15 0
v -81 -15 0
v -81 -14 0
v -80 -14 0
v -79 -16 0
v -80 -16 0
v -80 -15 0
v -79 -15 0
v -80 -16 0
v -81 -16 0
v -81 -15 0
v -80 -15 0
v -79 -17 0
v -80 -17 0
v -80 -16 0
v -79 -16 0
v -80 -17 0
v -81 -17 0
v -81 -16 0
v -80 -16 0
v -68 -18 0
v -69 -18 0
v -69 -17 0
v -68 -17 0
v -69 -18 0
v -70 -18 0
v -70 -17 0
v -69 -17 0
v -72 -18 0
v -73 -18 0
v -73 -17 0
v -72 -17 0
v -73 -18 0
v -74 -18 0
v -74 -17 0
v -73 -17 0
v -79 -18 0
v -80 -18 0
v -80 -17 0
v -79 -17 0
v -80 -18 0
v -81 -18 0
v -81 -17 0
v -80 -17 0
v -68 -19 0
v -69 -19 0
v -69 -18 0
v -68 -18 0
v -69 -19 0
v -70 -19 0
v -70 -18 0
v -69 -18 0
v -72 -19 0
v -73 -19 0
v -73 -18 0
v -72 -18 0
v -73 -19 0
v -74 -19 0
v -74 -18 0
v -73 -18 0
v -25 -20 0
v -26 -20 0
v -26 -19 0
v -25 -19 0
v -26 -20 0
v -27 -20 0
v -27 -19 0
v -26 -19 0
v -68 -20 0
v -69 -20 0
v -69 -19 0
v -68 -19 0
v -69 -20 0
v -70 -20 0
v -70 -19 0
v -69 -19 0
v -72 -20 0
v -73 -20 0
v -73 -19 0
v -72 -19 0
v -73 -20 0
v -74 -20 0
v -74 -19 0
v -73 -19 0
v -88 -20 0
v -89 -20 0
v -89 -19 0
v -88 -19 0
v -89 -20 0
v -90 -20 0
v -90 -19 0
v -89 -19 0
v -62 -23 0
v -63 -23 0
v -63 -22 0
v -62 -22 0
v -62 -24 0
v -63 -24 0
v -63 -23 0
v -62 -23 0
v -22 -25 0
v -23 -25 0
v -23 -24 0
v -22 -24 0
v -23 -25 0
v -24 -25 0
v -24 -24 0
v -23 -24 0
v -25 -25 0
v -26 -25 0
v -26 -24 0
v -25 -24 0
v -26 -25 0
v -27 -25 0
v -27 -24 0
v -26 -24 0
v -56 -35 0
v -57 -35 0
v -57 -34 0
v -56 -34 0
v -62 -35 0
v -63 -35 0
v -63 -34 0
v -62 -34 0
v -56 -36 0
v -57 -36 0
v -57 -35 0
v -56 -35 0
v -62 -36 0
v -63 -36 0
v -63 -35 0
v -62 -35 0
v -14 -54 0
v -15 -54 0
v -15 -53 0
v -14 -53 0
v -14 -55 0
v -15 -55 0
v -15 -54 0
v -14 -54 0
v -14 -56 0
v -15 -56 0
v -15 -55 0
v -14 -55 0
v -14 -57 0
v -15 -57 0
v -15 -56 0
v -14 -56 0
v -14 -58 0
v -15 -58 0
v -15 -57 0
v -14 -57 0
v -92 -58 0
v -93 -58 0
v -93 -57 0
v -92 -57 0
v -93 -58 0
v -94 -58 0
v -94 -57 0
v -93 -57 0
v -96 -58 0
v -97 -58 0
v -97 -57 0
v -96 -57 0
v -97 -58 0
v -98 -58 0
v -98 -57 0
v -97 -57 0
v -100 -58 0
v -101 -58 0
v -101 -57 0
v -100 -57 0
v -101 -58 0
v -102 -58 0
v -102 -57 0
v -101 -57 0
v -14 -59 0
v -15 -59 0
v -15 -58 0
v -14 -58 0
v -92 -59 0
v -93 -59 0
v -93 -58 0
v -92 -58 0
v -93 -59 0
v -94 -59 0
v -94 -58 0
v -93 -58 0
v -96 -59 0
v -97 -59 0
v -97 -58 0
v -96 -58 0
v -97 -59 0
v -98 -59 0
v -98 -58 0
v -97 -58 0
v -100 -59 0
v -101 -59 0
v -101 -58 0
v -100 -58 0
v -101 -59 0
v -102 -59 0
v -102 -58 0
v -101 -58 0
v -14 -60 0
v -15 -60 0
v -15 -59 0
v -14 -59 0
v -92 -60 0
v -93 -60 0
v -93 -59 0
v -92 -59 0
v -93 -60 0
v -94 -60 0
v -94 -59 0
v -93 -59 0
v -96 -60 0
v -97 -60 0
v -97 -59 0
v -96 -59 0
v -97 -60 0
v -98 -60 0
v -98 -59 0
v -97 -59 0
v -100 -60 0
v -101 -60 0
v -101 -59 0
v -100 -59 0
v -101 -60 0
v -102 -60 0
v -102 -59 0
v -101 -59 0
v -14 -61 0
v -15 -61 0
v -15 -60 0
v -14 -60 0
v -14 -62 0
v -15 -62 0
v -15 -61 0
v -14 -61 0
v -14 -63 0
v -15 -63 0
v -15 -62 0
v -14 -62 0
v -14 -64 0
v -15 -64 0
v -15 -63 0
v -14 -63 0

# Texture cooridinates (Count = 82)
vt 1 0.59375
vt 1 0.625
vt 0.96875 0.625
vt 0.96875 0.59375
vt 1 0.65625
vt 0.96875 0.65625
vt 0.25 0.6875
vt 0.21875 0.6875
vt 0.21875 0.65625
vt 0.25 0.65625
vt 0.1875 0.6875
vt 0.1875 0.65625
vt 0.25 0.71875
vt 0.21875 0.71875
vt 0.1875 0.71875
vt 0.0625 0.8125
vt 0.09375 0.8125
vt 0.09375 0.84375
vt 0.0625 0.84375
vt 0.125 0.8125
vt 0.125 0.84375
vt 0.15625 0.8125
vt 0.15625 0.84375
vt 0.1875 0.8125
vt 0.1875 0.84375
vt 0.25 0.75
vt 0.21875 0.75
vt 0.1875 0.75
vt 0.0625 0.78125
vt 0.09375 0.78125
vt 0.125 0.78125
vt 0.15625 0.78125
vt 0.1875 0.78125
vt 0.0625 1
vt 0.0625 0.96875
vt 0.09375 0.96875
vt 0.09375 1
vt 0.0625 0.9375
vt 0.09375 0.9375
vt 0.0625 0.75
vt 0.09375 0.75
vt 0.125 0.75
vt 0.15625 0.75
vt 0.125 0.96875
vt 0.15625 0.96875
vt 0.15625 1
vt 0.125 1
vt 0.1875 0.96875
vt 0.21875 0.96875
vt 0.21875 1
vt 0.1875 1
vt 0.125 0.9375
vt 0.15625 0.9375
vt 0.1875 0.9375
vt 0.21875 0.9375
vt 0.375 0.875
vt 0.40625 0.875
vt 0.40625 0.84375
vt 0.375 0.84375
vt 0.4375 0.84375
vt 0.4375 0.875
vt 0.3125 0.8125
vt 0.34375 0.8125
vt 0.34375 0.84375
vt 0.3125 0.84375
vt 0.375 0.8125
vt 0.25 0.8125
vt 0.28125 0.8125
vt 0.28125 0.84375
vt 0.25 0.84375
vt 0.21875 0.8125
vt 0.21875 0.84375
vt 0.3125 0.78125
vt 0.34375 0.78125
vt 0.375 0.78125
vt 0.25 0.78125
vt 0.28125 0.78125
vt 0.21875 0.78125
vt 0.3125 0.75
vt 0.34375 0.75
vt 0.375 0.75
vt 0.28125 0.75

# Normal
vn 0 0 -1

# Mesh description
g trapped_mesh_0004

# Faces
f 1/1/1 2/2/1 3/3/1 4/4/1
f 5/2/1 6/5/1 7/6/1 8/3/1
f 9/7/1 10/8/1 11/9/1 12/10/1
f 13/8/1 14/11/1 15/12/1 16/9/1
f 17/13/1 18/14/1 19/8/1 20/7/1
f 21/14/1 22/15/1 23/11/1 24/8/1
f 25/16/1 26/17/1 27/18/1 28/19/1
f 29/17/1 30/20/1 31/21/1 32/18/1
f 33/20/1 34/22/1 35/23/1 36/21/1
f 37/22/1 38/24/1 39/25/1 40/23/1
f 41/26/1 42/27/1 43/14/1 44/13/1
f 45/27/1 46/28/1 47/15/1 48/14/1
f 49/29/1 50/30/1 51/17/1 52/16/1
f 53/30/1 54/31/1 55/20/1 56/17/1
f 57/31/1 58/32/1 59/22/1 60/20/1
f 61/32/1 62/33/1 63/24/1 64/22/1
f 65/34/1 66/35/1 67/36/1 68/37/1
f 69/35/1 70/38/1 71/39/1 72/36/1
f 73/40/1 74/41/1 75/30/1 76/29/1
f 77/41/1 78/42/1 79/31/1 80/30/1
f 81/42/1 82/43/1 83/32/1 84/31/1
f 85/43/1 86/28/1 87/33/1 88/32/1
f 89/1/1 90/2/1 91/3/1 92/4/1
f 93/2/1 94/5/1 95/6/1 96/3/1
f 97/3/1 98/2/1 99/5/1 100/6/1
f 101/4/1 102/1/1 103/2/1 104/3/1
f 105/1/1 106/2/1 107/3/1 108/4/1
f 109/2/1 110/5/1 111/6/1 112/3/1
f 113/1/1 114/2/1 115/3/1 116/4/1
f 117/2/1 118/5/1 119/6/1 120/3/1
f 121/44/1 122/45/1 123/46/1 124/47/1
f 125/48/1 126/49/1 127/50/1 128/51/1
f 129/52/1 130/53/1 131/45/1 132/44/1
f 133/54/1 134/55/1 135/49/1 136/48/1
f 137/56/1 138/57/1 139/58/1 140/59/1
f 141/58/1 142/60/1 143/61/1 144/57/1
f 145/58/1 146/60/1 147/61/1 148/57/1
f 149/58/1 150/60/1 151/61/1 152/57/1
f 153/58/1 154/60/1 155/61/1 156/57/1
f 157/62/1 158/63/1 159/64/1 160/65/1
f 161/63/1 162/66/1 163/59/1 164/64/1
f 165/67/1 166/68/1 167/69/1 168/70/1
f 169/68/1 170/62/1 171/65/1 172/69/1
f 173/24/1 174/71/1 175/72/1 176/25/1
f 177/71/1 178/67/1 179/70/1 180/72/1
f 181/58/1 182/60/1 183/61/1 184/57/1
f 185/73/1 186/74/1 187/63/1 188/62/1
f 189/74/1 190/75/1 191/66/1 192/63/1
f 193/76/1 194/77/1 195/68/1 196/67/1
f 197/77/1 198/73/1 199/62/1 200/68/1
f 201/33/1 202/78/1 203/71/1 204/24/1
f 205/78/1 206/76/1 207/67/1 208/71/1
f 209/58/1 210/60/1 211/61/1 212/57/1
f 213/79/1 214/80/1 215/74/1 216/73/1
f 217/80/1 218/81/1 219/75/1 220/74/1
f 221/26/1 222/82/1 223/77/1 224/76/1
f 225/82/1 226/79/1 227/73/1 228/77/1
f 229/28/1 230/27/1 231/78/1 232/33/1
f 233/27/1 234/26/1 235/76/1 236/78/1
f 237/58/1 238/60/1 239/61/1 240/57/1
f 241/58/1 242/60/1 243/61/1 244/57/1
f 245/58/1 246/60/1 247/61/1 248/57/1
f 249/58/1 250/60/1 251/61/1 252/57/1

