# Tiled2Unity generated file. Do not modify by hand.
# Wavefront file for 'trapped_mesh_0004.obj'

# Vertices (Count = 300)
v -79 -16 0
v -80 -16 0
v -80 -15 0
v -79 -15 0
v -80 -16 0
v -81 -16 0
v -81 -15 0
v -80 -15 0
v -79 -17 0
v -80 -17 0
v -80 -16 0
v -79 -16 0
v -68 -18 0
v -69 -18 0
v -69 -17 0
v -68 -17 0
v -69 -18 0
v -70 -18 0
v -70 -17 0
v -69 -17 0
v -72 -18 0
v -73 -18 0
v -73 -17 0
v -72 -17 0
v -73 -18 0
v -74 -18 0
v -74 -17 0
v -73 -17 0
v -79 -18 0
v -80 -18 0
v -80 -17 0
v -79 -17 0
v -80 -18 0
v -81 -18 0
v -81 -17 0
v -80 -17 0
v -68 -19 0
v -69 -19 0
v -69 -18 0
v -68 -18 0
v -69 -19 0
v -70 -19 0
v -70 -18 0
v -69 -18 0
v -72 -19 0
v -73 -19 0
v -73 -18 0
v -72 -18 0
v -73 -19 0
v -74 -19 0
v -74 -18 0
v -73 -18 0
v -25 -20 0
v -26 -20 0
v -26 -19 0
v -25 -19 0
v -26 -20 0
v -27 -20 0
v -27 -19 0
v -26 -19 0
v -68 -20 0
v -69 -20 0
v -69 -19 0
v -68 -19 0
v -69 -20 0
v -70 -20 0
v -70 -19 0
v -69 -19 0
v -72 -20 0
v -73 -20 0
v -73 -19 0
v -72 -19 0
v -73 -20 0
v -74 -20 0
v -74 -19 0
v -73 -19 0
v -56 -35 0
v -57 -35 0
v -57 -34 0
v -56 -34 0
v -62 -35 0
v -63 -35 0
v -63 -34 0
v -62 -34 0
v -56 -36 0
v -57 -36 0
v -57 -35 0
v -56 -35 0
v -62 -36 0
v -63 -36 0
v -63 -35 0
v -62 -35 0
v 0 -47 0
v -1 -47 0
v -1 -46 0
v 0 -46 0
v -1 -47 0
v -2 -47 0
v -2 -46 0
v -1 -46 0
v -4 -47 0
v -5 -47 0
v -5 -46 0
v -4 -46 0
v -4 -48 0
v -5 -48 0
v -5 -47 0
v -4 -47 0
v -4 -49 0
v -5 -49 0
v -5 -48 0
v -4 -48 0
v -4 -50 0
v -5 -50 0
v -5 -49 0
v -4 -49 0
v -4 -51 0
v -5 -51 0
v -5 -50 0
v -4 -50 0
v 0 -52 0
v -1 -52 0
v -1 -51 0
v 0 -51 0
v -1 -52 0
v -2 -52 0
v -2 -51 0
v -1 -51 0
v -4 -52 0
v -5 -52 0
v -5 -51 0
v -4 -51 0
v -1 -53 0
v -2 -53 0
v -2 -52 0
v -1 -52 0
v -4 -53 0
v -5 -53 0
v -5 -52 0
v -4 -52 0
v -14 -54 0
v -15 -54 0
v -15 -53 0
v -14 -53 0
v -17 -54 0
v -18 -54 0
v -18 -53 0
v -17 -53 0
v -14 -55 0
v -15 -55 0
v -15 -54 0
v -14 -54 0
v -17 -55 0
v -18 -55 0
v -18 -54 0
v -17 -54 0
v -14 -56 0
v -15 -56 0
v -15 -55 0
v -14 -55 0
v -17 -56 0
v -18 -56 0
v -18 -55 0
v -17 -55 0
v -14 -57 0
v -15 -57 0
v -15 -56 0
v -14 -56 0
v -17 -57 0
v -18 -57 0
v -18 -56 0
v -17 -56 0
v -14 -58 0
v -15 -58 0
v -15 -57 0
v -14 -57 0
v -17 -58 0
v -18 -58 0
v -18 -57 0
v -17 -57 0
v -92 -58 0
v -93 -58 0
v -93 -57 0
v -92 -57 0
v -93 -58 0
v -94 -58 0
v -94 -57 0
v -93 -57 0
v -96 -58 0
v -97 -58 0
v -97 -57 0
v -96 -57 0
v -97 -58 0
v -98 -58 0
v -98 -57 0
v -97 -57 0
v -100 -58 0
v -101 -58 0
v -101 -57 0
v -100 -57 0
v -101 -58 0
v -102 -58 0
v -102 -57 0
v -101 -57 0
v -14 -59 0
v -15 -59 0
v -15 -58 0
v -14 -58 0
v -17 -59 0
v -18 -59 0
v -18 -58 0
v -17 -58 0
v -92 -59 0
v -93 -59 0
v -93 -58 0
v -92 -58 0
v -93 -59 0
v -94 -59 0
v -94 -58 0
v -93 -58 0
v -96 -59 0
v -97 -59 0
v -97 -58 0
v -96 -58 0
v -97 -59 0
v -98 -59 0
v -98 -58 0
v -97 -58 0
v -100 -59 0
v -101 -59 0
v -101 -58 0
v -100 -58 0
v -101 -59 0
v -102 -59 0
v -102 -58 0
v -101 -58 0
v -14 -60 0
v -15 -60 0
v -15 -59 0
v -14 -59 0
v -17 -60 0
v -18 -60 0
v -18 -59 0
v -17 -59 0
v -92 -60 0
v -93 -60 0
v -93 -59 0
v -92 -59 0
v -93 -60 0
v -94 -60 0
v -94 -59 0
v -93 -59 0
v -96 -60 0
v -97 -60 0
v -97 -59 0
v -96 -59 0
v -97 -60 0
v -98 -60 0
v -98 -59 0
v -97 -59 0
v -100 -60 0
v -101 -60 0
v -101 -59 0
v -100 -59 0
v -101 -60 0
v -102 -60 0
v -102 -59 0
v -101 -59 0
v -14 -61 0
v -15 -61 0
v -15 -60 0
v -14 -60 0
v -17 -61 0
v -18 -61 0
v -18 -60 0
v -17 -60 0
v -14 -62 0
v -15 -62 0
v -15 -61 0
v -14 -61 0
v -17 -62 0
v -18 -62 0
v -18 -61 0
v -17 -61 0
v -14 -63 0
v -15 -63 0
v -15 -62 0
v -14 -62 0
v -17 -63 0
v -18 -63 0
v -18 -62 0
v -17 -62 0
v -14 -64 0
v -15 -64 0
v -15 -63 0
v -14 -63 0
v -17 -64 0
v -18 -64 0
v -18 -63 0
v -17 -63 0

# Texture cooridinates (Count = 86)
vt 0.0625 0.21875
vt 0.03125 0.21875
vt 0.03125 0.1875
vt 0.0625 0.1875
vt 0 0.21875
vt 0 0.1875
vt 0.0625 0.25
vt 0.03125 0.25
vt 0.0625 0.8125
vt 0.09375 0.8125
vt 0.09375 0.84375
vt 0.0625 0.84375
vt 0.125 0.8125
vt 0.125 0.84375
vt 0.15625 0.8125
vt 0.15625 0.84375
vt 0.1875 0.8125
vt 0.1875 0.84375
vt 0.0625 0.28125
vt 0.03125 0.28125
vt 0 0.28125
vt 0 0.25
vt 0.0625 0.78125
vt 0.09375 0.78125
vt 0.125 0.78125
vt 0.15625 0.78125
vt 0.1875 0.78125
vt 0.0625 1
vt 0.0625 0.96875
vt 0.09375 0.96875
vt 0.09375 1
vt 0.0625 0.9375
vt 0.09375 0.9375
vt 0.0625 0.75
vt 0.09375 0.75
vt 0.125 0.75
vt 0.15625 0.75
vt 0.1875 0.75
vt 0.125 0.96875
vt 0.15625 0.96875
vt 0.15625 1
vt 0.125 1
vt 0.1875 0.96875
vt 0.21875 0.96875
vt 0.21875 1
vt 0.1875 1
vt 0.125 0.9375
vt 0.15625 0.9375
vt 0.1875 0.9375
vt 0.21875 0.9375
vt 0.4375 0.84375
vt 0.4375 0.875
vt 0.40625 0.875
vt 0.40625 0.84375
vt 0.3125 0.84375
vt 0.3125 0.875
vt 0.28125 0.875
vt 0.28125 0.84375
vt 0.09375 0.4375
vt 0.09375 0.46875
vt 0.0625 0.46875
vt 0.0625 0.4375
vt 0.375 0.84375
vt 0.375 0.875
vt 0.34375 0.875
vt 0.34375 0.84375
vt 0.3125 0.8125
vt 0.34375 0.8125
vt 0.375 0.8125
vt 0.25 0.8125
vt 0.28125 0.8125
vt 0.25 0.84375
vt 0.21875 0.8125
vt 0.21875 0.84375
vt 0.3125 0.78125
vt 0.34375 0.78125
vt 0.375 0.78125
vt 0.25 0.78125
vt 0.28125 0.78125
vt 0.21875 0.78125
vt 0.3125 0.75
vt 0.34375 0.75
vt 0.375 0.75
vt 0.25 0.75
vt 0.28125 0.75
vt 0.21875 0.75

# Normal
vn 0 0 -1

# Mesh description
g trapped_mesh_0004

# Faces
f 1/1/1 2/2/1 3/3/1 4/4/1
f 5/2/1 6/5/1 7/6/1 8/3/1
f 9/7/1 10/8/1 11/2/1 12/1/1
f 13/9/1 14/10/1 15/11/1 16/12/1
f 17/10/1 18/13/1 19/14/1 20/11/1
f 21/13/1 22/15/1 23/16/1 24/14/1
f 25/15/1 26/17/1 27/18/1 28/16/1
f 29/19/1 30/20/1 31/8/1 32/7/1
f 33/20/1 34/21/1 35/22/1 36/8/1
f 37/23/1 38/24/1 39/10/1 40/9/1
f 41/24/1 42/25/1 43/13/1 44/10/1
f 45/25/1 46/26/1 47/15/1 48/13/1
f 49/26/1 50/27/1 51/17/1 52/15/1
f 53/28/1 54/29/1 55/30/1 56/31/1
f 57/29/1 58/32/1 59/33/1 60/30/1
f 61/34/1 62/35/1 63/24/1 64/23/1
f 65/35/1 66/36/1 67/25/1 68/24/1
f 69/36/1 70/37/1 71/26/1 72/25/1
f 73/37/1 74/38/1 75/27/1 76/26/1
f 77/39/1 78/40/1 79/41/1 80/42/1
f 81/43/1 82/44/1 83/45/1 84/46/1
f 85/47/1 86/48/1 87/40/1 88/39/1
f 89/49/1 90/50/1 91/44/1 92/43/1
f 93/51/1 94/52/1 95/53/1 96/54/1
f 97/55/1 98/56/1 99/57/1 100/58/1
f 101/59/1 102/60/1 103/61/1 104/62/1
f 105/59/1 106/60/1 107/61/1 108/62/1
f 109/59/1 110/60/1 111/61/1 112/62/1
f 113/59/1 114/60/1 115/61/1 116/62/1
f 117/59/1 118/60/1 119/61/1 120/62/1
f 121/53/1 122/54/1 123/51/1 124/52/1
f 125/58/1 126/57/1 127/56/1 128/55/1
f 129/59/1 130/60/1 131/61/1 132/62/1
f 133/63/1 134/64/1 135/65/1 136/66/1
f 137/59/1 138/60/1 139/61/1 140/62/1
f 141/58/1 142/55/1 143/56/1 144/57/1
f 145/55/1 146/58/1 147/57/1 148/56/1
f 149/54/1 150/51/1 151/52/1 152/53/1
f 153/52/1 154/53/1 155/54/1 156/51/1
f 157/54/1 158/51/1 159/52/1 160/53/1
f 161/52/1 162/53/1 163/54/1 164/51/1
f 165/54/1 166/51/1 167/52/1 168/53/1
f 169/52/1 170/53/1 171/54/1 172/51/1
f 173/54/1 174/51/1 175/52/1 176/53/1
f 177/52/1 178/53/1 179/54/1 180/51/1
f 181/67/1 182/68/1 183/66/1 184/55/1
f 185/68/1 186/69/1 187/63/1 188/66/1
f 189/70/1 190/71/1 191/58/1 192/72/1
f 193/71/1 194/67/1 195/55/1 196/58/1
f 197/17/1 198/73/1 199/74/1 200/18/1
f 201/73/1 202/70/1 203/72/1 204/74/1
f 205/54/1 206/51/1 207/52/1 208/53/1
f 209/52/1 210/53/1 211/54/1 212/51/1
f 213/75/1 214/76/1 215/68/1 216/67/1
f 217/76/1 218/77/1 219/69/1 220/68/1
f 221/78/1 222/79/1 223/71/1 224/70/1
f 225/79/1 226/75/1 227/67/1 228/71/1
f 229/27/1 230/80/1 231/73/1 232/17/1
f 233/80/1 234/78/1 235/70/1 236/73/1
f 237/54/1 238/51/1 239/52/1 240/53/1
f 241/52/1 242/53/1 243/54/1 244/51/1
f 245/81/1 246/82/1 247/76/1 248/75/1
f 249/82/1 250/83/1 251/77/1 252/76/1
f 253/84/1 254/85/1 255/79/1 256/78/1
f 257/85/1 258/81/1 259/75/1 260/79/1
f 261/38/1 262/86/1 263/80/1 264/27/1
f 265/86/1 266/84/1 267/78/1 268/80/1
f 269/54/1 270/51/1 271/52/1 272/53/1
f 273/52/1 274/53/1 275/54/1 276/51/1
f 277/54/1 278/51/1 279/52/1 280/53/1
f 281/52/1 282/53/1 283/54/1 284/51/1
f 285/54/1 286/51/1 287/52/1 288/53/1
f 289/52/1 290/53/1 291/54/1 292/51/1
f 293/54/1 294/51/1 295/52/1 296/53/1
f 297/52/1 298/53/1 299/54/1 300/51/1

