# Tiled2Unity generated file. Do not modify by hand.
# Wavefront file for 'boss_mesh_0002.obj'

# Vertices (Count = 496)
v -14 -14 0
v -15 -14 0
v -15 -13 0
v -14 -13 0
v -26 -14 0
v -27 -14 0
v -27 -13 0
v -26 -13 0
v -37 -14 0
v -38 -14 0
v -38 -13 0
v -37 -13 0
v -49 -14 0
v -50 -14 0
v -50 -13 0
v -49 -13 0
v -14 -15 0
v -15 -15 0
v -15 -14 0
v -14 -14 0
v -26 -15 0
v -27 -15 0
v -27 -14 0
v -26 -14 0
v -37 -15 0
v -38 -15 0
v -38 -14 0
v -37 -14 0
v -49 -15 0
v -50 -15 0
v -50 -14 0
v -49 -14 0
v -14 -16 0
v -15 -16 0
v -15 -15 0
v -14 -15 0
v -26 -16 0
v -27 -16 0
v -27 -15 0
v -26 -15 0
v -37 -16 0
v -38 -16 0
v -38 -15 0
v -37 -15 0
v -49 -16 0
v -50 -16 0
v -50 -15 0
v -49 -15 0
v -14 -17 0
v -15 -17 0
v -15 -16 0
v -14 -16 0
v -26 -17 0
v -27 -17 0
v -27 -16 0
v -26 -16 0
v -37 -17 0
v -38 -17 0
v -38 -16 0
v -37 -16 0
v -49 -17 0
v -50 -17 0
v -50 -16 0
v -49 -16 0
v -14 -18 0
v -15 -18 0
v -15 -17 0
v -14 -17 0
v -26 -18 0
v -27 -18 0
v -27 -17 0
v -26 -17 0
v -37 -18 0
v -38 -18 0
v -38 -17 0
v -37 -17 0
v -49 -18 0
v -50 -18 0
v -50 -17 0
v -49 -17 0
v -14 -19 0
v -15 -19 0
v -15 -18 0
v -14 -18 0
v -26 -19 0
v -27 -19 0
v -27 -18 0
v -26 -18 0
v -37 -19 0
v -38 -19 0
v -38 -18 0
v -37 -18 0
v -49 -19 0
v -50 -19 0
v -50 -18 0
v -49 -18 0
v -14 -20 0
v -15 -20 0
v -15 -19 0
v -14 -19 0
v -49 -20 0
v -50 -20 0
v -50 -19 0
v -49 -19 0
v -14 -21 0
v -15 -21 0
v -15 -20 0
v -14 -20 0
v -49 -21 0
v -50 -21 0
v -50 -20 0
v -49 -20 0
v -14 -22 0
v -15 -22 0
v -15 -21 0
v -14 -21 0
v -15 -22 0
v -16 -22 0
v -16 -21 0
v -15 -21 0
v -16 -22 0
v -17 -22 0
v -17 -21 0
v -16 -21 0
v -17 -22 0
v -18 -22 0
v -18 -21 0
v -17 -21 0
v -18 -22 0
v -19 -22 0
v -19 -21 0
v -18 -21 0
v -19 -22 0
v -20 -22 0
v -20 -21 0
v -19 -21 0
v -20 -22 0
v -21 -22 0
v -21 -21 0
v -20 -21 0
v -21 -22 0
v -22 -22 0
v -22 -21 0
v -21 -21 0
v -22 -22 0
v -23 -22 0
v -23 -21 0
v -22 -21 0
v -23 -22 0
v -24 -22 0
v -24 -21 0
v -23 -21 0
v -24 -22 0
v -25 -22 0
v -25 -21 0
v -24 -21 0
v -25 -22 0
v -26 -22 0
v -26 -21 0
v -25 -21 0
v -26 -22 0
v -27 -22 0
v -27 -21 0
v -26 -21 0
v -27 -22 0
v -28 -22 0
v -28 -21 0
v -27 -21 0
v -36 -22 0
v -37 -22 0
v -37 -21 0
v -36 -21 0
v -37 -22 0
v -38 -22 0
v -38 -21 0
v -37 -21 0
v -38 -22 0
v -39 -22 0
v -39 -21 0
v -38 -21 0
v -39 -22 0
v -40 -22 0
v -40 -21 0
v -39 -21 0
v -40 -22 0
v -41 -22 0
v -41 -21 0
v -40 -21 0
v -41 -22 0
v -42 -22 0
v -42 -21 0
v -41 -21 0
v -42 -22 0
v -43 -22 0
v -43 -21 0
v -42 -21 0
v -43 -22 0
v -44 -22 0
v -44 -21 0
v -43 -21 0
v -44 -22 0
v -45 -22 0
v -45 -21 0
v -44 -21 0
v -45 -22 0
v -46 -22 0
v -46 -21 0
v -45 -21 0
v -46 -22 0
v -47 -22 0
v -47 -21 0
v -46 -21 0
v -47 -22 0
v -48 -22 0
v -48 -21 0
v -47 -21 0
v -48 -22 0
v -49 -22 0
v -49 -21 0
v -48 -21 0
v -49 -22 0
v -50 -22 0
v -50 -21 0
v -49 -21 0
v -27 -23 0
v -28 -23 0
v -28 -22 0
v -27 -22 0
v -36 -23 0
v -37 -23 0
v -37 -22 0
v -36 -22 0
v -27 -24 0
v -28 -24 0
v -28 -23 0
v -27 -23 0
v -36 -24 0
v -37 -24 0
v -37 -23 0
v -36 -23 0
v -27 -25 0
v -28 -25 0
v -28 -24 0
v -27 -24 0
v -36 -25 0
v -37 -25 0
v -37 -24 0
v -36 -24 0
v -27 -26 0
v -28 -26 0
v -28 -25 0
v -27 -25 0
v -30 -26 0
v -31 -26 0
v -31 -25 0
v -30 -25 0
v -31 -26 0
v -32 -26 0
v -32 -25 0
v -31 -25 0
v -32 -26 0
v -33 -26 0
v -33 -25 0
v -32 -25 0
v -33 -26 0
v -34 -26 0
v -34 -25 0
v -33 -25 0
v -36 -26 0
v -37 -26 0
v -37 -25 0
v -36 -25 0
v -26 -27 0
v -27 -27 0
v -27 -26 0
v -26 -26 0
v -27 -27 0
v -28 -27 0
v -28 -26 0
v -27 -26 0
v -28 -27 0
v -29 -27 0
v -29 -26 0
v -28 -26 0
v -29 -27 0
v -30 -27 0
v -30 -26 0
v -29 -26 0
v -30 -27 0
v -31 -27 0
v -31 -26 0
v -30 -26 0
v -31 -27 0
v -32 -27 0
v -32 -26 0
v -31 -26 0
v -32 -27 0
v -33 -27 0
v -33 -26 0
v -32 -26 0
v -33 -27 0
v -34 -27 0
v -34 -26 0
v -33 -26 0
v -34 -27 0
v -35 -27 0
v -35 -26 0
v -34 -26 0
v -35 -27 0
v -36 -27 0
v -36 -26 0
v -35 -26 0
v -36 -27 0
v -37 -27 0
v -37 -26 0
v -36 -26 0
v -37 -27 0
v -38 -27 0
v -38 -26 0
v -37 -26 0
v -26 -28 0
v -27 -28 0
v -27 -27 0
v -26 -27 0
v -37 -28 0
v -38 -28 0
v -38 -27 0
v -37 -27 0
v -26 -29 0
v -27 -29 0
v -27 -28 0
v -26 -28 0
v -37 -29 0
v -38 -29 0
v -38 -28 0
v -37 -28 0
v -26 -30 0
v -27 -30 0
v -27 -29 0
v -26 -29 0
v -37 -30 0
v -38 -30 0
v -38 -29 0
v -37 -29 0
v -25 -31 0
v -26 -31 0
v -26 -30 0
v -25 -30 0
v -26 -31 0
v -27 -31 0
v -27 -30 0
v -26 -30 0
v -37 -31 0
v -38 -31 0
v -38 -30 0
v -37 -30 0
v -38 -31 0
v -39 -31 0
v -39 -30 0
v -38 -30 0
v -25 -32 0
v -26 -32 0
v -26 -31 0
v -25 -31 0
v -26 -32 0
v -27 -32 0
v -27 -31 0
v -26 -31 0
v -37 -32 0
v -38 -32 0
v -38 -31 0
v -37 -31 0
v -38 -32 0
v -39 -32 0
v -39 -31 0
v -38 -31 0
v -25 -33 0
v -26 -33 0
v -26 -32 0
v -25 -32 0
v -26 -33 0
v -27 -33 0
v -27 -32 0
v -26 -32 0
v -37 -33 0
v -38 -33 0
v -38 -32 0
v -37 -32 0
v -38 -33 0
v -39 -33 0
v -39 -32 0
v -38 -32 0
v -25 -34 0
v -26 -34 0
v -26 -33 0
v -25 -33 0
v -26 -34 0
v -27 -34 0
v -27 -33 0
v -26 -33 0
v -37 -34 0
v -38 -34 0
v -38 -33 0
v -37 -33 0
v -38 -34 0
v -39 -34 0
v -39 -33 0
v -38 -33 0
v -26 -35 0
v -27 -35 0
v -27 -34 0
v -26 -34 0
v -37 -35 0
v -38 -35 0
v -38 -34 0
v -37 -34 0
v -26 -36 0
v -27 -36 0
v -27 -35 0
v -26 -35 0
v -37 -36 0
v -38 -36 0
v -38 -35 0
v -37 -35 0
v -26 -37 0
v -27 -37 0
v -27 -36 0
v -26 -36 0
v -37 -37 0
v -38 -37 0
v -38 -36 0
v -37 -36 0
v -26 -38 0
v -27 -38 0
v -27 -37 0
v -26 -37 0
v -27 -38 0
v -28 -38 0
v -28 -37 0
v -27 -37 0
v -28 -38 0
v -29 -38 0
v -29 -37 0
v -28 -37 0
v -29 -38 0
v -30 -38 0
v -30 -37 0
v -29 -37 0
v -30 -38 0
v -31 -38 0
v -31 -37 0
v -30 -37 0
v -31 -38 0
v -32 -38 0
v -32 -37 0
v -31 -37 0
v -32 -38 0
v -33 -38 0
v -33 -37 0
v -32 -37 0
v -33 -38 0
v -34 -38 0
v -34 -37 0
v -33 -37 0
v -34 -38 0
v -35 -38 0
v -35 -37 0
v -34 -37 0
v -35 -38 0
v -36 -38 0
v -36 -37 0
v -35 -37 0
v -36 -38 0
v -37 -38 0
v -37 -37 0
v -36 -37 0
v -37 -38 0
v -38 -38 0
v -38 -37 0
v -37 -37 0
v -30 -39 0
v -31 -39 0
v -31 -38 0
v -30 -38 0
v -31 -39 0
v -32 -39 0
v -32 -38 0
v -31 -38 0
v -32 -39 0
v -33 -39 0
v -33 -38 0
v -32 -38 0
v -33 -39 0
v -34 -39 0
v -34 -38 0
v -33 -38 0

# Texture cooridinates (Count = 32)
vt 0.5 0.96875
vt 0.5 1
vt 0.46875 1
vt 0.46875 0.96875
vt 0.65625 0.875
vt 0.65625 0.84375
vt 0.6875 0.84375
vt 0.6875 0.875
vt 0.625 0.84375
vt 0.625 0.875
vt 0.59375 0.875
vt 0.59375 0.84375
vt 0.53125 0.96875
vt 0.53125 1
vt 0.5625 0.96875
vt 0.5625 1
vt 0.90625 1
vt 0.875 1
vt 0.875 0.96875
vt 0.90625 0.96875
vt 0.84375 1
vt 0.84375 0.96875
vt 0.8125 1
vt 0.8125 0.96875
vt 0.78125 1
vt 0.78125 0.96875
vt 0.4375 0.90625
vt 0.46875 0.90625
vt 0.46875 0.9375
vt 0.4375 0.9375
vt 0.40625 0.9375
vt 0.40625 0.90625

# Normal
vn 0 0 -1

# Mesh description
g boss_mesh_0002

# Faces
f 1/1/1 2/2/1 3/3/1 4/4/1
f 5/5/1 6/6/1 7/7/1 8/8/1
f 9/9/1 10/10/1 11/11/1 12/12/1
f 13/1/1 14/2/1 15/3/1 16/4/1
f 17/1/1 18/2/1 19/3/1 20/4/1
f 21/10/1 22/9/1 23/6/1 24/5/1
f 25/6/1 26/5/1 27/10/1 28/9/1
f 29/1/1 30/2/1 31/3/1 32/4/1
f 33/13/1 34/14/1 35/2/1 36/1/1
f 37/10/1 38/9/1 39/6/1 40/5/1
f 41/6/1 42/5/1 43/10/1 44/9/1
f 45/13/1 46/14/1 47/2/1 48/1/1
f 49/1/1 50/2/1 51/3/1 52/4/1
f 53/10/1 54/9/1 55/6/1 56/5/1
f 57/6/1 58/5/1 59/10/1 60/9/1
f 61/1/1 62/2/1 63/3/1 64/4/1
f 65/1/1 66/2/1 67/3/1 68/4/1
f 69/10/1 70/9/1 71/6/1 72/5/1
f 73/6/1 74/5/1 75/10/1 76/9/1
f 77/1/1 78/2/1 79/3/1 80/4/1
f 81/1/1 82/2/1 83/3/1 84/4/1
f 85/11/1 86/12/1 87/9/1 88/10/1
f 89/7/1 90/8/1 91/5/1 92/6/1
f 93/1/1 94/2/1 95/3/1 96/4/1
f 97/1/1 98/2/1 99/3/1 100/4/1
f 101/1/1 102/2/1 103/3/1 104/4/1
f 105/13/1 106/14/1 107/2/1 108/1/1
f 109/13/1 110/14/1 111/2/1 112/1/1
f 113/15/1 114/16/1 115/14/1 116/13/1
f 117/14/1 118/2/1 119/1/1 120/13/1
f 121/2/1 122/3/1 123/4/1 124/1/1
f 125/2/1 126/3/1 127/4/1 128/1/1
f 129/2/1 130/3/1 131/4/1 132/1/1
f 133/2/1 134/3/1 135/4/1 136/1/1
f 137/2/1 138/3/1 139/4/1 140/1/1
f 141/2/1 142/3/1 143/4/1 144/1/1
f 145/2/1 146/3/1 147/4/1 148/1/1
f 149/2/1 150/3/1 151/4/1 152/1/1
f 153/2/1 154/3/1 155/4/1 156/1/1
f 157/14/1 158/2/1 159/1/1 160/13/1
f 161/4/1 162/1/1 163/2/1 164/3/1
f 165/14/1 166/13/1 167/15/1 168/16/1
f 169/16/1 170/14/1 171/13/1 172/15/1
f 173/14/1 174/2/1 175/1/1 176/13/1
f 177/4/1 178/1/1 179/2/1 180/3/1
f 181/4/1 182/1/1 183/2/1 184/3/1
f 185/4/1 186/1/1 187/2/1 188/3/1
f 189/4/1 190/1/1 191/2/1 192/3/1
f 193/4/1 194/1/1 195/2/1 196/3/1
f 197/4/1 198/1/1 199/2/1 200/3/1
f 201/4/1 202/1/1 203/2/1 204/3/1
f 205/4/1 206/1/1 207/2/1 208/3/1
f 209/4/1 210/1/1 211/2/1 212/3/1
f 213/4/1 214/1/1 215/2/1 216/3/1
f 217/1/1 218/13/1 219/14/1 220/2/1
f 221/13/1 222/15/1 223/16/1 224/14/1
f 225/2/1 226/1/1 227/13/1 228/14/1
f 229/3/1 230/4/1 231/1/1 232/2/1
f 233/3/1 234/4/1 235/1/1 236/2/1
f 237/3/1 238/4/1 239/1/1 240/2/1
f 241/3/1 242/4/1 243/1/1 244/2/1
f 245/3/1 246/4/1 247/1/1 248/2/1
f 249/13/1 250/14/1 251/2/1 252/1/1
f 253/17/1 254/18/1 255/19/1 256/20/1
f 257/18/1 258/21/1 259/22/1 260/19/1
f 261/21/1 262/23/1 263/24/1 264/22/1
f 265/23/1 266/25/1 267/26/1 268/24/1
f 269/13/1 270/14/1 271/2/1 272/1/1
f 273/27/1 274/28/1 275/29/1 276/30/1
f 277/27/1 278/30/1 279/31/1 280/32/1
f 281/27/1 282/30/1 283/31/1 284/32/1
f 285/27/1 286/30/1 287/31/1 288/32/1
f 289/27/1 290/30/1 291/31/1 292/32/1
f 293/27/1 294/30/1 295/31/1 296/32/1
f 297/27/1 298/30/1 299/31/1 300/32/1
f 301/27/1 302/30/1 303/31/1 304/32/1
f 305/27/1 306/30/1 307/31/1 308/32/1
f 309/27/1 310/30/1 311/31/1 312/32/1
f 313/27/1 314/30/1 315/31/1 316/32/1
f 317/28/1 318/29/1 319/30/1 320/27/1
f 321/32/1 322/27/1 323/30/1 324/31/1
f 325/30/1 326/31/1 327/32/1 328/27/1
f 329/32/1 330/27/1 331/30/1 332/31/1
f 333/30/1 334/31/1 335/32/1 336/27/1
f 337/32/1 338/27/1 339/30/1 340/31/1
f 341/30/1 342/31/1 343/32/1 344/27/1
f 345/24/1 346/23/1 347/25/1 348/26/1
f 349/32/1 350/27/1 351/30/1 352/31/1
f 353/30/1 354/31/1 355/32/1 356/27/1
f 357/18/1 358/19/1 359/20/1 360/17/1
f 361/22/1 362/21/1 363/23/1 364/24/1
f 365/32/1 366/27/1 367/30/1 368/31/1
f 369/30/1 370/31/1 371/32/1 372/27/1
f 373/21/1 374/22/1 375/19/1 376/18/1
f 377/19/1 378/18/1 379/21/1 380/22/1
f 381/32/1 382/27/1 383/30/1 384/31/1
f 385/30/1 386/31/1 387/32/1 388/27/1
f 389/23/1 390/24/1 391/22/1 392/21/1
f 393/20/1 394/17/1 395/18/1 396/19/1
f 397/32/1 398/27/1 399/30/1 400/31/1
f 401/30/1 402/31/1 403/32/1 404/27/1
f 405/25/1 406/26/1 407/24/1 408/23/1
f 409/32/1 410/27/1 411/30/1 412/31/1
f 413/30/1 414/31/1 415/32/1 416/27/1
f 417/32/1 418/27/1 419/30/1 420/31/1
f 421/30/1 422/31/1 423/32/1 424/27/1
f 425/32/1 426/27/1 427/30/1 428/31/1
f 429/30/1 430/31/1 431/32/1 432/27/1
f 433/30/1 434/27/1 435/28/1 436/29/1
f 437/31/1 438/32/1 439/27/1 440/30/1
f 441/31/1 442/32/1 443/27/1 444/30/1
f 445/31/1 446/32/1 447/27/1 448/30/1
f 449/31/1 450/32/1 451/27/1 452/30/1
f 453/31/1 454/32/1 455/27/1 456/30/1
f 457/31/1 458/32/1 459/27/1 460/30/1
f 461/31/1 462/32/1 463/27/1 464/30/1
f 465/31/1 466/32/1 467/27/1 468/30/1
f 469/31/1 470/32/1 471/27/1 472/30/1
f 473/31/1 474/32/1 475/27/1 476/30/1
f 477/29/1 478/30/1 479/27/1 480/28/1
f 481/26/1 482/24/1 483/23/1 484/25/1
f 485/24/1 486/22/1 487/21/1 488/23/1
f 489/22/1 490/19/1 491/18/1 492/21/1
f 493/19/1 494/20/1 495/17/1 496/18/1

