# Tiled2Unity generated file. Do not modify by hand.
# Wavefront file for 'boss_mesh_0004.obj'

# Vertices (Count = 160)
v -17 -27 0
v -18 -27 0
v -18 -26 0
v -17 -26 0
v -46 -27 0
v -47 -27 0
v -47 -26 0
v -46 -26 0
v -17 -28 0
v -18 -28 0
v -18 -27 0
v -17 -27 0
v -46 -28 0
v -47 -28 0
v -47 -27 0
v -46 -27 0
v -17 -29 0
v -18 -29 0
v -18 -28 0
v -17 -28 0
v -46 -29 0
v -47 -29 0
v -47 -28 0
v -46 -28 0
v -17 -30 0
v -18 -30 0
v -18 -29 0
v -17 -29 0
v -46 -30 0
v -47 -30 0
v -47 -29 0
v -46 -29 0
v -17 -35 0
v -18 -35 0
v -18 -34 0
v -17 -34 0
v -46 -35 0
v -47 -35 0
v -47 -34 0
v -46 -34 0
v -17 -36 0
v -18 -36 0
v -18 -35 0
v -17 -35 0
v -46 -36 0
v -47 -36 0
v -47 -35 0
v -46 -35 0
v -17 -37 0
v -18 -37 0
v -18 -36 0
v -17 -36 0
v -46 -37 0
v -47 -37 0
v -47 -36 0
v -46 -36 0
v -17 -38 0
v -18 -38 0
v -18 -37 0
v -17 -37 0
v -46 -38 0
v -47 -38 0
v -47 -37 0
v -46 -37 0
v -13 -45 0
v -14 -45 0
v -14 -44 0
v -13 -44 0
v -14 -45 0
v -15 -45 0
v -15 -44 0
v -14 -44 0
v -49 -45 0
v -50 -45 0
v -50 -44 0
v -49 -44 0
v -50 -45 0
v -51 -45 0
v -51 -44 0
v -50 -44 0
v -13 -46 0
v -14 -46 0
v -14 -45 0
v -13 -45 0
v -14 -46 0
v -15 -46 0
v -15 -45 0
v -14 -45 0
v -49 -46 0
v -50 -46 0
v -50 -45 0
v -49 -45 0
v -50 -46 0
v -51 -46 0
v -51 -45 0
v -50 -45 0
v -13 -47 0
v -14 -47 0
v -14 -46 0
v -13 -46 0
v -14 -47 0
v -15 -47 0
v -15 -46 0
v -14 -46 0
v -49 -47 0
v -50 -47 0
v -50 -46 0
v -49 -46 0
v -50 -47 0
v -51 -47 0
v -51 -46 0
v -50 -46 0
v -13 -49 0
v -14 -49 0
v -14 -48 0
v -13 -48 0
v -14 -49 0
v -15 -49 0
v -15 -48 0
v -14 -48 0
v -49 -49 0
v -50 -49 0
v -50 -48 0
v -49 -48 0
v -50 -49 0
v -51 -49 0
v -51 -48 0
v -50 -48 0
v -13 -50 0
v -14 -50 0
v -14 -49 0
v -13 -49 0
v -14 -50 0
v -15 -50 0
v -15 -49 0
v -14 -49 0
v -49 -50 0
v -50 -50 0
v -50 -49 0
v -49 -49 0
v -50 -50 0
v -51 -50 0
v -51 -49 0
v -50 -49 0
v -13 -51 0
v -14 -51 0
v -14 -50 0
v -13 -50 0
v -14 -51 0
v -15 -51 0
v -15 -50 0
v -14 -50 0
v -49 -51 0
v -50 -51 0
v -50 -50 0
v -49 -50 0
v -50 -51 0
v -51 -51 0
v -51 -50 0
v -50 -50 0

# Texture cooridinates (Count = 16)
vt 0.25 0.875
vt 0.25 0.84375
vt 0.28125 0.84375
vt 0.28125 0.875
vt 0.5 0.8125
vt 0.53125 0.8125
vt 0.53125 0.84375
vt 0.5 0.84375
vt 0.5625 0.8125
vt 0.5625 0.84375
vt 0.5 0.78125
vt 0.53125 0.78125
vt 0.5625 0.78125
vt 0.5 0.75
vt 0.53125 0.75
vt 0.5625 0.75

# Normal
vn 0 0 -1

# Mesh description
g boss_mesh_0004

# Faces
f 1/1/1 2/2/1 3/3/1 4/4/1
f 5/3/1 6/4/1 7/1/1 8/2/1
f 9/1/1 10/2/1 11/3/1 12/4/1
f 13/3/1 14/4/1 15/1/1 16/2/1
f 17/1/1 18/2/1 19/3/1 20/4/1
f 21/3/1 22/4/1 23/1/1 24/2/1
f 25/1/1 26/2/1 27/3/1 28/4/1
f 29/3/1 30/4/1 31/1/1 32/2/1
f 33/1/1 34/2/1 35/3/1 36/4/1
f 37/3/1 38/4/1 39/1/1 40/2/1
f 41/1/1 42/2/1 43/3/1 44/4/1
f 45/3/1 46/4/1 47/1/1 48/2/1
f 49/1/1 50/2/1 51/3/1 52/4/1
f 53/3/1 54/4/1 55/1/1 56/2/1
f 57/1/1 58/2/1 59/3/1 60/4/1
f 61/3/1 62/4/1 63/1/1 64/2/1
f 65/5/1 66/6/1 67/7/1 68/8/1
f 69/6/1 70/9/1 71/10/1 72/7/1
f 73/5/1 74/6/1 75/7/1 76/8/1
f 77/6/1 78/9/1 79/10/1 80/7/1
f 81/11/1 82/12/1 83/6/1 84/5/1
f 85/12/1 86/13/1 87/9/1 88/6/1
f 89/11/1 90/12/1 91/6/1 92/5/1
f 93/12/1 94/13/1 95/9/1 96/6/1
f 97/14/1 98/15/1 99/12/1 100/11/1
f 101/15/1 102/16/1 103/13/1 104/12/1
f 105/14/1 106/15/1 107/12/1 108/11/1
f 109/15/1 110/16/1 111/13/1 112/12/1
f 113/5/1 114/6/1 115/7/1 116/8/1
f 117/6/1 118/9/1 119/10/1 120/7/1
f 121/5/1 122/6/1 123/7/1 124/8/1
f 125/6/1 126/9/1 127/10/1 128/7/1
f 129/11/1 130/12/1 131/6/1 132/5/1
f 133/12/1 134/13/1 135/9/1 136/6/1
f 137/11/1 138/12/1 139/6/1 140/5/1
f 141/12/1 142/13/1 143/9/1 144/6/1
f 145/14/1 146/15/1 147/12/1 148/11/1
f 149/15/1 150/16/1 151/13/1 152/12/1
f 153/14/1 154/15/1 155/12/1 156/11/1
f 157/15/1 158/16/1 159/13/1 160/12/1

