# Tiled2Unity generated file. Do not modify by hand.
# Wavefront file for 'prison_mesh_0008.obj'

# Vertices (Count = 712)
v -7 -7 0
v -8 -7 0
v -8 -6 0
v -7 -6 0
v -8 -7 0
v -9 -7 0
v -9 -6 0
v -8 -6 0
v -14 -7 0
v -15 -7 0
v -15 -6 0
v -14 -6 0
v -15 -7 0
v -16 -7 0
v -16 -6 0
v -15 -6 0
v -21 -7 0
v -22 -7 0
v -22 -6 0
v -21 -6 0
v -22 -7 0
v -23 -7 0
v -23 -6 0
v -22 -6 0
v -3 -8 0
v -4 -8 0
v -4 -7 0
v -3 -7 0
v -7 -8 0
v -8 -8 0
v -8 -7 0
v -7 -7 0
v -8 -8 0
v -9 -8 0
v -9 -7 0
v -8 -7 0
v -10 -8 0
v -11 -8 0
v -11 -7 0
v -10 -7 0
v -14 -8 0
v -15 -8 0
v -15 -7 0
v -14 -7 0
v -15 -8 0
v -16 -8 0
v -16 -7 0
v -15 -7 0
v -17 -8 0
v -18 -8 0
v -18 -7 0
v -17 -7 0
v -21 -8 0
v -22 -8 0
v -22 -7 0
v -21 -7 0
v -22 -8 0
v -23 -8 0
v -23 -7 0
v -22 -7 0
v -3 -9 0
v -4 -9 0
v -4 -8 0
v -3 -8 0
v -7 -9 0
v -8 -9 0
v -8 -8 0
v -7 -8 0
v -8 -9 0
v -9 -9 0
v -9 -8 0
v -8 -8 0
v -10 -9 0
v -11 -9 0
v -11 -8 0
v -10 -8 0
v -14 -9 0
v -15 -9 0
v -15 -8 0
v -14 -8 0
v -15 -9 0
v -16 -9 0
v -16 -8 0
v -15 -8 0
v -17 -9 0
v -18 -9 0
v -18 -8 0
v -17 -8 0
v -21 -9 0
v -22 -9 0
v -22 -8 0
v -21 -8 0
v -22 -9 0
v -23 -9 0
v -23 -8 0
v -22 -8 0
v -3 -10 0
v -4 -10 0
v -4 -9 0
v -3 -9 0
v -4 -10 0
v -5 -10 0
v -5 -9 0
v -4 -9 0
v -7 -10 0
v -8 -10 0
v -8 -9 0
v -7 -9 0
v -8 -10 0
v -9 -10 0
v -9 -9 0
v -8 -9 0
v -10 -10 0
v -11 -10 0
v -11 -9 0
v -10 -9 0
v -11 -10 0
v -12 -10 0
v -12 -9 0
v -11 -9 0
v -14 -10 0
v -15 -10 0
v -15 -9 0
v -14 -9 0
v -15 -10 0
v -16 -10 0
v -16 -9 0
v -15 -9 0
v -17 -10 0
v -18 -10 0
v -18 -9 0
v -17 -9 0
v -18 -10 0
v -19 -10 0
v -19 -9 0
v -18 -9 0
v -21 -10 0
v -22 -10 0
v -22 -9 0
v -21 -9 0
v -22 -10 0
v -23 -10 0
v -23 -9 0
v -22 -9 0
v -3 -11 0
v -4 -11 0
v -4 -10 0
v -3 -10 0
v -4 -11 0
v -5 -11 0
v -5 -10 0
v -4 -10 0
v -10 -11 0
v -11 -11 0
v -11 -10 0
v -10 -10 0
v -11 -11 0
v -12 -11 0
v -12 -10 0
v -11 -10 0
v -17 -11 0
v -18 -11 0
v -18 -10 0
v -17 -10 0
v -18 -11 0
v -19 -11 0
v -19 -10 0
v -18 -10 0
v -4 -12 0
v -5 -12 0
v -5 -11 0
v -4 -11 0
v -5 -12 0
v -6 -12 0
v -6 -11 0
v -5 -11 0
v -6 -12 0
v -7 -12 0
v -7 -11 0
v -6 -11 0
v -7 -12 0
v -8 -12 0
v -8 -11 0
v -7 -11 0
v -11 -12 0
v -12 -12 0
v -12 -11 0
v -11 -11 0
v -12 -12 0
v -13 -12 0
v -13 -11 0
v -12 -11 0
v -13 -12 0
v -14 -12 0
v -14 -11 0
v -13 -11 0
v -14 -12 0
v -15 -12 0
v -15 -11 0
v -14 -11 0
v -18 -12 0
v -19 -12 0
v -19 -11 0
v -18 -11 0
v -19 -12 0
v -20 -12 0
v -20 -11 0
v -19 -11 0
v -20 -12 0
v -21 -12 0
v -21 -11 0
v -20 -11 0
v -21 -12 0
v -22 -12 0
v -22 -11 0
v -21 -11 0
v -41 -18 0
v -42 -18 0
v -42 -17 0
v -41 -17 0
v -42 -18 0
v -43 -18 0
v -43 -17 0
v -42 -17 0
v -47 -18 0
v -48 -18 0
v -48 -17 0
v -47 -17 0
v -48 -18 0
v -49 -18 0
v -49 -17 0
v -48 -17 0
v -51 -18 0
v -52 -18 0
v -52 -17 0
v -51 -17 0
v -52 -18 0
v -53 -18 0
v -53 -17 0
v -52 -17 0
v -41 -19 0
v -42 -19 0
v -42 -18 0
v -41 -18 0
v -42 -19 0
v -43 -19 0
v -43 -18 0
v -42 -18 0
v -47 -19 0
v -48 -19 0
v -48 -18 0
v -47 -18 0
v -48 -19 0
v -49 -19 0
v -49 -18 0
v -48 -18 0
v -51 -19 0
v -52 -19 0
v -52 -18 0
v -51 -18 0
v -52 -19 0
v -53 -19 0
v -53 -18 0
v -52 -18 0
v -11 -20 0
v -12 -20 0
v -12 -19 0
v -11 -19 0
v -12 -20 0
v -13 -20 0
v -13 -19 0
v -12 -19 0
v -13 -20 0
v -14 -20 0
v -14 -19 0
v -13 -19 0
v -47 -20 0
v -48 -20 0
v -48 -19 0
v -47 -19 0
v -48 -20 0
v -49 -20 0
v -49 -19 0
v -48 -19 0
v -51 -20 0
v -52 -20 0
v -52 -19 0
v -51 -19 0
v -52 -20 0
v -53 -20 0
v -53 -19 0
v -52 -19 0
v -11 -21 0
v -12 -21 0
v -12 -20 0
v -11 -20 0
v -12 -21 0
v -13 -21 0
v -13 -20 0
v -12 -20 0
v -13 -21 0
v -14 -21 0
v -14 -20 0
v -13 -20 0
v -47 -21 0
v -48 -21 0
v -48 -20 0
v -47 -20 0
v -48 -21 0
v -49 -21 0
v -49 -20 0
v -48 -20 0
v -51 -21 0
v -52 -21 0
v -52 -20 0
v -51 -20 0
v -52 -21 0
v -53 -21 0
v -53 -20 0
v -52 -20 0
v -39 -28 0
v -40 -28 0
v -40 -27 0
v -39 -27 0
v -40 -28 0
v -41 -28 0
v -41 -27 0
v -40 -27 0
v -44 -28 0
v -45 -28 0
v -45 -27 0
v -44 -27 0
v -45 -28 0
v -46 -28 0
v -46 -27 0
v -45 -27 0
v -39 -29 0
v -40 -29 0
v -40 -28 0
v -39 -28 0
v -40 -29 0
v -41 -29 0
v -41 -28 0
v -40 -28 0
v -45 -29 0
v -46 -29 0
v -46 -28 0
v -45 -28 0
v -39 -30 0
v -40 -30 0
v -40 -29 0
v -39 -29 0
v -40 -30 0
v -41 -30 0
v -41 -29 0
v -40 -29 0
v -44 -30 0
v -45 -30 0
v -45 -29 0
v -44 -29 0
v -45 -30 0
v -46 -30 0
v -46 -29 0
v -45 -29 0
v -15 -31 0
v -16 -31 0
v -16 -30 0
v -15 -30 0
v -16 -31 0
v -17 -31 0
v -17 -30 0
v -16 -30 0
v -17 -31 0
v -18 -31 0
v -18 -30 0
v -17 -30 0
v -18 -31 0
v -19 -31 0
v -19 -30 0
v -18 -30 0
v -21 -31 0
v -22 -31 0
v -22 -30 0
v -21 -30 0
v -22 -31 0
v -23 -31 0
v -23 -30 0
v -22 -30 0
v -16 -32 0
v -17 -32 0
v -17 -31 0
v -16 -31 0
v -17 -32 0
v -18 -32 0
v -18 -31 0
v -17 -31 0
v -18 -32 0
v -19 -32 0
v -19 -31 0
v -18 -31 0
v -21 -32 0
v -22 -32 0
v -22 -31 0
v -21 -31 0
v -22 -32 0
v -23 -32 0
v -23 -31 0
v -22 -31 0
v -15 -33 0
v -16 -33 0
v -16 -32 0
v -15 -32 0
v -16 -33 0
v -17 -33 0
v -17 -32 0
v -16 -32 0
v -17 -33 0
v -18 -33 0
v -18 -32 0
v -17 -32 0
v -18 -33 0
v -19 -33 0
v -19 -32 0
v -18 -32 0
v -21 -33 0
v -22 -33 0
v -22 -32 0
v -21 -32 0
v -22 -33 0
v -23 -33 0
v -23 -32 0
v -22 -32 0
v -42 -36 0
v -43 -36 0
v -43 -35 0
v -42 -35 0
v -43 -36 0
v -44 -36 0
v -44 -35 0
v -43 -35 0
v -44 -36 0
v -45 -36 0
v -45 -35 0
v -44 -35 0
v -42 -37 0
v -43 -37 0
v -43 -36 0
v -42 -36 0
v -43 -37 0
v -44 -37 0
v -44 -36 0
v -43 -36 0
v -44 -37 0
v -45 -37 0
v -45 -36 0
v -44 -36 0
v -3 -43 0
v -4 -43 0
v -4 -42 0
v -3 -42 0
v -4 -43 0
v -5 -43 0
v -5 -42 0
v -4 -42 0
v -5 -43 0
v -6 -43 0
v -6 -42 0
v -5 -42 0
v -6 -43 0
v -7 -43 0
v -7 -42 0
v -6 -42 0
v -7 -43 0
v -8 -43 0
v -8 -42 0
v -7 -42 0
v -8 -43 0
v -9 -43 0
v -9 -42 0
v -8 -42 0
v -9 -43 0
v -10 -43 0
v -10 -42 0
v -9 -42 0
v -10 -43 0
v -11 -43 0
v -11 -42 0
v -10 -42 0
v -11 -43 0
v -12 -43 0
v -12 -42 0
v -11 -42 0
v -12 -43 0
v -13 -43 0
v -13 -42 0
v -12 -42 0
v -13 -43 0
v -14 -43 0
v -14 -42 0
v -13 -42 0
v -14 -43 0
v -15 -43 0
v -15 -42 0
v -14 -42 0
v -15 -43 0
v -16 -43 0
v -16 -42 0
v -15 -42 0
v -16 -43 0
v -17 -43 0
v -17 -42 0
v -16 -42 0
v -17 -43 0
v -18 -43 0
v -18 -42 0
v -17 -42 0
v -18 -43 0
v -19 -43 0
v -19 -42 0
v -18 -42 0
v -19 -43 0
v -20 -43 0
v -20 -42 0
v -19 -42 0
v -20 -43 0
v -21 -43 0
v -21 -42 0
v -20 -42 0
v -21 -43 0
v -22 -43 0
v -22 -42 0
v -21 -42 0
v -22 -43 0
v -23 -43 0
v -23 -42 0
v -22 -42 0
v -23 -43 0
v -24 -43 0
v -24 -42 0
v -23 -42 0
v -24 -43 0
v -25 -43 0
v -25 -42 0
v -24 -42 0
v -25 -43 0
v -26 -43 0
v -26 -42 0
v -25 -42 0
v -26 -43 0
v -27 -43 0
v -27 -42 0
v -26 -42 0
v -27 -43 0
v -28 -43 0
v -28 -42 0
v -27 -42 0
v -35 -43 0
v -36 -43 0
v -36 -42 0
v -35 -42 0
v -36 -43 0
v -37 -43 0
v -37 -42 0
v -36 -42 0
v -37 -43 0
v -38 -43 0
v -38 -42 0
v -37 -42 0
v -38 -43 0
v -39 -43 0
v -39 -42 0
v -38 -42 0
v -39 -43 0
v -40 -43 0
v -40 -42 0
v -39 -42 0
v -40 -43 0
v -41 -43 0
v -41 -42 0
v -40 -42 0
v -41 -43 0
v -42 -43 0
v -42 -42 0
v -41 -42 0
v -42 -43 0
v -43 -43 0
v -43 -42 0
v -42 -42 0
v -43 -43 0
v -44 -43 0
v -44 -42 0
v -43 -42 0
v -44 -43 0
v -45 -43 0
v -45 -42 0
v -44 -42 0
v -45 -43 0
v -46 -43 0
v -46 -42 0
v -45 -42 0
v -46 -43 0
v -47 -43 0
v -47 -42 0
v -46 -42 0
v -47 -43 0
v -48 -43 0
v -48 -42 0
v -47 -42 0
v -48 -43 0
v -49 -43 0
v -49 -42 0
v -48 -42 0
v -49 -43 0
v -50 -43 0
v -50 -42 0
v -49 -42 0
v -50 -43 0
v -51 -43 0
v -51 -42 0
v -50 -42 0
v -27 -44 0
v -28 -44 0
v -28 -43 0
v -27 -43 0
v -35 -44 0
v -36 -44 0
v -36 -43 0
v -35 -43 0
v -27 -45 0
v -28 -45 0
v -28 -44 0
v -27 -44 0
v -35 -45 0
v -36 -45 0
v -36 -44 0
v -35 -44 0
v -59 -47 0
v -60 -47 0
v -60 -46 0
v -59 -46 0
v -59 -50 0
v -60 -50 0
v -60 -49 0
v -59 -49 0
v -60 -50 0
v -61 -50 0
v -61 -49 0
v -60 -49 0
v -61 -50 0
v -62 -50 0
v -62 -49 0
v -61 -49 0
v -62 -50 0
v -63 -50 0
v -63 -49 0
v -62 -49 0
v -63 -50 0
v -64 -50 0
v -64 -49 0
v -63 -49 0
v -3 -57 0
v -4 -57 0
v -4 -56 0
v -3 -56 0
v -4 -57 0
v -5 -57 0
v -5 -56 0
v -4 -56 0
v -11 -57 0
v -12 -57 0
v -12 -56 0
v -11 -56 0
v -12 -57 0
v -13 -57 0
v -13 -56 0
v -12 -56 0
v -13 -57 0
v -14 -57 0
v -14 -56 0
v -13 -56 0
v -14 -57 0
v -15 -57 0
v -15 -56 0
v -14 -56 0
v -15 -57 0
v -16 -57 0
v -16 -56 0
v -15 -56 0
v -21 -58 0
v -22 -58 0
v -22 -57 0
v -21 -57 0
v -22 -58 0
v -23 -58 0
v -23 -57 0
v -22 -57 0
v -21 -59 0
v -22 -59 0
v -22 -58 0
v -21 -58 0
v -22 -59 0
v -23 -59 0
v -23 -58 0
v -22 -58 0
v -21 -60 0
v -22 -60 0
v -22 -59 0
v -21 -59 0
v -22 -60 0
v -23 -60 0
v -23 -59 0
v -22 -59 0

# Texture cooridinates (Count = 118)
vt 0 0.375
vt 0.03125 0.375
vt 0.03125 0.40625
vt 0 0.40625
vt 0.0625 0.375
vt 0.0625 0.40625
vt 0.46875 0.875
vt 0.46875 0.84375
vt 0.5 0.84375
vt 0.5 0.875
vt 0 0.34375
vt 0.03125 0.34375
vt 0.0625 0.34375
vt 0.4375 0.875
vt 0.4375 0.84375
vt 0 0.3125
vt 0.03125 0.3125
vt 0.0625 0.3125
vt 0.71875 0.875
vt 0.75 0.875
vt 0.75 0.90625
vt 0.71875 0.90625
vt 0.78125 0.875
vt 0.78125 0.90625
vt 0 0.28125
vt 0.03125 0.28125
vt 0.0625 0.28125
vt 0.71875 0.84375
vt 0.75 0.84375
vt 0.78125 0.84375
vt 0.0625 0.4375
vt 0.09375 0.4375
vt 0.09375 0.46875
vt 0.0625 0.46875
vt 0.09375 0.3125
vt 0.09375 0.34375
vt 0.125 0.3125
vt 0.125 0.34375
vt 0.09375 0.375
vt 0.09375 0.40625
vt 0.125 0.375
vt 0.125 0.40625
vt 0.09375 0.28125
vt 0.125 0.28125
vt 0.21875 0.75
vt 0.21875 0.71875
vt 0.25 0.71875
vt 0.25 0.75
vt 0.21875 0.6875
vt 0.25 0.6875
vt 0.21875 0.65625
vt 0.25 0.65625
vt 0.1875 0.75
vt 0.1875 0.71875
vt 0.1875 0.6875
vt 0.1875 0.65625
vt 0.25 0.8125
vt 0.28125 0.8125
vt 0.28125 0.84375
vt 0.25 0.84375
vt 0.3125 0.8125
vt 0.3125 0.84375
vt 0 0.25
vt 0.03125 0.25
vt 0.0625 0.25
vt 0.25 0.78125
vt 0.28125 0.78125
vt 0.3125 0.78125
vt 0.03125 0.21875
vt 0.0625 0.21875
vt 0.28125 0.75
vt 0.3125 0.75
vt 0 0.1875
vt 0.03125 0.1875
vt 0 0.21875
vt 0.0625 0.1875
vt 0.1875 0.8125
vt 0.21875 0.8125
vt 0.21875 0.84375
vt 0.1875 0.84375
vt 0.1875 0.78125
vt 0.21875 0.78125
vt 0.09375 0.75
vt 0.09375 0.71875
vt 0.125 0.71875
vt 0.125 0.75
vt 0.09375 0.6875
vt 0.125 0.6875
vt 0.09375 0.65625
vt 0.125 0.65625
vt 0.0625 0.75
vt 0.0625 0.71875
vt 0.0625 0.6875
vt 0.0625 0.65625
vt 0.28125 0.875
vt 0.25 0.875
vt 0.3125 0.875
vt 0.34375 0.84375
vt 0.375 0.84375
vt 0.375 0.875
vt 0.34375 0.875
vt 0.40625 0.875
vt 0.40625 0.84375
vt 0.53125 0.84375
vt 0.53125 0.875
vt 0.5625 0.84375
vt 0.5625 0.875
vt 0.59375 0.84375
vt 0.59375 0.875
vt 0.5 0.8125
vt 0.53125 0.8125
vt 0.5625 0.8125
vt 0.5 0.78125
vt 0.53125 0.78125
vt 0.5625 0.78125
vt 0.5 0.75
vt 0.53125 0.75
vt 0.5625 0.75

# Normal
vn 0 0 -1

# Mesh description
g prison_mesh_0008

# Faces
f 1/1/1 2/2/1 3/3/1 4/4/1
f 5/2/1 6/5/1 7/6/1 8/3/1
f 9/1/1 10/2/1 11/3/1 12/4/1
f 13/2/1 14/5/1 15/6/1 16/3/1
f 17/1/1 18/2/1 19/3/1 20/4/1
f 21/2/1 22/5/1 23/6/1 24/3/1
f 25/7/1 26/8/1 27/9/1 28/10/1
f 29/11/1 30/12/1 31/2/1 32/1/1
f 33/12/1 34/13/1 35/5/1 36/2/1
f 37/7/1 38/8/1 39/9/1 40/10/1
f 41/11/1 42/12/1 43/2/1 44/1/1
f 45/12/1 46/13/1 47/5/1 48/2/1
f 49/7/1 50/8/1 51/9/1 52/10/1
f 53/11/1 54/12/1 55/2/1 56/1/1
f 57/12/1 58/13/1 59/5/1 60/2/1
f 61/14/1 62/15/1 63/8/1 64/7/1
f 65/16/1 66/17/1 67/12/1 68/11/1
f 69/17/1 70/18/1 71/13/1 72/12/1
f 73/14/1 74/15/1 75/8/1 76/7/1
f 77/16/1 78/17/1 79/12/1 80/11/1
f 81/17/1 82/18/1 83/13/1 84/12/1
f 85/14/1 86/15/1 87/8/1 88/7/1
f 89/16/1 90/17/1 91/12/1 92/11/1
f 93/17/1 94/18/1 95/13/1 96/12/1
f 97/19/1 98/20/1 99/21/1 100/22/1
f 101/20/1 102/23/1 103/24/1 104/21/1
f 105/25/1 106/26/1 107/17/1 108/16/1
f 109/26/1 110/27/1 111/18/1 112/17/1
f 113/19/1 114/20/1 115/21/1 116/22/1
f 117/20/1 118/23/1 119/24/1 120/21/1
f 121/25/1 122/26/1 123/17/1 124/16/1
f 125/26/1 126/27/1 127/18/1 128/17/1
f 129/19/1 130/20/1 131/21/1 132/22/1
f 133/20/1 134/23/1 135/24/1 136/21/1
f 137/25/1 138/26/1 139/17/1 140/16/1
f 141/26/1 142/27/1 143/18/1 144/17/1
f 145/28/1 146/29/1 147/20/1 148/19/1
f 149/29/1 150/30/1 151/23/1 152/20/1
f 153/28/1 154/29/1 155/20/1 156/19/1
f 157/29/1 158/30/1 159/23/1 160/20/1
f 161/28/1 162/29/1 163/20/1 164/19/1
f 165/29/1 166/30/1 167/23/1 168/20/1
f 169/31/1 170/32/1 171/33/1 172/34/1
f 173/31/1 174/32/1 175/33/1 176/34/1
f 177/31/1 178/32/1 179/33/1 180/34/1
f 181/31/1 182/32/1 183/33/1 184/34/1
f 185/31/1 186/32/1 187/33/1 188/34/1
f 189/31/1 190/32/1 191/33/1 192/34/1
f 193/31/1 194/32/1 195/33/1 196/34/1
f 197/31/1 198/32/1 199/33/1 200/34/1
f 201/31/1 202/32/1 203/33/1 204/34/1
f 205/31/1 206/32/1 207/33/1 208/34/1
f 209/31/1 210/32/1 211/33/1 212/34/1
f 213/31/1 214/32/1 215/33/1 216/34/1
f 217/18/1 218/35/1 219/36/1 220/13/1
f 221/35/1 222/37/1 223/38/1 224/36/1
f 225/5/1 226/39/1 227/40/1 228/6/1
f 229/39/1 230/41/1 231/42/1 232/40/1
f 233/5/1 234/39/1 235/40/1 236/6/1
f 237/39/1 238/41/1 239/42/1 240/40/1
f 241/27/1 242/43/1 243/35/1 244/18/1
f 245/43/1 246/44/1 247/37/1 248/35/1
f 249/13/1 250/36/1 251/39/1 252/5/1
f 253/36/1 254/38/1 255/41/1 256/39/1
f 257/13/1 258/36/1 259/39/1 260/5/1
f 261/36/1 262/38/1 263/41/1 264/39/1
f 265/45/1 266/46/1 267/47/1 268/48/1
f 269/46/1 270/49/1 271/50/1 272/47/1
f 273/49/1 274/51/1 275/52/1 276/50/1
f 277/18/1 278/35/1 279/36/1 280/13/1
f 281/35/1 282/37/1 283/38/1 284/36/1
f 285/18/1 286/35/1 287/36/1 288/13/1
f 289/35/1 290/37/1 291/38/1 292/36/1
f 293/53/1 294/54/1 295/46/1 296/45/1
f 297/54/1 298/55/1 299/49/1 300/46/1
f 301/55/1 302/56/1 303/51/1 304/49/1
f 305/27/1 306/43/1 307/35/1 308/18/1
f 309/43/1 310/44/1 311/37/1 312/35/1
f 313/27/1 314/43/1 315/35/1 316/18/1
f 317/43/1 318/44/1 319/37/1 320/35/1
f 321/57/1 322/58/1 323/59/1 324/60/1
f 325/58/1 326/61/1 327/62/1 328/59/1
f 329/63/1 330/64/1 331/26/1 332/25/1
f 333/64/1 334/65/1 335/27/1 336/26/1
f 337/66/1 338/67/1 339/58/1 340/57/1
f 341/67/1 342/68/1 343/61/1 344/58/1
f 345/69/1 346/70/1 347/65/1 348/64/1
f 349/48/1 350/71/1 351/67/1 352/66/1
f 353/71/1 354/72/1 355/68/1 356/67/1
f 357/73/1 358/74/1 359/69/1 360/75/1
f 361/74/1 362/76/1 363/70/1 364/69/1
f 365/63/1 366/64/1 367/26/1 368/25/1
f 369/64/1 370/65/1 371/27/1 372/26/1
f 373/77/1 374/78/1 375/79/1 376/80/1
f 377/78/1 378/57/1 379/60/1 380/79/1
f 381/54/1 382/46/1 383/45/1 384/53/1
f 385/46/1 386/47/1 387/48/1 388/45/1
f 389/69/1 390/70/1 391/65/1 392/64/1
f 393/81/1 394/82/1 395/78/1 396/77/1
f 397/82/1 398/66/1 399/57/1 400/78/1
f 401/55/1 402/49/1 403/46/1 404/54/1
f 405/49/1 406/50/1 407/47/1 408/46/1
f 409/73/1 410/74/1 411/69/1 412/75/1
f 413/74/1 414/76/1 415/70/1 416/69/1
f 417/53/1 418/45/1 419/82/1 420/81/1
f 421/45/1 422/48/1 423/66/1 424/82/1
f 425/56/1 426/51/1 427/49/1 428/55/1
f 429/51/1 430/52/1 431/50/1 432/49/1
f 433/83/1 434/84/1 435/85/1 436/86/1
f 437/84/1 438/87/1 439/88/1 440/85/1
f 441/87/1 442/89/1 443/90/1 444/88/1
f 445/91/1 446/92/1 447/84/1 448/83/1
f 449/92/1 450/93/1 451/87/1 452/84/1
f 453/93/1 454/94/1 455/89/1 456/87/1
f 457/60/1 458/59/1 459/95/1 460/96/1
f 461/60/1 462/59/1 463/95/1 464/96/1
f 465/60/1 466/59/1 467/95/1 468/96/1
f 469/60/1 470/59/1 471/95/1 472/96/1
f 473/60/1 474/59/1 475/95/1 476/96/1
f 477/60/1 478/59/1 479/95/1 480/96/1
f 481/60/1 482/59/1 483/95/1 484/96/1
f 485/60/1 486/59/1 487/95/1 488/96/1
f 489/60/1 490/59/1 491/95/1 492/96/1
f 493/60/1 494/59/1 495/95/1 496/96/1
f 497/60/1 498/59/1 499/95/1 500/96/1
f 501/60/1 502/59/1 503/95/1 504/96/1
f 505/60/1 506/59/1 507/95/1 508/96/1
f 509/60/1 510/59/1 511/95/1 512/96/1
f 513/60/1 514/59/1 515/95/1 516/96/1
f 517/60/1 518/59/1 519/95/1 520/96/1
f 521/60/1 522/59/1 523/95/1 524/96/1
f 525/60/1 526/59/1 527/95/1 528/96/1
f 529/60/1 530/59/1 531/95/1 532/96/1
f 533/60/1 534/59/1 535/95/1 536/96/1
f 537/60/1 538/59/1 539/95/1 540/96/1
f 541/60/1 542/59/1 543/95/1 544/96/1
f 545/60/1 546/59/1 547/95/1 548/96/1
f 549/60/1 550/59/1 551/95/1 552/96/1
f 553/59/1 554/62/1 555/97/1 556/95/1
f 557/62/1 558/59/1 559/95/1 560/97/1
f 561/98/1 562/99/1 563/100/1 564/101/1
f 565/98/1 566/99/1 567/100/1 568/101/1
f 569/98/1 570/99/1 571/100/1 572/101/1
f 573/98/1 574/99/1 575/100/1 576/101/1
f 577/98/1 578/99/1 579/100/1 580/101/1
f 581/98/1 582/99/1 583/100/1 584/101/1
f 585/98/1 586/99/1 587/100/1 588/101/1
f 589/98/1 590/99/1 591/100/1 592/101/1
f 593/98/1 594/99/1 595/100/1 596/101/1
f 597/98/1 598/99/1 599/100/1 600/101/1
f 601/98/1 602/99/1 603/100/1 604/101/1
f 605/98/1 606/99/1 607/100/1 608/101/1
f 609/98/1 610/99/1 611/100/1 612/101/1
f 613/98/1 614/99/1 615/100/1 616/101/1
f 617/98/1 618/99/1 619/100/1 620/101/1
f 621/102/1 622/14/1 623/15/1 624/103/1
f 625/14/1 626/102/1 627/103/1 628/15/1
f 629/99/1 630/103/1 631/102/1 632/100/1
f 633/103/1 634/99/1 635/100/1 636/102/1
f 637/103/1 638/102/1 639/100/1 640/99/1
f 641/99/1 642/100/1 643/102/1 644/103/1
f 645/102/1 646/103/1 647/15/1 648/14/1
f 649/102/1 650/103/1 651/15/1 652/14/1
f 653/102/1 654/103/1 655/15/1 656/14/1
f 657/102/1 658/103/1 659/15/1 660/14/1
f 661/9/1 662/104/1 663/105/1 664/10/1
f 665/9/1 666/104/1 667/105/1 668/10/1
f 669/15/1 670/8/1 671/7/1 672/14/1
f 673/8/1 674/9/1 675/10/1 676/7/1
f 677/104/1 678/106/1 679/107/1 680/105/1
f 681/106/1 682/108/1 683/109/1 684/107/1
f 685/106/1 686/104/1 687/105/1 688/107/1
f 689/110/1 690/111/1 691/104/1 692/9/1
f 693/111/1 694/112/1 695/106/1 696/104/1
f 697/113/1 698/114/1 699/111/1 700/110/1
f 701/114/1 702/115/1 703/112/1 704/111/1
f 705/116/1 706/117/1 707/114/1 708/113/1
f 709/117/1 710/118/1 711/115/1 712/114/1

