# Tiled2Unity generated file. Do not modify by hand.
# Wavefront file for 'prison_mesh_0006.obj'

# Vertices (Count = 168)
v -3 -7 0
v -4 -7 0
v -4 -6 0
v -3 -6 0
v -10 -7 0
v -11 -7 0
v -11 -6 0
v -10 -6 0
v -17 -7 0
v -18 -7 0
v -18 -6 0
v -17 -6 0
v -3 -8 0
v -4 -8 0
v -4 -7 0
v -3 -7 0
v -10 -8 0
v -11 -8 0
v -11 -7 0
v -10 -7 0
v -17 -8 0
v -18 -8 0
v -18 -7 0
v -17 -7 0
v -3 -9 0
v -4 -9 0
v -4 -8 0
v -3 -8 0
v -10 -9 0
v -11 -9 0
v -11 -8 0
v -10 -8 0
v -17 -9 0
v -18 -9 0
v -18 -8 0
v -17 -8 0
v -3 -10 0
v -4 -10 0
v -4 -9 0
v -3 -9 0
v -10 -10 0
v -11 -10 0
v -11 -9 0
v -10 -9 0
v -17 -10 0
v -18 -10 0
v -18 -9 0
v -17 -9 0
v -3 -11 0
v -4 -11 0
v -4 -10 0
v -3 -10 0
v -10 -11 0
v -11 -11 0
v -11 -10 0
v -10 -10 0
v -17 -11 0
v -18 -11 0
v -18 -10 0
v -17 -10 0
v -3 -20 0
v -4 -20 0
v -4 -19 0
v -3 -19 0
v -4 -20 0
v -5 -20 0
v -5 -19 0
v -4 -19 0
v -5 -20 0
v -6 -20 0
v -6 -19 0
v -5 -19 0
v -6 -20 0
v -7 -20 0
v -7 -19 0
v -6 -19 0
v -7 -20 0
v -8 -20 0
v -8 -19 0
v -7 -19 0
v -8 -20 0
v -9 -20 0
v -9 -19 0
v -8 -19 0
v -9 -20 0
v -10 -20 0
v -10 -19 0
v -9 -19 0
v -3 -27 0
v -4 -27 0
v -4 -26 0
v -3 -26 0
v -4 -27 0
v -5 -27 0
v -5 -26 0
v -4 -26 0
v -5 -27 0
v -6 -27 0
v -6 -26 0
v -5 -26 0
v -6 -27 0
v -7 -27 0
v -7 -26 0
v -6 -26 0
v -7 -27 0
v -8 -27 0
v -8 -26 0
v -7 -26 0
v -8 -27 0
v -9 -27 0
v -9 -26 0
v -8 -26 0
v -9 -27 0
v -10 -27 0
v -10 -26 0
v -9 -26 0
v -43 -29 0
v -44 -29 0
v -44 -28 0
v -43 -28 0
v -6 -31 0
v -7 -31 0
v -7 -30 0
v -6 -30 0
v -13 -32 0
v -14 -32 0
v -14 -31 0
v -13 -31 0
v -20 -32 0
v -21 -32 0
v -21 -31 0
v -20 -31 0
v -50 -48 0
v -51 -48 0
v -51 -47 0
v -50 -47 0
v -11 -57 0
v -12 -57 0
v -12 -56 0
v -11 -56 0
v -12 -57 0
v -13 -57 0
v -13 -56 0
v -12 -56 0
v -13 -57 0
v -14 -57 0
v -14 -56 0
v -13 -56 0
v -14 -57 0
v -15 -57 0
v -15 -56 0
v -14 -56 0
v -15 -57 0
v -16 -57 0
v -16 -56 0
v -15 -56 0
v -27 -58 0
v -28 -58 0
v -28 -57 0
v -27 -57 0
v -30 -58 0
v -31 -58 0
v -31 -57 0
v -30 -57 0
v -33 -58 0
v -34 -58 0
v -34 -57 0
v -33 -57 0

# Texture cooridinates (Count = 14)
vt 0.65625 0.875
vt 0.65625 0.84375
vt 0.6875 0.84375
vt 0.6875 0.875
vt 0.625 0.875
vt 0.625 0.84375
vt 0.59375 0.875
vt 0.59375 0.84375
vt 0.71875 0.84375
vt 0.71875 0.875
vt 0.8125 0.71875
vt 0.8125 0.75
vt 0.78125 0.75
vt 0.78125 0.71875

# Normal
vn 0 0 -1

# Mesh description
g prison_mesh_0006

# Faces
f 1/1/1 2/2/1 3/3/1 4/4/1
f 5/1/1 6/2/1 7/3/1 8/4/1
f 9/1/1 10/2/1 11/3/1 12/4/1
f 13/5/1 14/6/1 15/2/1 16/1/1
f 17/5/1 18/6/1 19/2/1 20/1/1
f 21/5/1 22/6/1 23/2/1 24/1/1
f 25/5/1 26/6/1 27/2/1 28/1/1
f 29/5/1 30/6/1 31/2/1 32/1/1
f 33/5/1 34/6/1 35/2/1 36/1/1
f 37/5/1 38/6/1 39/2/1 40/1/1
f 41/5/1 42/6/1 43/2/1 44/1/1
f 45/5/1 46/6/1 47/2/1 48/1/1
f 49/7/1 50/8/1 51/6/1 52/5/1
f 53/7/1 54/8/1 55/6/1 56/5/1
f 57/7/1 58/8/1 59/6/1 60/5/1
f 61/8/1 62/6/1 63/5/1 64/7/1
f 65/6/1 66/2/1 67/1/1 68/5/1
f 69/6/1 70/2/1 71/1/1 72/5/1
f 73/6/1 74/2/1 75/1/1 76/5/1
f 77/6/1 78/2/1 79/1/1 80/5/1
f 81/6/1 82/2/1 83/1/1 84/5/1
f 85/2/1 86/3/1 87/4/1 88/1/1
f 89/4/1 90/1/1 91/2/1 92/3/1
f 93/1/1 94/5/1 95/6/1 96/2/1
f 97/1/1 98/5/1 99/6/1 100/2/1
f 101/1/1 102/5/1 103/6/1 104/2/1
f 105/1/1 106/5/1 107/6/1 108/2/1
f 109/1/1 110/5/1 111/6/1 112/2/1
f 113/5/1 114/7/1 115/8/1 116/6/1
f 117/3/1 118/9/1 119/10/1 120/4/1
f 121/10/1 122/4/1 123/3/1 124/9/1
f 125/3/1 126/9/1 127/10/1 128/4/1
f 129/3/1 130/9/1 131/10/1 132/4/1
f 133/11/1 134/12/1 135/13/1 136/14/1
f 137/8/1 138/6/1 139/5/1 140/7/1
f 141/6/1 142/2/1 143/1/1 144/5/1
f 145/6/1 146/2/1 147/1/1 148/5/1
f 149/6/1 150/2/1 151/1/1 152/5/1
f 153/6/1 154/2/1 155/1/1 156/5/1
f 157/3/1 158/9/1 159/10/1 160/4/1
f 161/4/1 162/3/1 163/9/1 164/10/1
f 165/4/1 166/3/1 167/9/1 168/10/1

