# Tiled2Unity generated file. Do not modify by hand.
# Wavefront file for 'mechanics_test_mesh_0002.obj'

# Vertices (Count = 540)
v -41 -9 0
v -42 -9 0
v -42 -8 0
v -41 -8 0
v -42 -9 0
v -43 -9 0
v -43 -8 0
v -42 -8 0
v -43 -9 0
v -44 -9 0
v -44 -8 0
v -43 -8 0
v -44 -9 0
v -45 -9 0
v -45 -8 0
v -44 -8 0
v -45 -9 0
v -46 -9 0
v -46 -8 0
v -45 -8 0
v -46 -9 0
v -47 -9 0
v -47 -8 0
v -46 -8 0
v -47 -9 0
v -48 -9 0
v -48 -8 0
v -47 -8 0
v -48 -9 0
v -49 -9 0
v -49 -8 0
v -48 -8 0
v -49 -9 0
v -50 -9 0
v -50 -8 0
v -49 -8 0
v -50 -9 0
v -51 -9 0
v -51 -8 0
v -50 -8 0
v -41 -10 0
v -42 -10 0
v -42 -9 0
v -41 -9 0
v -50 -10 0
v -51 -10 0
v -51 -9 0
v -50 -9 0
v -41 -11 0
v -42 -11 0
v -42 -10 0
v -41 -10 0
v -50 -11 0
v -51 -11 0
v -51 -10 0
v -50 -10 0
v -22 -12 0
v -23 -12 0
v -23 -11 0
v -22 -11 0
v -25 -12 0
v -26 -12 0
v -26 -11 0
v -25 -11 0
v -41 -12 0
v -42 -12 0
v -42 -11 0
v -41 -11 0
v -50 -12 0
v -51 -12 0
v -51 -11 0
v -50 -11 0
v -41 -13 0
v -42 -13 0
v -42 -12 0
v -41 -12 0
v -50 -13 0
v -51 -13 0
v -51 -12 0
v -50 -12 0
v -41 -14 0
v -42 -14 0
v -42 -13 0
v -41 -13 0
v -50 -14 0
v -51 -14 0
v -51 -13 0
v -50 -13 0
v -41 -15 0
v -42 -15 0
v -42 -14 0
v -41 -14 0
v -50 -15 0
v -51 -15 0
v -51 -14 0
v -50 -14 0
v -41 -16 0
v -42 -16 0
v -42 -15 0
v -41 -15 0
v -50 -16 0
v -51 -16 0
v -51 -15 0
v -50 -15 0
v -41 -17 0
v -42 -17 0
v -42 -16 0
v -41 -16 0
v -47 -17 0
v -48 -17 0
v -48 -16 0
v -47 -16 0
v -50 -17 0
v -51 -17 0
v -51 -16 0
v -50 -16 0
v -41 -18 0
v -42 -18 0
v -42 -17 0
v -41 -17 0
v -42 -18 0
v -43 -18 0
v -43 -17 0
v -42 -17 0
v -43 -18 0
v -44 -18 0
v -44 -17 0
v -43 -17 0
v -44 -18 0
v -45 -18 0
v -45 -17 0
v -44 -17 0
v -45 -18 0
v -46 -18 0
v -46 -17 0
v -45 -17 0
v -46 -18 0
v -47 -18 0
v -47 -17 0
v -46 -17 0
v -47 -18 0
v -48 -18 0
v -48 -17 0
v -47 -17 0
v -48 -18 0
v -49 -18 0
v -49 -17 0
v -48 -17 0
v -49 -18 0
v -50 -18 0
v -50 -17 0
v -49 -17 0
v -50 -18 0
v -51 -18 0
v -51 -17 0
v -50 -17 0
v -3 -25 0
v -4 -25 0
v -4 -24 0
v -3 -24 0
v -4 -25 0
v -5 -25 0
v -5 -24 0
v -4 -24 0
v -5 -25 0
v -6 -25 0
v -6 -24 0
v -5 -24 0
v -6 -25 0
v -7 -25 0
v -7 -24 0
v -6 -24 0
v -7 -25 0
v -8 -25 0
v -8 -24 0
v -7 -24 0
v -8 -25 0
v -9 -25 0
v -9 -24 0
v -8 -24 0
v -9 -25 0
v -10 -25 0
v -10 -24 0
v -9 -24 0
v -3 -26 0
v -4 -26 0
v -4 -25 0
v -3 -25 0
v -10 -26 0
v -11 -26 0
v -11 -25 0
v -10 -25 0
v -17 -26 0
v -18 -26 0
v -18 -25 0
v -17 -25 0
v -19 -26 0
v -20 -26 0
v -20 -25 0
v -19 -25 0
v -31 -26 0
v -32 -26 0
v -32 -25 0
v -31 -25 0
v -32 -26 0
v -33 -26 0
v -33 -25 0
v -32 -25 0
v -33 -26 0
v -34 -26 0
v -34 -25 0
v -33 -25 0
v -34 -26 0
v -35 -26 0
v -35 -25 0
v -34 -25 0
v -35 -26 0
v -36 -26 0
v -36 -25 0
v -35 -25 0
v -36 -26 0
v -37 -26 0
v -37 -25 0
v -36 -25 0
v -37 -26 0
v -38 -26 0
v -38 -25 0
v -37 -25 0
v -38 -26 0
v -39 -26 0
v -39 -25 0
v -38 -25 0
v -39 -26 0
v -40 -26 0
v -40 -25 0
v -39 -25 0
v -3 -27 0
v -4 -27 0
v -4 -26 0
v -3 -26 0
v -10 -27 0
v -11 -27 0
v -11 -26 0
v -10 -26 0
v -17 -27 0
v -18 -27 0
v -18 -26 0
v -17 -26 0
v -19 -27 0
v -20 -27 0
v -20 -26 0
v -19 -26 0
v -3 -28 0
v -4 -28 0
v -4 -27 0
v -3 -27 0
v -10 -28 0
v -11 -28 0
v -11 -27 0
v -10 -27 0
v -14 -28 0
v -15 -28 0
v -15 -27 0
v -14 -27 0
v -15 -28 0
v -16 -28 0
v -16 -27 0
v -15 -27 0
v -43 -28 0
v -44 -28 0
v -44 -27 0
v -43 -27 0
v -44 -28 0
v -45 -28 0
v -45 -27 0
v -44 -27 0
v -3 -29 0
v -4 -29 0
v -4 -28 0
v -3 -28 0
v -10 -29 0
v -11 -29 0
v -11 -28 0
v -10 -28 0
v -14 -29 0
v -15 -29 0
v -15 -28 0
v -14 -28 0
v -15 -29 0
v -16 -29 0
v -16 -28 0
v -15 -28 0
v -3 -30 0
v -4 -30 0
v -4 -29 0
v -3 -29 0
v -10 -30 0
v -11 -30 0
v -11 -29 0
v -10 -29 0
v -43 -30 0
v -44 -30 0
v -44 -29 0
v -43 -29 0
v -44 -30 0
v -45 -30 0
v -45 -29 0
v -44 -29 0
v -3 -31 0
v -4 -31 0
v -4 -30 0
v -3 -30 0
v -10 -31 0
v -11 -31 0
v -11 -30 0
v -10 -30 0
v -17 -31 0
v -18 -31 0
v -18 -30 0
v -17 -30 0
v -19 -31 0
v -20 -31 0
v -20 -30 0
v -19 -30 0
v -4 -32 0
v -5 -32 0
v -5 -31 0
v -4 -31 0
v -5 -32 0
v -6 -32 0
v -6 -31 0
v -5 -31 0
v -6 -32 0
v -7 -32 0
v -7 -31 0
v -6 -31 0
v -7 -32 0
v -8 -32 0
v -8 -31 0
v -7 -31 0
v -8 -32 0
v -9 -32 0
v -9 -31 0
v -8 -31 0
v -9 -32 0
v -10 -32 0
v -10 -31 0
v -9 -31 0
v -17 -32 0
v -18 -32 0
v -18 -31 0
v -17 -31 0
v -19 -32 0
v -20 -32 0
v -20 -31 0
v -19 -31 0
v -31 -32 0
v -32 -32 0
v -32 -31 0
v -31 -31 0
v -32 -32 0
v -33 -32 0
v -33 -31 0
v -32 -31 0
v -33 -32 0
v -34 -32 0
v -34 -31 0
v -33 -31 0
v -34 -32 0
v -35 -32 0
v -35 -31 0
v -34 -31 0
v -35 -32 0
v -36 -32 0
v -36 -31 0
v -35 -31 0
v -36 -32 0
v -37 -32 0
v -37 -31 0
v -36 -31 0
v -37 -32 0
v -38 -32 0
v -38 -31 0
v -37 -31 0
v -38 -32 0
v -39 -32 0
v -39 -31 0
v -38 -31 0
v -39 -32 0
v -40 -32 0
v -40 -31 0
v -39 -31 0
v -6 -38 0
v -7 -38 0
v -7 -37 0
v -6 -37 0
v -7 -38 0
v -8 -38 0
v -8 -37 0
v -7 -37 0
v -8 -38 0
v -9 -38 0
v -9 -37 0
v -8 -37 0
v -9 -38 0
v -10 -38 0
v -10 -37 0
v -9 -37 0
v -10 -38 0
v -11 -38 0
v -11 -37 0
v -10 -37 0
v -11 -38 0
v -12 -38 0
v -12 -37 0
v -11 -37 0
v -12 -38 0
v -13 -38 0
v -13 -37 0
v -12 -37 0
v -13 -38 0
v -14 -38 0
v -14 -37 0
v -13 -37 0
v -14 -38 0
v -15 -38 0
v -15 -37 0
v -14 -37 0
v -15 -38 0
v -16 -38 0
v -16 -37 0
v -15 -37 0
v -16 -38 0
v -17 -38 0
v -17 -37 0
v -16 -37 0
v -17 -38 0
v -18 -38 0
v -18 -37 0
v -17 -37 0
v -18 -38 0
v -19 -38 0
v -19 -37 0
v -18 -37 0
v -19 -38 0
v -20 -38 0
v -20 -37 0
v -19 -37 0
v -20 -38 0
v -21 -38 0
v -21 -37 0
v -20 -37 0
v -21 -38 0
v -22 -38 0
v -22 -37 0
v -21 -37 0
v -22 -38 0
v -23 -38 0
v -23 -37 0
v -22 -37 0
v -23 -38 0
v -24 -38 0
v -24 -37 0
v -23 -37 0
v -9 -46 0
v -10 -46 0
v -10 -45 0
v -9 -45 0
v -15 -47 0
v -16 -47 0
v -16 -46 0
v -15 -46 0
v -16 -47 0
v -17 -47 0
v -17 -46 0
v -16 -46 0
v -17 -47 0
v -18 -47 0
v -18 -46 0
v -17 -46 0
v -18 -47 0
v -19 -47 0
v -19 -46 0
v -18 -46 0
v -19 -47 0
v -20 -47 0
v -20 -46 0
v -19 -46 0
v -20 -47 0
v -21 -47 0
v -21 -46 0
v -20 -46 0
v -21 -47 0
v -22 -47 0
v -22 -46 0
v -21 -46 0
v -22 -47 0
v -23 -47 0
v -23 -46 0
v -22 -46 0
v -23 -47 0
v -24 -47 0
v -24 -46 0
v -23 -46 0
v -15 -49 0
v -16 -49 0
v -16 -48 0
v -15 -48 0
v -17 -49 0
v -18 -49 0
v -18 -48 0
v -17 -48 0
v -21 -49 0
v -22 -49 0
v -22 -48 0
v -21 -48 0
v -23 -49 0
v -24 -49 0
v -24 -48 0
v -23 -48 0
v -15 -50 0
v -16 -50 0
v -16 -49 0
v -15 -49 0
v -17 -50 0
v -18 -50 0
v -18 -49 0
v -17 -49 0
v -21 -50 0
v -22 -50 0
v -22 -49 0
v -21 -49 0
v -23 -50 0
v -24 -50 0
v -24 -49 0
v -23 -49 0
v -60 -59 0
v -61 -59 0
v -61 -58 0
v -60 -58 0

# Texture cooridinates (Count = 23)
vt 0.4375 0.90625
vt 0.46875 0.90625
vt 0.46875 0.9375
vt 0.4375 0.9375
vt 0.40625 0.9375
vt 0.40625 0.90625
vt 0.6875 0.84375
vt 0.71875 0.84375
vt 0.71875 0.875
vt 0.6875 0.875
vt 0.4375 0.875
vt 0.46875 0.875
vt 0.59375 0.84375
vt 0.625 0.84375
vt 0.625 0.875
vt 0.59375 0.875
vt 0.65625 0.84375
vt 0.65625 0.875
vt 0.40625 0.875
vt 0.53125 0.90625
vt 0.5 0.90625
vt 0.5 0.875
vt 0.53125 0.875

# Normal
vn 0 0 -1

# Mesh description
g mechanics_test_mesh_0002

# Faces
f 1/1/1 2/2/1 3/3/1 4/4/1
f 5/1/1 6/4/1 7/5/1 8/6/1
f 9/1/1 10/4/1 11/5/1 12/6/1
f 13/1/1 14/4/1 15/5/1 16/6/1
f 17/1/1 18/4/1 19/5/1 20/6/1
f 21/1/1 22/4/1 23/5/1 24/6/1
f 25/1/1 26/4/1 27/5/1 28/6/1
f 29/1/1 30/4/1 31/5/1 32/6/1
f 33/1/1 34/4/1 35/5/1 36/6/1
f 37/2/1 38/3/1 39/4/1 40/1/1
f 41/6/1 42/1/1 43/4/1 44/5/1
f 45/4/1 46/5/1 47/6/1 48/1/1
f 49/6/1 50/1/1 51/4/1 52/5/1
f 53/4/1 54/5/1 55/6/1 56/1/1
f 57/7/1 58/8/1 59/9/1 60/10/1
f 61/7/1 62/8/1 63/9/1 64/10/1
f 65/6/1 66/1/1 67/4/1 68/5/1
f 69/4/1 70/5/1 71/6/1 72/1/1
f 73/6/1 74/1/1 75/4/1 76/5/1
f 77/4/1 78/5/1 79/6/1 80/1/1
f 81/6/1 82/1/1 83/4/1 84/5/1
f 85/4/1 86/5/1 87/6/1 88/1/1
f 89/6/1 90/1/1 91/4/1 92/5/1
f 93/4/1 94/5/1 95/6/1 96/1/1
f 97/6/1 98/1/1 99/4/1 100/5/1
f 101/4/1 102/5/1 103/6/1 104/1/1
f 105/6/1 106/1/1 107/4/1 108/5/1
f 109/7/1 110/8/1 111/9/1 112/10/1
f 113/4/1 114/5/1 115/6/1 116/1/1
f 117/5/1 118/6/1 119/1/1 120/4/1
f 121/5/1 122/6/1 123/1/1 124/4/1
f 125/5/1 126/6/1 127/1/1 128/4/1
f 129/5/1 130/6/1 131/1/1 132/4/1
f 133/5/1 134/6/1 135/1/1 136/4/1
f 137/5/1 138/6/1 139/1/1 140/4/1
f 141/5/1 142/6/1 143/1/1 144/4/1
f 145/5/1 146/6/1 147/1/1 148/4/1
f 149/5/1 150/6/1 151/1/1 152/4/1
f 153/5/1 154/6/1 155/1/1 156/4/1
f 157/6/1 158/1/1 159/4/1 160/5/1
f 161/1/1 162/4/1 163/5/1 164/6/1
f 165/1/1 166/4/1 167/5/1 168/6/1
f 169/1/1 170/4/1 171/5/1 172/6/1
f 173/1/1 174/4/1 175/5/1 176/6/1
f 177/1/1 178/4/1 179/5/1 180/6/1
f 181/1/1 182/4/1 183/5/1 184/6/1
f 185/6/1 186/1/1 187/4/1 188/5/1
f 189/4/1 190/5/1 191/6/1 192/1/1
f 193/1/1 194/11/1 195/12/1 196/2/1
f 197/1/1 198/11/1 199/12/1 200/2/1
f 201/13/1 202/14/1 203/15/1 204/16/1
f 205/14/1 206/17/1 207/18/1 208/15/1
f 209/14/1 210/17/1 211/18/1 212/15/1
f 213/14/1 214/17/1 215/18/1 216/15/1
f 217/14/1 218/17/1 219/18/1 220/15/1
f 221/14/1 222/17/1 223/18/1 224/15/1
f 225/14/1 226/17/1 227/18/1 228/15/1
f 229/14/1 230/17/1 231/18/1 232/15/1
f 233/17/1 234/7/1 235/10/1 236/18/1
f 237/6/1 238/1/1 239/4/1 240/5/1
f 241/4/1 242/5/1 243/6/1 244/1/1
f 245/6/1 246/19/1 247/11/1 248/1/1
f 249/6/1 250/19/1 251/11/1 252/1/1
f 253/6/1 254/1/1 255/4/1 256/5/1
f 257/4/1 258/5/1 259/6/1 260/1/1
f 261/2/1 262/1/1 263/11/1 264/12/1
f 265/1/1 266/6/1 267/19/1 268/11/1
f 269/2/1 270/1/1 271/11/1 272/12/1
f 273/1/1 274/6/1 275/19/1 276/11/1
f 277/6/1 278/1/1 279/4/1 280/5/1
f 281/4/1 282/5/1 283/6/1 284/1/1
f 285/2/1 286/1/1 287/11/1 288/12/1
f 289/1/1 290/6/1 291/19/1 292/11/1
f 293/6/1 294/1/1 295/4/1 296/5/1
f 297/4/1 298/5/1 299/6/1 300/1/1
f 301/20/1 302/21/1 303/22/1 304/23/1
f 305/21/1 306/2/1 307/12/1 308/22/1
f 309/6/1 310/1/1 311/4/1 312/5/1
f 313/4/1 314/5/1 315/6/1 316/1/1
f 317/22/1 318/21/1 319/2/1 320/12/1
f 321/22/1 322/21/1 323/2/1 324/12/1
f 325/5/1 326/6/1 327/1/1 328/4/1
f 329/5/1 330/6/1 331/1/1 332/4/1
f 333/5/1 334/6/1 335/1/1 336/4/1
f 337/5/1 338/6/1 339/1/1 340/4/1
f 341/5/1 342/6/1 343/1/1 344/4/1
f 345/5/1 346/6/1 347/1/1 348/4/1
f 349/23/1 350/20/1 351/21/1 352/22/1
f 353/23/1 354/20/1 355/21/1 356/22/1
f 357/10/1 358/18/1 359/17/1 360/7/1
f 361/18/1 362/15/1 363/14/1 364/17/1
f 365/18/1 366/15/1 367/14/1 368/17/1
f 369/18/1 370/15/1 371/14/1 372/17/1
f 373/18/1 374/15/1 375/14/1 376/17/1
f 377/18/1 378/15/1 379/14/1 380/17/1
f 381/18/1 382/15/1 383/14/1 384/17/1
f 385/18/1 386/15/1 387/14/1 388/17/1
f 389/15/1 390/16/1 391/13/1 392/14/1
f 393/13/1 394/14/1 395/15/1 396/16/1
f 397/14/1 398/17/1 399/18/1 400/15/1
f 401/14/1 402/17/1 403/18/1 404/15/1
f 405/14/1 406/17/1 407/18/1 408/15/1
f 409/14/1 410/17/1 411/18/1 412/15/1
f 413/14/1 414/17/1 415/18/1 416/15/1
f 417/14/1 418/17/1 419/18/1 420/15/1
f 421/14/1 422/17/1 423/18/1 424/15/1
f 425/14/1 426/17/1 427/18/1 428/15/1
f 429/14/1 430/17/1 431/18/1 432/15/1
f 433/14/1 434/17/1 435/18/1 436/15/1
f 437/14/1 438/17/1 439/18/1 440/15/1
f 441/14/1 442/17/1 443/18/1 444/15/1
f 445/14/1 446/17/1 447/18/1 448/15/1
f 449/14/1 450/17/1 451/18/1 452/15/1
f 453/14/1 454/17/1 455/18/1 456/15/1
f 457/14/1 458/17/1 459/18/1 460/15/1
f 461/17/1 462/7/1 463/10/1 464/18/1
f 465/7/1 466/8/1 467/9/1 468/10/1
f 469/10/1 470/18/1 471/17/1 472/7/1
f 473/18/1 474/15/1 475/14/1 476/17/1
f 477/18/1 478/15/1 479/14/1 480/17/1
f 481/18/1 482/15/1 483/14/1 484/17/1
f 485/18/1 486/15/1 487/14/1 488/17/1
f 489/18/1 490/15/1 491/14/1 492/17/1
f 493/18/1 494/15/1 495/14/1 496/17/1
f 497/18/1 498/15/1 499/14/1 500/17/1
f 501/15/1 502/16/1 503/13/1 504/14/1
f 505/21/1 506/22/1 507/23/1 508/20/1
f 509/1/1 510/11/1 511/12/1 512/2/1
f 513/21/1 514/22/1 515/23/1 516/20/1
f 517/1/1 518/11/1 519/12/1 520/2/1
f 521/2/1 522/12/1 523/22/1 524/21/1
f 525/6/1 526/19/1 527/11/1 528/1/1
f 529/2/1 530/12/1 531/22/1 532/21/1
f 533/6/1 534/19/1 535/11/1 536/1/1
f 537/7/1 538/8/1 539/9/1 540/10/1

