# Tiled2Unity generated file. Do not modify by hand.
# Wavefront file for 'mechanics_test_mesh_0014.obj'

# Vertices (Count = 272)
v -5 -5 0
v -6 -5 0
v -6 -4 0
v -5 -4 0
v -6 -5 0
v -7 -5 0
v -7 -4 0
v -6 -4 0
v -7 -5 0
v -8 -5 0
v -8 -4 0
v -7 -4 0
v -8 -5 0
v -9 -5 0
v -9 -4 0
v -8 -4 0
v -9 -5 0
v -10 -5 0
v -10 -4 0
v -9 -4 0
v -10 -5 0
v -11 -5 0
v -11 -4 0
v -10 -4 0
v -11 -5 0
v -12 -5 0
v -12 -4 0
v -11 -4 0
v -12 -5 0
v -13 -5 0
v -13 -4 0
v -12 -4 0
v -13 -5 0
v -14 -5 0
v -14 -4 0
v -13 -4 0
v -14 -5 0
v -15 -5 0
v -15 -4 0
v -14 -4 0
v -15 -5 0
v -16 -5 0
v -16 -4 0
v -15 -4 0
v -16 -5 0
v -17 -5 0
v -17 -4 0
v -16 -4 0
v -17 -5 0
v -18 -5 0
v -18 -4 0
v -17 -4 0
v -18 -5 0
v -19 -5 0
v -19 -4 0
v -18 -4 0
v -19 -5 0
v -20 -5 0
v -20 -4 0
v -19 -4 0
v -20 -5 0
v -21 -5 0
v -21 -4 0
v -20 -4 0
v -21 -5 0
v -22 -5 0
v -22 -4 0
v -21 -4 0
v -22 -5 0
v -23 -5 0
v -23 -4 0
v -22 -4 0
v -23 -5 0
v -24 -5 0
v -24 -4 0
v -23 -4 0
v -24 -5 0
v -25 -5 0
v -25 -4 0
v -24 -4 0
v -25 -5 0
v -26 -5 0
v -26 -4 0
v -25 -4 0
v -26 -5 0
v -27 -5 0
v -27 -4 0
v -26 -4 0
v -5 -6 0
v -6 -6 0
v -6 -5 0
v -5 -5 0
v -26 -6 0
v -27 -6 0
v -27 -5 0
v -26 -5 0
v -5 -7 0
v -6 -7 0
v -6 -6 0
v -5 -6 0
v -7 -7 0
v -8 -7 0
v -8 -6 0
v -7 -6 0
v -8 -7 0
v -9 -7 0
v -9 -6 0
v -8 -6 0
v -9 -7 0
v -10 -7 0
v -10 -6 0
v -9 -6 0
v -10 -7 0
v -11 -7 0
v -11 -6 0
v -10 -6 0
v -11 -7 0
v -12 -7 0
v -12 -6 0
v -11 -6 0
v -12 -7 0
v -13 -7 0
v -13 -6 0
v -12 -6 0
v -13 -7 0
v -14 -7 0
v -14 -6 0
v -13 -6 0
v -14 -7 0
v -15 -7 0
v -15 -6 0
v -14 -6 0
v -15 -7 0
v -16 -7 0
v -16 -6 0
v -15 -6 0
v -16 -7 0
v -17 -7 0
v -17 -6 0
v -16 -6 0
v -17 -7 0
v -18 -7 0
v -18 -6 0
v -17 -6 0
v -18 -7 0
v -19 -7 0
v -19 -6 0
v -18 -6 0
v -19 -7 0
v -20 -7 0
v -20 -6 0
v -19 -6 0
v -20 -7 0
v -21 -7 0
v -21 -6 0
v -20 -6 0
v -21 -7 0
v -22 -7 0
v -22 -6 0
v -21 -6 0
v -22 -7 0
v -23 -7 0
v -23 -6 0
v -22 -6 0
v -23 -7 0
v -24 -7 0
v -24 -6 0
v -23 -6 0
v -26 -7 0
v -27 -7 0
v -27 -6 0
v -26 -6 0
v -5 -8 0
v -6 -8 0
v -6 -7 0
v -5 -7 0
v -7 -8 0
v -8 -8 0
v -8 -7 0
v -7 -7 0
v -23 -8 0
v -24 -8 0
v -24 -7 0
v -23 -7 0
v -26 -8 0
v -27 -8 0
v -27 -7 0
v -26 -7 0
v -5 -9 0
v -6 -9 0
v -6 -8 0
v -5 -8 0
v -7 -9 0
v -8 -9 0
v -8 -8 0
v -7 -8 0
v -23 -9 0
v -24 -9 0
v -24 -8 0
v -23 -8 0
v -26 -9 0
v -27 -9 0
v -27 -8 0
v -26 -8 0
v -50 -9 0
v -51 -9 0
v -51 -8 0
v -50 -8 0
v -5 -10 0
v -6 -10 0
v -6 -9 0
v -5 -9 0
v -7 -10 0
v -8 -10 0
v -8 -9 0
v -7 -9 0
v -12 -10 0
v -13 -10 0
v -13 -9 0
v -12 -9 0
v -13 -10 0
v -14 -10 0
v -14 -9 0
v -13 -9 0
v -50 -10 0
v -51 -10 0
v -51 -9 0
v -50 -9 0
v -5 -11 0
v -6 -11 0
v -6 -10 0
v -5 -10 0
v -7 -11 0
v -8 -11 0
v -8 -10 0
v -7 -10 0
v -5 -12 0
v -6 -12 0
v -6 -11 0
v -5 -11 0
v -7 -12 0
v -8 -12 0
v -8 -11 0
v -7 -11 0
v -5 -13 0
v -6 -13 0
v -6 -12 0
v -5 -12 0
v -7 -13 0
v -8 -13 0
v -8 -12 0
v -7 -12 0
v -49 -18 0
v -50 -18 0
v -50 -17 0
v -49 -17 0
v -50 -18 0
v -51 -18 0
v -51 -17 0
v -50 -17 0
v -12 -20 0
v -13 -20 0
v -13 -19 0
v -12 -19 0
v -12 -21 0
v -13 -21 0
v -13 -20 0
v -12 -20 0
v -37 -44 0
v -38 -44 0
v -38 -43 0
v -37 -43 0

# Texture cooridinates (Count = 14)
vt 0.5625 1
vt 0.53125 1
vt 0.53125 0.96875
vt 0.5625 0.96875
vt 0.5 1
vt 0.5 0.96875
vt 0.46875 0.96875
vt 0.46875 1
vt 0.4375 0.96875
vt 0.4375 1
vt 0.40625 1
vt 0.40625 0.96875
vt 0.59375 0.96875
vt 0.59375 1

# Normal
vn 0 0 -1

# Mesh description
g mechanics_test_mesh_0014

# Faces
f 1/1/1 2/2/1 3/3/1 4/4/1
f 5/2/1 6/5/1 7/6/1 8/3/1
f 9/7/1 10/6/1 11/5/1 12/8/1
f 13/2/1 14/5/1 15/6/1 16/3/1
f 17/7/1 18/6/1 19/5/1 20/8/1
f 21/2/1 22/5/1 23/6/1 24/3/1
f 25/7/1 26/6/1 27/5/1 28/8/1
f 29/7/1 30/6/1 31/5/1 32/8/1
f 33/2/1 34/5/1 35/6/1 36/3/1
f 37/7/1 38/6/1 39/5/1 40/8/1
f 41/7/1 42/6/1 43/5/1 44/8/1
f 45/7/1 46/6/1 47/5/1 48/8/1
f 49/2/1 50/5/1 51/6/1 52/3/1
f 53/7/1 54/6/1 55/5/1 56/8/1
f 57/7/1 58/6/1 59/5/1 60/8/1
f 61/2/1 62/5/1 63/6/1 64/3/1
f 65/7/1 66/6/1 67/5/1 68/8/1
f 69/7/1 70/6/1 71/5/1 72/8/1
f 73/2/1 74/5/1 75/6/1 76/3/1
f 77/7/1 78/6/1 79/5/1 80/8/1
f 81/7/1 82/6/1 83/5/1 84/8/1
f 85/2/1 86/3/1 87/4/1 88/1/1
f 89/3/1 90/2/1 91/5/1 92/6/1
f 93/3/1 94/2/1 95/5/1 96/6/1
f 97/6/1 98/5/1 99/8/1 100/7/1
f 101/1/1 102/2/1 103/3/1 104/4/1
f 105/2/1 106/5/1 107/6/1 108/3/1
f 109/5/1 110/8/1 111/7/1 112/6/1
f 113/2/1 114/5/1 115/6/1 116/3/1
f 117/5/1 118/8/1 119/7/1 120/6/1
f 121/5/1 122/8/1 123/7/1 124/6/1
f 125/2/1 126/5/1 127/6/1 128/3/1
f 129/5/1 130/8/1 131/7/1 132/6/1
f 133/5/1 134/8/1 135/7/1 136/6/1
f 137/5/1 138/8/1 139/7/1 140/6/1
f 141/2/1 142/5/1 143/6/1 144/3/1
f 145/5/1 146/8/1 147/7/1 148/6/1
f 149/5/1 150/8/1 151/7/1 152/6/1
f 153/2/1 154/5/1 155/6/1 156/3/1
f 157/5/1 158/8/1 159/7/1 160/6/1
f 161/5/1 162/8/1 163/7/1 164/6/1
f 165/2/1 166/3/1 167/4/1 168/1/1
f 169/8/1 170/7/1 171/6/1 172/5/1
f 173/5/1 174/6/1 175/3/1 176/2/1
f 177/5/1 178/6/1 179/3/1 180/2/1
f 181/3/1 182/2/1 183/5/1 184/6/1
f 185/3/1 186/2/1 187/5/1 188/6/1
f 189/6/1 190/5/1 191/8/1 192/7/1
f 193/6/1 194/5/1 195/8/1 196/7/1
f 197/6/1 198/5/1 199/8/1 200/7/1
f 201/6/1 202/5/1 203/8/1 204/7/1
f 205/9/1 206/10/1 207/11/1 208/12/1
f 209/5/1 210/6/1 211/3/1 212/2/1
f 213/5/1 214/6/1 215/3/1 216/2/1
f 217/12/1 218/9/1 219/10/1 220/11/1
f 221/9/1 222/7/1 223/8/1 224/10/1
f 225/7/1 226/8/1 227/10/1 228/9/1
f 229/6/1 230/5/1 231/8/1 232/7/1
f 233/6/1 234/5/1 235/8/1 236/7/1
f 237/5/1 238/6/1 239/3/1 240/2/1
f 241/5/1 242/6/1 243/3/1 244/2/1
f 245/13/1 246/14/1 247/1/1 248/4/1
f 249/13/1 250/14/1 251/1/1 252/4/1
f 253/8/1 254/10/1 255/9/1 256/7/1
f 257/10/1 258/11/1 259/12/1 260/9/1
f 261/10/1 262/9/1 263/7/1 264/8/1
f 265/11/1 266/12/1 267/9/1 268/10/1
f 269/8/1 270/10/1 271/9/1 272/7/1

