# Tiled2Unity generated file. Do not modify by hand.
# Wavefront file for 'mechanics_test_mesh_0003.obj'

# Vertices (Count = 244)
v -27 -10 0
v -28 -10 0
v -28 -9 0
v -27 -9 0
v -27 -11 0
v -28 -11 0
v -28 -10 0
v -27 -10 0
v -49 -16 0
v -50 -16 0
v -50 -15 0
v -49 -15 0
v -50 -16 0
v -51 -16 0
v -51 -15 0
v -50 -15 0
v -41 -17 0
v -42 -17 0
v -42 -16 0
v -41 -16 0
v -49 -17 0
v -50 -17 0
v -50 -16 0
v -49 -16 0
v -50 -17 0
v -51 -17 0
v -51 -16 0
v -50 -16 0
v -41 -18 0
v -42 -18 0
v -42 -17 0
v -41 -17 0
v -49 -18 0
v -50 -18 0
v -50 -17 0
v -49 -17 0
v -50 -18 0
v -51 -18 0
v -51 -17 0
v -50 -17 0
v -25 -19 0
v -26 -19 0
v -26 -18 0
v -25 -18 0
v -26 -19 0
v -27 -19 0
v -27 -18 0
v -26 -18 0
v -25 -20 0
v -26 -20 0
v -26 -19 0
v -25 -19 0
v -26 -20 0
v -27 -20 0
v -27 -19 0
v -26 -19 0
v -25 -21 0
v -26 -21 0
v -26 -20 0
v -25 -20 0
v -26 -21 0
v -27 -21 0
v -27 -20 0
v -26 -20 0
v -47 -24 0
v -48 -24 0
v -48 -23 0
v -47 -23 0
v -48 -24 0
v -49 -24 0
v -49 -23 0
v -48 -23 0
v -49 -24 0
v -50 -24 0
v -50 -23 0
v -49 -23 0
v -50 -24 0
v -51 -24 0
v -51 -23 0
v -50 -23 0
v -47 -25 0
v -48 -25 0
v -48 -24 0
v -47 -24 0
v -48 -25 0
v -49 -25 0
v -49 -24 0
v -48 -24 0
v -49 -25 0
v -50 -25 0
v -50 -24 0
v -49 -24 0
v -50 -25 0
v -51 -25 0
v -51 -24 0
v -50 -24 0
v -47 -28 0
v -48 -28 0
v -48 -27 0
v -47 -27 0
v -48 -28 0
v -49 -28 0
v -49 -27 0
v -48 -27 0
v -49 -28 0
v -50 -28 0
v -50 -27 0
v -49 -27 0
v -50 -28 0
v -51 -28 0
v -51 -27 0
v -50 -27 0
v -47 -29 0
v -48 -29 0
v -48 -28 0
v -47 -28 0
v -48 -29 0
v -49 -29 0
v -49 -28 0
v -48 -28 0
v -49 -29 0
v -50 -29 0
v -50 -28 0
v -49 -28 0
v -50 -29 0
v -51 -29 0
v -51 -28 0
v -50 -28 0
v -47 -30 0
v -48 -30 0
v -48 -29 0
v -47 -29 0
v -48 -30 0
v -49 -30 0
v -49 -29 0
v -48 -29 0
v -49 -30 0
v -50 -30 0
v -50 -29 0
v -49 -29 0
v -50 -30 0
v -51 -30 0
v -51 -29 0
v -50 -29 0
v -8 -32 0
v -9 -32 0
v -9 -31 0
v -8 -31 0
v -9 -32 0
v -10 -32 0
v -10 -31 0
v -9 -31 0
v -47 -33 0
v -48 -33 0
v -48 -32 0
v -47 -32 0
v -48 -33 0
v -49 -33 0
v -49 -32 0
v -48 -32 0
v -49 -33 0
v -50 -33 0
v -50 -32 0
v -49 -32 0
v -50 -33 0
v -51 -33 0
v -51 -32 0
v -50 -32 0
v -47 -34 0
v -48 -34 0
v -48 -33 0
v -47 -33 0
v -48 -34 0
v -49 -34 0
v -49 -33 0
v -48 -33 0
v -49 -34 0
v -50 -34 0
v -50 -33 0
v -49 -33 0
v -50 -34 0
v -51 -34 0
v -51 -33 0
v -50 -33 0
v -28 -37 0
v -29 -37 0
v -29 -36 0
v -28 -36 0
v -29 -37 0
v -30 -37 0
v -30 -36 0
v -29 -36 0
v -30 -37 0
v -31 -37 0
v -31 -36 0
v -30 -36 0
v -31 -37 0
v -32 -37 0
v -32 -36 0
v -31 -36 0
v -32 -37 0
v -33 -37 0
v -33 -36 0
v -32 -36 0
v -33 -37 0
v -34 -37 0
v -34 -36 0
v -33 -36 0
v -34 -37 0
v -35 -37 0
v -35 -36 0
v -34 -36 0
v -28 -43 0
v -29 -43 0
v -29 -42 0
v -28 -42 0
v -29 -43 0
v -30 -43 0
v -30 -42 0
v -29 -42 0
v -31 -43 0
v -32 -43 0
v -32 -42 0
v -31 -42 0
v -32 -43 0
v -33 -43 0
v -33 -42 0
v -32 -42 0
v -28 -44 0
v -29 -44 0
v -29 -43 0
v -28 -43 0
v -29 -44 0
v -30 -44 0
v -30 -43 0
v -29 -43 0
v -31 -44 0
v -32 -44 0
v -32 -43 0
v -31 -43 0
v -32 -44 0
v -33 -44 0
v -33 -43 0
v -32 -43 0

# Texture cooridinates (Count = 69)
vt 0.21875 0.96875
vt 0.25 0.96875
vt 0.25 1
vt 0.21875 1
vt 0.21875 0.9375
vt 0.25 0.9375
vt 0 0.71875
vt 0.03125 0.71875
vt 0.03125 0.75
vt 0 0.75
vt 0.0625 0.71875
vt 0.0625 0.75
vt 0.96875 0.625
vt 1 0.625
vt 1 0.65625
vt 0.96875 0.65625
vt 0 0.6875
vt 0.03125 0.6875
vt 0.0625 0.6875
vt 0.96875 0.59375
vt 1 0.59375
vt 0 0.65625
vt 0.03125 0.65625
vt 0.0625 0.65625
vt 0.46875 0.71875
vt 0.46875 0.75
vt 0.4375 0.75
vt 0.4375 0.71875
vt 0.46875 0.78125
vt 0.4375 0.78125
vt 0.46875 0.8125
vt 0.4375 0.8125
vt 0.46875 0.84375
vt 0.4375 0.84375
vt 0.5 0.71875
vt 0.5 0.75
vt 0.5 0.78125
vt 0.5 0.8125
vt 0.5 0.84375
vt 0.53125 0.8125
vt 0.53125 0.84375
vt 0.5625 0.8125
vt 0.5625 0.84375
vt 0.53125 0.78125
vt 0.5625 0.78125
vt 0.53125 0.75
vt 0.5625 0.75
vt 0.46875 0.875
vt 0.4375 0.875
vt 0.5 0.875
vt 0.5625 0.875
vt 0.53125 0.875
vt 0.59375 0.84375
vt 0.59375 0.875
vt 0.8125 0.90625
vt 0.8125 0.875
vt 0.84375 0.875
vt 0.84375 0.90625
vt 0.8125 0.84375
vt 0.84375 0.84375
vt 0.75 0.90625
vt 0.75 0.875
vt 0.78125 0.875
vt 0.78125 0.90625
vt 0.75 0.84375
vt 0.78125 0.84375
vt 0.71875 0.90625
vt 0.71875 0.875
vt 0.71875 0.84375

# Normal
vn 0 0 -1

# Mesh description
g mechanics_test_mesh_0003

# Faces
f 1/1/1 2/2/1 3/3/1 4/4/1
f 5/5/1 6/6/1 7/2/1 8/1/1
f 9/7/1 10/8/1 11/9/1 12/10/1
f 13/8/1 14/11/1 15/12/1 16/9/1
f 17/13/1 18/14/1 19/15/1 20/16/1
f 21/17/1 22/18/1 23/8/1 24/7/1
f 25/18/1 26/19/1 27/11/1 28/8/1
f 29/20/1 30/21/1 31/14/1 32/13/1
f 33/22/1 34/23/1 35/18/1 36/17/1
f 37/23/1 38/24/1 39/19/1 40/18/1
f 41/7/1 42/8/1 43/9/1 44/10/1
f 45/8/1 46/11/1 47/12/1 48/9/1
f 49/17/1 50/18/1 51/8/1 52/7/1
f 53/18/1 54/19/1 55/11/1 56/8/1
f 57/22/1 58/23/1 59/18/1 60/17/1
f 61/23/1 62/24/1 63/19/1 64/18/1
f 65/25/1 66/26/1 67/27/1 68/28/1
f 69/26/1 70/29/1 71/30/1 72/27/1
f 73/29/1 74/31/1 75/32/1 76/30/1
f 77/31/1 78/33/1 79/34/1 80/32/1
f 81/35/1 82/36/1 83/26/1 84/25/1
f 85/36/1 86/37/1 87/29/1 88/26/1
f 89/37/1 90/38/1 91/31/1 92/29/1
f 93/38/1 94/39/1 95/33/1 96/31/1
f 97/38/1 98/40/1 99/41/1 100/39/1
f 101/40/1 102/42/1 103/43/1 104/41/1
f 105/38/1 106/40/1 107/41/1 108/39/1
f 109/40/1 110/42/1 111/43/1 112/41/1
f 113/37/1 114/44/1 115/40/1 116/38/1
f 117/44/1 118/45/1 119/42/1 120/40/1
f 121/37/1 122/44/1 123/40/1 124/38/1
f 125/44/1 126/45/1 127/42/1 128/40/1
f 129/36/1 130/46/1 131/44/1 132/37/1
f 133/46/1 134/47/1 135/45/1 136/44/1
f 137/36/1 138/46/1 139/44/1 140/37/1
f 141/46/1 142/47/1 143/45/1 144/44/1
f 145/21/1 146/14/1 147/13/1 148/20/1
f 149/14/1 150/15/1 151/16/1 152/13/1
f 153/33/1 154/31/1 155/38/1 156/39/1
f 157/31/1 158/29/1 159/37/1 160/38/1
f 161/29/1 162/26/1 163/36/1 164/37/1
f 165/26/1 166/25/1 167/35/1 168/36/1
f 169/34/1 170/32/1 171/31/1 172/33/1
f 173/32/1 174/30/1 175/29/1 176/31/1
f 177/30/1 178/27/1 179/26/1 180/29/1
f 181/27/1 182/28/1 183/25/1 184/26/1
f 185/34/1 186/33/1 187/48/1 188/49/1
f 189/33/1 190/39/1 191/50/1 192/48/1
f 193/34/1 194/33/1 195/48/1 196/49/1
f 197/33/1 198/39/1 199/50/1 200/48/1
f 201/41/1 202/43/1 203/51/1 204/52/1
f 205/43/1 206/53/1 207/54/1 208/51/1
f 209/43/1 210/41/1 211/52/1 212/51/1
f 213/55/1 214/56/1 215/57/1 216/58/1
f 217/56/1 218/59/1 219/60/1 220/57/1
f 221/61/1 222/62/1 223/63/1 224/64/1
f 225/62/1 226/65/1 227/66/1 228/63/1
f 229/64/1 230/63/1 231/56/1 232/55/1
f 233/63/1 234/66/1 235/59/1 236/56/1
f 237/67/1 238/68/1 239/62/1 240/61/1
f 241/68/1 242/69/1 243/65/1 244/62/1

