# Tiled2Unity generated file. Do not modify by hand.
# Wavefront file for 'mechanics_test_mesh_0002.obj'

# Vertices (Count = 556)
v -41 -9 0
v -42 -9 0
v -42 -8 0
v -41 -8 0
v -42 -9 0
v -43 -9 0
v -43 -8 0
v -42 -8 0
v -43 -9 0
v -44 -9 0
v -44 -8 0
v -43 -8 0
v -44 -9 0
v -45 -9 0
v -45 -8 0
v -44 -8 0
v -45 -9 0
v -46 -9 0
v -46 -8 0
v -45 -8 0
v -46 -9 0
v -47 -9 0
v -47 -8 0
v -46 -8 0
v -47 -9 0
v -48 -9 0
v -48 -8 0
v -47 -8 0
v -48 -9 0
v -49 -9 0
v -49 -8 0
v -48 -8 0
v -49 -9 0
v -50 -9 0
v -50 -8 0
v -49 -8 0
v -50 -9 0
v -51 -9 0
v -51 -8 0
v -50 -8 0
v -41 -10 0
v -42 -10 0
v -42 -9 0
v -41 -9 0
v -50 -10 0
v -51 -10 0
v -51 -9 0
v -50 -9 0
v -41 -11 0
v -42 -11 0
v -42 -10 0
v -41 -10 0
v -50 -11 0
v -51 -11 0
v -51 -10 0
v -50 -10 0
v -22 -12 0
v -23 -12 0
v -23 -11 0
v -22 -11 0
v -25 -12 0
v -26 -12 0
v -26 -11 0
v -25 -11 0
v -40 -12 0
v -41 -12 0
v -41 -11 0
v -40 -11 0
v -41 -12 0
v -42 -12 0
v -42 -11 0
v -41 -11 0
v -50 -12 0
v -51 -12 0
v -51 -11 0
v -50 -11 0
v -40 -13 0
v -41 -13 0
v -41 -12 0
v -40 -12 0
v -41 -13 0
v -42 -13 0
v -42 -12 0
v -41 -12 0
v -50 -13 0
v -51 -13 0
v -51 -12 0
v -50 -12 0
v -40 -14 0
v -41 -14 0
v -41 -13 0
v -40 -13 0
v -41 -14 0
v -42 -14 0
v -42 -13 0
v -41 -13 0
v -50 -14 0
v -51 -14 0
v -51 -13 0
v -50 -13 0
v -40 -15 0
v -41 -15 0
v -41 -14 0
v -40 -14 0
v -41 -15 0
v -42 -15 0
v -42 -14 0
v -41 -14 0
v -50 -15 0
v -51 -15 0
v -51 -14 0
v -50 -14 0
v -41 -16 0
v -42 -16 0
v -42 -15 0
v -41 -15 0
v -50 -16 0
v -51 -16 0
v -51 -15 0
v -50 -15 0
v -41 -17 0
v -42 -17 0
v -42 -16 0
v -41 -16 0
v -47 -17 0
v -48 -17 0
v -48 -16 0
v -47 -16 0
v -50 -17 0
v -51 -17 0
v -51 -16 0
v -50 -16 0
v -41 -18 0
v -42 -18 0
v -42 -17 0
v -41 -17 0
v -42 -18 0
v -43 -18 0
v -43 -17 0
v -42 -17 0
v -43 -18 0
v -44 -18 0
v -44 -17 0
v -43 -17 0
v -44 -18 0
v -45 -18 0
v -45 -17 0
v -44 -17 0
v -45 -18 0
v -46 -18 0
v -46 -17 0
v -45 -17 0
v -46 -18 0
v -47 -18 0
v -47 -17 0
v -46 -17 0
v -47 -18 0
v -48 -18 0
v -48 -17 0
v -47 -17 0
v -48 -18 0
v -49 -18 0
v -49 -17 0
v -48 -17 0
v -49 -18 0
v -50 -18 0
v -50 -17 0
v -49 -17 0
v -50 -18 0
v -51 -18 0
v -51 -17 0
v -50 -17 0
v -3 -25 0
v -4 -25 0
v -4 -24 0
v -3 -24 0
v -4 -25 0
v -5 -25 0
v -5 -24 0
v -4 -24 0
v -5 -25 0
v -6 -25 0
v -6 -24 0
v -5 -24 0
v -6 -25 0
v -7 -25 0
v -7 -24 0
v -6 -24 0
v -7 -25 0
v -8 -25 0
v -8 -24 0
v -7 -24 0
v -8 -25 0
v -9 -25 0
v -9 -24 0
v -8 -24 0
v -9 -25 0
v -10 -25 0
v -10 -24 0
v -9 -24 0
v -3 -26 0
v -4 -26 0
v -4 -25 0
v -3 -25 0
v -10 -26 0
v -11 -26 0
v -11 -25 0
v -10 -25 0
v -17 -26 0
v -18 -26 0
v -18 -25 0
v -17 -25 0
v -19 -26 0
v -20 -26 0
v -20 -25 0
v -19 -25 0
v -31 -26 0
v -32 -26 0
v -32 -25 0
v -31 -25 0
v -32 -26 0
v -33 -26 0
v -33 -25 0
v -32 -25 0
v -33 -26 0
v -34 -26 0
v -34 -25 0
v -33 -25 0
v -34 -26 0
v -35 -26 0
v -35 -25 0
v -34 -25 0
v -35 -26 0
v -36 -26 0
v -36 -25 0
v -35 -25 0
v -36 -26 0
v -37 -26 0
v -37 -25 0
v -36 -25 0
v -37 -26 0
v -38 -26 0
v -38 -25 0
v -37 -25 0
v -38 -26 0
v -39 -26 0
v -39 -25 0
v -38 -25 0
v -39 -26 0
v -40 -26 0
v -40 -25 0
v -39 -25 0
v -3 -27 0
v -4 -27 0
v -4 -26 0
v -3 -26 0
v -10 -27 0
v -11 -27 0
v -11 -26 0
v -10 -26 0
v -17 -27 0
v -18 -27 0
v -18 -26 0
v -17 -26 0
v -19 -27 0
v -20 -27 0
v -20 -26 0
v -19 -26 0
v -3 -28 0
v -4 -28 0
v -4 -27 0
v -3 -27 0
v -10 -28 0
v -11 -28 0
v -11 -27 0
v -10 -27 0
v -14 -28 0
v -15 -28 0
v -15 -27 0
v -14 -27 0
v -15 -28 0
v -16 -28 0
v -16 -27 0
v -15 -27 0
v -43 -28 0
v -44 -28 0
v -44 -27 0
v -43 -27 0
v -44 -28 0
v -45 -28 0
v -45 -27 0
v -44 -27 0
v -3 -29 0
v -4 -29 0
v -4 -28 0
v -3 -28 0
v -10 -29 0
v -11 -29 0
v -11 -28 0
v -10 -28 0
v -14 -29 0
v -15 -29 0
v -15 -28 0
v -14 -28 0
v -15 -29 0
v -16 -29 0
v -16 -28 0
v -15 -28 0
v -3 -30 0
v -4 -30 0
v -4 -29 0
v -3 -29 0
v -10 -30 0
v -11 -30 0
v -11 -29 0
v -10 -29 0
v -43 -30 0
v -44 -30 0
v -44 -29 0
v -43 -29 0
v -44 -30 0
v -45 -30 0
v -45 -29 0
v -44 -29 0
v -3 -31 0
v -4 -31 0
v -4 -30 0
v -3 -30 0
v -10 -31 0
v -11 -31 0
v -11 -30 0
v -10 -30 0
v -17 -31 0
v -18 -31 0
v -18 -30 0
v -17 -30 0
v -19 -31 0
v -20 -31 0
v -20 -30 0
v -19 -30 0
v -4 -32 0
v -5 -32 0
v -5 -31 0
v -4 -31 0
v -5 -32 0
v -6 -32 0
v -6 -31 0
v -5 -31 0
v -6 -32 0
v -7 -32 0
v -7 -31 0
v -6 -31 0
v -7 -32 0
v -8 -32 0
v -8 -31 0
v -7 -31 0
v -8 -32 0
v -9 -32 0
v -9 -31 0
v -8 -31 0
v -9 -32 0
v -10 -32 0
v -10 -31 0
v -9 -31 0
v -17 -32 0
v -18 -32 0
v -18 -31 0
v -17 -31 0
v -19 -32 0
v -20 -32 0
v -20 -31 0
v -19 -31 0
v -31 -32 0
v -32 -32 0
v -32 -31 0
v -31 -31 0
v -32 -32 0
v -33 -32 0
v -33 -31 0
v -32 -31 0
v -33 -32 0
v -34 -32 0
v -34 -31 0
v -33 -31 0
v -34 -32 0
v -35 -32 0
v -35 -31 0
v -34 -31 0
v -35 -32 0
v -36 -32 0
v -36 -31 0
v -35 -31 0
v -36 -32 0
v -37 -32 0
v -37 -31 0
v -36 -31 0
v -37 -32 0
v -38 -32 0
v -38 -31 0
v -37 -31 0
v -38 -32 0
v -39 -32 0
v -39 -31 0
v -38 -31 0
v -39 -32 0
v -40 -32 0
v -40 -31 0
v -39 -31 0
v -6 -38 0
v -7 -38 0
v -7 -37 0
v -6 -37 0
v -7 -38 0
v -8 -38 0
v -8 -37 0
v -7 -37 0
v -8 -38 0
v -9 -38 0
v -9 -37 0
v -8 -37 0
v -9 -38 0
v -10 -38 0
v -10 -37 0
v -9 -37 0
v -10 -38 0
v -11 -38 0
v -11 -37 0
v -10 -37 0
v -11 -38 0
v -12 -38 0
v -12 -37 0
v -11 -37 0
v -12 -38 0
v -13 -38 0
v -13 -37 0
v -12 -37 0
v -13 -38 0
v -14 -38 0
v -14 -37 0
v -13 -37 0
v -14 -38 0
v -15 -38 0
v -15 -37 0
v -14 -37 0
v -15 -38 0
v -16 -38 0
v -16 -37 0
v -15 -37 0
v -16 -38 0
v -17 -38 0
v -17 -37 0
v -16 -37 0
v -17 -38 0
v -18 -38 0
v -18 -37 0
v -17 -37 0
v -18 -38 0
v -19 -38 0
v -19 -37 0
v -18 -37 0
v -19 -38 0
v -20 -38 0
v -20 -37 0
v -19 -37 0
v -20 -38 0
v -21 -38 0
v -21 -37 0
v -20 -37 0
v -21 -38 0
v -22 -38 0
v -22 -37 0
v -21 -37 0
v -22 -38 0
v -23 -38 0
v -23 -37 0
v -22 -37 0
v -23 -38 0
v -24 -38 0
v -24 -37 0
v -23 -37 0
v -9 -46 0
v -10 -46 0
v -10 -45 0
v -9 -45 0
v -15 -47 0
v -16 -47 0
v -16 -46 0
v -15 -46 0
v -16 -47 0
v -17 -47 0
v -17 -46 0
v -16 -46 0
v -17 -47 0
v -18 -47 0
v -18 -46 0
v -17 -46 0
v -18 -47 0
v -19 -47 0
v -19 -46 0
v -18 -46 0
v -19 -47 0
v -20 -47 0
v -20 -46 0
v -19 -46 0
v -20 -47 0
v -21 -47 0
v -21 -46 0
v -20 -46 0
v -21 -47 0
v -22 -47 0
v -22 -46 0
v -21 -46 0
v -22 -47 0
v -23 -47 0
v -23 -46 0
v -22 -46 0
v -23 -47 0
v -24 -47 0
v -24 -46 0
v -23 -46 0
v -15 -49 0
v -16 -49 0
v -16 -48 0
v -15 -48 0
v -17 -49 0
v -18 -49 0
v -18 -48 0
v -17 -48 0
v -21 -49 0
v -22 -49 0
v -22 -48 0
v -21 -48 0
v -23 -49 0
v -24 -49 0
v -24 -48 0
v -23 -48 0
v -15 -50 0
v -16 -50 0
v -16 -49 0
v -15 -49 0
v -17 -50 0
v -18 -50 0
v -18 -49 0
v -17 -49 0
v -21 -50 0
v -22 -50 0
v -22 -49 0
v -21 -49 0
v -23 -50 0
v -24 -50 0
v -24 -49 0
v -23 -49 0
v -60 -59 0
v -61 -59 0
v -61 -58 0
v -60 -58 0

# Texture cooridinates (Count = 33)
vt 0.4375 0.90625
vt 0.46875 0.90625
vt 0.46875 0.9375
vt 0.4375 0.9375
vt 0.40625 0.9375
vt 0.40625 0.90625
vt 0.6875 0.84375
vt 0.71875 0.84375
vt 0.71875 0.875
vt 0.6875 0.875
vt 0.8125 0.96875
vt 0.8125 1
vt 0.78125 1
vt 0.78125 0.96875
vt 0.84375 0.96875
vt 0.84375 1
vt 0.875 0.96875
vt 0.875 1
vt 0.90625 0.96875
vt 0.90625 1
vt 0.4375 0.875
vt 0.46875 0.875
vt 0.59375 0.84375
vt 0.625 0.84375
vt 0.625 0.875
vt 0.59375 0.875
vt 0.65625 0.84375
vt 0.65625 0.875
vt 0.40625 0.875
vt 0.53125 0.90625
vt 0.5 0.90625
vt 0.5 0.875
vt 0.53125 0.875

# Normal
vn 0 0 -1

# Mesh description
g mechanics_test_mesh_0002

# Faces
f 1/1/1 2/2/1 3/3/1 4/4/1
f 5/1/1 6/4/1 7/5/1 8/6/1
f 9/1/1 10/4/1 11/5/1 12/6/1
f 13/1/1 14/4/1 15/5/1 16/6/1
f 17/1/1 18/4/1 19/5/1 20/6/1
f 21/1/1 22/4/1 23/5/1 24/6/1
f 25/1/1 26/4/1 27/5/1 28/6/1
f 29/1/1 30/4/1 31/5/1 32/6/1
f 33/1/1 34/4/1 35/5/1 36/6/1
f 37/2/1 38/3/1 39/4/1 40/1/1
f 41/6/1 42/1/1 43/4/1 44/5/1
f 45/4/1 46/5/1 47/6/1 48/1/1
f 49/6/1 50/1/1 51/4/1 52/5/1
f 53/4/1 54/5/1 55/6/1 56/1/1
f 57/7/1 58/8/1 59/9/1 60/10/1
f 61/7/1 62/8/1 63/9/1 64/10/1
f 65/11/1 66/12/1 67/13/1 68/14/1
f 69/6/1 70/1/1 71/4/1 72/5/1
f 73/4/1 74/5/1 75/6/1 76/1/1
f 77/15/1 78/16/1 79/12/1 80/11/1
f 81/6/1 82/1/1 83/4/1 84/5/1
f 85/4/1 86/5/1 87/6/1 88/1/1
f 89/17/1 90/18/1 91/16/1 92/15/1
f 93/6/1 94/1/1 95/4/1 96/5/1
f 97/4/1 98/5/1 99/6/1 100/1/1
f 101/19/1 102/20/1 103/18/1 104/17/1
f 105/6/1 106/1/1 107/4/1 108/5/1
f 109/4/1 110/5/1 111/6/1 112/1/1
f 113/6/1 114/1/1 115/4/1 116/5/1
f 117/4/1 118/5/1 119/6/1 120/1/1
f 121/6/1 122/1/1 123/4/1 124/5/1
f 125/7/1 126/8/1 127/9/1 128/10/1
f 129/4/1 130/5/1 131/6/1 132/1/1
f 133/5/1 134/6/1 135/1/1 136/4/1
f 137/5/1 138/6/1 139/1/1 140/4/1
f 141/5/1 142/6/1 143/1/1 144/4/1
f 145/5/1 146/6/1 147/1/1 148/4/1
f 149/5/1 150/6/1 151/1/1 152/4/1
f 153/5/1 154/6/1 155/1/1 156/4/1
f 157/5/1 158/6/1 159/1/1 160/4/1
f 161/5/1 162/6/1 163/1/1 164/4/1
f 165/5/1 166/6/1 167/1/1 168/4/1
f 169/5/1 170/6/1 171/1/1 172/4/1
f 173/6/1 174/1/1 175/4/1 176/5/1
f 177/1/1 178/4/1 179/5/1 180/6/1
f 181/1/1 182/4/1 183/5/1 184/6/1
f 185/1/1 186/4/1 187/5/1 188/6/1
f 189/1/1 190/4/1 191/5/1 192/6/1
f 193/1/1 194/4/1 195/5/1 196/6/1
f 197/1/1 198/4/1 199/5/1 200/6/1
f 201/6/1 202/1/1 203/4/1 204/5/1
f 205/4/1 206/5/1 207/6/1 208/1/1
f 209/1/1 210/21/1 211/22/1 212/2/1
f 213/1/1 214/21/1 215/22/1 216/2/1
f 217/23/1 218/24/1 219/25/1 220/26/1
f 221/24/1 222/27/1 223/28/1 224/25/1
f 225/24/1 226/27/1 227/28/1 228/25/1
f 229/24/1 230/27/1 231/28/1 232/25/1
f 233/24/1 234/27/1 235/28/1 236/25/1
f 237/24/1 238/27/1 239/28/1 240/25/1
f 241/24/1 242/27/1 243/28/1 244/25/1
f 245/24/1 246/27/1 247/28/1 248/25/1
f 249/27/1 250/7/1 251/10/1 252/28/1
f 253/6/1 254/1/1 255/4/1 256/5/1
f 257/4/1 258/5/1 259/6/1 260/1/1
f 261/6/1 262/29/1 263/21/1 264/1/1
f 265/6/1 266/29/1 267/21/1 268/1/1
f 269/6/1 270/1/1 271/4/1 272/5/1
f 273/4/1 274/5/1 275/6/1 276/1/1
f 277/2/1 278/1/1 279/21/1 280/22/1
f 281/1/1 282/6/1 283/29/1 284/21/1
f 285/2/1 286/1/1 287/21/1 288/22/1
f 289/1/1 290/6/1 291/29/1 292/21/1
f 293/6/1 294/1/1 295/4/1 296/5/1
f 297/4/1 298/5/1 299/6/1 300/1/1
f 301/2/1 302/1/1 303/21/1 304/22/1
f 305/1/1 306/6/1 307/29/1 308/21/1
f 309/6/1 310/1/1 311/4/1 312/5/1
f 313/4/1 314/5/1 315/6/1 316/1/1
f 317/30/1 318/31/1 319/32/1 320/33/1
f 321/31/1 322/2/1 323/22/1 324/32/1
f 325/6/1 326/1/1 327/4/1 328/5/1
f 329/4/1 330/5/1 331/6/1 332/1/1
f 333/32/1 334/31/1 335/2/1 336/22/1
f 337/32/1 338/31/1 339/2/1 340/22/1
f 341/5/1 342/6/1 343/1/1 344/4/1
f 345/5/1 346/6/1 347/1/1 348/4/1
f 349/5/1 350/6/1 351/1/1 352/4/1
f 353/5/1 354/6/1 355/1/1 356/4/1
f 357/5/1 358/6/1 359/1/1 360/4/1
f 361/5/1 362/6/1 363/1/1 364/4/1
f 365/33/1 366/30/1 367/31/1 368/32/1
f 369/33/1 370/30/1 371/31/1 372/32/1
f 373/10/1 374/28/1 375/27/1 376/7/1
f 377/28/1 378/25/1 379/24/1 380/27/1
f 381/28/1 382/25/1 383/24/1 384/27/1
f 385/28/1 386/25/1 387/24/1 388/27/1
f 389/28/1 390/25/1 391/24/1 392/27/1
f 393/28/1 394/25/1 395/24/1 396/27/1
f 397/28/1 398/25/1 399/24/1 400/27/1
f 401/28/1 402/25/1 403/24/1 404/27/1
f 405/25/1 406/26/1 407/23/1 408/24/1
f 409/23/1 410/24/1 411/25/1 412/26/1
f 413/24/1 414/27/1 415/28/1 416/25/1
f 417/24/1 418/27/1 419/28/1 420/25/1
f 421/24/1 422/27/1 423/28/1 424/25/1
f 425/24/1 426/27/1 427/28/1 428/25/1
f 429/24/1 430/27/1 431/28/1 432/25/1
f 433/24/1 434/27/1 435/28/1 436/25/1
f 437/24/1 438/27/1 439/28/1 440/25/1
f 441/24/1 442/27/1 443/28/1 444/25/1
f 445/24/1 446/27/1 447/28/1 448/25/1
f 449/24/1 450/27/1 451/28/1 452/25/1
f 453/24/1 454/27/1 455/28/1 456/25/1
f 457/24/1 458/27/1 459/28/1 460/25/1
f 461/24/1 462/27/1 463/28/1 464/25/1
f 465/24/1 466/27/1 467/28/1 468/25/1
f 469/24/1 470/27/1 471/28/1 472/25/1
f 473/24/1 474/27/1 475/28/1 476/25/1
f 477/27/1 478/7/1 479/10/1 480/28/1
f 481/7/1 482/8/1 483/9/1 484/10/1
f 485/10/1 486/28/1 487/27/1 488/7/1
f 489/28/1 490/25/1 491/24/1 492/27/1
f 493/28/1 494/25/1 495/24/1 496/27/1
f 497/28/1 498/25/1 499/24/1 500/27/1
f 501/28/1 502/25/1 503/24/1 504/27/1
f 505/28/1 506/25/1 507/24/1 508/27/1
f 509/28/1 510/25/1 511/24/1 512/27/1
f 513/28/1 514/25/1 515/24/1 516/27/1
f 517/25/1 518/26/1 519/23/1 520/24/1
f 521/31/1 522/32/1 523/33/1 524/30/1
f 525/1/1 526/21/1 527/22/1 528/2/1
f 529/31/1 530/32/1 531/33/1 532/30/1
f 533/1/1 534/21/1 535/22/1 536/2/1
f 537/2/1 538/22/1 539/32/1 540/31/1
f 541/6/1 542/29/1 543/21/1 544/1/1
f 545/2/1 546/22/1 547/32/1 548/31/1
f 549/6/1 550/29/1 551/21/1 552/1/1
f 553/7/1 554/8/1 555/9/1 556/10/1

