# Tiled2Unity generated file. Do not modify by hand.
# Wavefront file for 'escape_mesh_0006.obj'

# Vertices (Count = 328)
v -67 -12 0
v -68 -12 0
v -68 -11 0
v -67 -11 0
v -68 -12 0
v -69 -12 0
v -69 -11 0
v -68 -11 0
v -67 -13 0
v -68 -13 0
v -68 -12 0
v -67 -12 0
v -68 -13 0
v -69 -13 0
v -69 -12 0
v -68 -12 0
v -67 -14 0
v -68 -14 0
v -68 -13 0
v -67 -13 0
v -68 -14 0
v -69 -14 0
v -69 -13 0
v -68 -13 0
v -67 -15 0
v -68 -15 0
v -68 -14 0
v -67 -14 0
v -68 -15 0
v -69 -15 0
v -69 -14 0
v -68 -14 0
v -33 -18 0
v -34 -18 0
v -34 -17 0
v -33 -17 0
v -36 -22 0
v -37 -22 0
v -37 -21 0
v -36 -21 0
v -64 -24 0
v -65 -24 0
v -65 -23 0
v -64 -23 0
v -114 -27 0
v -115 -27 0
v -115 -26 0
v -114 -26 0
v -115 -27 0
v -116 -27 0
v -116 -26 0
v -115 -26 0
v -86 -29 0
v -87 -29 0
v -87 -28 0
v -86 -28 0
v -87 -29 0
v -88 -29 0
v -88 -28 0
v -87 -28 0
v -88 -29 0
v -89 -29 0
v -89 -28 0
v -88 -28 0
v -89 -29 0
v -90 -29 0
v -90 -28 0
v -89 -28 0
v -90 -29 0
v -91 -29 0
v -91 -28 0
v -90 -28 0
v -91 -29 0
v -92 -29 0
v -92 -28 0
v -91 -28 0
v -92 -29 0
v -93 -29 0
v -93 -28 0
v -92 -28 0
v -97 -29 0
v -98 -29 0
v -98 -28 0
v -97 -28 0
v -98 -29 0
v -99 -29 0
v -99 -28 0
v -98 -28 0
v -99 -29 0
v -100 -29 0
v -100 -28 0
v -99 -28 0
v -100 -29 0
v -101 -29 0
v -101 -28 0
v -100 -28 0
v -101 -29 0
v -102 -29 0
v -102 -28 0
v -101 -28 0
v -102 -29 0
v -103 -29 0
v -103 -28 0
v -102 -28 0
v -103 -29 0
v -104 -29 0
v -104 -28 0
v -103 -28 0
v -40 -36 0
v -41 -36 0
v -41 -35 0
v -40 -35 0
v -41 -36 0
v -42 -36 0
v -42 -35 0
v -41 -35 0
v -80 -41 0
v -81 -41 0
v -81 -40 0
v -80 -40 0
v -86 -41 0
v -87 -41 0
v -87 -40 0
v -86 -40 0
v -87 -41 0
v -88 -41 0
v -88 -40 0
v -87 -40 0
v -88 -41 0
v -89 -41 0
v -89 -40 0
v -88 -40 0
v -89 -41 0
v -90 -41 0
v -90 -40 0
v -89 -40 0
v -90 -41 0
v -91 -41 0
v -91 -40 0
v -90 -40 0
v -91 -41 0
v -92 -41 0
v -92 -40 0
v -91 -40 0
v -92 -41 0
v -93 -41 0
v -93 -40 0
v -92 -40 0
v -93 -41 0
v -94 -41 0
v -94 -40 0
v -93 -40 0
v -94 -41 0
v -95 -41 0
v -95 -40 0
v -94 -40 0
v -95 -41 0
v -96 -41 0
v -96 -40 0
v -95 -40 0
v -96 -41 0
v -97 -41 0
v -97 -40 0
v -96 -40 0
v -97 -41 0
v -98 -41 0
v -98 -40 0
v -97 -40 0
v -98 -41 0
v -99 -41 0
v -99 -40 0
v -98 -40 0
v -99 -41 0
v -100 -41 0
v -100 -40 0
v -99 -40 0
v -100 -41 0
v -101 -41 0
v -101 -40 0
v -100 -40 0
v -101 -41 0
v -102 -41 0
v -102 -40 0
v -101 -40 0
v -102 -41 0
v -103 -41 0
v -103 -40 0
v -102 -40 0
v -103 -41 0
v -104 -41 0
v -104 -40 0
v -103 -40 0
v -47 -42 0
v -48 -42 0
v -48 -41 0
v -47 -41 0
v -47 -43 0
v -48 -43 0
v -48 -42 0
v -47 -42 0
v -71 -43 0
v -72 -43 0
v -72 -42 0
v -71 -42 0
v -80 -43 0
v -81 -43 0
v -81 -42 0
v -80 -42 0
v -91 -47 0
v -92 -47 0
v -92 -46 0
v -91 -46 0
v -91 -48 0
v -92 -48 0
v -92 -47 0
v -91 -47 0
v -21 -49 0
v -22 -49 0
v -22 -48 0
v -21 -48 0
v -22 -49 0
v -23 -49 0
v -23 -48 0
v -22 -48 0
v -23 -49 0
v -24 -49 0
v -24 -48 0
v -23 -48 0
v -24 -49 0
v -25 -49 0
v -25 -48 0
v -24 -48 0
v -25 -49 0
v -26 -49 0
v -26 -48 0
v -25 -48 0
v -26 -49 0
v -27 -49 0
v -27 -48 0
v -26 -48 0
v -27 -49 0
v -28 -49 0
v -28 -48 0
v -27 -48 0
v -28 -49 0
v -29 -49 0
v -29 -48 0
v -28 -48 0
v -29 -49 0
v -30 -49 0
v -30 -48 0
v -29 -48 0
v -30 -49 0
v -31 -49 0
v -31 -48 0
v -30 -48 0
v -31 -49 0
v -32 -49 0
v -32 -48 0
v -31 -48 0
v -32 -49 0
v -33 -49 0
v -33 -48 0
v -32 -48 0
v -33 -49 0
v -34 -49 0
v -34 -48 0
v -33 -48 0
v -109 -51 0
v -110 -51 0
v -110 -50 0
v -109 -50 0
v -112 -51 0
v -113 -51 0
v -113 -50 0
v -112 -50 0
v -120 -51 0
v -121 -51 0
v -121 -50 0
v -120 -50 0
v -123 -51 0
v -124 -51 0
v -124 -50 0
v -123 -50 0
v -105 -52 0
v -106 -52 0
v -106 -51 0
v -105 -51 0
v -75 -53 0
v -76 -53 0
v -76 -52 0
v -75 -52 0
v -105 -53 0
v -106 -53 0
v -106 -52 0
v -105 -52 0
v -108 -54 0
v -109 -54 0
v -109 -53 0
v -108 -53 0
v -111 -54 0
v -112 -54 0
v -112 -53 0
v -111 -53 0
v -120 -54 0
v -121 -54 0
v -121 -53 0
v -120 -53 0
v -123 -54 0
v -124 -54 0
v -124 -53 0
v -123 -53 0
v -91 -55 0
v -92 -55 0
v -92 -54 0
v -91 -54 0
v -91 -56 0
v -92 -56 0
v -92 -55 0
v -91 -55 0
v -79 -58 0
v -80 -58 0
v -80 -57 0
v -79 -57 0
v -78 -60 0
v -79 -60 0
v -79 -59 0
v -78 -59 0

# Texture cooridinates (Count = 33)
vt 0.6875 0.9375
vt 0.6875 0.96875
vt 0.65625 0.96875
vt 0.65625 0.9375
vt 0.6875 1
vt 0.65625 1
vt 0.71875 0.9375
vt 0.71875 0.96875
vt 0.71875 1
vt 0.75 0.9375
vt 0.75 0.96875
vt 0.75 1
vt 0.78125 0.9375
vt 0.78125 0.96875
vt 0.78125 1
vt 0.6875 0.84375
vt 0.71875 0.84375
vt 0.71875 0.875
vt 0.6875 0.875
vt 0.75 0.71875
vt 0.78125 0.71875
vt 0.78125 0.75
vt 0.75 0.75
vt 0.59375 0.84375
vt 0.625 0.84375
vt 0.625 0.875
vt 0.59375 0.875
vt 0.65625 0.84375
vt 0.65625 0.875
vt 0.4375 0.90625
vt 0.4375 0.9375
vt 0.40625 0.9375
vt 0.40625 0.90625

# Normal
vn 0 0 -1

# Mesh description
g escape_mesh_0006

# Faces
f 1/1/1 2/2/1 3/3/1 4/4/1
f 5/2/1 6/5/1 7/6/1 8/3/1
f 9/7/1 10/8/1 11/2/1 12/1/1
f 13/8/1 14/9/1 15/5/1 16/2/1
f 17/10/1 18/11/1 19/8/1 20/7/1
f 21/11/1 22/12/1 23/9/1 24/8/1
f 25/13/1 26/14/1 27/11/1 28/10/1
f 29/14/1 30/15/1 31/12/1 32/11/1
f 33/16/1 34/17/1 35/18/1 36/19/1
f 37/16/1 38/17/1 39/18/1 40/19/1
f 41/16/1 42/17/1 43/18/1 44/19/1
f 45/20/1 46/21/1 47/22/1 48/23/1
f 49/20/1 50/21/1 51/22/1 52/23/1
f 53/24/1 54/25/1 55/26/1 56/27/1
f 57/25/1 58/28/1 59/29/1 60/26/1
f 61/25/1 62/28/1 63/29/1 64/26/1
f 65/25/1 66/28/1 67/29/1 68/26/1
f 69/25/1 70/28/1 71/29/1 72/26/1
f 73/25/1 74/28/1 75/29/1 76/26/1
f 77/28/1 78/16/1 79/19/1 80/29/1
f 81/24/1 82/25/1 83/26/1 84/27/1
f 85/25/1 86/28/1 87/29/1 88/26/1
f 89/25/1 90/28/1 91/29/1 92/26/1
f 93/25/1 94/28/1 95/29/1 96/26/1
f 97/25/1 98/28/1 99/29/1 100/26/1
f 101/25/1 102/28/1 103/29/1 104/26/1
f 105/28/1 106/16/1 107/19/1 108/29/1
f 109/30/1 110/31/1 111/32/1 112/33/1
f 113/30/1 114/31/1 115/32/1 116/33/1
f 117/16/1 118/17/1 119/18/1 120/19/1
f 121/19/1 122/29/1 123/28/1 124/16/1
f 125/29/1 126/26/1 127/25/1 128/28/1
f 129/29/1 130/26/1 131/25/1 132/28/1
f 133/29/1 134/26/1 135/25/1 136/28/1
f 137/29/1 138/26/1 139/25/1 140/28/1
f 141/29/1 142/26/1 143/25/1 144/28/1
f 145/29/1 146/26/1 147/25/1 148/28/1
f 149/29/1 150/26/1 151/25/1 152/28/1
f 153/29/1 154/26/1 155/25/1 156/28/1
f 157/29/1 158/26/1 159/25/1 160/28/1
f 161/29/1 162/26/1 163/25/1 164/28/1
f 165/29/1 166/26/1 167/25/1 168/28/1
f 169/29/1 170/26/1 171/25/1 172/28/1
f 173/29/1 174/26/1 175/25/1 176/28/1
f 177/29/1 178/26/1 179/25/1 180/28/1
f 181/29/1 182/26/1 183/25/1 184/28/1
f 185/29/1 186/26/1 187/25/1 188/28/1
f 189/26/1 190/27/1 191/24/1 192/25/1
f 193/31/1 194/32/1 195/33/1 196/30/1
f 197/31/1 198/32/1 199/33/1 200/30/1
f 201/16/1 202/17/1 203/18/1 204/19/1
f 205/16/1 206/17/1 207/18/1 208/19/1
f 209/33/1 210/30/1 211/31/1 212/32/1
f 213/33/1 214/30/1 215/31/1 216/32/1
f 217/24/1 218/25/1 219/26/1 220/27/1
f 221/25/1 222/28/1 223/29/1 224/26/1
f 225/25/1 226/28/1 227/29/1 228/26/1
f 229/25/1 230/28/1 231/29/1 232/26/1
f 233/25/1 234/28/1 235/29/1 236/26/1
f 237/25/1 238/28/1 239/29/1 240/26/1
f 241/25/1 242/28/1 243/29/1 244/26/1
f 245/25/1 246/28/1 247/29/1 248/26/1
f 249/25/1 250/28/1 251/29/1 252/26/1
f 253/25/1 254/28/1 255/29/1 256/26/1
f 257/25/1 258/28/1 259/29/1 260/26/1
f 261/25/1 262/28/1 263/29/1 264/26/1
f 265/28/1 266/16/1 267/19/1 268/29/1
f 269/19/1 270/16/1 271/17/1 272/18/1
f 273/19/1 274/16/1 275/17/1 276/18/1
f 277/19/1 278/16/1 279/17/1 280/18/1
f 281/19/1 282/16/1 283/17/1 284/18/1
f 285/31/1 286/32/1 287/33/1 288/30/1
f 289/19/1 290/16/1 291/17/1 292/18/1
f 293/31/1 294/32/1 295/33/1 296/30/1
f 297/17/1 298/18/1 299/19/1 300/16/1
f 301/17/1 302/18/1 303/19/1 304/16/1
f 305/17/1 306/18/1 307/19/1 308/16/1
f 309/17/1 310/18/1 311/19/1 312/16/1
f 313/33/1 314/30/1 315/31/1 316/32/1
f 317/33/1 318/30/1 319/31/1 320/32/1
f 321/16/1 322/17/1 323/18/1 324/19/1
f 325/18/1 326/19/1 327/16/1 328/17/1

