# Tiled2Unity generated file. Do not modify by hand.
# Wavefront file for 'escape_mesh_0010.obj'

# Vertices (Count = 48)
v -49 -20 0
v -50 -20 0
v -50 -19 0
v -49 -19 0
v -50 -20 0
v -51 -20 0
v -51 -19 0
v -50 -19 0
v -51 -20 0
v -52 -20 0
v -52 -19 0
v -51 -19 0
v -52 -20 0
v -53 -20 0
v -53 -19 0
v -52 -19 0
v -53 -20 0
v -54 -20 0
v -54 -19 0
v -53 -19 0
v -54 -20 0
v -55 -20 0
v -55 -19 0
v -54 -19 0
v -49 -21 0
v -50 -21 0
v -50 -20 0
v -49 -20 0
v -50 -21 0
v -51 -21 0
v -51 -20 0
v -50 -20 0
v -51 -21 0
v -52 -21 0
v -52 -20 0
v -51 -20 0
v -54 -21 0
v -55 -21 0
v -55 -20 0
v -54 -20 0
v -51 -22 0
v -52 -22 0
v -52 -21 0
v -51 -21 0
v -54 -22 0
v -55 -22 0
v -55 -21 0
v -54 -21 0

# Texture cooridinates (Count = 10)
vt 0.5 0.96875
vt 0.53125 0.96875
vt 0.53125 1
vt 0.5 1
vt 0.46875 0.96875
vt 0.46875 1
vt 0.5625 0.96875
vt 0.5625 1
vt 0.59375 0.96875
vt 0.59375 1

# Normal
vn 0 0 -1

# Mesh description
g escape_mesh_0010

# Faces
f 1/1/1 2/2/1 3/3/1 4/4/1
f 5/5/1 6/1/1 7/4/1 8/6/1
f 9/5/1 10/1/1 11/4/1 12/6/1
f 13/5/1 14/1/1 15/4/1 16/6/1
f 17/5/1 18/1/1 19/4/1 20/6/1
f 21/3/1 22/2/1 23/7/1 24/8/1
f 25/1/1 26/2/1 27/3/1 28/4/1
f 29/5/1 30/1/1 31/4/1 32/6/1
f 33/3/1 34/2/1 35/7/1 36/8/1
f 37/1/1 38/4/1 39/6/1 40/5/1
f 41/9/1 42/10/1 43/8/1 44/7/1
f 45/9/1 46/10/1 47/8/1 48/7/1

