# Tiled2Unity generated file. Do not modify by hand.
# Wavefront file for 'escape_mesh_0007.obj'

# Vertices (Count = 420)
v -11 -17 0
v -12 -17 0
v -12 -16 0
v -11 -16 0
v -12 -17 0
v -13 -17 0
v -13 -16 0
v -12 -16 0
v -19 -17 0
v -20 -17 0
v -20 -16 0
v -19 -16 0
v -20 -17 0
v -21 -17 0
v -21 -16 0
v -20 -16 0
v -27 -17 0
v -28 -17 0
v -28 -16 0
v -27 -16 0
v -28 -17 0
v -29 -17 0
v -29 -16 0
v -28 -16 0
v -6 -18 0
v -7 -18 0
v -7 -17 0
v -6 -17 0
v -7 -18 0
v -8 -18 0
v -8 -17 0
v -7 -17 0
v -11 -18 0
v -12 -18 0
v -12 -17 0
v -11 -17 0
v -12 -18 0
v -13 -18 0
v -13 -17 0
v -12 -17 0
v -14 -18 0
v -15 -18 0
v -15 -17 0
v -14 -17 0
v -15 -18 0
v -16 -18 0
v -16 -17 0
v -15 -17 0
v -19 -18 0
v -20 -18 0
v -20 -17 0
v -19 -17 0
v -20 -18 0
v -21 -18 0
v -21 -17 0
v -20 -17 0
v -22 -18 0
v -23 -18 0
v -23 -17 0
v -22 -17 0
v -23 -18 0
v -24 -18 0
v -24 -17 0
v -23 -17 0
v -27 -18 0
v -28 -18 0
v -28 -17 0
v -27 -17 0
v -28 -18 0
v -29 -18 0
v -29 -17 0
v -28 -17 0
v -31 -18 0
v -32 -18 0
v -32 -17 0
v -31 -17 0
v -34 -18 0
v -35 -18 0
v -35 -17 0
v -34 -17 0
v -59 -18 0
v -60 -18 0
v -60 -17 0
v -59 -17 0
v -60 -18 0
v -61 -18 0
v -61 -17 0
v -60 -17 0
v -6 -19 0
v -7 -19 0
v -7 -18 0
v -6 -18 0
v -7 -19 0
v -8 -19 0
v -8 -18 0
v -7 -18 0
v -11 -19 0
v -12 -19 0
v -12 -18 0
v -11 -18 0
v -12 -19 0
v -13 -19 0
v -13 -18 0
v -12 -18 0
v -14 -19 0
v -15 -19 0
v -15 -18 0
v -14 -18 0
v -15 -19 0
v -16 -19 0
v -16 -18 0
v -15 -18 0
v -19 -19 0
v -20 -19 0
v -20 -18 0
v -19 -18 0
v -20 -19 0
v -21 -19 0
v -21 -18 0
v -20 -18 0
v -22 -19 0
v -23 -19 0
v -23 -18 0
v -22 -18 0
v -23 -19 0
v -24 -19 0
v -24 -18 0
v -23 -18 0
v -27 -19 0
v -28 -19 0
v -28 -18 0
v -27 -18 0
v -28 -19 0
v -29 -19 0
v -29 -18 0
v -28 -18 0
v -31 -19 0
v -32 -19 0
v -32 -18 0
v -31 -18 0
v -34 -19 0
v -35 -19 0
v -35 -18 0
v -34 -18 0
v -59 -19 0
v -60 -19 0
v -60 -18 0
v -59 -18 0
v -60 -19 0
v -61 -19 0
v -61 -18 0
v -60 -18 0
v -11 -20 0
v -12 -20 0
v -12 -19 0
v -11 -19 0
v -12 -20 0
v -13 -20 0
v -13 -19 0
v -12 -19 0
v -19 -20 0
v -20 -20 0
v -20 -19 0
v -19 -19 0
v -20 -20 0
v -21 -20 0
v -21 -19 0
v -20 -19 0
v -27 -20 0
v -28 -20 0
v -28 -19 0
v -27 -19 0
v -28 -20 0
v -29 -20 0
v -29 -19 0
v -28 -19 0
v -38 -21 0
v -39 -21 0
v -39 -20 0
v -38 -20 0
v -39 -21 0
v -40 -21 0
v -40 -20 0
v -39 -20 0
v -38 -22 0
v -39 -22 0
v -39 -21 0
v -38 -21 0
v -39 -22 0
v -40 -22 0
v -40 -21 0
v -39 -21 0
v -6 -23 0
v -7 -23 0
v -7 -22 0
v -6 -22 0
v -10 -23 0
v -11 -23 0
v -11 -22 0
v -10 -22 0
v -11 -23 0
v -12 -23 0
v -12 -22 0
v -11 -22 0
v -12 -23 0
v -13 -23 0
v -13 -22 0
v -12 -22 0
v -14 -23 0
v -15 -23 0
v -15 -22 0
v -14 -22 0
v -15 -23 0
v -16 -23 0
v -16 -22 0
v -15 -22 0
v -16 -23 0
v -17 -23 0
v -17 -22 0
v -16 -22 0
v -17 -23 0
v -18 -23 0
v -18 -22 0
v -17 -22 0
v -18 -23 0
v -19 -23 0
v -19 -22 0
v -18 -22 0
v -19 -23 0
v -20 -23 0
v -20 -22 0
v -19 -22 0
v -20 -23 0
v -21 -23 0
v -21 -22 0
v -20 -22 0
v -22 -23 0
v -23 -23 0
v -23 -22 0
v -22 -22 0
v -23 -23 0
v -24 -23 0
v -24 -22 0
v -23 -22 0
v -24 -23 0
v -25 -23 0
v -25 -22 0
v -24 -22 0
v -25 -23 0
v -26 -23 0
v -26 -22 0
v -25 -22 0
v -26 -23 0
v -27 -23 0
v -27 -22 0
v -26 -22 0
v -27 -23 0
v -28 -23 0
v -28 -22 0
v -27 -22 0
v -28 -23 0
v -29 -23 0
v -29 -22 0
v -28 -22 0
v -38 -23 0
v -39 -23 0
v -39 -22 0
v -38 -22 0
v -39 -23 0
v -40 -23 0
v -40 -22 0
v -39 -22 0
v -66 -23 0
v -67 -23 0
v -67 -22 0
v -66 -22 0
v -67 -23 0
v -68 -23 0
v -68 -22 0
v -67 -22 0
v -66 -24 0
v -67 -24 0
v -67 -23 0
v -66 -23 0
v -67 -24 0
v -68 -24 0
v -68 -23 0
v -67 -23 0
v -66 -25 0
v -67 -25 0
v -67 -24 0
v -66 -24 0
v -67 -25 0
v -68 -25 0
v -68 -24 0
v -67 -24 0
v -82 -41 0
v -83 -41 0
v -83 -40 0
v -82 -40 0
v -83 -41 0
v -84 -41 0
v -84 -40 0
v -83 -40 0
v -70 -42 0
v -71 -42 0
v -71 -41 0
v -70 -41 0
v -73 -42 0
v -74 -42 0
v -74 -41 0
v -73 -41 0
v -82 -42 0
v -83 -42 0
v -83 -41 0
v -82 -41 0
v -83 -42 0
v -84 -42 0
v -84 -41 0
v -83 -41 0
v -70 -43 0
v -71 -43 0
v -71 -42 0
v -70 -42 0
v -73 -43 0
v -74 -43 0
v -74 -42 0
v -73 -42 0
v -82 -43 0
v -83 -43 0
v -83 -42 0
v -82 -42 0
v -83 -43 0
v -84 -43 0
v -84 -42 0
v -83 -42 0
v -26 -49 0
v -27 -49 0
v -27 -48 0
v -26 -48 0
v -27 -49 0
v -28 -49 0
v -28 -48 0
v -27 -48 0
v -28 -49 0
v -29 -49 0
v -29 -48 0
v -28 -48 0
v -29 -49 0
v -30 -49 0
v -30 -48 0
v -29 -48 0
v -30 -49 0
v -31 -49 0
v -31 -48 0
v -30 -48 0
v -33 -50 0
v -34 -50 0
v -34 -49 0
v -33 -49 0
v -33 -51 0
v -34 -51 0
v -34 -50 0
v -33 -50 0
v -33 -52 0
v -34 -52 0
v -34 -51 0
v -33 -51 0
v -33 -53 0
v -34 -53 0
v -34 -52 0
v -33 -52 0
v -76 -58 0
v -77 -58 0
v -77 -57 0
v -76 -57 0
v -77 -58 0
v -78 -58 0
v -78 -57 0
v -77 -57 0
v -80 -58 0
v -81 -58 0
v -81 -57 0
v -80 -57 0
v -81 -58 0
v -82 -58 0
v -82 -57 0
v -81 -57 0
v -76 -59 0
v -77 -59 0
v -77 -58 0
v -76 -58 0
v -77 -59 0
v -78 -59 0
v -78 -58 0
v -77 -58 0
v -80 -59 0
v -81 -59 0
v -81 -58 0
v -80 -58 0
v -81 -59 0
v -82 -59 0
v -82 -58 0
v -81 -58 0
v -76 -60 0
v -77 -60 0
v -77 -59 0
v -76 -59 0
v -77 -60 0
v -78 -60 0
v -78 -59 0
v -77 -59 0
v -80 -60 0
v -81 -60 0
v -81 -59 0
v -80 -59 0
v -81 -60 0
v -82 -60 0
v -82 -59 0
v -81 -59 0

# Texture cooridinates (Count = 89)
vt 0 0.375
vt 0.03125 0.375
vt 0.03125 0.40625
vt 0 0.40625
vt 0.0625 0.375
vt 0.0625 0.40625
vt 0.71875 0.875
vt 0.75 0.875
vt 0.75 0.90625
vt 0.71875 0.90625
vt 0.78125 0.875
vt 0.78125 0.90625
vt 0 0.34375
vt 0.03125 0.34375
vt 0.0625 0.34375
vt 0.0625 0.96875
vt 0.09375 0.96875
vt 0.09375 1
vt 0.0625 1
vt 0.15625 0.96875
vt 0.1875 0.96875
vt 0.1875 1
vt 0.15625 1
vt 0.0625 0.3125
vt 0.09375 0.3125
vt 0.09375 0.34375
vt 0.125 0.3125
vt 0.125 0.34375
vt 0.71875 0.84375
vt 0.75 0.84375
vt 0.78125 0.84375
vt 0 0.3125
vt 0.03125 0.3125
vt 0.0625 0.9375
vt 0.09375 0.9375
vt 0.15625 0.9375
vt 0.1875 0.9375
vt 0.0625 0.28125
vt 0.09375 0.28125
vt 0.125 0.28125
vt 0 0.28125
vt 0.03125 0.28125
vt 0 0.71875
vt 0.03125 0.71875
vt 0.03125 0.75
vt 0 0.75
vt 0.0625 0.71875
vt 0.0625 0.75
vt 0 0.6875
vt 0.03125 0.6875
vt 0.0625 0.6875
vt 0.09375 0.4375
vt 0.125 0.4375
vt 0.125 0.46875
vt 0.09375 0.46875
vt 0.0625 0.4375
vt 0.0625 0.46875
vt 0 0.65625
vt 0.03125 0.65625
vt 0.0625 0.65625
vt 0.0625 0.8125
vt 0.09375 0.8125
vt 0.09375 0.84375
vt 0.0625 0.84375
vt 0.125 0.8125
vt 0.125 0.84375
vt 0.0625 0.78125
vt 0.09375 0.78125
vt 0.125 0.78125
vt 0.09375 0.75
vt 0.125 0.75
vt 0.4375 0.84375
vt 0.46875 0.84375
vt 0.46875 0.875
vt 0.4375 0.875
vt 0.5 0.84375
vt 0.5 0.875
vt 0.53125 0.84375
vt 0.53125 0.875
vt 0.5625 0.84375
vt 0.5625 0.875
vt 0.59375 0.84375
vt 0.59375 0.875
vt 0 0.8125
vt 0.03125 0.8125
vt 0.03125 0.84375
vt 0 0.84375
vt 0 0.78125
vt 0.03125 0.78125

# Normal
vn 0 0 -1

# Mesh description
g escape_mesh_0007

# Faces
f 1/1/1 2/2/1 3/3/1 4/4/1
f 5/2/1 6/5/1 7/6/1 8/3/1
f 9/1/1 10/2/1 11/3/1 12/4/1
f 13/2/1 14/5/1 15/6/1 16/3/1
f 17/1/1 18/2/1 19/3/1 20/4/1
f 21/2/1 22/5/1 23/6/1 24/3/1
f 25/7/1 26/8/1 27/9/1 28/10/1
f 29/8/1 30/11/1 31/12/1 32/9/1
f 33/13/1 34/14/1 35/2/1 36/1/1
f 37/14/1 38/15/1 39/5/1 40/2/1
f 41/7/1 42/8/1 43/9/1 44/10/1
f 45/8/1 46/11/1 47/12/1 48/9/1
f 49/13/1 50/14/1 51/2/1 52/1/1
f 53/14/1 54/15/1 55/5/1 56/2/1
f 57/7/1 58/8/1 59/9/1 60/10/1
f 61/8/1 62/11/1 63/12/1 64/9/1
f 65/13/1 66/14/1 67/2/1 68/1/1
f 69/14/1 70/15/1 71/5/1 72/2/1
f 73/16/1 74/17/1 75/18/1 76/19/1
f 77/20/1 78/21/1 79/22/1 80/23/1
f 81/24/1 82/25/1 83/26/1 84/15/1
f 85/25/1 86/27/1 87/28/1 88/26/1
f 89/29/1 90/30/1 91/8/1 92/7/1
f 93/30/1 94/31/1 95/11/1 96/8/1
f 97/32/1 98/33/1 99/14/1 100/13/1
f 101/33/1 102/24/1 103/15/1 104/14/1
f 105/29/1 106/30/1 107/8/1 108/7/1
f 109/30/1 110/31/1 111/11/1 112/8/1
f 113/32/1 114/33/1 115/14/1 116/13/1
f 117/33/1 118/24/1 119/15/1 120/14/1
f 121/29/1 122/30/1 123/8/1 124/7/1
f 125/30/1 126/31/1 127/11/1 128/8/1
f 129/32/1 130/33/1 131/14/1 132/13/1
f 133/33/1 134/24/1 135/15/1 136/14/1
f 137/34/1 138/35/1 139/17/1 140/16/1
f 141/36/1 142/37/1 143/21/1 144/20/1
f 145/38/1 146/39/1 147/25/1 148/24/1
f 149/39/1 150/40/1 151/27/1 152/25/1
f 153/41/1 154/42/1 155/33/1 156/32/1
f 157/42/1 158/38/1 159/24/1 160/33/1
f 161/41/1 162/42/1 163/33/1 164/32/1
f 165/42/1 166/38/1 167/24/1 168/33/1
f 169/41/1 170/42/1 171/33/1 172/32/1
f 173/42/1 174/38/1 175/24/1 176/33/1
f 177/43/1 178/44/1 179/45/1 180/46/1
f 181/44/1 182/47/1 183/48/1 184/45/1
f 185/49/1 186/50/1 187/44/1 188/43/1
f 189/50/1 190/51/1 191/47/1 192/44/1
f 193/52/1 194/53/1 195/54/1 196/55/1
f 197/52/1 198/53/1 199/54/1 200/55/1
f 201/56/1 202/52/1 203/55/1 204/57/1
f 205/56/1 206/52/1 207/55/1 208/57/1
f 209/56/1 210/52/1 211/55/1 212/57/1
f 213/56/1 214/52/1 215/55/1 216/57/1
f 217/56/1 218/52/1 219/55/1 220/57/1
f 221/56/1 222/52/1 223/55/1 224/57/1
f 225/56/1 226/52/1 227/55/1 228/57/1
f 229/56/1 230/52/1 231/55/1 232/57/1
f 233/56/1 234/52/1 235/55/1 236/57/1
f 237/56/1 238/52/1 239/55/1 240/57/1
f 241/56/1 242/52/1 243/55/1 244/57/1
f 245/56/1 246/52/1 247/55/1 248/57/1
f 249/56/1 250/52/1 251/55/1 252/57/1
f 253/56/1 254/52/1 255/55/1 256/57/1
f 257/56/1 258/52/1 259/55/1 260/57/1
f 261/56/1 262/52/1 263/55/1 264/57/1
f 265/58/1 266/59/1 267/50/1 268/49/1
f 269/59/1 270/60/1 271/51/1 272/50/1
f 273/43/1 274/44/1 275/45/1 276/46/1
f 277/44/1 278/47/1 279/48/1 280/45/1
f 281/49/1 282/50/1 283/44/1 284/43/1
f 285/50/1 286/51/1 287/47/1 288/44/1
f 289/58/1 290/59/1 291/50/1 292/49/1
f 293/59/1 294/60/1 295/51/1 296/50/1
f 297/61/1 298/62/1 299/63/1 300/64/1
f 301/62/1 302/65/1 303/66/1 304/63/1
f 305/16/1 306/17/1 307/18/1 308/19/1
f 309/20/1 310/21/1 311/22/1 312/23/1
f 313/67/1 314/68/1 315/62/1 316/61/1
f 317/68/1 318/69/1 319/65/1 320/62/1
f 321/34/1 322/35/1 323/17/1 324/16/1
f 325/36/1 326/37/1 327/21/1 328/20/1
f 329/48/1 330/70/1 331/68/1 332/67/1
f 333/70/1 334/71/1 335/69/1 336/68/1
f 337/72/1 338/73/1 339/74/1 340/75/1
f 341/73/1 342/76/1 343/77/1 344/74/1
f 345/72/1 346/73/1 347/74/1 348/75/1
f 349/73/1 350/76/1 351/77/1 352/74/1
f 353/76/1 354/78/1 355/79/1 356/77/1
f 357/80/1 358/81/1 359/79/1 360/78/1
f 361/82/1 362/83/1 363/81/1 364/80/1
f 365/82/1 366/83/1 367/81/1 368/80/1
f 369/78/1 370/79/1 371/81/1 372/80/1
f 373/84/1 374/85/1 375/86/1 376/87/1
f 377/85/1 378/61/1 379/64/1 380/86/1
f 381/61/1 382/62/1 383/63/1 384/64/1
f 385/62/1 386/65/1 387/66/1 388/63/1
f 389/88/1 390/89/1 391/85/1 392/84/1
f 393/89/1 394/67/1 395/61/1 396/85/1
f 397/67/1 398/68/1 399/62/1 400/61/1
f 401/68/1 402/69/1 403/65/1 404/62/1
f 405/46/1 406/45/1 407/89/1 408/88/1
f 409/45/1 410/48/1 411/67/1 412/89/1
f 413/48/1 414/70/1 415/68/1 416/67/1
f 417/70/1 418/71/1 419/69/1 420/68/1

