# Tiled2Unity generated file. Do not modify by hand.
# Wavefront file for '1_mesh_0006.obj'

# Vertices (Count = 776)
v 0 -38 0
v -1 -38 0
v -1 -37 0
v 0 -37 0
v -1 -38 0
v -2 -38 0
v -2 -37 0
v -1 -37 0
v -2 -38 0
v -3 -38 0
v -3 -37 0
v -2 -37 0
v -3 -38 0
v -4 -38 0
v -4 -37 0
v -3 -37 0
v -4 -38 0
v -5 -38 0
v -5 -37 0
v -4 -37 0
v -5 -38 0
v -6 -38 0
v -6 -37 0
v -5 -37 0
v -6 -38 0
v -7 -38 0
v -7 -37 0
v -6 -37 0
v -7 -38 0
v -8 -38 0
v -8 -37 0
v -7 -37 0
v -8 -38 0
v -9 -38 0
v -9 -37 0
v -8 -37 0
v -9 -38 0
v -10 -38 0
v -10 -37 0
v -9 -37 0
v -10 -38 0
v -11 -38 0
v -11 -37 0
v -10 -37 0
v -11 -38 0
v -12 -38 0
v -12 -37 0
v -11 -37 0
v -12 -38 0
v -13 -38 0
v -13 -37 0
v -12 -37 0
v -13 -38 0
v -14 -38 0
v -14 -37 0
v -13 -37 0
v -14 -38 0
v -15 -38 0
v -15 -37 0
v -14 -37 0
v -15 -38 0
v -16 -38 0
v -16 -37 0
v -15 -37 0
v -16 -38 0
v -17 -38 0
v -17 -37 0
v -16 -37 0
v -17 -38 0
v -18 -38 0
v -18 -37 0
v -17 -37 0
v -18 -38 0
v -19 -38 0
v -19 -37 0
v -18 -37 0
v -19 -38 0
v -20 -38 0
v -20 -37 0
v -19 -37 0
v -20 -38 0
v -21 -38 0
v -21 -37 0
v -20 -37 0
v -21 -38 0
v -22 -38 0
v -22 -37 0
v -21 -37 0
v -22 -38 0
v -23 -38 0
v -23 -37 0
v -22 -37 0
v -23 -38 0
v -24 -38 0
v -24 -37 0
v -23 -37 0
v -24 -38 0
v -25 -38 0
v -25 -37 0
v -24 -37 0
v -25 -38 0
v -26 -38 0
v -26 -37 0
v -25 -37 0
v -26 -38 0
v -27 -38 0
v -27 -37 0
v -26 -37 0
v -27 -38 0
v -28 -38 0
v -28 -37 0
v -27 -37 0
v -28 -38 0
v -29 -38 0
v -29 -37 0
v -28 -37 0
v -29 -38 0
v -30 -38 0
v -30 -37 0
v -29 -37 0
v -30 -38 0
v -31 -38 0
v -31 -37 0
v -30 -37 0
v -31 -38 0
v -32 -38 0
v -32 -37 0
v -31 -37 0
v -32 -38 0
v -33 -38 0
v -33 -37 0
v -32 -37 0
v -33 -38 0
v -34 -38 0
v -34 -37 0
v -33 -37 0
v -34 -38 0
v -35 -38 0
v -35 -37 0
v -34 -37 0
v -35 -38 0
v -36 -38 0
v -36 -37 0
v -35 -37 0
v -36 -38 0
v -37 -38 0
v -37 -37 0
v -36 -37 0
v -37 -38 0
v -38 -38 0
v -38 -37 0
v -37 -37 0
v -38 -38 0
v -39 -38 0
v -39 -37 0
v -38 -37 0
v -39 -38 0
v -40 -38 0
v -40 -37 0
v -39 -37 0
v -40 -38 0
v -41 -38 0
v -41 -37 0
v -40 -37 0
v -41 -38 0
v -42 -38 0
v -42 -37 0
v -41 -37 0
v -42 -38 0
v -43 -38 0
v -43 -37 0
v -42 -37 0
v -43 -38 0
v -44 -38 0
v -44 -37 0
v -43 -37 0
v -44 -38 0
v -45 -38 0
v -45 -37 0
v -44 -37 0
v -45 -38 0
v -46 -38 0
v -46 -37 0
v -45 -37 0
v -46 -38 0
v -47 -38 0
v -47 -37 0
v -46 -37 0
v -47 -38 0
v -48 -38 0
v -48 -37 0
v -47 -37 0
v 0 -39 0
v -1 -39 0
v -1 -38 0
v 0 -38 0
v -1 -39 0
v -2 -39 0
v -2 -38 0
v -1 -38 0
v -2 -39 0
v -3 -39 0
v -3 -38 0
v -2 -38 0
v -3 -39 0
v -4 -39 0
v -4 -38 0
v -3 -38 0
v -4 -39 0
v -5 -39 0
v -5 -38 0
v -4 -38 0
v -5 -39 0
v -6 -39 0
v -6 -38 0
v -5 -38 0
v -6 -39 0
v -7 -39 0
v -7 -38 0
v -6 -38 0
v -7 -39 0
v -8 -39 0
v -8 -38 0
v -7 -38 0
v -8 -39 0
v -9 -39 0
v -9 -38 0
v -8 -38 0
v -9 -39 0
v -10 -39 0
v -10 -38 0
v -9 -38 0
v -10 -39 0
v -11 -39 0
v -11 -38 0
v -10 -38 0
v -11 -39 0
v -12 -39 0
v -12 -38 0
v -11 -38 0
v -12 -39 0
v -13 -39 0
v -13 -38 0
v -12 -38 0
v -13 -39 0
v -14 -39 0
v -14 -38 0
v -13 -38 0
v -14 -39 0
v -15 -39 0
v -15 -38 0
v -14 -38 0
v -15 -39 0
v -16 -39 0
v -16 -38 0
v -15 -38 0
v -16 -39 0
v -17 -39 0
v -17 -38 0
v -16 -38 0
v -17 -39 0
v -18 -39 0
v -18 -38 0
v -17 -38 0
v -18 -39 0
v -19 -39 0
v -19 -38 0
v -18 -38 0
v -19 -39 0
v -20 -39 0
v -20 -38 0
v -19 -38 0
v -20 -39 0
v -21 -39 0
v -21 -38 0
v -20 -38 0
v -21 -39 0
v -22 -39 0
v -22 -38 0
v -21 -38 0
v -22 -39 0
v -23 -39 0
v -23 -38 0
v -22 -38 0
v -23 -39 0
v -24 -39 0
v -24 -38 0
v -23 -38 0
v -24 -39 0
v -25 -39 0
v -25 -38 0
v -24 -38 0
v -25 -39 0
v -26 -39 0
v -26 -38 0
v -25 -38 0
v -26 -39 0
v -27 -39 0
v -27 -38 0
v -26 -38 0
v -27 -39 0
v -28 -39 0
v -28 -38 0
v -27 -38 0
v -28 -39 0
v -29 -39 0
v -29 -38 0
v -28 -38 0
v -29 -39 0
v -30 -39 0
v -30 -38 0
v -29 -38 0
v -30 -39 0
v -31 -39 0
v -31 -38 0
v -30 -38 0
v -31 -39 0
v -32 -39 0
v -32 -38 0
v -31 -38 0
v -32 -39 0
v -33 -39 0
v -33 -38 0
v -32 -38 0
v -33 -39 0
v -34 -39 0
v -34 -38 0
v -33 -38 0
v -34 -39 0
v -35 -39 0
v -35 -38 0
v -34 -38 0
v -35 -39 0
v -36 -39 0
v -36 -38 0
v -35 -38 0
v -36 -39 0
v -37 -39 0
v -37 -38 0
v -36 -38 0
v -37 -39 0
v -38 -39 0
v -38 -38 0
v -37 -38 0
v -38 -39 0
v -39 -39 0
v -39 -38 0
v -38 -38 0
v -39 -39 0
v -40 -39 0
v -40 -38 0
v -39 -38 0
v -40 -39 0
v -41 -39 0
v -41 -38 0
v -40 -38 0
v -41 -39 0
v -42 -39 0
v -42 -38 0
v -41 -38 0
v -42 -39 0
v -43 -39 0
v -43 -38 0
v -42 -38 0
v -43 -39 0
v -44 -39 0
v -44 -38 0
v -43 -38 0
v -44 -39 0
v -45 -39 0
v -45 -38 0
v -44 -38 0
v -45 -39 0
v -46 -39 0
v -46 -38 0
v -45 -38 0
v -46 -39 0
v -47 -39 0
v -47 -38 0
v -46 -38 0
v -47 -39 0
v -48 -39 0
v -48 -38 0
v -47 -38 0
v 0 -40 0
v -1 -40 0
v -1 -39 0
v 0 -39 0
v -1 -40 0
v -2 -40 0
v -2 -39 0
v -1 -39 0
v -2 -40 0
v -3 -40 0
v -3 -39 0
v -2 -39 0
v -3 -40 0
v -4 -40 0
v -4 -39 0
v -3 -39 0
v -4 -40 0
v -5 -40 0
v -5 -39 0
v -4 -39 0
v -5 -40 0
v -6 -40 0
v -6 -39 0
v -5 -39 0
v -6 -40 0
v -7 -40 0
v -7 -39 0
v -6 -39 0
v -7 -40 0
v -8 -40 0
v -8 -39 0
v -7 -39 0
v -8 -40 0
v -9 -40 0
v -9 -39 0
v -8 -39 0
v -9 -40 0
v -10 -40 0
v -10 -39 0
v -9 -39 0
v -10 -40 0
v -11 -40 0
v -11 -39 0
v -10 -39 0
v -11 -40 0
v -12 -40 0
v -12 -39 0
v -11 -39 0
v -12 -40 0
v -13 -40 0
v -13 -39 0
v -12 -39 0
v -13 -40 0
v -14 -40 0
v -14 -39 0
v -13 -39 0
v -14 -40 0
v -15 -40 0
v -15 -39 0
v -14 -39 0
v -15 -40 0
v -16 -40 0
v -16 -39 0
v -15 -39 0
v -16 -40 0
v -17 -40 0
v -17 -39 0
v -16 -39 0
v -17 -40 0
v -18 -40 0
v -18 -39 0
v -17 -39 0
v -18 -40 0
v -19 -40 0
v -19 -39 0
v -18 -39 0
v -19 -40 0
v -20 -40 0
v -20 -39 0
v -19 -39 0
v -20 -40 0
v -21 -40 0
v -21 -39 0
v -20 -39 0
v -21 -40 0
v -22 -40 0
v -22 -39 0
v -21 -39 0
v -22 -40 0
v -23 -40 0
v -23 -39 0
v -22 -39 0
v -23 -40 0
v -24 -40 0
v -24 -39 0
v -23 -39 0
v -24 -40 0
v -25 -40 0
v -25 -39 0
v -24 -39 0
v -25 -40 0
v -26 -40 0
v -26 -39 0
v -25 -39 0
v -26 -40 0
v -27 -40 0
v -27 -39 0
v -26 -39 0
v -27 -40 0
v -28 -40 0
v -28 -39 0
v -27 -39 0
v -28 -40 0
v -29 -40 0
v -29 -39 0
v -28 -39 0
v -29 -40 0
v -30 -40 0
v -30 -39 0
v -29 -39 0
v -30 -40 0
v -31 -40 0
v -31 -39 0
v -30 -39 0
v -31 -40 0
v -32 -40 0
v -32 -39 0
v -31 -39 0
v -32 -40 0
v -33 -40 0
v -33 -39 0
v -32 -39 0
v -33 -40 0
v -34 -40 0
v -34 -39 0
v -33 -39 0
v -34 -40 0
v -35 -40 0
v -35 -39 0
v -34 -39 0
v -35 -40 0
v -36 -40 0
v -36 -39 0
v -35 -39 0
v -36 -40 0
v -37 -40 0
v -37 -39 0
v -36 -39 0
v -37 -40 0
v -38 -40 0
v -38 -39 0
v -37 -39 0
v -38 -40 0
v -39 -40 0
v -39 -39 0
v -38 -39 0
v -39 -40 0
v -40 -40 0
v -40 -39 0
v -39 -39 0
v -40 -40 0
v -41 -40 0
v -41 -39 0
v -40 -39 0
v -41 -40 0
v -42 -40 0
v -42 -39 0
v -41 -39 0
v -42 -40 0
v -43 -40 0
v -43 -39 0
v -42 -39 0
v -43 -40 0
v -44 -40 0
v -44 -39 0
v -43 -39 0
v -44 -40 0
v -45 -40 0
v -45 -39 0
v -44 -39 0
v -45 -40 0
v -46 -40 0
v -46 -39 0
v -45 -39 0
v -46 -40 0
v -47 -40 0
v -47 -39 0
v -46 -39 0
v -47 -40 0
v -48 -40 0
v -48 -39 0
v -47 -39 0
v 0 -41 0
v -1 -41 0
v -1 -40 0
v 0 -40 0
v -1 -41 0
v -2 -41 0
v -2 -40 0
v -1 -40 0
v -2 -41 0
v -3 -41 0
v -3 -40 0
v -2 -40 0
v -3 -41 0
v -4 -41 0
v -4 -40 0
v -3 -40 0
v -4 -41 0
v -5 -41 0
v -5 -40 0
v -4 -40 0
v -5 -41 0
v -6 -41 0
v -6 -40 0
v -5 -40 0
v -6 -41 0
v -7 -41 0
v -7 -40 0
v -6 -40 0
v -7 -41 0
v -8 -41 0
v -8 -40 0
v -7 -40 0
v -8 -41 0
v -9 -41 0
v -9 -40 0
v -8 -40 0
v -9 -41 0
v -10 -41 0
v -10 -40 0
v -9 -40 0
v -10 -41 0
v -11 -41 0
v -11 -40 0
v -10 -40 0
v -11 -41 0
v -12 -41 0
v -12 -40 0
v -11 -40 0
v -12 -41 0
v -13 -41 0
v -13 -40 0
v -12 -40 0
v -13 -41 0
v -14 -41 0
v -14 -40 0
v -13 -40 0
v -14 -41 0
v -15 -41 0
v -15 -40 0
v -14 -40 0
v -15 -41 0
v -16 -41 0
v -16 -40 0
v -15 -40 0
v -16 -41 0
v -17 -41 0
v -17 -40 0
v -16 -40 0
v -17 -41 0
v -18 -41 0
v -18 -40 0
v -17 -40 0
v -18 -41 0
v -19 -41 0
v -19 -40 0
v -18 -40 0
v -19 -41 0
v -20 -41 0
v -20 -40 0
v -19 -40 0
v -20 -41 0
v -21 -41 0
v -21 -40 0
v -20 -40 0
v -21 -41 0
v -22 -41 0
v -22 -40 0
v -21 -40 0
v -22 -41 0
v -23 -41 0
v -23 -40 0
v -22 -40 0
v -23 -41 0
v -24 -41 0
v -24 -40 0
v -23 -40 0
v -24 -41 0
v -25 -41 0
v -25 -40 0
v -24 -40 0
v -25 -41 0
v -26 -41 0
v -26 -40 0
v -25 -40 0
v -26 -41 0
v -27 -41 0
v -27 -40 0
v -26 -40 0
v -27 -41 0
v -28 -41 0
v -28 -40 0
v -27 -40 0
v -28 -41 0
v -29 -41 0
v -29 -40 0
v -28 -40 0
v -29 -41 0
v -30 -41 0
v -30 -40 0
v -29 -40 0
v -30 -41 0
v -31 -41 0
v -31 -40 0
v -30 -40 0
v -31 -41 0
v -32 -41 0
v -32 -40 0
v -31 -40 0
v -32 -41 0
v -33 -41 0
v -33 -40 0
v -32 -40 0
v -33 -41 0
v -34 -41 0
v -34 -40 0
v -33 -40 0
v -34 -41 0
v -35 -41 0
v -35 -40 0
v -34 -40 0
v -35 -41 0
v -36 -41 0
v -36 -40 0
v -35 -40 0
v -36 -41 0
v -37 -41 0
v -37 -40 0
v -36 -40 0
v -37 -41 0
v -38 -41 0
v -38 -40 0
v -37 -40 0
v -38 -41 0
v -39 -41 0
v -39 -40 0
v -38 -40 0
v -39 -41 0
v -40 -41 0
v -40 -40 0
v -39 -40 0
v -40 -41 0
v -41 -41 0
v -41 -40 0
v -40 -40 0
v -41 -41 0
v -42 -41 0
v -42 -40 0
v -41 -40 0
v -42 -41 0
v -43 -41 0
v -43 -40 0
v -42 -40 0
v -43 -41 0
v -44 -41 0
v -44 -40 0
v -43 -40 0
v -44 -41 0
v -45 -41 0
v -45 -40 0
v -44 -40 0
v -45 -41 0
v -46 -41 0
v -46 -40 0
v -45 -40 0
v -46 -41 0
v -47 -41 0
v -47 -40 0
v -46 -40 0
v -47 -41 0
v -48 -41 0
v -48 -40 0
v -47 -40 0
v -6 -55 0
v -7 -55 0
v -7 -54 0
v -6 -54 0
v -3 -57 0
v -4 -57 0
v -4 -56 0
v -3 -56 0

# Texture cooridinates (Count = 14)
vt 0.90625 0.84375
vt 0.9375 0.84375
vt 0.9375 0.875
vt 0.90625 0.875
vt 0.90625 0.8125
vt 0.9375 0.8125
vt 0.90625 0.78125
vt 0.9375 0.78125
vt 0.90625 0.75
vt 0.9375 0.75
vt 0.6875 0.84375
vt 0.71875 0.84375
vt 0.71875 0.875
vt 0.6875 0.875

# Normal
vn 0 0 -1

# Mesh description
g 1_mesh_0006

# Faces
f 1/1/1 2/2/1 3/3/1 4/4/1
f 5/1/1 6/2/1 7/3/1 8/4/1
f 9/1/1 10/2/1 11/3/1 12/4/1
f 13/1/1 14/2/1 15/3/1 16/4/1
f 17/1/1 18/2/1 19/3/1 20/4/1
f 21/1/1 22/2/1 23/3/1 24/4/1
f 25/1/1 26/2/1 27/3/1 28/4/1
f 29/1/1 30/2/1 31/3/1 32/4/1
f 33/1/1 34/2/1 35/3/1 36/4/1
f 37/1/1 38/2/1 39/3/1 40/4/1
f 41/1/1 42/2/1 43/3/1 44/4/1
f 45/1/1 46/2/1 47/3/1 48/4/1
f 49/1/1 50/2/1 51/3/1 52/4/1
f 53/1/1 54/2/1 55/3/1 56/4/1
f 57/1/1 58/2/1 59/3/1 60/4/1
f 61/1/1 62/2/1 63/3/1 64/4/1
f 65/1/1 66/2/1 67/3/1 68/4/1
f 69/1/1 70/2/1 71/3/1 72/4/1
f 73/1/1 74/2/1 75/3/1 76/4/1
f 77/1/1 78/2/1 79/3/1 80/4/1
f 81/1/1 82/2/1 83/3/1 84/4/1
f 85/1/1 86/2/1 87/3/1 88/4/1
f 89/1/1 90/2/1 91/3/1 92/4/1
f 93/1/1 94/2/1 95/3/1 96/4/1
f 97/1/1 98/2/1 99/3/1 100/4/1
f 101/1/1 102/2/1 103/3/1 104/4/1
f 105/1/1 106/2/1 107/3/1 108/4/1
f 109/1/1 110/2/1 111/3/1 112/4/1
f 113/1/1 114/2/1 115/3/1 116/4/1
f 117/1/1 118/2/1 119/3/1 120/4/1
f 121/1/1 122/2/1 123/3/1 124/4/1
f 125/1/1 126/2/1 127/3/1 128/4/1
f 129/1/1 130/2/1 131/3/1 132/4/1
f 133/1/1 134/2/1 135/3/1 136/4/1
f 137/1/1 138/2/1 139/3/1 140/4/1
f 141/1/1 142/2/1 143/3/1 144/4/1
f 145/1/1 146/2/1 147/3/1 148/4/1
f 149/1/1 150/2/1 151/3/1 152/4/1
f 153/1/1 154/2/1 155/3/1 156/4/1
f 157/1/1 158/2/1 159/3/1 160/4/1
f 161/1/1 162/2/1 163/3/1 164/4/1
f 165/1/1 166/2/1 167/3/1 168/4/1
f 169/1/1 170/2/1 171/3/1 172/4/1
f 173/1/1 174/2/1 175/3/1 176/4/1
f 177/1/1 178/2/1 179/3/1 180/4/1
f 181/1/1 182/2/1 183/3/1 184/4/1
f 185/1/1 186/2/1 187/3/1 188/4/1
f 189/1/1 190/2/1 191/3/1 192/4/1
f 193/5/1 194/6/1 195/2/1 196/1/1
f 197/5/1 198/6/1 199/2/1 200/1/1
f 201/5/1 202/6/1 203/2/1 204/1/1
f 205/5/1 206/6/1 207/2/1 208/1/1
f 209/5/1 210/6/1 211/2/1 212/1/1
f 213/5/1 214/6/1 215/2/1 216/1/1
f 217/5/1 218/6/1 219/2/1 220/1/1
f 221/5/1 222/6/1 223/2/1 224/1/1
f 225/5/1 226/6/1 227/2/1 228/1/1
f 229/5/1 230/6/1 231/2/1 232/1/1
f 233/5/1 234/6/1 235/2/1 236/1/1
f 237/5/1 238/6/1 239/2/1 240/1/1
f 241/5/1 242/6/1 243/2/1 244/1/1
f 245/5/1 246/6/1 247/2/1 248/1/1
f 249/5/1 250/6/1 251/2/1 252/1/1
f 253/5/1 254/6/1 255/2/1 256/1/1
f 257/5/1 258/6/1 259/2/1 260/1/1
f 261/5/1 262/6/1 263/2/1 264/1/1
f 265/5/1 266/6/1 267/2/1 268/1/1
f 269/5/1 270/6/1 271/2/1 272/1/1
f 273/5/1 274/6/1 275/2/1 276/1/1
f 277/5/1 278/6/1 279/2/1 280/1/1
f 281/5/1 282/6/1 283/2/1 284/1/1
f 285/5/1 286/6/1 287/2/1 288/1/1
f 289/5/1 290/6/1 291/2/1 292/1/1
f 293/5/1 294/6/1 295/2/1 296/1/1
f 297/5/1 298/6/1 299/2/1 300/1/1
f 301/5/1 302/6/1 303/2/1 304/1/1
f 305/5/1 306/6/1 307/2/1 308/1/1
f 309/5/1 310/6/1 311/2/1 312/1/1
f 313/5/1 314/6/1 315/2/1 316/1/1
f 317/5/1 318/6/1 319/2/1 320/1/1
f 321/5/1 322/6/1 323/2/1 324/1/1
f 325/5/1 326/6/1 327/2/1 328/1/1
f 329/5/1 330/6/1 331/2/1 332/1/1
f 333/5/1 334/6/1 335/2/1 336/1/1
f 337/5/1 338/6/1 339/2/1 340/1/1
f 341/5/1 342/6/1 343/2/1 344/1/1
f 345/5/1 346/6/1 347/2/1 348/1/1
f 349/5/1 350/6/1 351/2/1 352/1/1
f 353/5/1 354/6/1 355/2/1 356/1/1
f 357/5/1 358/6/1 359/2/1 360/1/1
f 361/5/1 362/6/1 363/2/1 364/1/1
f 365/5/1 366/6/1 367/2/1 368/1/1
f 369/5/1 370/6/1 371/2/1 372/1/1
f 373/5/1 374/6/1 375/2/1 376/1/1
f 377/5/1 378/6/1 379/2/1 380/1/1
f 381/5/1 382/6/1 383/2/1 384/1/1
f 385/7/1 386/8/1 387/6/1 388/5/1
f 389/7/1 390/8/1 391/6/1 392/5/1
f 393/7/1 394/8/1 395/6/1 396/5/1
f 397/7/1 398/8/1 399/6/1 400/5/1
f 401/7/1 402/8/1 403/6/1 404/5/1
f 405/7/1 406/8/1 407/6/1 408/5/1
f 409/7/1 410/8/1 411/6/1 412/5/1
f 413/7/1 414/8/1 415/6/1 416/5/1
f 417/7/1 418/8/1 419/6/1 420/5/1
f 421/7/1 422/8/1 423/6/1 424/5/1
f 425/7/1 426/8/1 427/6/1 428/5/1
f 429/7/1 430/8/1 431/6/1 432/5/1
f 433/7/1 434/8/1 435/6/1 436/5/1
f 437/7/1 438/8/1 439/6/1 440/5/1
f 441/7/1 442/8/1 443/6/1 444/5/1
f 445/7/1 446/8/1 447/6/1 448/5/1
f 449/7/1 450/8/1 451/6/1 452/5/1
f 453/7/1 454/8/1 455/6/1 456/5/1
f 457/7/1 458/8/1 459/6/1 460/5/1
f 461/7/1 462/8/1 463/6/1 464/5/1
f 465/7/1 466/8/1 467/6/1 468/5/1
f 469/7/1 470/8/1 471/6/1 472/5/1
f 473/7/1 474/8/1 475/6/1 476/5/1
f 477/7/1 478/8/1 479/6/1 480/5/1
f 481/7/1 482/8/1 483/6/1 484/5/1
f 485/7/1 486/8/1 487/6/1 488/5/1
f 489/7/1 490/8/1 491/6/1 492/5/1
f 493/7/1 494/8/1 495/6/1 496/5/1
f 497/7/1 498/8/1 499/6/1 500/5/1
f 501/7/1 502/8/1 503/6/1 504/5/1
f 505/7/1 506/8/1 507/6/1 508/5/1
f 509/7/1 510/8/1 511/6/1 512/5/1
f 513/7/1 514/8/1 515/6/1 516/5/1
f 517/7/1 518/8/1 519/6/1 520/5/1
f 521/7/1 522/8/1 523/6/1 524/5/1
f 525/7/1 526/8/1 527/6/1 528/5/1
f 529/7/1 530/8/1 531/6/1 532/5/1
f 533/7/1 534/8/1 535/6/1 536/5/1
f 537/7/1 538/8/1 539/6/1 540/5/1
f 541/7/1 542/8/1 543/6/1 544/5/1
f 545/7/1 546/8/1 547/6/1 548/5/1
f 549/7/1 550/8/1 551/6/1 552/5/1
f 553/7/1 554/8/1 555/6/1 556/5/1
f 557/7/1 558/8/1 559/6/1 560/5/1
f 561/7/1 562/8/1 563/6/1 564/5/1
f 565/7/1 566/8/1 567/6/1 568/5/1
f 569/7/1 570/8/1 571/6/1 572/5/1
f 573/7/1 574/8/1 575/6/1 576/5/1
f 577/9/1 578/10/1 579/8/1 580/7/1
f 581/9/1 582/10/1 583/8/1 584/7/1
f 585/9/1 586/10/1 587/8/1 588/7/1
f 589/9/1 590/10/1 591/8/1 592/7/1
f 593/9/1 594/10/1 595/8/1 596/7/1
f 597/9/1 598/10/1 599/8/1 600/7/1
f 601/9/1 602/10/1 603/8/1 604/7/1
f 605/9/1 606/10/1 607/8/1 608/7/1
f 609/9/1 610/10/1 611/8/1 612/7/1
f 613/9/1 614/10/1 615/8/1 616/7/1
f 617/9/1 618/10/1 619/8/1 620/7/1
f 621/9/1 622/10/1 623/8/1 624/7/1
f 625/9/1 626/10/1 627/8/1 628/7/1
f 629/9/1 630/10/1 631/8/1 632/7/1
f 633/9/1 634/10/1 635/8/1 636/7/1
f 637/9/1 638/10/1 639/8/1 640/7/1
f 641/9/1 642/10/1 643/8/1 644/7/1
f 645/9/1 646/10/1 647/8/1 648/7/1
f 649/9/1 650/10/1 651/8/1 652/7/1
f 653/9/1 654/10/1 655/8/1 656/7/1
f 657/9/1 658/10/1 659/8/1 660/7/1
f 661/9/1 662/10/1 663/8/1 664/7/1
f 665/9/1 666/10/1 667/8/1 668/7/1
f 669/9/1 670/10/1 671/8/1 672/7/1
f 673/9/1 674/10/1 675/8/1 676/7/1
f 677/9/1 678/10/1 679/8/1 680/7/1
f 681/9/1 682/10/1 683/8/1 684/7/1
f 685/9/1 686/10/1 687/8/1 688/7/1
f 689/9/1 690/10/1 691/8/1 692/7/1
f 693/9/1 694/10/1 695/8/1 696/7/1
f 697/9/1 698/10/1 699/8/1 700/7/1
f 701/9/1 702/10/1 703/8/1 704/7/1
f 705/9/1 706/10/1 707/8/1 708/7/1
f 709/9/1 710/10/1 711/8/1 712/7/1
f 713/9/1 714/10/1 715/8/1 716/7/1
f 717/9/1 718/10/1 719/8/1 720/7/1
f 721/9/1 722/10/1 723/8/1 724/7/1
f 725/9/1 726/10/1 727/8/1 728/7/1
f 729/9/1 730/10/1 731/8/1 732/7/1
f 733/9/1 734/10/1 735/8/1 736/7/1
f 737/9/1 738/10/1 739/8/1 740/7/1
f 741/9/1 742/10/1 743/8/1 744/7/1
f 745/9/1 746/10/1 747/8/1 748/7/1
f 749/9/1 750/10/1 751/8/1 752/7/1
f 753/9/1 754/10/1 755/8/1 756/7/1
f 757/9/1 758/10/1 759/8/1 760/7/1
f 761/9/1 762/10/1 763/8/1 764/7/1
f 765/9/1 766/10/1 767/8/1 768/7/1
f 769/11/1 770/12/1 771/13/1 772/14/1
f 773/13/1 774/14/1 775/11/1 776/12/1

