# Tiled2Unity generated file. Do not modify by hand.
# Wavefront file for '1_mesh_0007.obj'

# Vertices (Count = 88)
v -9 -19 0
v -10 -19 0
v -10 -18 0
v -9 -18 0
v -10 -19 0
v -11 -19 0
v -11 -18 0
v -10 -18 0
v -37 -22 0
v -38 -22 0
v -38 -21 0
v -37 -21 0
v -9 -23 0
v -10 -23 0
v -10 -22 0
v -9 -22 0
v -10 -23 0
v -11 -23 0
v -11 -22 0
v -10 -22 0
v -37 -23 0
v -38 -23 0
v -38 -22 0
v -37 -22 0
v -9 -24 0
v -10 -24 0
v -10 -23 0
v -9 -23 0
v -10 -24 0
v -11 -24 0
v -11 -23 0
v -10 -23 0
v -9 -25 0
v -10 -25 0
v -10 -24 0
v -9 -24 0
v -10 -25 0
v -11 -25 0
v -11 -24 0
v -10 -24 0
v -1 -55 0
v -2 -55 0
v -2 -54 0
v -1 -54 0
v -2 -55 0
v -3 -55 0
v -3 -54 0
v -2 -54 0
v -8 -55 0
v -9 -55 0
v -9 -54 0
v -8 -54 0
v -9 -55 0
v -10 -55 0
v -10 -54 0
v -9 -54 0
v -1 -56 0
v -2 -56 0
v -2 -55 0
v -1 -55 0
v -2 -56 0
v -3 -56 0
v -3 -55 0
v -2 -55 0
v -8 -56 0
v -9 -56 0
v -9 -55 0
v -8 -55 0
v -9 -56 0
v -10 -56 0
v -10 -55 0
v -9 -55 0
v -1 -57 0
v -2 -57 0
v -2 -56 0
v -1 -56 0
v -2 -57 0
v -3 -57 0
v -3 -56 0
v -2 -56 0
v -8 -57 0
v -9 -57 0
v -9 -56 0
v -8 -56 0
v -9 -57 0
v -10 -57 0
v -10 -56 0
v -9 -56 0

# Texture cooridinates (Count = 40)
vt 0.3125 1
vt 0.3125 0.96875
vt 0.34375 0.96875
vt 0.34375 1
vt 0.3125 0.9375
vt 0.34375 0.9375
vt 0.125 0.8125
vt 0.15625 0.8125
vt 0.15625 0.84375
vt 0.125 0.84375
vt 0.1875 0.8125
vt 0.1875 0.84375
vt 0.125 0.78125
vt 0.15625 0.78125
vt 0.1875 0.78125
vt 0.125 0.75
vt 0.15625 0.75
vt 0.1875 0.75
vt 0.25 0.8125
vt 0.28125 0.8125
vt 0.28125 0.84375
vt 0.25 0.84375
vt 0.3125 0.8125
vt 0.3125 0.84375
vt 0.1875 0.71875
vt 0.21875 0.71875
vt 0.21875 0.75
vt 0.25 0.71875
vt 0.25 0.75
vt 0.25 0.78125
vt 0.28125 0.78125
vt 0.3125 0.78125
vt 0.1875 0.6875
vt 0.21875 0.6875
vt 0.25 0.6875
vt 0.28125 0.75
vt 0.3125 0.75
vt 0.1875 0.65625
vt 0.21875 0.65625
vt 0.25 0.65625

# Normal
vn 0 0 -1

# Mesh description
g 1_mesh_0007

# Faces
f 1/1/1 2/2/1 3/3/1 4/4/1
f 5/2/1 6/5/1 7/6/1 8/3/1
f 9/2/1 10/3/1 11/4/1 12/1/1
f 13/7/1 14/8/1 15/9/1 16/10/1
f 17/8/1 18/11/1 19/12/1 20/9/1
f 21/5/1 22/6/1 23/3/1 24/2/1
f 25/13/1 26/14/1 27/8/1 28/7/1
f 29/14/1 30/15/1 31/11/1 32/8/1
f 33/16/1 34/17/1 35/14/1 36/13/1
f 37/17/1 38/18/1 39/15/1 40/14/1
f 41/19/1 42/20/1 43/21/1 44/22/1
f 45/20/1 46/23/1 47/24/1 48/21/1
f 49/25/1 50/26/1 51/27/1 52/18/1
f 53/26/1 54/28/1 55/29/1 56/27/1
f 57/30/1 58/31/1 59/20/1 60/19/1
f 61/31/1 62/32/1 63/23/1 64/20/1
f 65/33/1 66/34/1 67/26/1 68/25/1
f 69/34/1 70/35/1 71/28/1 72/26/1
f 73/29/1 74/36/1 75/31/1 76/30/1
f 77/36/1 78/37/1 79/32/1 80/31/1
f 81/38/1 82/39/1 83/34/1 84/33/1
f 85/39/1 86/40/1 87/35/1 88/34/1

