# Tiled2Unity generated file. Do not modify by hand.
# Wavefront file for 'layer_warehouse_mesh_0003.obj'

# Vertices (Count = 144)
v -35 -27 0
v -36 -27 0
v -36 -26 0
v -35 -26 0
v -35 -28 0
v -36 -28 0
v -36 -27 0
v -35 -27 0
v -35 -29 0
v -36 -29 0
v -36 -28 0
v -35 -28 0
v -35 -30 0
v -36 -30 0
v -36 -29 0
v -35 -29 0
v -35 -31 0
v -36 -31 0
v -36 -30 0
v -35 -30 0
v -35 -32 0
v -36 -32 0
v -36 -31 0
v -35 -31 0
v -34 -38 0
v -35 -38 0
v -35 -37 0
v -34 -37 0
v -35 -38 0
v -36 -38 0
v -36 -37 0
v -35 -37 0
v -42 -38 0
v -43 -38 0
v -43 -37 0
v -42 -37 0
v -43 -38 0
v -44 -38 0
v -44 -37 0
v -43 -37 0
v -34 -39 0
v -35 -39 0
v -35 -38 0
v -34 -38 0
v -35 -39 0
v -36 -39 0
v -36 -38 0
v -35 -38 0
v -42 -39 0
v -43 -39 0
v -43 -38 0
v -42 -38 0
v -43 -39 0
v -44 -39 0
v -44 -38 0
v -43 -38 0
v -34 -40 0
v -35 -40 0
v -35 -39 0
v -34 -39 0
v -35 -40 0
v -36 -40 0
v -36 -39 0
v -35 -39 0
v -42 -40 0
v -43 -40 0
v -43 -39 0
v -42 -39 0
v -43 -40 0
v -44 -40 0
v -44 -39 0
v -43 -39 0
v -21 -42 0
v -22 -42 0
v -22 -41 0
v -21 -41 0
v -22 -42 0
v -23 -42 0
v -23 -41 0
v -22 -41 0
v -38 -42 0
v -39 -42 0
v -39 -41 0
v -38 -41 0
v -39 -42 0
v -40 -42 0
v -40 -41 0
v -39 -41 0
v -21 -43 0
v -22 -43 0
v -22 -42 0
v -21 -42 0
v -22 -43 0
v -23 -43 0
v -23 -42 0
v -22 -42 0
v -23 -43 0
v -24 -43 0
v -24 -42 0
v -23 -42 0
v -38 -43 0
v -39 -43 0
v -39 -42 0
v -38 -42 0
v -39 -43 0
v -40 -43 0
v -40 -42 0
v -39 -42 0
v -44 -43 0
v -45 -43 0
v -45 -42 0
v -44 -42 0
v -45 -43 0
v -46 -43 0
v -46 -42 0
v -45 -42 0
v -21 -44 0
v -22 -44 0
v -22 -43 0
v -21 -43 0
v -22 -44 0
v -23 -44 0
v -23 -43 0
v -22 -43 0
v -38 -44 0
v -39 -44 0
v -39 -43 0
v -38 -43 0
v -39 -44 0
v -40 -44 0
v -40 -43 0
v -39 -43 0
v -45 -44 0
v -46 -44 0
v -46 -43 0
v -45 -43 0
v -44 -45 0
v -45 -45 0
v -45 -44 0
v -44 -44 0
v -45 -45 0
v -46 -45 0
v -46 -44 0
v -45 -44 0

# Texture cooridinates (Count = 52)
vt 0.09375 0.4375
vt 0.09375 0.46875
vt 0.0625 0.46875
vt 0.0625 0.4375
vt 0 0.8125
vt 0.03125 0.8125
vt 0.03125 0.84375
vt 0 0.84375
vt 0.0625 0.8125
vt 0.0625 0.84375
vt 0 0.78125
vt 0.03125 0.78125
vt 0.0625 0.78125
vt 0 0.75
vt 0.03125 0.75
vt 0.0625 0.75
vt 0.1875 0.8125
vt 0.21875 0.8125
vt 0.21875 0.84375
vt 0.1875 0.84375
vt 0.25 0.8125
vt 0.25 0.84375
vt 0.125 0.8125
vt 0.15625 0.8125
vt 0.15625 0.84375
vt 0.125 0.84375
vt 0.1875 0.78125
vt 0.21875 0.78125
vt 0.25 0.78125
vt 0.71875 0.875
vt 0.6875 0.875
vt 0.6875 0.84375
vt 0.71875 0.84375
vt 0.125 0.78125
vt 0.15625 0.78125
vt 0.125 0.25
vt 0.15625 0.25
vt 0.15625 0.28125
vt 0.125 0.28125
vt 0.1875 0.25
vt 0.1875 0.28125
vt 0.1875 0.75
vt 0.21875 0.75
vt 0.25 0.75
vt 0.125 0.75
vt 0.15625 0.75
vt 0.15625 0.21875
vt 0.1875 0.21875
vt 0.125 0.1875
vt 0.15625 0.1875
vt 0.125 0.21875
vt 0.1875 0.1875

# Normal
vn 0 0 -1

# Mesh description
g layer_warehouse_mesh_0003

# Faces
f 1/1/1 2/2/1 3/3/1 4/4/1
f 5/1/1 6/2/1 7/3/1 8/4/1
f 9/1/1 10/2/1 11/3/1 12/4/1
f 13/1/1 14/2/1 15/3/1 16/4/1
f 17/1/1 18/2/1 19/3/1 20/4/1
f 21/1/1 22/2/1 23/3/1 24/4/1
f 25/5/1 26/6/1 27/7/1 28/8/1
f 29/6/1 30/9/1 31/10/1 32/7/1
f 33/5/1 34/6/1 35/7/1 36/8/1
f 37/6/1 38/9/1 39/10/1 40/7/1
f 41/11/1 42/12/1 43/6/1 44/5/1
f 45/12/1 46/13/1 47/9/1 48/6/1
f 49/11/1 50/12/1 51/6/1 52/5/1
f 53/12/1 54/13/1 55/9/1 56/6/1
f 57/14/1 58/15/1 59/12/1 60/11/1
f 61/15/1 62/16/1 63/13/1 64/12/1
f 65/14/1 66/15/1 67/12/1 68/11/1
f 69/15/1 70/16/1 71/13/1 72/12/1
f 73/17/1 74/18/1 75/19/1 76/20/1
f 77/18/1 78/21/1 79/22/1 80/19/1
f 81/23/1 82/24/1 83/25/1 84/26/1
f 85/24/1 86/17/1 87/20/1 88/25/1
f 89/27/1 90/28/1 91/18/1 92/17/1
f 93/28/1 94/29/1 95/21/1 96/18/1
f 97/30/1 98/31/1 99/32/1 100/33/1
f 101/34/1 102/35/1 103/24/1 104/23/1
f 105/35/1 106/27/1 107/17/1 108/24/1
f 109/36/1 110/37/1 111/38/1 112/39/1
f 113/37/1 114/40/1 115/41/1 116/38/1
f 117/42/1 118/43/1 119/28/1 120/27/1
f 121/43/1 122/44/1 123/29/1 124/28/1
f 125/45/1 126/46/1 127/35/1 128/34/1
f 129/46/1 130/42/1 131/27/1 132/35/1
f 133/47/1 134/48/1 135/40/1 136/37/1
f 137/49/1 138/50/1 139/47/1 140/51/1
f 141/50/1 142/52/1 143/48/1 144/47/1

