# Tiled2Unity generated file. Do not modify by hand.
# Wavefront file for 'alert_lab_mesh_0002.obj'

# Vertices (Count = 620)
v -23 -3 0
v -24 -3 0
v -24 -2 0
v -23 -2 0
v -24 -3 0
v -25 -3 0
v -25 -2 0
v -24 -2 0
v -25 -3 0
v -26 -3 0
v -26 -2 0
v -25 -2 0
v -26 -3 0
v -27 -3 0
v -27 -2 0
v -26 -2 0
v -27 -3 0
v -28 -3 0
v -28 -2 0
v -27 -2 0
v -28 -3 0
v -29 -3 0
v -29 -2 0
v -28 -2 0
v -29 -3 0
v -30 -3 0
v -30 -2 0
v -29 -2 0
v -30 -3 0
v -31 -3 0
v -31 -2 0
v -30 -2 0
v -31 -3 0
v -32 -3 0
v -32 -2 0
v -31 -2 0
v -32 -3 0
v -33 -3 0
v -33 -2 0
v -32 -2 0
v -33 -3 0
v -34 -3 0
v -34 -2 0
v -33 -2 0
v -34 -3 0
v -35 -3 0
v -35 -2 0
v -34 -2 0
v -35 -3 0
v -36 -3 0
v -36 -2 0
v -35 -2 0
v -36 -3 0
v -37 -3 0
v -37 -2 0
v -36 -2 0
v -37 -3 0
v -38 -3 0
v -38 -2 0
v -37 -2 0
v -38 -3 0
v -39 -3 0
v -39 -2 0
v -38 -2 0
v -39 -3 0
v -40 -3 0
v -40 -2 0
v -39 -2 0
v -40 -3 0
v -41 -3 0
v -41 -2 0
v -40 -2 0
v -41 -3 0
v -42 -3 0
v -42 -2 0
v -41 -2 0
v -42 -3 0
v -43 -3 0
v -43 -2 0
v -42 -2 0
v -43 -3 0
v -44 -3 0
v -44 -2 0
v -43 -2 0
v -44 -3 0
v -45 -3 0
v -45 -2 0
v -44 -2 0
v -45 -3 0
v -46 -3 0
v -46 -2 0
v -45 -2 0
v -46 -3 0
v -47 -3 0
v -47 -2 0
v -46 -2 0
v -47 -3 0
v -48 -3 0
v -48 -2 0
v -47 -2 0
v -48 -3 0
v -49 -3 0
v -49 -2 0
v -48 -2 0
v -49 -3 0
v -50 -3 0
v -50 -2 0
v -49 -2 0
v -50 -3 0
v -51 -3 0
v -51 -2 0
v -50 -2 0
v -51 -3 0
v -52 -3 0
v -52 -2 0
v -51 -2 0
v -52 -3 0
v -53 -3 0
v -53 -2 0
v -52 -2 0
v -53 -3 0
v -54 -3 0
v -54 -2 0
v -53 -2 0
v -23 -4 0
v -24 -4 0
v -24 -3 0
v -23 -3 0
v -51 -4 0
v -52 -4 0
v -52 -3 0
v -51 -3 0
v -53 -4 0
v -54 -4 0
v -54 -3 0
v -53 -3 0
v -23 -5 0
v -24 -5 0
v -24 -4 0
v -23 -4 0
v -53 -5 0
v -54 -5 0
v -54 -4 0
v -53 -4 0
v -23 -6 0
v -24 -6 0
v -24 -5 0
v -23 -5 0
v -24 -6 0
v -25 -6 0
v -25 -5 0
v -24 -5 0
v -47 -6 0
v -48 -6 0
v -48 -5 0
v -47 -5 0
v -53 -6 0
v -54 -6 0
v -54 -5 0
v -53 -5 0
v -23 -7 0
v -24 -7 0
v -24 -6 0
v -23 -6 0
v -53 -7 0
v -54 -7 0
v -54 -6 0
v -53 -6 0
v -23 -8 0
v -24 -8 0
v -24 -7 0
v -23 -7 0
v -53 -8 0
v -54 -8 0
v -54 -7 0
v -53 -7 0
v 0 -9 0
v -1 -9 0
v -1 -8 0
v 0 -8 0
v -1 -9 0
v -2 -9 0
v -2 -8 0
v -1 -8 0
v -2 -9 0
v -3 -9 0
v -3 -8 0
v -2 -8 0
v -3 -9 0
v -4 -9 0
v -4 -8 0
v -3 -8 0
v -4 -9 0
v -5 -9 0
v -5 -8 0
v -4 -8 0
v -5 -9 0
v -6 -9 0
v -6 -8 0
v -5 -8 0
v -23 -9 0
v -24 -9 0
v -24 -8 0
v -23 -8 0
v -53 -9 0
v -54 -9 0
v -54 -8 0
v -53 -8 0
v -5 -10 0
v -6 -10 0
v -6 -9 0
v -5 -9 0
v -16 -10 0
v -17 -10 0
v -17 -9 0
v -16 -9 0
v -17 -10 0
v -18 -10 0
v -18 -9 0
v -17 -9 0
v -23 -10 0
v -24 -10 0
v -24 -9 0
v -23 -9 0
v -53 -10 0
v -54 -10 0
v -54 -9 0
v -53 -9 0
v -5 -11 0
v -6 -11 0
v -6 -10 0
v -5 -10 0
v -23 -11 0
v -24 -11 0
v -24 -10 0
v -23 -10 0
v -53 -11 0
v -54 -11 0
v -54 -10 0
v -53 -10 0
v -5 -12 0
v -6 -12 0
v -6 -11 0
v -5 -11 0
v -23 -12 0
v -24 -12 0
v -24 -11 0
v -23 -11 0
v -53 -12 0
v -54 -12 0
v -54 -11 0
v -53 -11 0
v -5 -13 0
v -6 -13 0
v -6 -12 0
v -5 -12 0
v -23 -13 0
v -24 -13 0
v -24 -12 0
v -23 -12 0
v -53 -13 0
v -54 -13 0
v -54 -12 0
v -53 -12 0
v -5 -14 0
v -6 -14 0
v -6 -13 0
v -5 -13 0
v -16 -14 0
v -17 -14 0
v -17 -13 0
v -16 -13 0
v -17 -14 0
v -18 -14 0
v -18 -13 0
v -17 -13 0
v -23 -14 0
v -24 -14 0
v -24 -13 0
v -23 -13 0
v -53 -14 0
v -54 -14 0
v -54 -13 0
v -53 -13 0
v 0 -15 0
v -1 -15 0
v -1 -14 0
v 0 -14 0
v -1 -15 0
v -2 -15 0
v -2 -14 0
v -1 -14 0
v -2 -15 0
v -3 -15 0
v -3 -14 0
v -2 -14 0
v -3 -15 0
v -4 -15 0
v -4 -14 0
v -3 -14 0
v -4 -15 0
v -5 -15 0
v -5 -14 0
v -4 -14 0
v -5 -15 0
v -6 -15 0
v -6 -14 0
v -5 -14 0
v -23 -15 0
v -24 -15 0
v -24 -14 0
v -23 -14 0
v -24 -15 0
v -25 -15 0
v -25 -14 0
v -24 -14 0
v -25 -15 0
v -26 -15 0
v -26 -14 0
v -25 -14 0
v -26 -15 0
v -27 -15 0
v -27 -14 0
v -26 -14 0
v -27 -15 0
v -28 -15 0
v -28 -14 0
v -27 -14 0
v -28 -15 0
v -29 -15 0
v -29 -14 0
v -28 -14 0
v -29 -15 0
v -30 -15 0
v -30 -14 0
v -29 -14 0
v -30 -15 0
v -31 -15 0
v -31 -14 0
v -30 -14 0
v -31 -15 0
v -32 -15 0
v -32 -14 0
v -31 -14 0
v -32 -15 0
v -33 -15 0
v -33 -14 0
v -32 -14 0
v -33 -15 0
v -34 -15 0
v -34 -14 0
v -33 -14 0
v -41 -15 0
v -42 -15 0
v -42 -14 0
v -41 -14 0
v -42 -15 0
v -43 -15 0
v -43 -14 0
v -42 -14 0
v -43 -15 0
v -44 -15 0
v -44 -14 0
v -43 -14 0
v -44 -15 0
v -45 -15 0
v -45 -14 0
v -44 -14 0
v -45 -15 0
v -46 -15 0
v -46 -14 0
v -45 -14 0
v -46 -15 0
v -47 -15 0
v -47 -14 0
v -46 -14 0
v -50 -15 0
v -51 -15 0
v -51 -14 0
v -50 -14 0
v -51 -15 0
v -52 -15 0
v -52 -14 0
v -51 -14 0
v -52 -15 0
v -53 -15 0
v -53 -14 0
v -52 -14 0
v -53 -15 0
v -54 -15 0
v -54 -14 0
v -53 -14 0
v -26 -17 0
v -27 -17 0
v -27 -16 0
v -26 -16 0
v -34 -17 0
v -35 -17 0
v -35 -16 0
v -34 -16 0
v -26 -18 0
v -27 -18 0
v -27 -17 0
v -26 -17 0
v -34 -18 0
v -35 -18 0
v -35 -17 0
v -34 -17 0
v -26 -19 0
v -27 -19 0
v -27 -18 0
v -26 -18 0
v -27 -19 0
v -28 -19 0
v -28 -18 0
v -27 -18 0
v -32 -19 0
v -33 -19 0
v -33 -18 0
v -32 -18 0
v -26 -20 0
v -27 -20 0
v -27 -19 0
v -26 -19 0
v -27 -20 0
v -28 -20 0
v -28 -19 0
v -27 -19 0
v -32 -20 0
v -33 -20 0
v -33 -19 0
v -32 -19 0
v -26 -21 0
v -27 -21 0
v -27 -20 0
v -26 -20 0
v -26 -22 0
v -27 -22 0
v -27 -21 0
v -26 -21 0
v -34 -22 0
v -35 -22 0
v -35 -21 0
v -34 -21 0
v -26 -23 0
v -27 -23 0
v -27 -22 0
v -26 -22 0
v -34 -23 0
v -35 -23 0
v -35 -22 0
v -34 -22 0
v -21 -24 0
v -22 -24 0
v -22 -23 0
v -21 -23 0
v -23 -24 0
v -24 -24 0
v -24 -23 0
v -23 -23 0
v -26 -24 0
v -27 -24 0
v -27 -23 0
v -26 -23 0
v -34 -24 0
v -35 -24 0
v -35 -23 0
v -34 -23 0
v -17 -25 0
v -18 -25 0
v -18 -24 0
v -17 -24 0
v -23 -25 0
v -24 -25 0
v -24 -24 0
v -23 -24 0
v -26 -25 0
v -27 -25 0
v -27 -24 0
v -26 -24 0
v -34 -25 0
v -35 -25 0
v -35 -24 0
v -34 -24 0
v -23 -26 0
v -24 -26 0
v -24 -25 0
v -23 -25 0
v -26 -26 0
v -27 -26 0
v -27 -25 0
v -26 -25 0
v -23 -27 0
v -24 -27 0
v -24 -26 0
v -23 -26 0
v -26 -27 0
v -27 -27 0
v -27 -26 0
v -26 -26 0
v -23 -28 0
v -24 -28 0
v -24 -27 0
v -23 -27 0
v -26 -28 0
v -27 -28 0
v -27 -27 0
v -26 -27 0
v -23 -29 0
v -24 -29 0
v -24 -28 0
v -23 -28 0
v -26 -29 0
v -27 -29 0
v -27 -28 0
v -26 -28 0
v -14 -30 0
v -15 -30 0
v -15 -29 0
v -14 -29 0
v -15 -30 0
v -16 -30 0
v -16 -29 0
v -15 -29 0
v -16 -30 0
v -17 -30 0
v -17 -29 0
v -16 -29 0
v -17 -30 0
v -18 -30 0
v -18 -29 0
v -17 -29 0
v -18 -30 0
v -19 -30 0
v -19 -29 0
v -18 -29 0
v -19 -30 0
v -20 -30 0
v -20 -29 0
v -19 -29 0
v -20 -30 0
v -21 -30 0
v -21 -29 0
v -20 -29 0
v -21 -30 0
v -22 -30 0
v -22 -29 0
v -21 -29 0
v -22 -30 0
v -23 -30 0
v -23 -29 0
v -22 -29 0
v -23 -30 0
v -24 -30 0
v -24 -29 0
v -23 -29 0
v -26 -30 0
v -27 -30 0
v -27 -29 0
v -26 -29 0
v -34 -30 0
v -35 -30 0
v -35 -29 0
v -34 -29 0
v -26 -31 0
v -27 -31 0
v -27 -30 0
v -26 -30 0
v -34 -31 0
v -35 -31 0
v -35 -30 0
v -34 -30 0
v -8 -32 0
v -9 -32 0
v -9 -31 0
v -8 -31 0
v -9 -32 0
v -10 -32 0
v -10 -31 0
v -9 -31 0
v -34 -32 0
v -35 -32 0
v -35 -31 0
v -34 -31 0
v -34 -33 0
v -35 -33 0
v -35 -32 0
v -34 -32 0
v -34 -34 0
v -35 -34 0
v -35 -33 0
v -34 -33 0
v -8 -35 0
v -9 -35 0
v -9 -34 0
v -8 -34 0
v -9 -35 0
v -10 -35 0
v -10 -34 0
v -9 -34 0
v -34 -35 0
v -35 -35 0
v -35 -34 0
v -34 -34 0
v -29 -36 0
v -30 -36 0
v -30 -35 0
v -29 -35 0
v -30 -36 0
v -31 -36 0
v -31 -35 0
v -30 -35 0
v -41 -40 0
v -42 -40 0
v -42 -39 0
v -41 -39 0
v -41 -41 0
v -42 -41 0
v -42 -40 0
v -41 -40 0

# Texture cooridinates (Count = 23)
vt 0.4375 0.90625
vt 0.46875 0.90625
vt 0.46875 0.9375
vt 0.4375 0.9375
vt 0.40625 0.9375
vt 0.40625 0.90625
vt 0.6875 0.84375
vt 0.71875 0.84375
vt 0.71875 0.875
vt 0.6875 0.875
vt 0.40625 0.875
vt 0.4375 0.875
vt 0.46875 0.875
vt 0.65625 0.875
vt 0.65625 0.84375
vt 0.625 0.84375
vt 0.625 0.875
vt 0.59375 0.875
vt 0.59375 0.84375
vt 0.5 0.875
vt 0.5 0.90625
vt 0.53125 0.875
vt 0.53125 0.90625

# Normal
vn 0 0 -1

# Mesh description
g alert_lab_mesh_0002

# Faces
f 1/1/1 2/2/1 3/3/1 4/4/1
f 5/1/1 6/4/1 7/5/1 8/6/1
f 9/1/1 10/4/1 11/5/1 12/6/1
f 13/1/1 14/4/1 15/5/1 16/6/1
f 17/1/1 18/4/1 19/5/1 20/6/1
f 21/1/1 22/4/1 23/5/1 24/6/1
f 25/1/1 26/4/1 27/5/1 28/6/1
f 29/1/1 30/4/1 31/5/1 32/6/1
f 33/1/1 34/4/1 35/5/1 36/6/1
f 37/1/1 38/4/1 39/5/1 40/6/1
f 41/1/1 42/4/1 43/5/1 44/6/1
f 45/1/1 46/4/1 47/5/1 48/6/1
f 49/1/1 50/4/1 51/5/1 52/6/1
f 53/1/1 54/4/1 55/5/1 56/6/1
f 57/1/1 58/4/1 59/5/1 60/6/1
f 61/1/1 62/4/1 63/5/1 64/6/1
f 65/1/1 66/4/1 67/5/1 68/6/1
f 69/1/1 70/4/1 71/5/1 72/6/1
f 73/1/1 74/4/1 75/5/1 76/6/1
f 77/1/1 78/4/1 79/5/1 80/6/1
f 81/1/1 82/4/1 83/5/1 84/6/1
f 85/1/1 86/4/1 87/5/1 88/6/1
f 89/1/1 90/4/1 91/5/1 92/6/1
f 93/1/1 94/4/1 95/5/1 96/6/1
f 97/1/1 98/4/1 99/5/1 100/6/1
f 101/1/1 102/4/1 103/5/1 104/6/1
f 105/1/1 106/4/1 107/5/1 108/6/1
f 109/1/1 110/4/1 111/5/1 112/6/1
f 113/1/1 114/4/1 115/5/1 116/6/1
f 117/1/1 118/4/1 119/5/1 120/6/1
f 121/2/1 122/3/1 123/4/1 124/1/1
f 125/6/1 126/1/1 127/4/1 128/5/1
f 129/7/1 130/8/1 131/9/1 132/10/1
f 133/4/1 134/5/1 135/6/1 136/1/1
f 137/6/1 138/1/1 139/4/1 140/5/1
f 141/4/1 142/5/1 143/6/1 144/1/1
f 145/6/1 146/1/1 147/4/1 148/5/1
f 149/7/1 150/8/1 151/9/1 152/10/1
f 153/7/1 154/8/1 155/9/1 156/10/1
f 157/4/1 158/5/1 159/6/1 160/1/1
f 161/6/1 162/1/1 163/4/1 164/5/1
f 165/4/1 166/5/1 167/6/1 168/1/1
f 169/6/1 170/1/1 171/4/1 172/5/1
f 173/4/1 174/5/1 175/6/1 176/1/1
f 177/1/1 178/4/1 179/5/1 180/6/1
f 181/1/1 182/4/1 183/5/1 184/6/1
f 185/1/1 186/4/1 187/5/1 188/6/1
f 189/1/1 190/4/1 191/5/1 192/6/1
f 193/1/1 194/4/1 195/5/1 196/6/1
f 197/2/1 198/3/1 199/4/1 200/1/1
f 201/6/1 202/1/1 203/4/1 204/5/1
f 205/4/1 206/5/1 207/6/1 208/1/1
f 209/4/1 210/5/1 211/6/1 212/1/1
f 213/11/1 214/12/1 215/1/1 216/6/1
f 217/12/1 218/13/1 219/2/1 220/1/1
f 221/6/1 222/1/1 223/4/1 224/5/1
f 225/4/1 226/5/1 227/6/1 228/1/1
f 229/4/1 230/5/1 231/6/1 232/1/1
f 233/6/1 234/1/1 235/4/1 236/5/1
f 237/4/1 238/5/1 239/6/1 240/1/1
f 241/4/1 242/5/1 243/6/1 244/1/1
f 245/6/1 246/1/1 247/4/1 248/5/1
f 249/4/1 250/5/1 251/6/1 252/1/1
f 253/4/1 254/5/1 255/6/1 256/1/1
f 257/6/1 258/1/1 259/4/1 260/5/1
f 261/4/1 262/5/1 263/6/1 264/1/1
f 265/4/1 266/5/1 267/6/1 268/1/1
f 269/11/1 270/12/1 271/1/1 272/6/1
f 273/12/1 274/13/1 275/2/1 276/1/1
f 277/6/1 278/1/1 279/4/1 280/5/1
f 281/4/1 282/5/1 283/6/1 284/1/1
f 285/5/1 286/6/1 287/1/1 288/4/1
f 289/5/1 290/6/1 291/1/1 292/4/1
f 293/5/1 294/6/1 295/1/1 296/4/1
f 297/5/1 298/6/1 299/1/1 300/4/1
f 301/5/1 302/6/1 303/1/1 304/4/1
f 305/3/1 306/4/1 307/1/1 308/2/1
f 309/4/1 310/1/1 311/2/1 312/3/1
f 313/5/1 314/6/1 315/1/1 316/4/1
f 317/5/1 318/6/1 319/1/1 320/4/1
f 321/5/1 322/6/1 323/1/1 324/4/1
f 325/5/1 326/6/1 327/1/1 328/4/1
f 329/5/1 330/6/1 331/1/1 332/4/1
f 333/5/1 334/6/1 335/1/1 336/4/1
f 337/5/1 338/6/1 339/1/1 340/4/1
f 341/5/1 342/6/1 343/1/1 344/4/1
f 345/5/1 346/6/1 347/1/1 348/4/1
f 349/5/1 350/6/1 351/1/1 352/4/1
f 353/5/1 354/6/1 355/1/1 356/4/1
f 357/5/1 358/6/1 359/1/1 360/4/1
f 361/5/1 362/6/1 363/1/1 364/4/1
f 365/5/1 366/6/1 367/1/1 368/4/1
f 369/5/1 370/6/1 371/1/1 372/4/1
f 373/5/1 374/6/1 375/1/1 376/4/1
f 377/5/1 378/6/1 379/1/1 380/4/1
f 381/5/1 382/6/1 383/1/1 384/4/1
f 385/5/1 386/6/1 387/1/1 388/4/1
f 389/3/1 390/4/1 391/1/1 392/2/1
f 393/14/1 394/15/1 395/7/1 396/10/1
f 397/16/1 398/17/1 399/18/1 400/19/1
f 401/17/1 402/16/1 403/15/1 404/14/1
f 405/7/1 406/10/1 407/14/1 408/15/1
f 409/17/1 410/16/1 411/15/1 412/14/1
f 413/1/1 414/12/1 415/13/1 416/2/1
f 417/1/1 418/12/1 419/13/1 420/2/1
f 421/17/1 422/16/1 423/15/1 424/14/1
f 425/6/1 426/11/1 427/12/1 428/1/1
f 429/6/1 430/11/1 431/12/1 432/1/1
f 433/17/1 434/16/1 435/15/1 436/14/1
f 437/17/1 438/16/1 439/15/1 440/14/1
f 441/16/1 442/17/1 443/18/1 444/19/1
f 445/17/1 446/16/1 447/15/1 448/14/1
f 449/15/1 450/14/1 451/17/1 452/16/1
f 453/9/1 454/10/1 455/7/1 456/8/1
f 457/4/1 458/5/1 459/6/1 460/1/1
f 461/17/1 462/16/1 463/15/1 464/14/1
f 465/15/1 466/14/1 467/17/1 468/16/1
f 469/7/1 470/8/1 471/9/1 472/10/1
f 473/4/1 474/5/1 475/6/1 476/1/1
f 477/17/1 478/16/1 479/15/1 480/14/1
f 481/7/1 482/10/1 483/14/1 484/15/1
f 485/4/1 486/5/1 487/6/1 488/1/1
f 489/17/1 490/16/1 491/15/1 492/14/1
f 493/4/1 494/5/1 495/6/1 496/1/1
f 497/17/1 498/16/1 499/15/1 500/14/1
f 501/4/1 502/5/1 503/6/1 504/1/1
f 505/17/1 506/16/1 507/15/1 508/14/1
f 509/4/1 510/5/1 511/6/1 512/1/1
f 513/17/1 514/16/1 515/15/1 516/14/1
f 517/5/1 518/6/1 519/1/1 520/4/1
f 521/5/1 522/6/1 523/1/1 524/4/1
f 525/5/1 526/6/1 527/1/1 528/4/1
f 529/5/1 530/6/1 531/1/1 532/4/1
f 533/5/1 534/6/1 535/1/1 536/4/1
f 537/5/1 538/6/1 539/1/1 540/4/1
f 541/5/1 542/6/1 543/1/1 544/4/1
f 545/5/1 546/6/1 547/1/1 548/4/1
f 549/5/1 550/6/1 551/1/1 552/4/1
f 553/3/1 554/4/1 555/1/1 556/2/1
f 557/17/1 558/16/1 559/15/1 560/14/1
f 561/16/1 562/17/1 563/18/1 564/19/1
f 565/18/1 566/19/1 567/16/1 568/17/1
f 569/15/1 570/14/1 571/17/1 572/16/1
f 573/13/1 574/20/1 575/21/1 576/2/1
f 577/20/1 578/22/1 579/23/1 580/21/1
f 581/15/1 582/14/1 583/17/1 584/16/1
f 585/15/1 586/14/1 587/17/1 588/16/1
f 589/15/1 590/14/1 591/17/1 592/16/1
f 593/11/1 594/12/1 595/1/1 596/6/1
f 597/12/1 598/13/1 599/2/1 600/1/1
f 601/7/1 602/10/1 603/14/1 604/15/1
f 605/1/1 606/4/1 607/5/1 608/6/1
f 609/1/1 610/4/1 611/5/1 612/6/1
f 613/4/1 614/5/1 615/6/1 616/1/1
f 617/4/1 618/5/1 619/6/1 620/1/1

